<?xml version="1.0" encoding="UTF-8" standalone="no"?>
<svg
   xmlns:dc="http://purl.org/dc/elements/1.1/"
   xmlns:cc="http://creativecommons.org/ns#"
   xmlns:rdf="http://www.w3.org/1999/02/22-rdf-syntax-ns#"
   xmlns:svg="http://www.w3.org/2000/svg"
   xmlns="http://www.w3.org/2000/svg"
   xmlns:sodipodi="http://sodipodi.sourceforge.net/DTD/sodipodi-0.dtd"
   xmlns:inkscape="http://www.inkscape.org/namespaces/inkscape"
   version="1.1"
   id="svg2"
   xml:space="preserve"
   width="1333.3333"
   height="1066.6667"
   viewBox="0 0 1333.3333 1066.6667"
   sodipodi:docname="LogoEcoApi.svg"
   inkscape:version="1.0.2 (1.0.2+r75+1)"
   inkscape:export-filename="/home/rodrigue/Bureau/Apiculture/logo abeille/LogoEcoApi.png"
   inkscape:export-xdpi="96"
   inkscape:export-ydpi="96"><metadata
     id="metadata8"><rdf:RDF><cc:Work
         rdf:about=""><dc:format>image/svg+xml</dc:format><dc:type
           rdf:resource="http://purl.org/dc/dcmitype/StillImage" /><dc:title /></cc:Work></rdf:RDF></metadata><defs
     id="defs6" /><sodipodi:namedview
     pagecolor="#ffffff"
     bordercolor="#666666"
     borderopacity="1"
     objecttolerance="10"
     gridtolerance="10"
     guidetolerance="10"
     inkscape:pageopacity="0"
     inkscape:pageshadow="2"
     inkscape:window-width="1920"
     inkscape:window-height="989"
     id="namedview4"
     showgrid="false"
     inkscape:snap-text-baseline="true"
     inkscape:zoom="0.62578945"
     inkscape:cx="-113.77556"
     inkscape:cy="566.92851"
     inkscape:window-x="0"
     inkscape:window-y="0"
     inkscape:window-maximized="1"
     inkscape:current-layer="g12"
     inkscape:document-rotation="0" /><g
     id="g10"
     inkscape:groupmode="layer"
     inkscape:label="ink_ext_XXXXXX"
     transform="matrix(1.3333333,0,0,-1.3333333,0,1066.6667)"><g
       id="g12"
       transform="scale(0.1)"><path
         d="m 5266.72,4062.86 v 0 c -2.44,1.31 -4.91,2.57 -7.41,3.78 4.47,-1.71 7.53,-3.1 7.41,-3.78"
         style="fill:#100f0d;fill-opacity:1;fill-rule:nonzero;stroke:none"
         id="path14"
         inkscape:connector-curvature="0" /><path
         d="m 4174.42,2829.88 c 22.2,60.04 33.01,123.41 26.11,186.9 -8.74,80.46 -44.94,155.11 -64.99,233.53 -39.83,155.84 -23.33,322.02 28.19,473.1 49.41,144.91 122.67,259.68 246.38,354.22 97.48,74.49 228.54,147.01 349.9,150.03 32.8,0.81 83.85,8.03 114.92,-3.24 -350.81,115 -552.28,248.12 -765.81,462.5 -105.85,106.27 -195.51,249.7 -239.18,393.2 -43.67,143.5 -26.3,312.46 74.08,423.92 110.52,122.72 289.62,158.82 445.93,150.38 164.3,-8.87 282.41,-50.29 420.37,-140.02 77.05,-50.12 179.71,-134.18 230.94,-210.44 230.4911,-314.8676 281.4216,-663.0543 206.2892,-1022.3508 3.41,18.76 -4.6827,134.4394 -43.5727,231.7994 C 5147.0773,4735.4214 5095.6,4931.04 4864.95,5124.42 c -103.61,86.87 -225.31,168.35 -357.23,204.8 -130.22,36.28 -286.91,27.75 -378.37,-71.79 -79.58,-86.63 -87.37,-222.31 -44.39,-331.81 42.98,-109.51 128.48,-196.83 219.55,-271.28 192.25,-157.17 388.21,-221.64 610.44,-332.42 205.83,-102.62 298.8647,-249.8818 298.8647,-249.8818 -17.42,5.41 -725.5247,175.7118 -911.9347,-336.4782 -51.58,-141.71 -62.96,-302.61 -20.82,-450.8 19.7,-69.26 66.93,-150.26 143.14,-166.44 68.84,-14.61 142.89,11.66 203.79,42.88 153.08,78.47 280.92,202.19 396.67,327.13 144.03,155.46 217.7717,396.2817 174.2017,603.6817 87.46,-56.32 132.2883,-209.3317 112.0983,-311.3717 -36.55,-184.76 -143.01,-349.87 -273.89,-485.31 -130.87,-135.43 -286.12,-244.45 -440.32,-352.58 -246.4,-172.78 -498.98,-403.7 -749.33,-598.33 82.15,85.05 180.85,244.99 249.4,341.34 31.53,44.3 58.69,93.01 77.6,144.12"
         style="fill:#100f0d;fill-opacity:1;fill-rule:nonzero;stroke:none"
         id="path16"
         inkscape:connector-curvature="0"
         sodipodi:nodetypes="ccccccccsccccccccccccccccccccccccc" /><path
         d="m 5856.8,4482.19 c -3.36,-69.78 -92.8,-338.55 -199.44,-242.32 -24.44,22.06 -34.8,54.07 -42.74,84.95 -9.49,36.91 -17.7,91.37 -23.12,132.45 -8.89,67.38 23.63,134.89 84.07,165.97 2.78,1.43 5.58,2.78 8.39,4.03 40.85,18.19 92.23,16.54 126.93,-11.68 37.88,-30.8 48.25,-84.63 45.91,-133.4 z m 202.83,941.73 c -42.92,53.19 -110.76,85.34 -179.1,84.9 -10.95,-18.63 -3.01,-43.47 11.65,-59.35 14.66,-15.88 34.7,-25.44 53,-36.95 96.57,-60.75 144.92,-179.54 147.04,-293.61 2.11,-114.07 -35.45,-225 -78.47,-330.67 -28.74,-70.6 -60.24,-140.56 -84.97,-212.52 -0.24,0.7 -0.49,1.4 -0.73,2.11 0.98,4.35 1.93,8.7 2.85,13.02 54.15,253.03 156.6,602.68 -82.68,798.92 -50.28,41.24 -119.71,58.06 -183.29,44.41 -6.6,-19.48 5.61,-41.08 22.34,-53.04 16.74,-11.95 37.26,-16.97 56.53,-24.15 101.73,-37.9 169.79,-139.21 193.85,-245.07 24.06,-105.87 10.55,-216.49 -9.07,-323.27 -9.1,-49.54 -19.5,-99.05 -28.06,-148.73 -6.8,12.32 -14.13,24.36 -22.28,35.9 -22.08,31.27 -51.25,57.26 -85.6,74.32 -114.16,56.68 -237.41,18.33 -310.27,-71.36 -18.05,-22.22 -33.01,-47.6 -43.97,-75.46 -50.31,-127.86 -44.02,-283.29 -7.5,-413.9 11.57,-41.35 21.97,-83.81 44.59,-120.3 22.62,-36.5 58.88,-67.03 101.53,-72.04 32.31,-3.79 64.52,7.2 94.08,20.79 119.17,54.81 216.83,157.8 258.46,282.19 23.97,71.62 28.3,149.78 13.31,223.68 12.24,18.84 21.9,39.92 30.97,60.47 109.83,248.77 290.03,586.63 85.79,839.71"
         style="fill:#100f0d;fill-opacity:1;fill-rule:nonzero;stroke:none"
         id="path18"
         inkscape:connector-curvature="0" /><path
         d="m 4259.6053,3555.1804 c -6.02,-55.71 -7.3314,-113.1214 -0.4414,-167.3214 93.56,-8.3 271.5976,-67.0685 376.7676,-223.2285 49.79,25.86 97.02,56.3103 141.76,90.2803 -59.59,89.22 -233.3562,260.0596 -518.0862,300.2696"
         style="fill:#100f0d;fill-opacity:1;fill-rule:nonzero;stroke:none"
         id="path20"
         inkscape:connector-curvature="0"
         sodipodi:nodetypes="ccccc" /><path
         d="m 4332.2167,3805.619 c -12.52,-23.27 -21.3142,-42.4637 -31.1442,-69.4837 -10.54,-28.95 -19.822,-63.137 -26.702,-92.787 124.92,-7.27 420.4193,-67.7398 607.5893,-299.4498 41.26,37.81 78.401,73.742 114.631,112.052 -77.46,106.5 -304.0841,321.5185 -664.3741,349.6685"
         style="fill:#100f0d;fill-opacity:1;fill-rule:nonzero;stroke:none"
         id="path22"
         inkscape:connector-curvature="0"
         sodipodi:nodetypes="cccccc" /><path
         d="m 4552.5826,4028.2215 c -57.89,-27.12 -112.1785,-66.3769 -158.6485,-116.4969 149.65,-13.99 499.7744,-90.2271 701.6144,-340.4971 32.25,43.15 58.7903,86.6603 80.5103,130.9303 -87.13,89.15 -331.8962,270.9337 -623.4762,326.0637"
         style="fill:#100f0d;fill-opacity:1;fill-rule:nonzero;stroke:none"
         id="path24"
         inkscape:connector-curvature="0"
         sodipodi:nodetypes="ccccc" /><path
         d="m 5213.8147,4072.0382 c -8.7731,4.0834 -22.455,4.7877 -31.265,12.1277 l -60.864,10.257 c -0.87,0.26 -84.9493,16.0497 -229.6193,16.0497 -23.81,0 -137.1929,-18.4128 -162.2329,-20.1328 116.5686,-24.2325 377.9106,-89.9827 490.7099,-262.829 20.15,71.36 30.7112,165.3116 12.2166,235.8992"
         style="fill:#100f0d;fill-opacity:1;fill-rule:nonzero;stroke:none"
         id="path26"
         inkscape:connector-curvature="0"
         sodipodi:nodetypes="cccsccc" /><g
         style="fill:#100f0d;fill-opacity:1"
         id="g62"
         transform="matrix(-0.41832065,0,0,0.4406638,9250.1653,-917.66842)"><path
           d="m 7928.3749,15631.153 4908.4001,136.6 68,1.9 46.3,-63.7 3037.6,-4175.4 99.8,-137.1 -122.956,-151.859 -1677.244,-2172.8212 -1074.372,-1210.2795 2287.972,3628.7597 24.6,-310 -2804.6,4353.3 114.3,-61.8 -4907.8001,162.4"
           style="fill:#100f0d;fill-opacity:1;fill-rule:nonzero;stroke:none"
           id="path60"
           inkscape:connector-curvature="0"
           sodipodi:nodetypes="cccccccccccccc" /></g><g
         transform="matrix(0,-0.41832065,0.4406638,0,-558.09766,7996.4329)"
         id="g66"
         style="fill:#100f0d;fill-opacity:1" /><g
         transform="matrix(0.41832065,0,0,-0.4406638,653.58934,9218.7485)"
         id="g74"
         style="fill:#100f0d;fill-opacity:1"><path
           sodipodi:nodetypes="cccccccccccccc"
           inkscape:connector-curvature="0"
           id="path72"
           style="fill:#100f0d;fill-opacity:1;fill-rule:nonzero;stroke:none"
           d="m 7928.3749,15631.153 4908.4001,136.6 68,1.9 46.3,-63.7 3037.6,-4175.4 99.8,-137.1 -122.956,-151.859 -1677.244,-2172.8212 -1074.372,-1210.2795 2287.972,3628.7597 24.6,-310 -2804.6,4353.3 114.3,-61.8 -4907.8001,162.4" /></g></g></g></svg>
