M48
; DRILL file {KiCad 5.1.5+dfsg1-2build2} date jeu. 31 mars 2022 13:11:24
; FORMAT={-:-/ absolute / metric / decimal}
; #@! TF.CreationDate,2022-03-31T13:11:24+02:00
; #@! TF.GenerationSoftware,Kicad,Pcbnew,5.1.5+dfsg1-2build2
; #@! TF.FileFunction,Plated,1,4,PTH
FMAT,2
METRIC
T1C0.300
T2C0.350
T3C0.440
T4C0.500
T5C0.800
T6C1.000
T7C1.100
T8C2.390
T9C2.700
%
G90
G05
T1
X139.72Y-83.14
X141.07Y-63.04
X141.33Y-78.75
X143.96Y-47.26
X144.39Y-87.72
X146.4Y-78.66
X146.67Y-72.51
X147.15Y-89.49
X149.12Y-72.65
X149.125Y-76.155
X149.16Y-39.32
X149.48Y-56.22
X149.73Y-77.79
X149.74Y-95.01
X149.96Y-58.55
X151.13Y-51.4
X151.153Y-48.15
X151.8Y-83.66
X151.8Y-85.62
X151.81Y-87.64
X151.82Y-89.65
X151.94Y-50.55
X152.11Y-51.74
X152.71Y-48.247
X153.02Y-60.65
X153.19Y-67.87
X153.56Y-61.98
X155.09Y-70.3
X156.6Y-54.47
X156.81Y-75.96
X157.0Y-72.96
X157.02Y-39.07
X157.05Y-46.41
X157.45Y-55.72
X157.57Y-77.2
X158.007Y-50.852
X158.22Y-52.18
X159.19Y-49.36
X159.48Y-65.0
X159.59Y-52.36
X160.19Y-50.28
X160.96Y-64.7
X161.05Y-66.89
X161.65Y-53.66
X162.39Y-56.21
X162.4Y-53.66
X163.15Y-53.66
X164.11Y-64.54
X164.16Y-39.07
X164.74Y-69.42
X164.94Y-74.48
X164.99Y-63.84
X166.01Y-48.78
X166.21Y-53.12
X166.9Y-58.23
X167.52Y-42.63
X168.213Y-85.65
X168.25Y-89.45
X168.26Y-90.42
X168.53Y-61.54
X169.28Y-58.04
X169.29Y-89.45
X169.29Y-90.44
X169.3Y-82.55
X169.76Y-65.6
X169.88Y-59.01
X170.32Y-89.45
X170.32Y-90.45
X170.51Y-47.05
X170.86Y-56.4
X171.31Y-58.49
X171.31Y-89.45
X171.31Y-90.45
X171.33Y-44.82
X171.97Y-64.84
X171.985Y-59.965
X172.093Y-85.657
X172.2Y-89.87
X172.245Y-79.045
X172.26Y-90.86
X172.26Y-91.89
X172.27Y-92.92
X172.27Y-93.92
X172.28Y-94.93
X172.45Y-80.45
X172.705Y-51.035
X172.91Y-74.58
X173.088Y-70.582
X173.14Y-56.4
X173.2Y-68.66
X173.23Y-92.92
X173.23Y-93.92
X173.23Y-94.93
X173.24Y-90.86
X173.24Y-91.89
X173.46Y-48.4
X173.57Y-59.15
X174.27Y-58.31
X174.61Y-54.98
X175.03Y-61.48
X175.11Y-82.17
X175.16Y-63.13
X175.38Y-41.04
X175.73Y-83.86
X176.86Y-68.66
X177.037Y-84.093
X177.15Y-72.18
X177.37Y-49.47
X177.54Y-51.83
X177.74Y-77.32
X177.89Y-64.49
X177.9Y-61.35
X177.9Y-67.22
X177.92Y-68.4
X178.26Y-49.94
X178.27Y-50.83
X178.99Y-43.28
X179.0Y-92.61
X179.62Y-80.37
X179.64Y-82.38
X179.96Y-46.38
X180.14Y-81.58
X180.18Y-47.57
X180.255Y-73.595
X180.5Y-62.21
X180.98Y-72.18
X181.06Y-45.99
X181.12Y-61.21
X181.21Y-69.54
X181.61Y-78.0
X181.63Y-63.84
X181.662Y-74.06
X181.87Y-47.53
X181.97Y-67.35
X181.99Y-60.29
X182.05Y-46.61
X182.916Y-46.17
X183.23Y-65.34
X183.35Y-45.33
X183.42Y-38.52
X184.72Y-82.97
X184.85Y-91.03
X185.2Y-65.25
X185.5Y-54.63
X185.53Y-51.75
X185.54Y-88.89
X185.56Y-74.86
X186.01Y-45.43
X186.29Y-38.52
X186.61Y-46.34
X186.69Y-92.6
X186.75Y-88.44
X186.92Y-77.47
X186.93Y-50.3
X186.93Y-53.14
X188.08Y-46.76
X188.83Y-70.64
X189.26Y-48.08
X189.83Y-62.88
X189.96Y-84.79
X190.13Y-49.9
X190.53Y-64.24
X191.36Y-41.13
X191.36Y-55.99
X191.7Y-65.3
X191.99Y-54.98
X192.07Y-45.05
X192.49Y-49.2
X192.7Y-59.73
X192.92Y-94.84
X193.3Y-56.46
X193.51Y-49.51
X193.65Y-64.46
X193.84Y-57.21
X193.88Y-65.63
X194.03Y-70.53
X194.45Y-53.2
X194.47Y-69.13
X194.71Y-78.82
X194.79Y-48.41
X194.79Y-86.3
X194.98Y-44.89
X195.16Y-63.77
X195.62Y-73.02
X195.89Y-74.32
X196.58Y-79.7
X196.58Y-86.6
X197.02Y-49.99
X197.18Y-65.83
X197.31Y-64.45
X197.51Y-58.09
X197.73Y-63.04
X198.13Y-54.43
X198.48Y-71.07
X198.52Y-86.87
X198.56Y-79.22
X198.82Y-55.44
X199.52Y-56.29
X199.58Y-73.51
X199.89Y-48.61
X200.933Y-86.388
X200.99Y-88.64
X201.26Y-50.23
X201.89Y-76.57
X201.93Y-94.28
X202.14Y-60.94
X203.29Y-92.45
X203.72Y-73.46
X203.79Y-45.29
X204.1Y-65.9
X204.37Y-77.45
X205.0Y-73.89
X205.88Y-79.4
X206.22Y-53.58
X206.9Y-50.24
X206.9Y-64.19
X206.95Y-42.78
X206.972Y-57.357
X207.13Y-48.55
X207.72Y-67.04
X207.99Y-83.76
X208.97Y-70.53
X208.98Y-56.45
X208.98Y-52.65
X209.03Y-67.03
X209.04Y-42.34
X209.46Y-49.44
X210.06Y-94.04
X210.61Y-68.03
X213.24Y-52.18
X213.74Y-38.66
X213.94Y-45.85
X214.35Y-64.56
X214.53Y-77.92
X214.81Y-86.07
X217.01Y-47.68
X217.62Y-56.65
X218.78Y-87.49
X219.02Y-66.65
X219.61Y-64.55
X220.13Y-42.99
X220.22Y-58.27
X220.92Y-70.56
X221.94Y-76.7
X223.65Y-87.37
X227.38Y-63.38
X227.43Y-60.0
X228.32Y-52.83
X228.57Y-79.83
X228.67Y-61.41
T3
X143.52Y-75.16
X143.52Y-76.46
X143.52Y-77.76
X144.52Y-75.81
X144.52Y-77.11
T4
X222.075Y-67.0
X222.668Y-65.568
X222.668Y-68.432
X224.1Y-64.975
X224.1Y-69.025
X225.532Y-65.568
X225.532Y-68.432
X226.125Y-67.0
X142.475Y-67.0
X143.068Y-65.568
X143.068Y-68.432
X144.5Y-64.975
X144.5Y-69.025
X145.932Y-65.568
X145.932Y-68.432
X146.525Y-67.0
X160.525Y-44.75
X161.118Y-43.318
X161.118Y-46.182
X162.55Y-42.725
X162.55Y-46.775
X163.982Y-43.318
X163.982Y-46.182
X164.575Y-44.75
X204.025Y-89.25
X204.618Y-87.818
X204.618Y-90.682
X206.05Y-87.225
X206.05Y-91.275
X207.482Y-87.818
X207.482Y-90.682
X208.075Y-89.25
T5
X182.29Y-39.54
X184.83Y-39.54
X187.37Y-39.54
T6
X216.25Y-39.79
X218.79Y-39.79
X166.49Y-39.83
X169.03Y-39.83
X193.3Y-39.79
X195.84Y-39.79
X198.38Y-39.79
X200.92Y-39.79
X203.46Y-39.79
X206.0Y-39.79
X208.54Y-39.79
X211.08Y-39.79
X188.1Y-68.15
X190.64Y-68.15
X193.18Y-68.15
X195.72Y-68.15
X198.26Y-68.15
X200.8Y-68.15
X213.6Y-92.45
X216.14Y-92.45
T7
X226.05Y-73.75
X226.05Y-76.25
X226.05Y-78.75
X226.05Y-81.25
X226.05Y-83.75
X216.916Y-69.114
X216.916Y-71.614
X216.916Y-74.114
X216.916Y-76.614
X216.916Y-79.114
X216.916Y-81.614
X216.916Y-84.114
X216.916Y-86.614
X150.83Y-40.65
X153.33Y-40.65
T8
X148.37Y-46.4
T9
X224.1Y-67.0
X162.55Y-44.75
X206.05Y-89.25
X144.5Y-67.0
T2
X143.24Y-72.885G85X144.24Y-72.885
G05
X143.24Y-80.035G85X144.24Y-80.035
G05
T0
M30
