G04 #@! TF.GenerationSoftware,KiCad,Pcbnew,5.1.5+dfsg1-2build2*
G04 #@! TF.CreationDate,2022-03-31T13:11:17+02:00*
G04 #@! TF.ProjectId,EcoApi_pcb,45636f41-7069-45f7-9063-622e6b696361,rev?*
G04 #@! TF.SameCoordinates,Original*
G04 #@! TF.FileFunction,Legend,Top*
G04 #@! TF.FilePolarity,Positive*
%FSLAX46Y46*%
G04 Gerber Fmt 4.6, Leading zero omitted, Abs format (unit mm)*
G04 Created by KiCad (PCBNEW 5.1.5+dfsg1-2build2) date 2022-03-31 13:11:17*
%MOMM*%
%LPD*%
G04 APERTURE LIST*
%ADD10C,0.300000*%
%ADD11C,0.150000*%
%ADD12C,0.203200*%
%ADD13C,0.010000*%
%ADD14C,0.200000*%
%ADD15C,0.120000*%
%ADD16C,0.127000*%
%ADD17C,0.100000*%
%ADD18C,0.125000*%
%ADD19C,1.650000*%
%ADD20R,1.650000X1.650000*%
%ADD21O,1.700000X1.700000*%
%ADD22R,1.700000X1.700000*%
%ADD23C,1.308000*%
%ADD24R,1.308000X1.308000*%
%ADD25R,2.200000X1.050000*%
%ADD26R,1.050000X1.000000*%
%ADD27C,0.800000*%
%ADD28C,5.400000*%
%ADD29R,2.500000X1.200000*%
%ADD30R,2.100000X1.400000*%
%ADD31R,1.270000X0.760000*%
%ADD32O,1.716000X0.858000*%
%ADD33C,0.948000*%
%ADD34R,4.000000X2.150000*%
%ADD35R,7.350000X6.350000*%
%ADD36C,3.406000*%
G04 APERTURE END LIST*
D10*
X187671190Y-77927142D02*
X188337857Y-77927142D01*
X188623571Y-78974761D02*
X187671190Y-78974761D01*
X187671190Y-76974761D01*
X188623571Y-76974761D01*
X190337857Y-78879523D02*
X190147380Y-78974761D01*
X189766428Y-78974761D01*
X189575952Y-78879523D01*
X189480714Y-78784285D01*
X189385476Y-78593809D01*
X189385476Y-78022380D01*
X189480714Y-77831904D01*
X189575952Y-77736666D01*
X189766428Y-77641428D01*
X190147380Y-77641428D01*
X190337857Y-77736666D01*
X191480714Y-78974761D02*
X191290238Y-78879523D01*
X191195000Y-78784285D01*
X191099761Y-78593809D01*
X191099761Y-78022380D01*
X191195000Y-77831904D01*
X191290238Y-77736666D01*
X191480714Y-77641428D01*
X191766428Y-77641428D01*
X191956904Y-77736666D01*
X192052142Y-77831904D01*
X192147380Y-78022380D01*
X192147380Y-78593809D01*
X192052142Y-78784285D01*
X191956904Y-78879523D01*
X191766428Y-78974761D01*
X191480714Y-78974761D01*
X192909285Y-78403333D02*
X193861666Y-78403333D01*
X192718809Y-78974761D02*
X193385476Y-76974761D01*
X194052142Y-78974761D01*
X194718809Y-77641428D02*
X194718809Y-79641428D01*
X194718809Y-77736666D02*
X194909285Y-77641428D01*
X195290238Y-77641428D01*
X195480714Y-77736666D01*
X195575952Y-77831904D01*
X195671190Y-78022380D01*
X195671190Y-78593809D01*
X195575952Y-78784285D01*
X195480714Y-78879523D01*
X195290238Y-78974761D01*
X194909285Y-78974761D01*
X194718809Y-78879523D01*
X196528333Y-78974761D02*
X196528333Y-77641428D01*
X196528333Y-76974761D02*
X196433095Y-77070000D01*
X196528333Y-77165238D01*
X196623571Y-77070000D01*
X196528333Y-76974761D01*
X196528333Y-77165238D01*
X198718809Y-76974761D02*
X199385476Y-78974761D01*
X200052142Y-76974761D01*
X200623571Y-77165238D02*
X200718809Y-77070000D01*
X200909285Y-76974761D01*
X201385476Y-76974761D01*
X201575952Y-77070000D01*
X201671190Y-77165238D01*
X201766428Y-77355714D01*
X201766428Y-77546190D01*
X201671190Y-77831904D01*
X200528333Y-78974761D01*
X201766428Y-78974761D01*
X202623571Y-78784285D02*
X202718809Y-78879523D01*
X202623571Y-78974761D01*
X202528333Y-78879523D01*
X202623571Y-78784285D01*
X202623571Y-78974761D01*
X203385476Y-76974761D02*
X204623571Y-76974761D01*
X203956904Y-77736666D01*
X204242619Y-77736666D01*
X204433095Y-77831904D01*
X204528333Y-77927142D01*
X204623571Y-78117619D01*
X204623571Y-78593809D01*
X204528333Y-78784285D01*
X204433095Y-78879523D01*
X204242619Y-78974761D01*
X203671190Y-78974761D01*
X203480714Y-78879523D01*
X203385476Y-78784285D01*
X188052142Y-80274761D02*
X188242619Y-80274761D01*
X188433095Y-80370000D01*
X188528333Y-80465238D01*
X188623571Y-80655714D01*
X188718809Y-81036666D01*
X188718809Y-81512857D01*
X188623571Y-81893809D01*
X188528333Y-82084285D01*
X188433095Y-82179523D01*
X188242619Y-82274761D01*
X188052142Y-82274761D01*
X187861666Y-82179523D01*
X187766428Y-82084285D01*
X187671190Y-81893809D01*
X187575952Y-81512857D01*
X187575952Y-81036666D01*
X187671190Y-80655714D01*
X187766428Y-80465238D01*
X187861666Y-80370000D01*
X188052142Y-80274761D01*
X190433095Y-80941428D02*
X190433095Y-82274761D01*
X189956904Y-80179523D02*
X189480714Y-81608095D01*
X190718809Y-81608095D01*
X192909285Y-80179523D02*
X191195000Y-82750952D01*
X193480714Y-80465238D02*
X193575952Y-80370000D01*
X193766428Y-80274761D01*
X194242619Y-80274761D01*
X194433095Y-80370000D01*
X194528333Y-80465238D01*
X194623571Y-80655714D01*
X194623571Y-80846190D01*
X194528333Y-81131904D01*
X193385476Y-82274761D01*
X194623571Y-82274761D01*
X195385476Y-80465238D02*
X195480714Y-80370000D01*
X195671190Y-80274761D01*
X196147380Y-80274761D01*
X196337857Y-80370000D01*
X196433095Y-80465238D01*
X196528333Y-80655714D01*
X196528333Y-80846190D01*
X196433095Y-81131904D01*
X195290238Y-82274761D01*
X196528333Y-82274761D01*
D11*
X147414285Y-41653571D02*
X147985714Y-41653571D01*
X147700000Y-41939285D02*
X147700000Y-41367857D01*
X166020714Y-74009285D02*
X165770714Y-73652142D01*
X165592142Y-74009285D02*
X165592142Y-73259285D01*
X165877857Y-73259285D01*
X165949285Y-73295000D01*
X165985000Y-73330714D01*
X166020714Y-73402142D01*
X166020714Y-73509285D01*
X165985000Y-73580714D01*
X165949285Y-73616428D01*
X165877857Y-73652142D01*
X165592142Y-73652142D01*
X166342142Y-73616428D02*
X166592142Y-73616428D01*
X166699285Y-74009285D02*
X166342142Y-74009285D01*
X166342142Y-73259285D01*
X166699285Y-73259285D01*
X166985000Y-73973571D02*
X167092142Y-74009285D01*
X167270714Y-74009285D01*
X167342142Y-73973571D01*
X167377857Y-73937857D01*
X167413571Y-73866428D01*
X167413571Y-73795000D01*
X167377857Y-73723571D01*
X167342142Y-73687857D01*
X167270714Y-73652142D01*
X167127857Y-73616428D01*
X167056428Y-73580714D01*
X167020714Y-73545000D01*
X166985000Y-73473571D01*
X166985000Y-73402142D01*
X167020714Y-73330714D01*
X167056428Y-73295000D01*
X167127857Y-73259285D01*
X167306428Y-73259285D01*
X167413571Y-73295000D01*
X167735000Y-73616428D02*
X167985000Y-73616428D01*
X168092142Y-74009285D02*
X167735000Y-74009285D01*
X167735000Y-73259285D01*
X168092142Y-73259285D01*
X168306428Y-73259285D02*
X168735000Y-73259285D01*
X168520714Y-74009285D02*
X168520714Y-73259285D01*
X178370000Y-73259285D02*
X178798571Y-73259285D01*
X178584285Y-74009285D02*
X178584285Y-73259285D01*
X179012857Y-73795000D02*
X179370000Y-73795000D01*
X178941428Y-74009285D02*
X179191428Y-73259285D01*
X179441428Y-74009285D01*
X180120000Y-74009285D02*
X179870000Y-73652142D01*
X179691428Y-74009285D02*
X179691428Y-73259285D01*
X179977142Y-73259285D01*
X180048571Y-73295000D01*
X180084285Y-73330714D01*
X180120000Y-73402142D01*
X180120000Y-73509285D01*
X180084285Y-73580714D01*
X180048571Y-73616428D01*
X179977142Y-73652142D01*
X179691428Y-73652142D01*
X180441428Y-73616428D02*
X180691428Y-73616428D01*
X180798571Y-74009285D02*
X180441428Y-74009285D01*
X180441428Y-73259285D01*
X180798571Y-73259285D01*
X215585714Y-42839285D02*
X215585714Y-42089285D01*
X215871428Y-42089285D01*
X215942857Y-42125000D01*
X215978571Y-42160714D01*
X216014285Y-42232142D01*
X216014285Y-42339285D01*
X215978571Y-42410714D01*
X215942857Y-42446428D01*
X215871428Y-42482142D01*
X215585714Y-42482142D01*
X216264285Y-42089285D02*
X216442857Y-42839285D01*
X216585714Y-42303571D01*
X216728571Y-42839285D01*
X216907142Y-42089285D01*
X217621428Y-42839285D02*
X217371428Y-42482142D01*
X217192857Y-42839285D02*
X217192857Y-42089285D01*
X217478571Y-42089285D01*
X217550000Y-42125000D01*
X217585714Y-42160714D01*
X217621428Y-42232142D01*
X217621428Y-42339285D01*
X217585714Y-42410714D01*
X217550000Y-42446428D01*
X217478571Y-42482142D01*
X217192857Y-42482142D01*
X218621428Y-42839285D02*
X218550000Y-42803571D01*
X218514285Y-42767857D01*
X218478571Y-42696428D01*
X218478571Y-42482142D01*
X218514285Y-42410714D01*
X218550000Y-42375000D01*
X218621428Y-42339285D01*
X218728571Y-42339285D01*
X218800000Y-42375000D01*
X218835714Y-42410714D01*
X218871428Y-42482142D01*
X218871428Y-42696428D01*
X218835714Y-42767857D01*
X218800000Y-42803571D01*
X218728571Y-42839285D01*
X218621428Y-42839285D01*
X219192857Y-42339285D02*
X219192857Y-42839285D01*
X219192857Y-42410714D02*
X219228571Y-42375000D01*
X219300000Y-42339285D01*
X219407142Y-42339285D01*
X219478571Y-42375000D01*
X219514285Y-42446428D01*
X219514285Y-42839285D01*
X210719285Y-42839285D02*
X210469285Y-42482142D01*
X210290714Y-42839285D02*
X210290714Y-42089285D01*
X210576428Y-42089285D01*
X210647857Y-42125000D01*
X210683571Y-42160714D01*
X210719285Y-42232142D01*
X210719285Y-42339285D01*
X210683571Y-42410714D01*
X210647857Y-42446428D01*
X210576428Y-42482142D01*
X210290714Y-42482142D01*
X211005000Y-42803571D02*
X211112142Y-42839285D01*
X211290714Y-42839285D01*
X211362142Y-42803571D01*
X211397857Y-42767857D01*
X211433571Y-42696428D01*
X211433571Y-42625000D01*
X211397857Y-42553571D01*
X211362142Y-42517857D01*
X211290714Y-42482142D01*
X211147857Y-42446428D01*
X211076428Y-42410714D01*
X211040714Y-42375000D01*
X211005000Y-42303571D01*
X211005000Y-42232142D01*
X211040714Y-42160714D01*
X211076428Y-42125000D01*
X211147857Y-42089285D01*
X211326428Y-42089285D01*
X211433571Y-42125000D01*
X211647857Y-42089285D02*
X212076428Y-42089285D01*
X211862142Y-42839285D02*
X211862142Y-42089285D01*
X202682142Y-42829285D02*
X202682142Y-42079285D01*
X202860714Y-42079285D01*
X202967857Y-42115000D01*
X203039285Y-42186428D01*
X203075000Y-42257857D01*
X203110714Y-42400714D01*
X203110714Y-42507857D01*
X203075000Y-42650714D01*
X203039285Y-42722142D01*
X202967857Y-42793571D01*
X202860714Y-42829285D01*
X202682142Y-42829285D01*
X203432142Y-42829285D02*
X203432142Y-42079285D01*
X203932142Y-42079285D02*
X204075000Y-42079285D01*
X204146428Y-42115000D01*
X204217857Y-42186428D01*
X204253571Y-42329285D01*
X204253571Y-42579285D01*
X204217857Y-42722142D01*
X204146428Y-42793571D01*
X204075000Y-42829285D01*
X203932142Y-42829285D01*
X203860714Y-42793571D01*
X203789285Y-42722142D01*
X203753571Y-42579285D01*
X203753571Y-42329285D01*
X203789285Y-42186428D01*
X203860714Y-42115000D01*
X203932142Y-42079285D01*
X205528571Y-42115000D02*
X205457142Y-42079285D01*
X205350000Y-42079285D01*
X205242857Y-42115000D01*
X205171428Y-42186428D01*
X205135714Y-42257857D01*
X205100000Y-42400714D01*
X205100000Y-42507857D01*
X205135714Y-42650714D01*
X205171428Y-42722142D01*
X205242857Y-42793571D01*
X205350000Y-42829285D01*
X205421428Y-42829285D01*
X205528571Y-42793571D01*
X205564285Y-42757857D01*
X205564285Y-42507857D01*
X205421428Y-42507857D01*
X205885714Y-42829285D02*
X205885714Y-42079285D01*
X206314285Y-42829285D01*
X206314285Y-42079285D01*
X206671428Y-42829285D02*
X206671428Y-42079285D01*
X206850000Y-42079285D01*
X206957142Y-42115000D01*
X207028571Y-42186428D01*
X207064285Y-42257857D01*
X207100000Y-42400714D01*
X207100000Y-42507857D01*
X207064285Y-42650714D01*
X207028571Y-42722142D01*
X206957142Y-42793571D01*
X206850000Y-42829285D01*
X206671428Y-42829285D01*
X208153571Y-42767857D02*
X208117857Y-42803571D01*
X208010714Y-42839285D01*
X207939285Y-42839285D01*
X207832142Y-42803571D01*
X207760714Y-42732142D01*
X207725000Y-42660714D01*
X207689285Y-42517857D01*
X207689285Y-42410714D01*
X207725000Y-42267857D01*
X207760714Y-42196428D01*
X207832142Y-42125000D01*
X207939285Y-42089285D01*
X208010714Y-42089285D01*
X208117857Y-42125000D01*
X208153571Y-42160714D01*
X208832142Y-42839285D02*
X208475000Y-42839285D01*
X208475000Y-42089285D01*
X209082142Y-42839285D02*
X209082142Y-42089285D01*
X209510714Y-42839285D02*
X209189285Y-42410714D01*
X209510714Y-42089285D02*
X209082142Y-42517857D01*
X200097142Y-42079285D02*
X200561428Y-42079285D01*
X200311428Y-42365000D01*
X200418571Y-42365000D01*
X200490000Y-42400714D01*
X200525714Y-42436428D01*
X200561428Y-42507857D01*
X200561428Y-42686428D01*
X200525714Y-42757857D01*
X200490000Y-42793571D01*
X200418571Y-42829285D01*
X200204285Y-42829285D01*
X200132857Y-42793571D01*
X200097142Y-42757857D01*
X200811428Y-42329285D02*
X200990000Y-42829285D01*
X201168571Y-42329285D01*
X201382857Y-42079285D02*
X201847142Y-42079285D01*
X201597142Y-42365000D01*
X201704285Y-42365000D01*
X201775714Y-42400714D01*
X201811428Y-42436428D01*
X201847142Y-42507857D01*
X201847142Y-42686428D01*
X201811428Y-42757857D01*
X201775714Y-42793571D01*
X201704285Y-42829285D01*
X201490000Y-42829285D01*
X201418571Y-42793571D01*
X201382857Y-42757857D01*
X192678571Y-42075000D02*
X192607142Y-42039285D01*
X192500000Y-42039285D01*
X192392857Y-42075000D01*
X192321428Y-42146428D01*
X192285714Y-42217857D01*
X192250000Y-42360714D01*
X192250000Y-42467857D01*
X192285714Y-42610714D01*
X192321428Y-42682142D01*
X192392857Y-42753571D01*
X192500000Y-42789285D01*
X192571428Y-42789285D01*
X192678571Y-42753571D01*
X192714285Y-42717857D01*
X192714285Y-42467857D01*
X192571428Y-42467857D01*
X193035714Y-42789285D02*
X193035714Y-42039285D01*
X193464285Y-42789285D01*
X193464285Y-42039285D01*
X193821428Y-42789285D02*
X193821428Y-42039285D01*
X194000000Y-42039285D01*
X194107142Y-42075000D01*
X194178571Y-42146428D01*
X194214285Y-42217857D01*
X194250000Y-42360714D01*
X194250000Y-42467857D01*
X194214285Y-42610714D01*
X194178571Y-42682142D01*
X194107142Y-42753571D01*
X194000000Y-42789285D01*
X193821428Y-42789285D01*
X198275000Y-42829285D02*
X198025000Y-42472142D01*
X197846428Y-42829285D02*
X197846428Y-42079285D01*
X198132142Y-42079285D01*
X198203571Y-42115000D01*
X198239285Y-42150714D01*
X198275000Y-42222142D01*
X198275000Y-42329285D01*
X198239285Y-42400714D01*
X198203571Y-42436428D01*
X198132142Y-42472142D01*
X197846428Y-42472142D01*
X198525000Y-42079285D02*
X199025000Y-42829285D01*
X199025000Y-42079285D02*
X198525000Y-42829285D01*
X195228571Y-42079285D02*
X195657142Y-42079285D01*
X195442857Y-42829285D02*
X195442857Y-42079285D01*
X195835714Y-42079285D02*
X196335714Y-42829285D01*
X196335714Y-42079285D02*
X195835714Y-42829285D01*
X165833571Y-42589285D02*
X165833571Y-41839285D01*
X166119285Y-41839285D01*
X166190714Y-41875000D01*
X166226428Y-41910714D01*
X166262142Y-41982142D01*
X166262142Y-42089285D01*
X166226428Y-42160714D01*
X166190714Y-42196428D01*
X166119285Y-42232142D01*
X165833571Y-42232142D01*
X166512142Y-41839285D02*
X166690714Y-42589285D01*
X166833571Y-42053571D01*
X166976428Y-42589285D01*
X167155000Y-41839285D01*
X167869285Y-42589285D02*
X167619285Y-42232142D01*
X167440714Y-42589285D02*
X167440714Y-41839285D01*
X167726428Y-41839285D01*
X167797857Y-41875000D01*
X167833571Y-41910714D01*
X167869285Y-41982142D01*
X167869285Y-42089285D01*
X167833571Y-42160714D01*
X167797857Y-42196428D01*
X167726428Y-42232142D01*
X167440714Y-42232142D01*
X169047857Y-42553571D02*
X168976428Y-42589285D01*
X168833571Y-42589285D01*
X168762142Y-42553571D01*
X168726428Y-42482142D01*
X168726428Y-42196428D01*
X168762142Y-42125000D01*
X168833571Y-42089285D01*
X168976428Y-42089285D01*
X169047857Y-42125000D01*
X169083571Y-42196428D01*
X169083571Y-42267857D01*
X168726428Y-42339285D01*
X169405000Y-42089285D02*
X169405000Y-42589285D01*
X169405000Y-42160714D02*
X169440714Y-42125000D01*
X169512142Y-42089285D01*
X169619285Y-42089285D01*
X169690714Y-42125000D01*
X169726428Y-42196428D01*
X169726428Y-42589285D01*
X161409285Y-40847857D02*
X161373571Y-40883571D01*
X161266428Y-40919285D01*
X161195000Y-40919285D01*
X161087857Y-40883571D01*
X161016428Y-40812142D01*
X160980714Y-40740714D01*
X160945000Y-40597857D01*
X160945000Y-40490714D01*
X160980714Y-40347857D01*
X161016428Y-40276428D01*
X161087857Y-40205000D01*
X161195000Y-40169285D01*
X161266428Y-40169285D01*
X161373571Y-40205000D01*
X161409285Y-40240714D01*
X161730714Y-40919285D02*
X161730714Y-40169285D01*
X161730714Y-40526428D02*
X162159285Y-40526428D01*
X162159285Y-40919285D02*
X162159285Y-40169285D01*
X162945000Y-40919285D02*
X162695000Y-40562142D01*
X162516428Y-40919285D02*
X162516428Y-40169285D01*
X162802142Y-40169285D01*
X162873571Y-40205000D01*
X162909285Y-40240714D01*
X162945000Y-40312142D01*
X162945000Y-40419285D01*
X162909285Y-40490714D01*
X162873571Y-40526428D01*
X162802142Y-40562142D01*
X162516428Y-40562142D01*
X163659285Y-40205000D02*
X163587857Y-40169285D01*
X163480714Y-40169285D01*
X163373571Y-40205000D01*
X163302142Y-40276428D01*
X163266428Y-40347857D01*
X163230714Y-40490714D01*
X163230714Y-40597857D01*
X163266428Y-40740714D01*
X163302142Y-40812142D01*
X163373571Y-40883571D01*
X163480714Y-40919285D01*
X163552142Y-40919285D01*
X163659285Y-40883571D01*
X163695000Y-40847857D01*
X163695000Y-40597857D01*
X163552142Y-40597857D01*
X157498571Y-40929285D02*
X157498571Y-40179285D01*
X157677142Y-40179285D01*
X157784285Y-40215000D01*
X157855714Y-40286428D01*
X157891428Y-40357857D01*
X157927142Y-40500714D01*
X157927142Y-40607857D01*
X157891428Y-40750714D01*
X157855714Y-40822142D01*
X157784285Y-40893571D01*
X157677142Y-40929285D01*
X157498571Y-40929285D01*
X158391428Y-40179285D02*
X158534285Y-40179285D01*
X158605714Y-40215000D01*
X158677142Y-40286428D01*
X158712857Y-40429285D01*
X158712857Y-40679285D01*
X158677142Y-40822142D01*
X158605714Y-40893571D01*
X158534285Y-40929285D01*
X158391428Y-40929285D01*
X158320000Y-40893571D01*
X158248571Y-40822142D01*
X158212857Y-40679285D01*
X158212857Y-40429285D01*
X158248571Y-40286428D01*
X158320000Y-40215000D01*
X158391428Y-40179285D01*
X159034285Y-40929285D02*
X159034285Y-40179285D01*
X159462857Y-40929285D01*
X159462857Y-40179285D01*
X159820000Y-40536428D02*
X160070000Y-40536428D01*
X160177142Y-40929285D02*
X159820000Y-40929285D01*
X159820000Y-40179285D01*
X160177142Y-40179285D01*
X177692857Y-75859285D02*
X177692857Y-75109285D01*
X178050000Y-75859285D02*
X178050000Y-75109285D01*
X178478571Y-75859285D01*
X178478571Y-75109285D01*
X179085714Y-75466428D02*
X178835714Y-75466428D01*
X178835714Y-75859285D02*
X178835714Y-75109285D01*
X179192857Y-75109285D01*
X179621428Y-75109285D02*
X179764285Y-75109285D01*
X179835714Y-75145000D01*
X179907142Y-75216428D01*
X179942857Y-75359285D01*
X179942857Y-75609285D01*
X179907142Y-75752142D01*
X179835714Y-75823571D01*
X179764285Y-75859285D01*
X179621428Y-75859285D01*
X179550000Y-75823571D01*
X179478571Y-75752142D01*
X179442857Y-75609285D01*
X179442857Y-75359285D01*
X179478571Y-75216428D01*
X179550000Y-75145000D01*
X179621428Y-75109285D01*
X175416071Y-88198928D02*
X175523214Y-88234642D01*
X175558928Y-88270357D01*
X175594642Y-88341785D01*
X175594642Y-88448928D01*
X175558928Y-88520357D01*
X175523214Y-88556071D01*
X175451785Y-88591785D01*
X175166071Y-88591785D01*
X175166071Y-87841785D01*
X175416071Y-87841785D01*
X175487500Y-87877500D01*
X175523214Y-87913214D01*
X175558928Y-87984642D01*
X175558928Y-88056071D01*
X175523214Y-88127500D01*
X175487500Y-88163214D01*
X175416071Y-88198928D01*
X175166071Y-88198928D01*
X176058928Y-87841785D02*
X176201785Y-87841785D01*
X176273214Y-87877500D01*
X176344642Y-87948928D01*
X176380357Y-88091785D01*
X176380357Y-88341785D01*
X176344642Y-88484642D01*
X176273214Y-88556071D01*
X176201785Y-88591785D01*
X176058928Y-88591785D01*
X175987500Y-88556071D01*
X175916071Y-88484642D01*
X175880357Y-88341785D01*
X175880357Y-88091785D01*
X175916071Y-87948928D01*
X175987500Y-87877500D01*
X176058928Y-87841785D01*
X176844642Y-87841785D02*
X176987500Y-87841785D01*
X177058928Y-87877500D01*
X177130357Y-87948928D01*
X177166071Y-88091785D01*
X177166071Y-88341785D01*
X177130357Y-88484642D01*
X177058928Y-88556071D01*
X176987500Y-88591785D01*
X176844642Y-88591785D01*
X176773214Y-88556071D01*
X176701785Y-88484642D01*
X176666071Y-88341785D01*
X176666071Y-88091785D01*
X176701785Y-87948928D01*
X176773214Y-87877500D01*
X176844642Y-87841785D01*
X177380357Y-87841785D02*
X177808928Y-87841785D01*
X177594642Y-88591785D02*
X177594642Y-87841785D01*
X178201785Y-87841785D02*
X178273214Y-87841785D01*
X178344642Y-87877500D01*
X178380357Y-87913214D01*
X178416071Y-87984642D01*
X178451785Y-88127500D01*
X178451785Y-88306071D01*
X178416071Y-88448928D01*
X178380357Y-88520357D01*
X178344642Y-88556071D01*
X178273214Y-88591785D01*
X178201785Y-88591785D01*
X178130357Y-88556071D01*
X178094642Y-88520357D01*
X178058928Y-88448928D01*
X178023214Y-88306071D01*
X178023214Y-88127500D01*
X178058928Y-87984642D01*
X178094642Y-87913214D01*
X178130357Y-87877500D01*
X178201785Y-87841785D01*
X179630357Y-88556071D02*
X179558928Y-88591785D01*
X179416071Y-88591785D01*
X179344642Y-88556071D01*
X179308928Y-88484642D01*
X179308928Y-88198928D01*
X179344642Y-88127500D01*
X179416071Y-88091785D01*
X179558928Y-88091785D01*
X179630357Y-88127500D01*
X179666071Y-88198928D01*
X179666071Y-88270357D01*
X179308928Y-88341785D01*
X179987500Y-88091785D02*
X179987500Y-88591785D01*
X179987500Y-88163214D02*
X180023214Y-88127500D01*
X180094642Y-88091785D01*
X180201785Y-88091785D01*
X180273214Y-88127500D01*
X180308928Y-88198928D01*
X180308928Y-88591785D01*
X175523214Y-89866785D02*
X175166071Y-89866785D01*
X175166071Y-89116785D01*
X175773214Y-89473928D02*
X176023214Y-89473928D01*
X176130357Y-89866785D02*
X175773214Y-89866785D01*
X175773214Y-89116785D01*
X176130357Y-89116785D01*
X176451785Y-89866785D02*
X176451785Y-89116785D01*
X176630357Y-89116785D01*
X176737500Y-89152500D01*
X176808928Y-89223928D01*
X176844642Y-89295357D01*
X176880357Y-89438214D01*
X176880357Y-89545357D01*
X176844642Y-89688214D01*
X176808928Y-89759642D01*
X176737500Y-89831071D01*
X176630357Y-89866785D01*
X176451785Y-89866785D01*
X177773214Y-89866785D02*
X177773214Y-89366785D01*
X177773214Y-89116785D02*
X177737500Y-89152500D01*
X177773214Y-89188214D01*
X177808928Y-89152500D01*
X177773214Y-89116785D01*
X177773214Y-89188214D01*
X178130357Y-89366785D02*
X178130357Y-89866785D01*
X178130357Y-89438214D02*
X178166071Y-89402500D01*
X178237500Y-89366785D01*
X178344642Y-89366785D01*
X178416071Y-89402500D01*
X178451785Y-89473928D01*
X178451785Y-89866785D01*
X178701785Y-89366785D02*
X178987500Y-89366785D01*
X178808928Y-89866785D02*
X178808928Y-89223928D01*
X178844642Y-89152500D01*
X178916071Y-89116785D01*
X178987500Y-89116785D01*
X179344642Y-89866785D02*
X179273214Y-89831071D01*
X179237500Y-89795357D01*
X179201785Y-89723928D01*
X179201785Y-89509642D01*
X179237500Y-89438214D01*
X179273214Y-89402500D01*
X179344642Y-89366785D01*
X179451785Y-89366785D01*
X179523214Y-89402500D01*
X179558928Y-89438214D01*
X179594642Y-89509642D01*
X179594642Y-89723928D01*
X179558928Y-89795357D01*
X179523214Y-89831071D01*
X179451785Y-89866785D01*
X179344642Y-89866785D01*
X180773214Y-89831071D02*
X180701785Y-89866785D01*
X180558928Y-89866785D01*
X180487500Y-89831071D01*
X180451785Y-89759642D01*
X180451785Y-89473928D01*
X180487500Y-89402500D01*
X180558928Y-89366785D01*
X180701785Y-89366785D01*
X180773214Y-89402500D01*
X180808928Y-89473928D01*
X180808928Y-89545357D01*
X180451785Y-89616785D01*
X181130357Y-89366785D02*
X181130357Y-89866785D01*
X181130357Y-89438214D02*
X181166071Y-89402500D01*
X181237500Y-89366785D01*
X181344642Y-89366785D01*
X181416071Y-89402500D01*
X181451785Y-89473928D01*
X181451785Y-89866785D01*
X175058928Y-90391785D02*
X175487500Y-90391785D01*
X175273214Y-91141785D02*
X175273214Y-90391785D01*
X176166071Y-91141785D02*
X175916071Y-90784642D01*
X175737500Y-91141785D02*
X175737500Y-90391785D01*
X176023214Y-90391785D01*
X176094642Y-90427500D01*
X176130357Y-90463214D01*
X176166071Y-90534642D01*
X176166071Y-90641785D01*
X176130357Y-90713214D01*
X176094642Y-90748928D01*
X176023214Y-90784642D01*
X175737500Y-90784642D01*
X176451785Y-90927500D02*
X176808928Y-90927500D01*
X176380357Y-91141785D02*
X176630357Y-90391785D01*
X176880357Y-91141785D01*
X177558928Y-91070357D02*
X177523214Y-91106071D01*
X177416071Y-91141785D01*
X177344642Y-91141785D01*
X177237500Y-91106071D01*
X177166071Y-91034642D01*
X177130357Y-90963214D01*
X177094642Y-90820357D01*
X177094642Y-90713214D01*
X177130357Y-90570357D01*
X177166071Y-90498928D01*
X177237500Y-90427500D01*
X177344642Y-90391785D01*
X177416071Y-90391785D01*
X177523214Y-90427500D01*
X177558928Y-90463214D01*
X177880357Y-90748928D02*
X178130357Y-90748928D01*
X178237500Y-91141785D02*
X177880357Y-91141785D01*
X177880357Y-90391785D01*
X178237500Y-90391785D01*
X179416071Y-91106071D02*
X179344642Y-91141785D01*
X179201785Y-91141785D01*
X179130357Y-91106071D01*
X179094642Y-91034642D01*
X179094642Y-90748928D01*
X179130357Y-90677500D01*
X179201785Y-90641785D01*
X179344642Y-90641785D01*
X179416071Y-90677500D01*
X179451785Y-90748928D01*
X179451785Y-90820357D01*
X179094642Y-90891785D01*
X179773214Y-90641785D02*
X179773214Y-91141785D01*
X179773214Y-90713214D02*
X179808928Y-90677500D01*
X179880357Y-90641785D01*
X179987500Y-90641785D01*
X180058928Y-90677500D01*
X180094642Y-90748928D01*
X180094642Y-91141785D01*
X175130357Y-92381071D02*
X175237500Y-92416785D01*
X175416071Y-92416785D01*
X175487500Y-92381071D01*
X175523214Y-92345357D01*
X175558928Y-92273928D01*
X175558928Y-92202500D01*
X175523214Y-92131071D01*
X175487500Y-92095357D01*
X175416071Y-92059642D01*
X175273214Y-92023928D01*
X175201785Y-91988214D01*
X175166071Y-91952500D01*
X175130357Y-91881071D01*
X175130357Y-91809642D01*
X175166071Y-91738214D01*
X175201785Y-91702500D01*
X175273214Y-91666785D01*
X175451785Y-91666785D01*
X175558928Y-91702500D01*
X176308928Y-92345357D02*
X176273214Y-92381071D01*
X176166071Y-92416785D01*
X176094642Y-92416785D01*
X175987500Y-92381071D01*
X175916071Y-92309642D01*
X175880357Y-92238214D01*
X175844642Y-92095357D01*
X175844642Y-91988214D01*
X175880357Y-91845357D01*
X175916071Y-91773928D01*
X175987500Y-91702500D01*
X176094642Y-91666785D01*
X176166071Y-91666785D01*
X176273214Y-91702500D01*
X176308928Y-91738214D01*
X176594642Y-92202500D02*
X176951785Y-92202500D01*
X176523214Y-92416785D02*
X176773214Y-91666785D01*
X177023214Y-92416785D01*
X177630357Y-92416785D02*
X177273214Y-92416785D01*
X177273214Y-91666785D01*
X177880357Y-92023928D02*
X178130357Y-92023928D01*
X178237500Y-92416785D02*
X177880357Y-92416785D01*
X177880357Y-91666785D01*
X178237500Y-91666785D01*
X179023214Y-91916785D02*
X179308928Y-91916785D01*
X179130357Y-91666785D02*
X179130357Y-92309642D01*
X179166071Y-92381071D01*
X179237500Y-92416785D01*
X179308928Y-92416785D01*
X179487500Y-91916785D02*
X179666071Y-92416785D01*
X179844642Y-91916785D02*
X179666071Y-92416785D01*
X179594642Y-92595357D01*
X179558928Y-92631071D01*
X179487500Y-92666785D01*
X180130357Y-91916785D02*
X180130357Y-92666785D01*
X180130357Y-91952500D02*
X180201785Y-91916785D01*
X180344642Y-91916785D01*
X180416071Y-91952500D01*
X180451785Y-91988214D01*
X180487500Y-92059642D01*
X180487500Y-92273928D01*
X180451785Y-92345357D01*
X180416071Y-92381071D01*
X180344642Y-92416785D01*
X180201785Y-92416785D01*
X180130357Y-92381071D01*
X181094642Y-92381071D02*
X181023214Y-92416785D01*
X180880357Y-92416785D01*
X180808928Y-92381071D01*
X180773214Y-92309642D01*
X180773214Y-92023928D01*
X180808928Y-91952500D01*
X180880357Y-91916785D01*
X181023214Y-91916785D01*
X181094642Y-91952500D01*
X181130357Y-92023928D01*
X181130357Y-92095357D01*
X180773214Y-92166785D01*
X182237500Y-92702500D02*
X182201785Y-92666785D01*
X182130357Y-92559642D01*
X182094642Y-92488214D01*
X182058928Y-92381071D01*
X182023214Y-92202500D01*
X182023214Y-92059642D01*
X182058928Y-91881071D01*
X182094642Y-91773928D01*
X182130357Y-91702500D01*
X182201785Y-91595357D01*
X182237500Y-91559642D01*
X182416071Y-91916785D02*
X182701785Y-91916785D01*
X182523214Y-92416785D02*
X182523214Y-91773928D01*
X182558928Y-91702500D01*
X182630357Y-91666785D01*
X182701785Y-91666785D01*
X183273214Y-91916785D02*
X183273214Y-92416785D01*
X182951785Y-91916785D02*
X182951785Y-92309642D01*
X182987500Y-92381071D01*
X183058928Y-92416785D01*
X183166071Y-92416785D01*
X183237500Y-92381071D01*
X183273214Y-92345357D01*
X183737500Y-92416785D02*
X183666071Y-92381071D01*
X183630357Y-92309642D01*
X183630357Y-91666785D01*
X184130357Y-92416785D02*
X184058928Y-92381071D01*
X184023214Y-92309642D01*
X184023214Y-91666785D01*
X184987500Y-92131071D02*
X185558928Y-92131071D01*
X186487500Y-92416785D02*
X186487500Y-91666785D01*
X186808928Y-92416785D02*
X186808928Y-92023928D01*
X186773214Y-91952500D01*
X186701785Y-91916785D01*
X186594642Y-91916785D01*
X186523214Y-91952500D01*
X186487500Y-91988214D01*
X187487500Y-92416785D02*
X187487500Y-92023928D01*
X187451785Y-91952500D01*
X187380357Y-91916785D01*
X187237500Y-91916785D01*
X187166071Y-91952500D01*
X187487500Y-92381071D02*
X187416071Y-92416785D01*
X187237500Y-92416785D01*
X187166071Y-92381071D01*
X187130357Y-92309642D01*
X187130357Y-92238214D01*
X187166071Y-92166785D01*
X187237500Y-92131071D01*
X187416071Y-92131071D01*
X187487500Y-92095357D01*
X187951785Y-92416785D02*
X187880357Y-92381071D01*
X187844642Y-92309642D01*
X187844642Y-91666785D01*
X188130357Y-91916785D02*
X188416071Y-91916785D01*
X188237500Y-92416785D02*
X188237500Y-91773928D01*
X188273214Y-91702500D01*
X188344642Y-91666785D01*
X188416071Y-91666785D01*
X188594642Y-92702500D02*
X188630357Y-92666785D01*
X188701785Y-92559642D01*
X188737500Y-92488214D01*
X188773214Y-92381071D01*
X188808928Y-92202500D01*
X188808928Y-92059642D01*
X188773214Y-91881071D01*
X188737500Y-91773928D01*
X188701785Y-91702500D01*
X188630357Y-91595357D01*
X188594642Y-91559642D01*
X175094642Y-92941785D02*
X175273214Y-93691785D01*
X175416071Y-93156071D01*
X175558928Y-93691785D01*
X175737500Y-92941785D01*
X176023214Y-93691785D02*
X176023214Y-92941785D01*
X176201785Y-92941785D01*
X176308928Y-92977500D01*
X176380357Y-93048928D01*
X176416071Y-93120357D01*
X176451785Y-93263214D01*
X176451785Y-93370357D01*
X176416071Y-93513214D01*
X176380357Y-93584642D01*
X176308928Y-93656071D01*
X176201785Y-93691785D01*
X176023214Y-93691785D01*
X177166071Y-92977500D02*
X177094642Y-92941785D01*
X176987500Y-92941785D01*
X176880357Y-92977500D01*
X176808928Y-93048928D01*
X176773214Y-93120357D01*
X176737500Y-93263214D01*
X176737500Y-93370357D01*
X176773214Y-93513214D01*
X176808928Y-93584642D01*
X176880357Y-93656071D01*
X176987500Y-93691785D01*
X177058928Y-93691785D01*
X177166071Y-93656071D01*
X177201785Y-93620357D01*
X177201785Y-93370357D01*
X177058928Y-93370357D01*
X178416071Y-93691785D02*
X178416071Y-92941785D01*
X178416071Y-93656071D02*
X178344642Y-93691785D01*
X178201785Y-93691785D01*
X178130357Y-93656071D01*
X178094642Y-93620357D01*
X178058928Y-93548928D01*
X178058928Y-93334642D01*
X178094642Y-93263214D01*
X178130357Y-93227500D01*
X178201785Y-93191785D01*
X178344642Y-93191785D01*
X178416071Y-93227500D01*
X179058928Y-93656071D02*
X178987500Y-93691785D01*
X178844642Y-93691785D01*
X178773214Y-93656071D01*
X178737500Y-93584642D01*
X178737500Y-93298928D01*
X178773214Y-93227500D01*
X178844642Y-93191785D01*
X178987500Y-93191785D01*
X179058928Y-93227500D01*
X179094642Y-93298928D01*
X179094642Y-93370357D01*
X178737500Y-93441785D01*
X179523214Y-93691785D02*
X179451785Y-93656071D01*
X179416071Y-93584642D01*
X179416071Y-92941785D01*
X180130357Y-93691785D02*
X180130357Y-93298928D01*
X180094642Y-93227500D01*
X180023214Y-93191785D01*
X179880357Y-93191785D01*
X179808928Y-93227500D01*
X180130357Y-93656071D02*
X180058928Y-93691785D01*
X179880357Y-93691785D01*
X179808928Y-93656071D01*
X179773214Y-93584642D01*
X179773214Y-93513214D01*
X179808928Y-93441785D01*
X179880357Y-93406071D01*
X180058928Y-93406071D01*
X180130357Y-93370357D01*
X180416071Y-93191785D02*
X180594642Y-93691785D01*
X180773214Y-93191785D02*
X180594642Y-93691785D01*
X180523214Y-93870357D01*
X180487500Y-93906071D01*
X180416071Y-93941785D01*
X182023214Y-93691785D02*
X181594642Y-93691785D01*
X181808928Y-93691785D02*
X181808928Y-92941785D01*
X181737500Y-93048928D01*
X181666071Y-93120357D01*
X181594642Y-93156071D01*
X183201785Y-93656071D02*
X183130357Y-93691785D01*
X182987500Y-93691785D01*
X182916071Y-93656071D01*
X182880357Y-93584642D01*
X182880357Y-93298928D01*
X182916071Y-93227500D01*
X182987500Y-93191785D01*
X183130357Y-93191785D01*
X183201785Y-93227500D01*
X183237500Y-93298928D01*
X183237500Y-93370357D01*
X182880357Y-93441785D01*
X183558928Y-93191785D02*
X183558928Y-93691785D01*
X183558928Y-93263214D02*
X183594642Y-93227500D01*
X183666071Y-93191785D01*
X183773214Y-93191785D01*
X183844642Y-93227500D01*
X183880357Y-93298928D01*
X183880357Y-93691785D01*
X175094642Y-94216785D02*
X175273214Y-94966785D01*
X175416071Y-94431071D01*
X175558928Y-94966785D01*
X175737500Y-94216785D01*
X176023214Y-94966785D02*
X176023214Y-94216785D01*
X176201785Y-94216785D01*
X176308928Y-94252500D01*
X176380357Y-94323928D01*
X176416071Y-94395357D01*
X176451785Y-94538214D01*
X176451785Y-94645357D01*
X176416071Y-94788214D01*
X176380357Y-94859642D01*
X176308928Y-94931071D01*
X176201785Y-94966785D01*
X176023214Y-94966785D01*
X177166071Y-94252500D02*
X177094642Y-94216785D01*
X176987500Y-94216785D01*
X176880357Y-94252500D01*
X176808928Y-94323928D01*
X176773214Y-94395357D01*
X176737500Y-94538214D01*
X176737500Y-94645357D01*
X176773214Y-94788214D01*
X176808928Y-94859642D01*
X176880357Y-94931071D01*
X176987500Y-94966785D01*
X177058928Y-94966785D01*
X177166071Y-94931071D01*
X177201785Y-94895357D01*
X177201785Y-94645357D01*
X177058928Y-94645357D01*
X178416071Y-94966785D02*
X178416071Y-94216785D01*
X178416071Y-94931071D02*
X178344642Y-94966785D01*
X178201785Y-94966785D01*
X178130357Y-94931071D01*
X178094642Y-94895357D01*
X178058928Y-94823928D01*
X178058928Y-94609642D01*
X178094642Y-94538214D01*
X178130357Y-94502500D01*
X178201785Y-94466785D01*
X178344642Y-94466785D01*
X178416071Y-94502500D01*
X179058928Y-94931071D02*
X178987500Y-94966785D01*
X178844642Y-94966785D01*
X178773214Y-94931071D01*
X178737500Y-94859642D01*
X178737500Y-94573928D01*
X178773214Y-94502500D01*
X178844642Y-94466785D01*
X178987500Y-94466785D01*
X179058928Y-94502500D01*
X179094642Y-94573928D01*
X179094642Y-94645357D01*
X178737500Y-94716785D01*
X179523214Y-94966785D02*
X179451785Y-94931071D01*
X179416071Y-94859642D01*
X179416071Y-94216785D01*
X180130357Y-94966785D02*
X180130357Y-94573928D01*
X180094642Y-94502500D01*
X180023214Y-94466785D01*
X179880357Y-94466785D01*
X179808928Y-94502500D01*
X180130357Y-94931071D02*
X180058928Y-94966785D01*
X179880357Y-94966785D01*
X179808928Y-94931071D01*
X179773214Y-94859642D01*
X179773214Y-94788214D01*
X179808928Y-94716785D01*
X179880357Y-94681071D01*
X180058928Y-94681071D01*
X180130357Y-94645357D01*
X180416071Y-94466785D02*
X180594642Y-94966785D01*
X180773214Y-94466785D02*
X180594642Y-94966785D01*
X180523214Y-95145357D01*
X180487500Y-95181071D01*
X180416071Y-95216785D01*
X181594642Y-94288214D02*
X181630357Y-94252500D01*
X181701785Y-94216785D01*
X181880357Y-94216785D01*
X181951785Y-94252500D01*
X181987500Y-94288214D01*
X182023214Y-94359642D01*
X182023214Y-94431071D01*
X181987500Y-94538214D01*
X181558928Y-94966785D01*
X182023214Y-94966785D01*
X183201785Y-94931071D02*
X183130357Y-94966785D01*
X182987500Y-94966785D01*
X182916071Y-94931071D01*
X182880357Y-94859642D01*
X182880357Y-94573928D01*
X182916071Y-94502500D01*
X182987500Y-94466785D01*
X183130357Y-94466785D01*
X183201785Y-94502500D01*
X183237500Y-94573928D01*
X183237500Y-94645357D01*
X182880357Y-94716785D01*
X183558928Y-94466785D02*
X183558928Y-94966785D01*
X183558928Y-94538214D02*
X183594642Y-94502500D01*
X183666071Y-94466785D01*
X183773214Y-94466785D01*
X183844642Y-94502500D01*
X183880357Y-94573928D01*
X183880357Y-94966785D01*
X211087142Y-86209285D02*
X211551428Y-86209285D01*
X211301428Y-86495000D01*
X211408571Y-86495000D01*
X211480000Y-86530714D01*
X211515714Y-86566428D01*
X211551428Y-86637857D01*
X211551428Y-86816428D01*
X211515714Y-86887857D01*
X211480000Y-86923571D01*
X211408571Y-86959285D01*
X211194285Y-86959285D01*
X211122857Y-86923571D01*
X211087142Y-86887857D01*
X211801428Y-86459285D02*
X211980000Y-86959285D01*
X212158571Y-86459285D01*
X212372857Y-86209285D02*
X212837142Y-86209285D01*
X212587142Y-86495000D01*
X212694285Y-86495000D01*
X212765714Y-86530714D01*
X212801428Y-86566428D01*
X212837142Y-86637857D01*
X212837142Y-86816428D01*
X212801428Y-86887857D01*
X212765714Y-86923571D01*
X212694285Y-86959285D01*
X212480000Y-86959285D01*
X212408571Y-86923571D01*
X212372857Y-86887857D01*
X210967142Y-84413571D02*
X211074285Y-84449285D01*
X211252857Y-84449285D01*
X211324285Y-84413571D01*
X211360000Y-84377857D01*
X211395714Y-84306428D01*
X211395714Y-84235000D01*
X211360000Y-84163571D01*
X211324285Y-84127857D01*
X211252857Y-84092142D01*
X211110000Y-84056428D01*
X211038571Y-84020714D01*
X211002857Y-83985000D01*
X210967142Y-83913571D01*
X210967142Y-83842142D01*
X211002857Y-83770714D01*
X211038571Y-83735000D01*
X211110000Y-83699285D01*
X211288571Y-83699285D01*
X211395714Y-83735000D01*
X212145714Y-84377857D02*
X212110000Y-84413571D01*
X212002857Y-84449285D01*
X211931428Y-84449285D01*
X211824285Y-84413571D01*
X211752857Y-84342142D01*
X211717142Y-84270714D01*
X211681428Y-84127857D01*
X211681428Y-84020714D01*
X211717142Y-83877857D01*
X211752857Y-83806428D01*
X211824285Y-83735000D01*
X211931428Y-83699285D01*
X212002857Y-83699285D01*
X212110000Y-83735000D01*
X212145714Y-83770714D01*
X212824285Y-84449285D02*
X212467142Y-84449285D01*
X212467142Y-83699285D01*
X210919285Y-81883571D02*
X211026428Y-81919285D01*
X211205000Y-81919285D01*
X211276428Y-81883571D01*
X211312142Y-81847857D01*
X211347857Y-81776428D01*
X211347857Y-81705000D01*
X211312142Y-81633571D01*
X211276428Y-81597857D01*
X211205000Y-81562142D01*
X211062142Y-81526428D01*
X210990714Y-81490714D01*
X210955000Y-81455000D01*
X210919285Y-81383571D01*
X210919285Y-81312142D01*
X210955000Y-81240714D01*
X210990714Y-81205000D01*
X211062142Y-81169285D01*
X211240714Y-81169285D01*
X211347857Y-81205000D01*
X211669285Y-81919285D02*
X211669285Y-81169285D01*
X211847857Y-81169285D01*
X211955000Y-81205000D01*
X212026428Y-81276428D01*
X212062142Y-81347857D01*
X212097857Y-81490714D01*
X212097857Y-81597857D01*
X212062142Y-81740714D01*
X212026428Y-81812142D01*
X211955000Y-81883571D01*
X211847857Y-81919285D01*
X211669285Y-81919285D01*
X212383571Y-81705000D02*
X212740714Y-81705000D01*
X212312142Y-81919285D02*
X212562142Y-81169285D01*
X212812142Y-81919285D01*
X211238571Y-78775000D02*
X211167142Y-78739285D01*
X211060000Y-78739285D01*
X210952857Y-78775000D01*
X210881428Y-78846428D01*
X210845714Y-78917857D01*
X210810000Y-79060714D01*
X210810000Y-79167857D01*
X210845714Y-79310714D01*
X210881428Y-79382142D01*
X210952857Y-79453571D01*
X211060000Y-79489285D01*
X211131428Y-79489285D01*
X211238571Y-79453571D01*
X211274285Y-79417857D01*
X211274285Y-79167857D01*
X211131428Y-79167857D01*
X211595714Y-79489285D02*
X211595714Y-78739285D01*
X212024285Y-79489285D01*
X212024285Y-78739285D01*
X212381428Y-79489285D02*
X212381428Y-78739285D01*
X212560000Y-78739285D01*
X212667142Y-78775000D01*
X212738571Y-78846428D01*
X212774285Y-78917857D01*
X212810000Y-79060714D01*
X212810000Y-79167857D01*
X212774285Y-79310714D01*
X212738571Y-79382142D01*
X212667142Y-79453571D01*
X212560000Y-79489285D01*
X212381428Y-79489285D01*
X208570714Y-76863571D02*
X208677857Y-76899285D01*
X208856428Y-76899285D01*
X208927857Y-76863571D01*
X208963571Y-76827857D01*
X208999285Y-76756428D01*
X208999285Y-76685000D01*
X208963571Y-76613571D01*
X208927857Y-76577857D01*
X208856428Y-76542142D01*
X208713571Y-76506428D01*
X208642142Y-76470714D01*
X208606428Y-76435000D01*
X208570714Y-76363571D01*
X208570714Y-76292142D01*
X208606428Y-76220714D01*
X208642142Y-76185000D01*
X208713571Y-76149285D01*
X208892142Y-76149285D01*
X208999285Y-76185000D01*
X209320714Y-76899285D02*
X209320714Y-76149285D01*
X209499285Y-76149285D01*
X209606428Y-76185000D01*
X209677857Y-76256428D01*
X209713571Y-76327857D01*
X209749285Y-76470714D01*
X209749285Y-76577857D01*
X209713571Y-76720714D01*
X209677857Y-76792142D01*
X209606428Y-76863571D01*
X209499285Y-76899285D01*
X209320714Y-76899285D01*
X210070714Y-76613571D02*
X210642142Y-76613571D01*
X210963571Y-76685000D02*
X211320714Y-76685000D01*
X210892142Y-76899285D02*
X211142142Y-76149285D01*
X211392142Y-76899285D01*
X211642142Y-76899285D02*
X211642142Y-76149285D01*
X212070714Y-76899285D01*
X212070714Y-76149285D01*
X212392142Y-76685000D02*
X212749285Y-76685000D01*
X212320714Y-76899285D02*
X212570714Y-76149285D01*
X212820714Y-76899285D01*
X211501428Y-73689285D02*
X211680000Y-74439285D01*
X211822857Y-73903571D01*
X211965714Y-74439285D01*
X212144285Y-73689285D01*
X212394285Y-74403571D02*
X212501428Y-74439285D01*
X212680000Y-74439285D01*
X212751428Y-74403571D01*
X212787142Y-74367857D01*
X212822857Y-74296428D01*
X212822857Y-74225000D01*
X212787142Y-74153571D01*
X212751428Y-74117857D01*
X212680000Y-74082142D01*
X212537142Y-74046428D01*
X212465714Y-74010714D01*
X212430000Y-73975000D01*
X212394285Y-73903571D01*
X212394285Y-73832142D01*
X212430000Y-73760714D01*
X212465714Y-73725000D01*
X212537142Y-73689285D01*
X212715714Y-73689285D01*
X212822857Y-73725000D01*
X208645000Y-71867857D02*
X208609285Y-71903571D01*
X208502142Y-71939285D01*
X208430714Y-71939285D01*
X208323571Y-71903571D01*
X208252142Y-71832142D01*
X208216428Y-71760714D01*
X208180714Y-71617857D01*
X208180714Y-71510714D01*
X208216428Y-71367857D01*
X208252142Y-71296428D01*
X208323571Y-71225000D01*
X208430714Y-71189285D01*
X208502142Y-71189285D01*
X208609285Y-71225000D01*
X208645000Y-71260714D01*
X208966428Y-71939285D02*
X208966428Y-71189285D01*
X209395000Y-71939285D02*
X209073571Y-71510714D01*
X209395000Y-71189285D02*
X208966428Y-71617857D01*
X209716428Y-71653571D02*
X210287857Y-71653571D01*
X211037857Y-71225000D02*
X210966428Y-71189285D01*
X210859285Y-71189285D01*
X210752142Y-71225000D01*
X210680714Y-71296428D01*
X210645000Y-71367857D01*
X210609285Y-71510714D01*
X210609285Y-71617857D01*
X210645000Y-71760714D01*
X210680714Y-71832142D01*
X210752142Y-71903571D01*
X210859285Y-71939285D01*
X210930714Y-71939285D01*
X211037857Y-71903571D01*
X211073571Y-71867857D01*
X211073571Y-71617857D01*
X210930714Y-71617857D01*
X211359285Y-71725000D02*
X211716428Y-71725000D01*
X211287857Y-71939285D02*
X211537857Y-71189285D01*
X211787857Y-71939285D01*
X212037857Y-71939285D02*
X212037857Y-71189285D01*
X212395000Y-71939285D02*
X212395000Y-71189285D01*
X212823571Y-71939285D01*
X212823571Y-71189285D01*
X211067142Y-68679285D02*
X211531428Y-68679285D01*
X211281428Y-68965000D01*
X211388571Y-68965000D01*
X211460000Y-69000714D01*
X211495714Y-69036428D01*
X211531428Y-69107857D01*
X211531428Y-69286428D01*
X211495714Y-69357857D01*
X211460000Y-69393571D01*
X211388571Y-69429285D01*
X211174285Y-69429285D01*
X211102857Y-69393571D01*
X211067142Y-69357857D01*
X211781428Y-68929285D02*
X211960000Y-69429285D01*
X212138571Y-68929285D01*
X212352857Y-68679285D02*
X212817142Y-68679285D01*
X212567142Y-68965000D01*
X212674285Y-68965000D01*
X212745714Y-69000714D01*
X212781428Y-69036428D01*
X212817142Y-69107857D01*
X212817142Y-69286428D01*
X212781428Y-69357857D01*
X212745714Y-69393571D01*
X212674285Y-69429285D01*
X212460000Y-69429285D01*
X212388571Y-69393571D01*
X212352857Y-69357857D01*
X220752857Y-83983571D02*
X220860000Y-84019285D01*
X221038571Y-84019285D01*
X221110000Y-83983571D01*
X221145714Y-83947857D01*
X221181428Y-83876428D01*
X221181428Y-83805000D01*
X221145714Y-83733571D01*
X221110000Y-83697857D01*
X221038571Y-83662142D01*
X220895714Y-83626428D01*
X220824285Y-83590714D01*
X220788571Y-83555000D01*
X220752857Y-83483571D01*
X220752857Y-83412142D01*
X220788571Y-83340714D01*
X220824285Y-83305000D01*
X220895714Y-83269285D01*
X221074285Y-83269285D01*
X221181428Y-83305000D01*
X221502857Y-84019285D02*
X221502857Y-83269285D01*
X221502857Y-83626428D02*
X221931428Y-83626428D01*
X221931428Y-84019285D02*
X221931428Y-83269285D01*
X220827142Y-81315000D02*
X221184285Y-81315000D01*
X220755714Y-81529285D02*
X221005714Y-80779285D01*
X221255714Y-81529285D01*
X221505714Y-81243571D02*
X222077142Y-81243571D01*
X221791428Y-81529285D02*
X221791428Y-80957857D01*
X220817142Y-78815000D02*
X221174285Y-78815000D01*
X220745714Y-79029285D02*
X220995714Y-78279285D01*
X221245714Y-79029285D01*
X221495714Y-78743571D02*
X222067142Y-78743571D01*
X220755000Y-76146428D02*
X221005000Y-76146428D01*
X221112142Y-76539285D02*
X220755000Y-76539285D01*
X220755000Y-75789285D01*
X221112142Y-75789285D01*
X221433571Y-76253571D02*
X222005000Y-76253571D01*
X220735000Y-73646428D02*
X220985000Y-73646428D01*
X221092142Y-74039285D02*
X220735000Y-74039285D01*
X220735000Y-73289285D01*
X221092142Y-73289285D01*
X221413571Y-73753571D02*
X221985000Y-73753571D01*
X221699285Y-74039285D02*
X221699285Y-73467857D01*
X192269285Y-70663571D02*
X192376428Y-70699285D01*
X192555000Y-70699285D01*
X192626428Y-70663571D01*
X192662142Y-70627857D01*
X192697857Y-70556428D01*
X192697857Y-70485000D01*
X192662142Y-70413571D01*
X192626428Y-70377857D01*
X192555000Y-70342142D01*
X192412142Y-70306428D01*
X192340714Y-70270714D01*
X192305000Y-70235000D01*
X192269285Y-70163571D01*
X192269285Y-70092142D01*
X192305000Y-70020714D01*
X192340714Y-69985000D01*
X192412142Y-69949285D01*
X192590714Y-69949285D01*
X192697857Y-69985000D01*
X193019285Y-70699285D02*
X193019285Y-69949285D01*
X193197857Y-69949285D01*
X193305000Y-69985000D01*
X193376428Y-70056428D01*
X193412142Y-70127857D01*
X193447857Y-70270714D01*
X193447857Y-70377857D01*
X193412142Y-70520714D01*
X193376428Y-70592142D01*
X193305000Y-70663571D01*
X193197857Y-70699285D01*
X193019285Y-70699285D01*
X193733571Y-70485000D02*
X194090714Y-70485000D01*
X193662142Y-70699285D02*
X193912142Y-69949285D01*
X194162142Y-70699285D01*
X194837142Y-70663571D02*
X194944285Y-70699285D01*
X195122857Y-70699285D01*
X195194285Y-70663571D01*
X195230000Y-70627857D01*
X195265714Y-70556428D01*
X195265714Y-70485000D01*
X195230000Y-70413571D01*
X195194285Y-70377857D01*
X195122857Y-70342142D01*
X194980000Y-70306428D01*
X194908571Y-70270714D01*
X194872857Y-70235000D01*
X194837142Y-70163571D01*
X194837142Y-70092142D01*
X194872857Y-70020714D01*
X194908571Y-69985000D01*
X194980000Y-69949285D01*
X195158571Y-69949285D01*
X195265714Y-69985000D01*
X196015714Y-70627857D02*
X195980000Y-70663571D01*
X195872857Y-70699285D01*
X195801428Y-70699285D01*
X195694285Y-70663571D01*
X195622857Y-70592142D01*
X195587142Y-70520714D01*
X195551428Y-70377857D01*
X195551428Y-70270714D01*
X195587142Y-70127857D01*
X195622857Y-70056428D01*
X195694285Y-69985000D01*
X195801428Y-69949285D01*
X195872857Y-69949285D01*
X195980000Y-69985000D01*
X196015714Y-70020714D01*
X196694285Y-70699285D02*
X196337142Y-70699285D01*
X196337142Y-69949285D01*
X197718571Y-69985000D02*
X197647142Y-69949285D01*
X197540000Y-69949285D01*
X197432857Y-69985000D01*
X197361428Y-70056428D01*
X197325714Y-70127857D01*
X197290000Y-70270714D01*
X197290000Y-70377857D01*
X197325714Y-70520714D01*
X197361428Y-70592142D01*
X197432857Y-70663571D01*
X197540000Y-70699285D01*
X197611428Y-70699285D01*
X197718571Y-70663571D01*
X197754285Y-70627857D01*
X197754285Y-70377857D01*
X197611428Y-70377857D01*
X198075714Y-70699285D02*
X198075714Y-69949285D01*
X198504285Y-70699285D01*
X198504285Y-69949285D01*
X198861428Y-70699285D02*
X198861428Y-69949285D01*
X199040000Y-69949285D01*
X199147142Y-69985000D01*
X199218571Y-70056428D01*
X199254285Y-70127857D01*
X199290000Y-70270714D01*
X199290000Y-70377857D01*
X199254285Y-70520714D01*
X199218571Y-70592142D01*
X199147142Y-70663571D01*
X199040000Y-70699285D01*
X198861428Y-70699285D01*
X200077142Y-69949285D02*
X200541428Y-69949285D01*
X200291428Y-70235000D01*
X200398571Y-70235000D01*
X200470000Y-70270714D01*
X200505714Y-70306428D01*
X200541428Y-70377857D01*
X200541428Y-70556428D01*
X200505714Y-70627857D01*
X200470000Y-70663571D01*
X200398571Y-70699285D01*
X200184285Y-70699285D01*
X200112857Y-70663571D01*
X200077142Y-70627857D01*
X200791428Y-70199285D02*
X200970000Y-70699285D01*
X201148571Y-70199285D01*
X201362857Y-69949285D02*
X201827142Y-69949285D01*
X201577142Y-70235000D01*
X201684285Y-70235000D01*
X201755714Y-70270714D01*
X201791428Y-70306428D01*
X201827142Y-70377857D01*
X201827142Y-70556428D01*
X201791428Y-70627857D01*
X201755714Y-70663571D01*
X201684285Y-70699285D01*
X201470000Y-70699285D01*
X201398571Y-70663571D01*
X201362857Y-70627857D01*
D10*
X141257142Y-48584285D02*
X143542857Y-48584285D01*
X142400000Y-49727142D02*
X142400000Y-47441428D01*
D12*
X145640000Y-83900000D02*
X145640000Y-86050000D01*
X143960000Y-83900000D02*
X143960000Y-86050000D01*
X140600000Y-86050000D02*
X145640000Y-86050000D01*
X140600000Y-86050000D02*
X140600000Y-83900000D01*
X145640000Y-83900000D02*
X140600000Y-83900000D01*
X142270000Y-83900000D02*
X142270000Y-86050000D01*
D13*
G36*
X197719818Y-85138781D02*
G01*
X197927462Y-85221332D01*
X198095634Y-85373242D01*
X198218422Y-85586134D01*
X198289916Y-85851634D01*
X198302359Y-85963947D01*
X198303858Y-86183376D01*
X198274192Y-86411966D01*
X198209401Y-86665973D01*
X198105521Y-86961656D01*
X197991621Y-87239112D01*
X197895760Y-87474917D01*
X197834248Y-87661738D01*
X197800038Y-87824445D01*
X197787259Y-87960452D01*
X197731842Y-88277731D01*
X197602704Y-88559438D01*
X197405833Y-88796332D01*
X197147216Y-88979172D01*
X197117135Y-88994653D01*
X196975256Y-89062715D01*
X196880984Y-89093639D01*
X196806641Y-89089021D01*
X196724546Y-89050456D01*
X196673976Y-89020181D01*
X196561853Y-88907170D01*
X196473048Y-88730447D01*
X196409468Y-88508214D01*
X196373019Y-88258672D01*
X196365605Y-88000022D01*
X196381963Y-87826513D01*
X196874343Y-87826513D01*
X196892698Y-88073163D01*
X196942201Y-88272837D01*
X197018574Y-88410371D01*
X197046657Y-88437710D01*
X197124076Y-88486863D01*
X197189178Y-88477478D01*
X197227964Y-88454177D01*
X197297673Y-88382891D01*
X197377163Y-88266362D01*
X197417365Y-88193042D01*
X197493716Y-87991013D01*
X197524124Y-87796075D01*
X197508314Y-87628003D01*
X197446011Y-87506573D01*
X197427147Y-87488973D01*
X197288621Y-87419140D01*
X197145135Y-87432401D01*
X197003581Y-87519597D01*
X196920175Y-87603510D01*
X196882585Y-87693166D01*
X196874343Y-87826513D01*
X196381963Y-87826513D01*
X196389133Y-87750467D01*
X196445507Y-87528207D01*
X196504407Y-87400529D01*
X196513849Y-87388834D01*
X197762333Y-87388834D01*
X197783500Y-87410000D01*
X197804666Y-87388834D01*
X197783500Y-87367667D01*
X197762333Y-87388834D01*
X196513849Y-87388834D01*
X196630656Y-87244165D01*
X196796344Y-87119207D01*
X196973969Y-87043453D01*
X197078558Y-87029000D01*
X197239890Y-87060442D01*
X197411767Y-87142442D01*
X197555735Y-87256506D01*
X197559077Y-87260076D01*
X197664288Y-87373541D01*
X197713310Y-87076699D01*
X197760779Y-86677995D01*
X197759242Y-86343845D01*
X197707220Y-86068736D01*
X197603235Y-85847153D01*
X197445809Y-85673582D01*
X197312817Y-85583157D01*
X197160976Y-85492433D01*
X197076931Y-85426582D01*
X197051427Y-85375386D01*
X197075208Y-85328626D01*
X197078863Y-85324870D01*
X197156775Y-85301426D01*
X197276179Y-85324545D01*
X197414228Y-85385757D01*
X197548074Y-85476589D01*
X197590473Y-85514562D01*
X197764174Y-85741974D01*
X197873435Y-86023318D01*
X197917993Y-86357298D01*
X197897583Y-86742618D01*
X197873079Y-86900345D01*
X197845542Y-87063562D01*
X197827574Y-87191622D01*
X197821837Y-87264478D01*
X197823521Y-87273633D01*
X197849237Y-87251776D01*
X197890151Y-87165684D01*
X197940493Y-87033147D01*
X197994493Y-86871958D01*
X198046379Y-86699911D01*
X198090380Y-86534797D01*
X198120726Y-86394409D01*
X198130066Y-86328513D01*
X198132493Y-86039174D01*
X198075365Y-85795797D01*
X197951151Y-85581339D01*
X197752323Y-85378757D01*
X197686927Y-85325498D01*
X197617344Y-85248079D01*
X197593000Y-85182623D01*
X197611302Y-85136476D01*
X197680040Y-85131897D01*
X197719818Y-85138781D01*
G37*
X197719818Y-85138781D02*
X197927462Y-85221332D01*
X198095634Y-85373242D01*
X198218422Y-85586134D01*
X198289916Y-85851634D01*
X198302359Y-85963947D01*
X198303858Y-86183376D01*
X198274192Y-86411966D01*
X198209401Y-86665973D01*
X198105521Y-86961656D01*
X197991621Y-87239112D01*
X197895760Y-87474917D01*
X197834248Y-87661738D01*
X197800038Y-87824445D01*
X197787259Y-87960452D01*
X197731842Y-88277731D01*
X197602704Y-88559438D01*
X197405833Y-88796332D01*
X197147216Y-88979172D01*
X197117135Y-88994653D01*
X196975256Y-89062715D01*
X196880984Y-89093639D01*
X196806641Y-89089021D01*
X196724546Y-89050456D01*
X196673976Y-89020181D01*
X196561853Y-88907170D01*
X196473048Y-88730447D01*
X196409468Y-88508214D01*
X196373019Y-88258672D01*
X196365605Y-88000022D01*
X196381963Y-87826513D01*
X196874343Y-87826513D01*
X196892698Y-88073163D01*
X196942201Y-88272837D01*
X197018574Y-88410371D01*
X197046657Y-88437710D01*
X197124076Y-88486863D01*
X197189178Y-88477478D01*
X197227964Y-88454177D01*
X197297673Y-88382891D01*
X197377163Y-88266362D01*
X197417365Y-88193042D01*
X197493716Y-87991013D01*
X197524124Y-87796075D01*
X197508314Y-87628003D01*
X197446011Y-87506573D01*
X197427147Y-87488973D01*
X197288621Y-87419140D01*
X197145135Y-87432401D01*
X197003581Y-87519597D01*
X196920175Y-87603510D01*
X196882585Y-87693166D01*
X196874343Y-87826513D01*
X196381963Y-87826513D01*
X196389133Y-87750467D01*
X196445507Y-87528207D01*
X196504407Y-87400529D01*
X196513849Y-87388834D01*
X197762333Y-87388834D01*
X197783500Y-87410000D01*
X197804666Y-87388834D01*
X197783500Y-87367667D01*
X197762333Y-87388834D01*
X196513849Y-87388834D01*
X196630656Y-87244165D01*
X196796344Y-87119207D01*
X196973969Y-87043453D01*
X197078558Y-87029000D01*
X197239890Y-87060442D01*
X197411767Y-87142442D01*
X197555735Y-87256506D01*
X197559077Y-87260076D01*
X197664288Y-87373541D01*
X197713310Y-87076699D01*
X197760779Y-86677995D01*
X197759242Y-86343845D01*
X197707220Y-86068736D01*
X197603235Y-85847153D01*
X197445809Y-85673582D01*
X197312817Y-85583157D01*
X197160976Y-85492433D01*
X197076931Y-85426582D01*
X197051427Y-85375386D01*
X197075208Y-85328626D01*
X197078863Y-85324870D01*
X197156775Y-85301426D01*
X197276179Y-85324545D01*
X197414228Y-85385757D01*
X197548074Y-85476589D01*
X197590473Y-85514562D01*
X197764174Y-85741974D01*
X197873435Y-86023318D01*
X197917993Y-86357298D01*
X197897583Y-86742618D01*
X197873079Y-86900345D01*
X197845542Y-87063562D01*
X197827574Y-87191622D01*
X197821837Y-87264478D01*
X197823521Y-87273633D01*
X197849237Y-87251776D01*
X197890151Y-87165684D01*
X197940493Y-87033147D01*
X197994493Y-86871958D01*
X198046379Y-86699911D01*
X198090380Y-86534797D01*
X198120726Y-86394409D01*
X198130066Y-86328513D01*
X198132493Y-86039174D01*
X198075365Y-85795797D01*
X197951151Y-85581339D01*
X197752323Y-85378757D01*
X197686927Y-85325498D01*
X197617344Y-85248079D01*
X197593000Y-85182623D01*
X197611302Y-85136476D01*
X197680040Y-85131897D01*
X197719818Y-85138781D01*
G36*
X192901254Y-83784577D02*
G01*
X193162286Y-83789015D01*
X193485288Y-83796371D01*
X193876629Y-83806676D01*
X194342679Y-83819960D01*
X194635862Y-83828627D01*
X195080579Y-83841716D01*
X195508668Y-83853970D01*
X195910986Y-83865150D01*
X196278390Y-83875019D01*
X196601736Y-83883337D01*
X196871882Y-83889866D01*
X197079684Y-83894368D01*
X197216001Y-83896605D01*
X197250805Y-83896810D01*
X197397604Y-83899493D01*
X197500824Y-83907026D01*
X197541720Y-83917895D01*
X197540883Y-83920227D01*
X197494806Y-83926764D01*
X197373017Y-83935586D01*
X197184429Y-83946268D01*
X196937954Y-83958384D01*
X196642505Y-83971509D01*
X196306992Y-83985216D01*
X195940329Y-83999079D01*
X195745245Y-84006036D01*
X195329491Y-84020672D01*
X194909164Y-84035666D01*
X194498758Y-84050488D01*
X194112764Y-84064607D01*
X193765677Y-84077492D01*
X193471989Y-84088612D01*
X193246193Y-84097438D01*
X193218381Y-84098559D01*
X192463262Y-84129167D01*
X191027631Y-86475786D01*
X190780002Y-86880988D01*
X190545891Y-87264920D01*
X190328980Y-87621490D01*
X190132948Y-87944608D01*
X189961476Y-88228184D01*
X189818244Y-88466127D01*
X189706932Y-88652346D01*
X189631221Y-88780752D01*
X189594790Y-88845253D01*
X189592000Y-88851640D01*
X189612902Y-88890896D01*
X189672392Y-88994704D01*
X189765647Y-89154926D01*
X189887841Y-89363424D01*
X190034150Y-89612060D01*
X190199750Y-89892698D01*
X190379817Y-90197198D01*
X190569525Y-90517424D01*
X190764050Y-90845238D01*
X190958569Y-91172501D01*
X191148257Y-91491076D01*
X191328289Y-91792826D01*
X191493841Y-92069612D01*
X191640088Y-92313297D01*
X191762206Y-92515743D01*
X191843084Y-92648750D01*
X191892658Y-92736250D01*
X191911797Y-92783587D01*
X191910064Y-92786334D01*
X191878718Y-92755582D01*
X191801408Y-92669854D01*
X191686700Y-92538942D01*
X191543162Y-92372634D01*
X191379361Y-92180724D01*
X191354424Y-92151337D01*
X191202892Y-91967618D01*
X191011658Y-91727816D01*
X190790453Y-91444582D01*
X190549012Y-91130569D01*
X190297068Y-90798427D01*
X190044355Y-90460808D01*
X189820113Y-90157012D01*
X188824269Y-88797683D01*
X188991024Y-88558925D01*
X189044301Y-88482222D01*
X189141016Y-88342532D01*
X189276535Y-88146563D01*
X189446223Y-87901023D01*
X189645448Y-87612620D01*
X189869574Y-87288063D01*
X190113968Y-86934061D01*
X190373997Y-86557322D01*
X190645025Y-86164555D01*
X190691175Y-86097667D01*
X190959511Y-85709083D01*
X191214618Y-85340321D01*
X191452279Y-84997431D01*
X191668279Y-84686464D01*
X191858401Y-84413472D01*
X192018430Y-84184506D01*
X192144149Y-84005618D01*
X192231343Y-83882859D01*
X192275796Y-83822279D01*
X192279730Y-83817567D01*
X192302704Y-83805121D01*
X192349430Y-83795414D01*
X192426279Y-83788476D01*
X192539620Y-83784338D01*
X192695821Y-83783028D01*
X192901254Y-83784577D01*
G37*
X192901254Y-83784577D02*
X193162286Y-83789015D01*
X193485288Y-83796371D01*
X193876629Y-83806676D01*
X194342679Y-83819960D01*
X194635862Y-83828627D01*
X195080579Y-83841716D01*
X195508668Y-83853970D01*
X195910986Y-83865150D01*
X196278390Y-83875019D01*
X196601736Y-83883337D01*
X196871882Y-83889866D01*
X197079684Y-83894368D01*
X197216001Y-83896605D01*
X197250805Y-83896810D01*
X197397604Y-83899493D01*
X197500824Y-83907026D01*
X197541720Y-83917895D01*
X197540883Y-83920227D01*
X197494806Y-83926764D01*
X197373017Y-83935586D01*
X197184429Y-83946268D01*
X196937954Y-83958384D01*
X196642505Y-83971509D01*
X196306992Y-83985216D01*
X195940329Y-83999079D01*
X195745245Y-84006036D01*
X195329491Y-84020672D01*
X194909164Y-84035666D01*
X194498758Y-84050488D01*
X194112764Y-84064607D01*
X193765677Y-84077492D01*
X193471989Y-84088612D01*
X193246193Y-84097438D01*
X193218381Y-84098559D01*
X192463262Y-84129167D01*
X191027631Y-86475786D01*
X190780002Y-86880988D01*
X190545891Y-87264920D01*
X190328980Y-87621490D01*
X190132948Y-87944608D01*
X189961476Y-88228184D01*
X189818244Y-88466127D01*
X189706932Y-88652346D01*
X189631221Y-88780752D01*
X189594790Y-88845253D01*
X189592000Y-88851640D01*
X189612902Y-88890896D01*
X189672392Y-88994704D01*
X189765647Y-89154926D01*
X189887841Y-89363424D01*
X190034150Y-89612060D01*
X190199750Y-89892698D01*
X190379817Y-90197198D01*
X190569525Y-90517424D01*
X190764050Y-90845238D01*
X190958569Y-91172501D01*
X191148257Y-91491076D01*
X191328289Y-91792826D01*
X191493841Y-92069612D01*
X191640088Y-92313297D01*
X191762206Y-92515743D01*
X191843084Y-92648750D01*
X191892658Y-92736250D01*
X191911797Y-92783587D01*
X191910064Y-92786334D01*
X191878718Y-92755582D01*
X191801408Y-92669854D01*
X191686700Y-92538942D01*
X191543162Y-92372634D01*
X191379361Y-92180724D01*
X191354424Y-92151337D01*
X191202892Y-91967618D01*
X191011658Y-91727816D01*
X190790453Y-91444582D01*
X190549012Y-91130569D01*
X190297068Y-90798427D01*
X190044355Y-90460808D01*
X189820113Y-90157012D01*
X188824269Y-88797683D01*
X188991024Y-88558925D01*
X189044301Y-88482222D01*
X189141016Y-88342532D01*
X189276535Y-88146563D01*
X189446223Y-87901023D01*
X189645448Y-87612620D01*
X189869574Y-87288063D01*
X190113968Y-86934061D01*
X190373997Y-86557322D01*
X190645025Y-86164555D01*
X190691175Y-86097667D01*
X190959511Y-85709083D01*
X191214618Y-85340321D01*
X191452279Y-84997431D01*
X191668279Y-84686464D01*
X191858401Y-84413472D01*
X192018430Y-84184506D01*
X192144149Y-84005618D01*
X192231343Y-83882859D01*
X192275796Y-83822279D01*
X192279730Y-83817567D01*
X192302704Y-83805121D01*
X192349430Y-83795414D01*
X192426279Y-83788476D01*
X192539620Y-83784338D01*
X192695821Y-83783028D01*
X192901254Y-83784577D01*
G36*
X193877548Y-84764418D02*
G01*
X194273664Y-84853328D01*
X194647148Y-85016779D01*
X194991655Y-85250000D01*
X195300841Y-85548222D01*
X195568362Y-85906673D01*
X195787872Y-86320585D01*
X195888028Y-86576458D01*
X195944527Y-86793405D01*
X195988298Y-87065989D01*
X196017110Y-87365832D01*
X196028728Y-87664555D01*
X196020922Y-87933781D01*
X196005652Y-88071496D01*
X195973449Y-88277834D01*
X195874041Y-87887834D01*
X195777659Y-87531154D01*
X195686525Y-87242515D01*
X195594841Y-87006019D01*
X195496809Y-86805763D01*
X195449941Y-86724657D01*
X195263124Y-86471746D01*
X195016510Y-86219368D01*
X194732706Y-85987500D01*
X194434317Y-85796123D01*
X194348370Y-85751093D01*
X194167491Y-85665150D01*
X194029931Y-85612678D01*
X193905268Y-85585547D01*
X193763080Y-85575628D01*
X193687942Y-85574626D01*
X193442871Y-85588184D01*
X193272131Y-85631959D01*
X193248292Y-85643430D01*
X193051369Y-85790009D01*
X192922524Y-85979201D01*
X192863199Y-86201387D01*
X192874839Y-86446947D01*
X192958886Y-86706262D01*
X193061252Y-86890325D01*
X193185367Y-87059730D01*
X193331318Y-87217059D01*
X193508766Y-87369108D01*
X193727372Y-87522668D01*
X193996796Y-87684534D01*
X194326699Y-87861498D01*
X194721631Y-88057881D01*
X194977060Y-88183473D01*
X195172034Y-88285413D01*
X195323457Y-88374457D01*
X195448235Y-88461360D01*
X195563271Y-88556879D01*
X195683668Y-88670015D01*
X195822503Y-88815423D01*
X195943839Y-88960743D01*
X196029342Y-89083227D01*
X196052348Y-89127410D01*
X196116240Y-89387362D01*
X196102698Y-89677020D01*
X196012369Y-89993352D01*
X195845901Y-90333327D01*
X195767696Y-90460555D01*
X195638134Y-90644428D01*
X195487603Y-90823457D01*
X195305959Y-91007153D01*
X195083062Y-91205025D01*
X194808770Y-91426583D01*
X194472940Y-91681339D01*
X194439166Y-91706357D01*
X194168050Y-91909925D01*
X193861083Y-92145421D01*
X193547239Y-92390314D01*
X193255493Y-92622071D01*
X193105666Y-92743355D01*
X192902008Y-92909136D01*
X192718415Y-93057427D01*
X192565804Y-93179502D01*
X192455095Y-93266634D01*
X192397207Y-93310099D01*
X192393676Y-93312359D01*
X192389790Y-93298207D01*
X192429857Y-93231033D01*
X192505540Y-93124405D01*
X192525727Y-93097545D01*
X192798610Y-92715397D01*
X193002325Y-92379307D01*
X193137643Y-92087616D01*
X193205333Y-91838661D01*
X193206167Y-91630781D01*
X193206035Y-91630017D01*
X193180380Y-91518720D01*
X193136973Y-91363599D01*
X193092207Y-91220000D01*
X193009593Y-90845025D01*
X193006127Y-90739145D01*
X193409413Y-90739145D01*
X193414533Y-90839683D01*
X193455167Y-90975880D01*
X193518612Y-91113796D01*
X193587130Y-91214046D01*
X193728685Y-91326943D01*
X193894254Y-91370673D01*
X194095431Y-91346791D01*
X194236697Y-91301170D01*
X194309248Y-91265113D01*
X194311661Y-91219072D01*
X194280686Y-91167490D01*
X194194173Y-91070827D01*
X194068545Y-90971444D01*
X193920181Y-90877393D01*
X193765456Y-90796727D01*
X193620749Y-90737496D01*
X193502435Y-90707752D01*
X193426892Y-90715545D01*
X193409413Y-90739145D01*
X193006127Y-90739145D01*
X192996796Y-90454167D01*
X193039917Y-90136779D01*
X193402000Y-90136779D01*
X193415175Y-90205335D01*
X193469802Y-90244103D01*
X193573975Y-90267947D01*
X193784500Y-90328957D01*
X194021682Y-90437951D01*
X194256699Y-90578955D01*
X194460731Y-90735995D01*
X194519948Y-90792259D01*
X194727731Y-91003677D01*
X194845689Y-90910755D01*
X194925032Y-90839315D01*
X194964972Y-90785941D01*
X194965991Y-90781210D01*
X194936183Y-90727002D01*
X194854584Y-90640850D01*
X194739244Y-90538667D01*
X194608215Y-90436366D01*
X194479548Y-90349859D01*
X194470633Y-90344532D01*
X194288632Y-90251300D01*
X194076667Y-90164552D01*
X193862211Y-90093616D01*
X193672733Y-90047822D01*
X193560750Y-90035560D01*
X193455905Y-90041805D01*
X193411061Y-90072431D01*
X193402000Y-90136779D01*
X193039917Y-90136779D01*
X193049879Y-90063456D01*
X193164906Y-89688924D01*
X193236224Y-89547834D01*
X193571200Y-89547834D01*
X193708850Y-89581770D01*
X194146533Y-89708702D01*
X194512253Y-89857784D01*
X194817060Y-90034504D01*
X195072002Y-90244353D01*
X195101347Y-90273628D01*
X195200605Y-90370826D01*
X195276218Y-90437630D01*
X195307852Y-90458000D01*
X195347255Y-90427310D01*
X195411787Y-90351595D01*
X195426038Y-90332714D01*
X195487264Y-90239423D01*
X195517867Y-90172262D01*
X195518666Y-90165707D01*
X195484875Y-90109831D01*
X195394521Y-90023563D01*
X195264137Y-89919242D01*
X195110252Y-89809207D01*
X194949399Y-89705794D01*
X194798109Y-89621343D01*
X194772471Y-89608774D01*
X194593685Y-89533991D01*
X194375349Y-89457617D01*
X194160927Y-89394694D01*
X194134612Y-89388040D01*
X193771361Y-89298364D01*
X193671281Y-89423099D01*
X193571200Y-89547834D01*
X193236224Y-89547834D01*
X193337944Y-89346603D01*
X193565055Y-89052523D01*
X193633200Y-88985828D01*
X194185166Y-88985828D01*
X194460333Y-89079925D01*
X194909047Y-89266011D01*
X195330466Y-89503525D01*
X195476333Y-89603812D01*
X195597172Y-89684564D01*
X195692052Y-89734562D01*
X195740827Y-89743232D01*
X195741239Y-89742869D01*
X195764581Y-89683954D01*
X195781514Y-89577221D01*
X195783572Y-89550985D01*
X195784039Y-89460986D01*
X195761438Y-89394738D01*
X195700610Y-89330219D01*
X195586395Y-89245410D01*
X195561000Y-89227683D01*
X195400768Y-89132369D01*
X195200861Y-89035759D01*
X195003465Y-88958165D01*
X194996033Y-88955683D01*
X194830440Y-88902336D01*
X194716922Y-88874135D01*
X194627346Y-88869114D01*
X194533577Y-88885307D01*
X194424533Y-88915754D01*
X194185166Y-88985828D01*
X193633200Y-88985828D01*
X193643022Y-88976215D01*
X193892255Y-88782623D01*
X194167905Y-88626165D01*
X194444042Y-88519879D01*
X194625782Y-88482069D01*
X194853983Y-88455042D01*
X194651567Y-88375532D01*
X194127778Y-88138401D01*
X193664321Y-87859083D01*
X193242406Y-87525525D01*
X193063333Y-87356739D01*
X192758244Y-87015078D01*
X192529115Y-86671149D01*
X192378272Y-86329452D01*
X192308041Y-85994485D01*
X192302951Y-85886000D01*
X192322033Y-85615230D01*
X192387812Y-85395960D01*
X192508589Y-85204230D01*
X192559518Y-85145530D01*
X192794149Y-84953123D01*
X193084991Y-84823736D01*
X193431407Y-84757642D01*
X193465146Y-84754819D01*
X193877548Y-84764418D01*
G37*
X193877548Y-84764418D02*
X194273664Y-84853328D01*
X194647148Y-85016779D01*
X194991655Y-85250000D01*
X195300841Y-85548222D01*
X195568362Y-85906673D01*
X195787872Y-86320585D01*
X195888028Y-86576458D01*
X195944527Y-86793405D01*
X195988298Y-87065989D01*
X196017110Y-87365832D01*
X196028728Y-87664555D01*
X196020922Y-87933781D01*
X196005652Y-88071496D01*
X195973449Y-88277834D01*
X195874041Y-87887834D01*
X195777659Y-87531154D01*
X195686525Y-87242515D01*
X195594841Y-87006019D01*
X195496809Y-86805763D01*
X195449941Y-86724657D01*
X195263124Y-86471746D01*
X195016510Y-86219368D01*
X194732706Y-85987500D01*
X194434317Y-85796123D01*
X194348370Y-85751093D01*
X194167491Y-85665150D01*
X194029931Y-85612678D01*
X193905268Y-85585547D01*
X193763080Y-85575628D01*
X193687942Y-85574626D01*
X193442871Y-85588184D01*
X193272131Y-85631959D01*
X193248292Y-85643430D01*
X193051369Y-85790009D01*
X192922524Y-85979201D01*
X192863199Y-86201387D01*
X192874839Y-86446947D01*
X192958886Y-86706262D01*
X193061252Y-86890325D01*
X193185367Y-87059730D01*
X193331318Y-87217059D01*
X193508766Y-87369108D01*
X193727372Y-87522668D01*
X193996796Y-87684534D01*
X194326699Y-87861498D01*
X194721631Y-88057881D01*
X194977060Y-88183473D01*
X195172034Y-88285413D01*
X195323457Y-88374457D01*
X195448235Y-88461360D01*
X195563271Y-88556879D01*
X195683668Y-88670015D01*
X195822503Y-88815423D01*
X195943839Y-88960743D01*
X196029342Y-89083227D01*
X196052348Y-89127410D01*
X196116240Y-89387362D01*
X196102698Y-89677020D01*
X196012369Y-89993352D01*
X195845901Y-90333327D01*
X195767696Y-90460555D01*
X195638134Y-90644428D01*
X195487603Y-90823457D01*
X195305959Y-91007153D01*
X195083062Y-91205025D01*
X194808770Y-91426583D01*
X194472940Y-91681339D01*
X194439166Y-91706357D01*
X194168050Y-91909925D01*
X193861083Y-92145421D01*
X193547239Y-92390314D01*
X193255493Y-92622071D01*
X193105666Y-92743355D01*
X192902008Y-92909136D01*
X192718415Y-93057427D01*
X192565804Y-93179502D01*
X192455095Y-93266634D01*
X192397207Y-93310099D01*
X192393676Y-93312359D01*
X192389790Y-93298207D01*
X192429857Y-93231033D01*
X192505540Y-93124405D01*
X192525727Y-93097545D01*
X192798610Y-92715397D01*
X193002325Y-92379307D01*
X193137643Y-92087616D01*
X193205333Y-91838661D01*
X193206167Y-91630781D01*
X193206035Y-91630017D01*
X193180380Y-91518720D01*
X193136973Y-91363599D01*
X193092207Y-91220000D01*
X193009593Y-90845025D01*
X193006127Y-90739145D01*
X193409413Y-90739145D01*
X193414533Y-90839683D01*
X193455167Y-90975880D01*
X193518612Y-91113796D01*
X193587130Y-91214046D01*
X193728685Y-91326943D01*
X193894254Y-91370673D01*
X194095431Y-91346791D01*
X194236697Y-91301170D01*
X194309248Y-91265113D01*
X194311661Y-91219072D01*
X194280686Y-91167490D01*
X194194173Y-91070827D01*
X194068545Y-90971444D01*
X193920181Y-90877393D01*
X193765456Y-90796727D01*
X193620749Y-90737496D01*
X193502435Y-90707752D01*
X193426892Y-90715545D01*
X193409413Y-90739145D01*
X193006127Y-90739145D01*
X192996796Y-90454167D01*
X193039917Y-90136779D01*
X193402000Y-90136779D01*
X193415175Y-90205335D01*
X193469802Y-90244103D01*
X193573975Y-90267947D01*
X193784500Y-90328957D01*
X194021682Y-90437951D01*
X194256699Y-90578955D01*
X194460731Y-90735995D01*
X194519948Y-90792259D01*
X194727731Y-91003677D01*
X194845689Y-90910755D01*
X194925032Y-90839315D01*
X194964972Y-90785941D01*
X194965991Y-90781210D01*
X194936183Y-90727002D01*
X194854584Y-90640850D01*
X194739244Y-90538667D01*
X194608215Y-90436366D01*
X194479548Y-90349859D01*
X194470633Y-90344532D01*
X194288632Y-90251300D01*
X194076667Y-90164552D01*
X193862211Y-90093616D01*
X193672733Y-90047822D01*
X193560750Y-90035560D01*
X193455905Y-90041805D01*
X193411061Y-90072431D01*
X193402000Y-90136779D01*
X193039917Y-90136779D01*
X193049879Y-90063456D01*
X193164906Y-89688924D01*
X193236224Y-89547834D01*
X193571200Y-89547834D01*
X193708850Y-89581770D01*
X194146533Y-89708702D01*
X194512253Y-89857784D01*
X194817060Y-90034504D01*
X195072002Y-90244353D01*
X195101347Y-90273628D01*
X195200605Y-90370826D01*
X195276218Y-90437630D01*
X195307852Y-90458000D01*
X195347255Y-90427310D01*
X195411787Y-90351595D01*
X195426038Y-90332714D01*
X195487264Y-90239423D01*
X195517867Y-90172262D01*
X195518666Y-90165707D01*
X195484875Y-90109831D01*
X195394521Y-90023563D01*
X195264137Y-89919242D01*
X195110252Y-89809207D01*
X194949399Y-89705794D01*
X194798109Y-89621343D01*
X194772471Y-89608774D01*
X194593685Y-89533991D01*
X194375349Y-89457617D01*
X194160927Y-89394694D01*
X194134612Y-89388040D01*
X193771361Y-89298364D01*
X193671281Y-89423099D01*
X193571200Y-89547834D01*
X193236224Y-89547834D01*
X193337944Y-89346603D01*
X193565055Y-89052523D01*
X193633200Y-88985828D01*
X194185166Y-88985828D01*
X194460333Y-89079925D01*
X194909047Y-89266011D01*
X195330466Y-89503525D01*
X195476333Y-89603812D01*
X195597172Y-89684564D01*
X195692052Y-89734562D01*
X195740827Y-89743232D01*
X195741239Y-89742869D01*
X195764581Y-89683954D01*
X195781514Y-89577221D01*
X195783572Y-89550985D01*
X195784039Y-89460986D01*
X195761438Y-89394738D01*
X195700610Y-89330219D01*
X195586395Y-89245410D01*
X195561000Y-89227683D01*
X195400768Y-89132369D01*
X195200861Y-89035759D01*
X195003465Y-88958165D01*
X194996033Y-88955683D01*
X194830440Y-88902336D01*
X194716922Y-88874135D01*
X194627346Y-88869114D01*
X194533577Y-88885307D01*
X194424533Y-88915754D01*
X194185166Y-88985828D01*
X193633200Y-88985828D01*
X193643022Y-88976215D01*
X193892255Y-88782623D01*
X194167905Y-88626165D01*
X194444042Y-88519879D01*
X194625782Y-88482069D01*
X194853983Y-88455042D01*
X194651567Y-88375532D01*
X194127778Y-88138401D01*
X193664321Y-87859083D01*
X193242406Y-87525525D01*
X193063333Y-87356739D01*
X192758244Y-87015078D01*
X192529115Y-86671149D01*
X192378272Y-86329452D01*
X192308041Y-85994485D01*
X192302951Y-85886000D01*
X192322033Y-85615230D01*
X192387812Y-85395960D01*
X192508589Y-85204230D01*
X192559518Y-85145530D01*
X192794149Y-84953123D01*
X193084991Y-84823736D01*
X193431407Y-84757642D01*
X193465146Y-84754819D01*
X193877548Y-84764418D01*
G36*
X198460810Y-84583035D02*
G01*
X198476650Y-84599734D01*
X198496566Y-84621399D01*
X198511755Y-84637167D01*
X198654610Y-84789869D01*
X198840100Y-85004430D01*
X199062299Y-85273353D01*
X199315280Y-85589143D01*
X199593114Y-85944302D01*
X199889876Y-86331334D01*
X200199637Y-86742744D01*
X200516471Y-87171036D01*
X200531727Y-87191851D01*
X201534132Y-88560134D01*
X201340653Y-88842317D01*
X201282482Y-88926877D01*
X201180904Y-89074217D01*
X201040660Y-89277470D01*
X200866490Y-89529773D01*
X200663135Y-89824260D01*
X200435335Y-90154067D01*
X200187832Y-90512328D01*
X199925365Y-90892179D01*
X199652675Y-91286755D01*
X199611035Y-91347000D01*
X198074896Y-93569500D01*
X197569364Y-93574218D01*
X197425082Y-93573761D01*
X197206867Y-93570629D01*
X196925403Y-93565082D01*
X196591374Y-93557381D01*
X196215463Y-93547787D01*
X195808353Y-93536560D01*
X195380728Y-93523961D01*
X194943272Y-93510252D01*
X194926000Y-93509693D01*
X194473252Y-93494848D01*
X194086447Y-93481551D01*
X193766896Y-93469510D01*
X193515910Y-93458432D01*
X193334802Y-93448023D01*
X193224881Y-93437990D01*
X193187459Y-93428041D01*
X193223847Y-93417882D01*
X193335357Y-93407220D01*
X193523300Y-93395762D01*
X193788986Y-93383215D01*
X194133728Y-93369286D01*
X194558836Y-93353681D01*
X195065622Y-93336107D01*
X195655396Y-93316272D01*
X195815000Y-93310957D01*
X196223976Y-93296832D01*
X196606967Y-93282593D01*
X196955691Y-93268622D01*
X197261867Y-93255296D01*
X197517213Y-93242996D01*
X197713449Y-93232101D01*
X197842293Y-93222990D01*
X197895464Y-93216043D01*
X197896207Y-93215586D01*
X197923541Y-93174747D01*
X197990275Y-93069017D01*
X198091845Y-92905863D01*
X198223687Y-92692752D01*
X198381237Y-92437152D01*
X198559933Y-92146529D01*
X198755209Y-91828351D01*
X198962502Y-91490084D01*
X199177250Y-91139196D01*
X199394887Y-90783153D01*
X199610850Y-90429423D01*
X199820576Y-90085472D01*
X200019500Y-89758769D01*
X200203060Y-89456779D01*
X200366690Y-89186970D01*
X200505829Y-88956809D01*
X200615911Y-88773763D01*
X200692373Y-88645299D01*
X200730652Y-88578884D01*
X200733608Y-88573098D01*
X200736407Y-88542683D01*
X200722965Y-88490703D01*
X200690144Y-88411448D01*
X200634808Y-88299208D01*
X200553820Y-88148273D01*
X200444043Y-87952935D01*
X200302340Y-87707483D01*
X200125575Y-87406208D01*
X199910610Y-87043400D01*
X199686994Y-86668098D01*
X199418563Y-86218469D01*
X199190417Y-85836381D01*
X198999539Y-85516619D01*
X198842911Y-85253969D01*
X198717517Y-85043215D01*
X198620338Y-84879144D01*
X198548357Y-84756541D01*
X198498557Y-84670191D01*
X198467919Y-84614880D01*
X198453427Y-84585393D01*
X198452064Y-84576517D01*
X198460810Y-84583035D01*
G37*
X198460810Y-84583035D02*
X198476650Y-84599734D01*
X198496566Y-84621399D01*
X198511755Y-84637167D01*
X198654610Y-84789869D01*
X198840100Y-85004430D01*
X199062299Y-85273353D01*
X199315280Y-85589143D01*
X199593114Y-85944302D01*
X199889876Y-86331334D01*
X200199637Y-86742744D01*
X200516471Y-87171036D01*
X200531727Y-87191851D01*
X201534132Y-88560134D01*
X201340653Y-88842317D01*
X201282482Y-88926877D01*
X201180904Y-89074217D01*
X201040660Y-89277470D01*
X200866490Y-89529773D01*
X200663135Y-89824260D01*
X200435335Y-90154067D01*
X200187832Y-90512328D01*
X199925365Y-90892179D01*
X199652675Y-91286755D01*
X199611035Y-91347000D01*
X198074896Y-93569500D01*
X197569364Y-93574218D01*
X197425082Y-93573761D01*
X197206867Y-93570629D01*
X196925403Y-93565082D01*
X196591374Y-93557381D01*
X196215463Y-93547787D01*
X195808353Y-93536560D01*
X195380728Y-93523961D01*
X194943272Y-93510252D01*
X194926000Y-93509693D01*
X194473252Y-93494848D01*
X194086447Y-93481551D01*
X193766896Y-93469510D01*
X193515910Y-93458432D01*
X193334802Y-93448023D01*
X193224881Y-93437990D01*
X193187459Y-93428041D01*
X193223847Y-93417882D01*
X193335357Y-93407220D01*
X193523300Y-93395762D01*
X193788986Y-93383215D01*
X194133728Y-93369286D01*
X194558836Y-93353681D01*
X195065622Y-93336107D01*
X195655396Y-93316272D01*
X195815000Y-93310957D01*
X196223976Y-93296832D01*
X196606967Y-93282593D01*
X196955691Y-93268622D01*
X197261867Y-93255296D01*
X197517213Y-93242996D01*
X197713449Y-93232101D01*
X197842293Y-93222990D01*
X197895464Y-93216043D01*
X197896207Y-93215586D01*
X197923541Y-93174747D01*
X197990275Y-93069017D01*
X198091845Y-92905863D01*
X198223687Y-92692752D01*
X198381237Y-92437152D01*
X198559933Y-92146529D01*
X198755209Y-91828351D01*
X198962502Y-91490084D01*
X199177250Y-91139196D01*
X199394887Y-90783153D01*
X199610850Y-90429423D01*
X199820576Y-90085472D01*
X200019500Y-89758769D01*
X200203060Y-89456779D01*
X200366690Y-89186970D01*
X200505829Y-88956809D01*
X200615911Y-88773763D01*
X200692373Y-88645299D01*
X200730652Y-88578884D01*
X200733608Y-88573098D01*
X200736407Y-88542683D01*
X200722965Y-88490703D01*
X200690144Y-88411448D01*
X200634808Y-88299208D01*
X200553820Y-88148273D01*
X200444043Y-87952935D01*
X200302340Y-87707483D01*
X200125575Y-87406208D01*
X199910610Y-87043400D01*
X199686994Y-86668098D01*
X199418563Y-86218469D01*
X199190417Y-85836381D01*
X198999539Y-85516619D01*
X198842911Y-85253969D01*
X198717517Y-85043215D01*
X198620338Y-84879144D01*
X198548357Y-84756541D01*
X198498557Y-84670191D01*
X198467919Y-84614880D01*
X198453427Y-84585393D01*
X198452064Y-84576517D01*
X198460810Y-84583035D01*
D14*
X213516000Y-89064000D02*
X216916000Y-89064000D01*
X213516000Y-66664000D02*
X213516000Y-89064000D01*
X219266000Y-66664000D02*
X213516000Y-66664000D01*
X219266000Y-86614000D02*
X219266000Y-66664000D01*
D15*
X212410000Y-38460000D02*
X212410000Y-39790000D01*
X211080000Y-38460000D02*
X212410000Y-38460000D01*
X209810000Y-38460000D02*
X209810000Y-41120000D01*
X209810000Y-41120000D02*
X191970000Y-41120000D01*
X209810000Y-38460000D02*
X191970000Y-38460000D01*
X191970000Y-38460000D02*
X191970000Y-41120000D01*
D16*
X179830000Y-38290000D02*
X179830000Y-40790000D01*
X189830000Y-38290000D02*
X179830000Y-38290000D01*
X189830000Y-40790000D02*
X189830000Y-38290000D01*
X179830000Y-40790000D02*
X189830000Y-40790000D01*
D14*
X184930000Y-41390000D02*
G75*
G03X184930000Y-41390000I-100000J0D01*
G01*
X167650000Y-95000000D02*
G75*
G03X167650000Y-95000000I-100000J0D01*
G01*
D16*
X171060000Y-93910000D02*
X171310000Y-93910000D01*
X171060000Y-94310000D02*
X171060000Y-93910000D01*
X171060000Y-93310000D02*
X171060000Y-92910000D01*
X171310000Y-93310000D02*
X171060000Y-93310000D01*
X171310000Y-93910000D02*
X171310000Y-93310000D01*
D15*
X212270000Y-93780000D02*
X212270000Y-92450000D01*
X213600000Y-93780000D02*
X212270000Y-93780000D01*
X214870000Y-93780000D02*
X214870000Y-91120000D01*
X214870000Y-91120000D02*
X217470000Y-91120000D01*
X214870000Y-93780000D02*
X217470000Y-93780000D01*
X217470000Y-93780000D02*
X217470000Y-91120000D01*
X220120000Y-38460000D02*
X220120000Y-39790000D01*
X218790000Y-38460000D02*
X220120000Y-38460000D01*
X217520000Y-38460000D02*
X217520000Y-41120000D01*
X217520000Y-41120000D02*
X214920000Y-41120000D01*
X217520000Y-38460000D02*
X214920000Y-38460000D01*
X214920000Y-38460000D02*
X214920000Y-41120000D01*
D11*
X149750000Y-78650000D02*
X165750000Y-78650000D01*
X149750000Y-94650000D02*
X165750000Y-94650000D01*
X152750000Y-79650000D02*
G75*
G03X152750000Y-79650000I-500000J0D01*
G01*
D14*
X173150000Y-71900000D02*
G75*
G03X173150000Y-71900000I-100000J0D01*
G01*
D16*
X164350000Y-72600000D02*
X169850000Y-72600000D01*
X169850000Y-66600000D02*
X169850000Y-72600000D01*
X164350000Y-66600000D02*
X169850000Y-66600000D01*
X164350000Y-72600000D02*
X164350000Y-66600000D01*
D14*
X172200000Y-79045000D02*
G75*
G02X172300000Y-79045000I50000J0D01*
G01*
X172300000Y-79045000D02*
G75*
G02X172200000Y-79045000I-50000J0D01*
G01*
X172200000Y-79045000D02*
G75*
G02X172300000Y-79045000I50000J0D01*
G01*
X172300000Y-79045000D02*
X172300000Y-79045000D01*
X172200000Y-79045000D02*
X172200000Y-79045000D01*
X172300000Y-79045000D02*
X172300000Y-79045000D01*
D17*
X175100000Y-77610000D02*
X180500000Y-77610000D01*
X175100000Y-86830000D02*
X175100000Y-77610000D01*
X180500000Y-86830000D02*
X175100000Y-86830000D01*
X180500000Y-77610000D02*
X180500000Y-86830000D01*
D14*
X185500000Y-71900000D02*
G75*
G03X185500000Y-71900000I-100000J0D01*
G01*
D16*
X176700000Y-72600000D02*
X182200000Y-72600000D01*
X182200000Y-66600000D02*
X182200000Y-72600000D01*
X176700000Y-66600000D02*
X182200000Y-66600000D01*
X176700000Y-72600000D02*
X176700000Y-66600000D01*
D14*
X222650000Y-86200000D02*
X226050000Y-86200000D01*
X222650000Y-71300000D02*
X222650000Y-86200000D01*
X228400000Y-71300000D02*
X222650000Y-71300000D01*
X228400000Y-83750000D02*
X228400000Y-71300000D01*
D15*
X186770000Y-68150000D02*
X186770000Y-66820000D01*
X186770000Y-66820000D02*
X188100000Y-66820000D01*
X189370000Y-66820000D02*
X202130000Y-66820000D01*
X202130000Y-69480000D02*
X202130000Y-66820000D01*
X189370000Y-69480000D02*
X202130000Y-69480000D01*
X189370000Y-69480000D02*
X189370000Y-66820000D01*
X170360000Y-38500000D02*
X170360000Y-39830000D01*
X169030000Y-38500000D02*
X170360000Y-38500000D01*
X167760000Y-38500000D02*
X167760000Y-41160000D01*
X167760000Y-41160000D02*
X165160000Y-41160000D01*
X167760000Y-38500000D02*
X165160000Y-38500000D01*
X165160000Y-38500000D02*
X165160000Y-41160000D01*
D14*
X155780000Y-44050000D02*
X155780000Y-40650000D01*
X148380000Y-44050000D02*
X155780000Y-44050000D01*
X148380000Y-38300000D02*
X148380000Y-44050000D01*
X153330000Y-38300000D02*
X148380000Y-38300000D01*
X141620000Y-77760000D02*
G75*
G03X141620000Y-77760000I-100000J0D01*
G01*
D16*
X144970000Y-72885000D02*
X144780000Y-72885000D01*
X144970000Y-75320000D02*
X144970000Y-72885000D01*
X144970000Y-76610000D02*
X144970000Y-76290000D01*
X144970000Y-80035000D02*
X144970000Y-77600000D01*
X144780000Y-80035000D02*
X144970000Y-80035000D01*
X142070000Y-80035000D02*
X142700000Y-80035000D01*
X142070000Y-72885000D02*
X142700000Y-72885000D01*
X142070000Y-80035000D02*
X142070000Y-72885000D01*
D15*
X180275000Y-76155000D02*
X182560000Y-76155000D01*
X180275000Y-74685000D02*
X180275000Y-76155000D01*
X182560000Y-74685000D02*
X180275000Y-74685000D01*
X157487500Y-39805000D02*
X159772500Y-39805000D01*
X157487500Y-38335000D02*
X157487500Y-39805000D01*
X159772500Y-38335000D02*
X157487500Y-38335000D01*
X163685000Y-38335000D02*
X161400000Y-38335000D01*
X163685000Y-39805000D02*
X163685000Y-38335000D01*
X161400000Y-39805000D02*
X163685000Y-39805000D01*
D14*
X149300000Y-66100000D02*
X158800000Y-66100000D01*
X152575000Y-74400000D02*
X158800000Y-74400000D01*
D16*
X145775000Y-44075000D02*
X222825000Y-44075000D01*
X222825000Y-64725000D02*
X145775000Y-64725000D01*
D12*
X141735714Y-85630714D02*
X141164285Y-85630714D01*
X141450000Y-85630714D02*
X141450000Y-84280714D01*
X141354761Y-84473571D01*
X141259523Y-84602142D01*
X141164285Y-84666428D01*
D18*
X212500000Y-89539285D02*
X212500000Y-90075000D01*
X212464285Y-90182142D01*
X212392857Y-90253571D01*
X212285714Y-90289285D01*
X212214285Y-90289285D01*
X212892857Y-90289285D02*
X213035714Y-90289285D01*
X213107142Y-90253571D01*
X213142857Y-90217857D01*
X213214285Y-90110714D01*
X213250000Y-89967857D01*
X213250000Y-89682142D01*
X213214285Y-89610714D01*
X213178571Y-89575000D01*
X213107142Y-89539285D01*
X212964285Y-89539285D01*
X212892857Y-89575000D01*
X212857142Y-89610714D01*
X212821428Y-89682142D01*
X212821428Y-89860714D01*
X212857142Y-89932142D01*
X212892857Y-89967857D01*
X212964285Y-90003571D01*
X213107142Y-90003571D01*
X213178571Y-89967857D01*
X213214285Y-89932142D01*
X213250000Y-89860714D01*
X190639285Y-40050000D02*
X191175000Y-40050000D01*
X191282142Y-40085714D01*
X191353571Y-40157142D01*
X191389285Y-40264285D01*
X191389285Y-40335714D01*
X190639285Y-39335714D02*
X190639285Y-39692857D01*
X190996428Y-39728571D01*
X190960714Y-39692857D01*
X190925000Y-39621428D01*
X190925000Y-39442857D01*
X190960714Y-39371428D01*
X190996428Y-39335714D01*
X191067857Y-39300000D01*
X191246428Y-39300000D01*
X191317857Y-39335714D01*
X191353571Y-39371428D01*
X191389285Y-39442857D01*
X191389285Y-39621428D01*
X191353571Y-39692857D01*
X191317857Y-39728571D01*
X179363571Y-40171428D02*
X179399285Y-40064285D01*
X179399285Y-39885714D01*
X179363571Y-39814285D01*
X179327857Y-39778571D01*
X179256428Y-39742857D01*
X179185000Y-39742857D01*
X179113571Y-39778571D01*
X179077857Y-39814285D01*
X179042142Y-39885714D01*
X179006428Y-40028571D01*
X178970714Y-40100000D01*
X178935000Y-40135714D01*
X178863571Y-40171428D01*
X178792142Y-40171428D01*
X178720714Y-40135714D01*
X178685000Y-40100000D01*
X178649285Y-40028571D01*
X178649285Y-39850000D01*
X178685000Y-39742857D01*
X178899285Y-39100000D02*
X179399285Y-39100000D01*
X178613571Y-39278571D02*
X179149285Y-39457142D01*
X179149285Y-38992857D01*
X213539285Y-40407142D02*
X214075000Y-40407142D01*
X214182142Y-40442857D01*
X214253571Y-40514285D01*
X214289285Y-40621428D01*
X214289285Y-40692857D01*
X214289285Y-39657142D02*
X214289285Y-40085714D01*
X214289285Y-39871428D02*
X213539285Y-39871428D01*
X213646428Y-39942857D01*
X213717857Y-40014285D01*
X213753571Y-40085714D01*
X213610714Y-39371428D02*
X213575000Y-39335714D01*
X213539285Y-39264285D01*
X213539285Y-39085714D01*
X213575000Y-39014285D01*
X213610714Y-38978571D01*
X213682142Y-38942857D01*
X213753571Y-38942857D01*
X213860714Y-38978571D01*
X214289285Y-39407142D01*
X214289285Y-38942857D01*
X221700000Y-86739285D02*
X221700000Y-87275000D01*
X221664285Y-87382142D01*
X221592857Y-87453571D01*
X221485714Y-87489285D01*
X221414285Y-87489285D01*
X222164285Y-87060714D02*
X222092857Y-87025000D01*
X222057142Y-86989285D01*
X222021428Y-86917857D01*
X222021428Y-86882142D01*
X222057142Y-86810714D01*
X222092857Y-86775000D01*
X222164285Y-86739285D01*
X222307142Y-86739285D01*
X222378571Y-86775000D01*
X222414285Y-86810714D01*
X222450000Y-86882142D01*
X222450000Y-86917857D01*
X222414285Y-86989285D01*
X222378571Y-87025000D01*
X222307142Y-87060714D01*
X222164285Y-87060714D01*
X222092857Y-87096428D01*
X222057142Y-87132142D01*
X222021428Y-87203571D01*
X222021428Y-87346428D01*
X222057142Y-87417857D01*
X222092857Y-87453571D01*
X222164285Y-87489285D01*
X222307142Y-87489285D01*
X222378571Y-87453571D01*
X222414285Y-87417857D01*
X222450000Y-87346428D01*
X222450000Y-87203571D01*
X222414285Y-87132142D01*
X222378571Y-87096428D01*
X222307142Y-87060714D01*
X185550000Y-69789285D02*
X185550000Y-70325000D01*
X185514285Y-70432142D01*
X185442857Y-70503571D01*
X185335714Y-70539285D01*
X185264285Y-70539285D01*
X185835714Y-69789285D02*
X186335714Y-69789285D01*
X186014285Y-70539285D01*
X170999285Y-40020000D02*
X171535000Y-40020000D01*
X171642142Y-40055714D01*
X171713571Y-40127142D01*
X171749285Y-40234285D01*
X171749285Y-40305714D01*
X171249285Y-39341428D02*
X171749285Y-39341428D01*
X170963571Y-39520000D02*
X171499285Y-39698571D01*
X171499285Y-39234285D01*
X156239285Y-42950000D02*
X156775000Y-42950000D01*
X156882142Y-42985714D01*
X156953571Y-43057142D01*
X156989285Y-43164285D01*
X156989285Y-43235714D01*
X156239285Y-42664285D02*
X156239285Y-42200000D01*
X156525000Y-42450000D01*
X156525000Y-42342857D01*
X156560714Y-42271428D01*
X156596428Y-42235714D01*
X156667857Y-42200000D01*
X156846428Y-42200000D01*
X156917857Y-42235714D01*
X156953571Y-42271428D01*
X156989285Y-42342857D01*
X156989285Y-42557142D01*
X156953571Y-42628571D01*
X156917857Y-42664285D01*
X145590000Y-71599285D02*
X145590000Y-72135000D01*
X145554285Y-72242142D01*
X145482857Y-72313571D01*
X145375714Y-72349285D01*
X145304285Y-72349285D01*
X145911428Y-71670714D02*
X145947142Y-71635000D01*
X146018571Y-71599285D01*
X146197142Y-71599285D01*
X146268571Y-71635000D01*
X146304285Y-71670714D01*
X146340000Y-71742142D01*
X146340000Y-71813571D01*
X146304285Y-71920714D01*
X145875714Y-72349285D01*
X146340000Y-72349285D01*
%LPC*%
D19*
X216916000Y-69114000D03*
X216916000Y-71614000D03*
X216916000Y-74114000D03*
X216916000Y-76614000D03*
X216916000Y-79114000D03*
X216916000Y-81614000D03*
X216916000Y-84114000D03*
D20*
X216916000Y-86614000D03*
D21*
X193300000Y-39790000D03*
X195840000Y-39790000D03*
X198380000Y-39790000D03*
X200920000Y-39790000D03*
X203460000Y-39790000D03*
X206000000Y-39790000D03*
X208540000Y-39790000D03*
D22*
X211080000Y-39790000D03*
D23*
X187370000Y-39540000D03*
X182290000Y-39540000D03*
D24*
X184830000Y-39540000D03*
D25*
X169760000Y-95085000D03*
D26*
X168235000Y-93610000D03*
D25*
X169760000Y-92135000D03*
D21*
X216140000Y-92450000D03*
D22*
X213600000Y-92450000D03*
D21*
X216250000Y-39790000D03*
D22*
X218790000Y-39790000D03*
D27*
X207481891Y-87818109D03*
X206050000Y-87225000D03*
X204618109Y-87818109D03*
X204025000Y-89250000D03*
X204618109Y-90681891D03*
X206050000Y-91275000D03*
X207481891Y-90681891D03*
X208075000Y-89250000D03*
D28*
X206050000Y-89250000D03*
D27*
X163981891Y-43318109D03*
X162550000Y-42725000D03*
X161118109Y-43318109D03*
X160525000Y-44750000D03*
X161118109Y-46181891D03*
X162550000Y-46775000D03*
X163981891Y-46181891D03*
X164575000Y-44750000D03*
D28*
X162550000Y-44750000D03*
D27*
X225531891Y-65568109D03*
X224100000Y-64975000D03*
X222668109Y-65568109D03*
X222075000Y-67000000D03*
X222668109Y-68431891D03*
X224100000Y-69025000D03*
X225531891Y-68431891D03*
X226125000Y-67000000D03*
D28*
X224100000Y-67000000D03*
D27*
X145931891Y-65568109D03*
X144500000Y-64975000D03*
X143068109Y-65568109D03*
X142475000Y-67000000D03*
X143068109Y-68431891D03*
X144500000Y-69025000D03*
X145931891Y-68431891D03*
X146525000Y-67000000D03*
D28*
X144500000Y-67000000D03*
D29*
X149750000Y-79650000D03*
X149750000Y-81650000D03*
X149750000Y-83650000D03*
X149750000Y-85650000D03*
X149750000Y-87650000D03*
X149750000Y-89650000D03*
X149750000Y-91650000D03*
X149750000Y-93650000D03*
X165750000Y-93650000D03*
X165750000Y-91650000D03*
X165750000Y-89650000D03*
X165750000Y-87650000D03*
X165750000Y-85650000D03*
X165750000Y-83650000D03*
X165750000Y-81650000D03*
X165750000Y-79650000D03*
D30*
X162800000Y-71850000D03*
X171350000Y-71850000D03*
X171350000Y-67350000D03*
X162800000Y-67350000D03*
D31*
X181610000Y-79045000D03*
X181610000Y-80315000D03*
X181610000Y-81585000D03*
X181610000Y-82855000D03*
X181610000Y-84125000D03*
X181610000Y-85395000D03*
X173990000Y-85395000D03*
X173990000Y-84125000D03*
X173990000Y-82855000D03*
X173990000Y-81585000D03*
X173990000Y-80315000D03*
X173990000Y-79045000D03*
D30*
X175150000Y-71850000D03*
X183700000Y-71850000D03*
X183700000Y-67350000D03*
X175150000Y-67350000D03*
D19*
X226050000Y-73750000D03*
X226050000Y-76250000D03*
X226050000Y-78750000D03*
X226050000Y-81250000D03*
D20*
X226050000Y-83750000D03*
D21*
X200800000Y-68150000D03*
X198260000Y-68150000D03*
X195720000Y-68150000D03*
X193180000Y-68150000D03*
X190640000Y-68150000D03*
D22*
X188100000Y-68150000D03*
D21*
X166490000Y-39830000D03*
D22*
X169030000Y-39830000D03*
D19*
X150830000Y-40650000D03*
D20*
X153330000Y-40650000D03*
D32*
X143740000Y-72885000D03*
X143740000Y-80035000D03*
D33*
X143520000Y-75160000D03*
X144520000Y-75810000D03*
X143520000Y-76460000D03*
X144520000Y-77110000D03*
X143520000Y-77760000D03*
D17*
G36*
X182787691Y-74946053D02*
G01*
X182808926Y-74949203D01*
X182829750Y-74954419D01*
X182849962Y-74961651D01*
X182869368Y-74970830D01*
X182887781Y-74981866D01*
X182905024Y-74994654D01*
X182920930Y-75009070D01*
X182935346Y-75024976D01*
X182948134Y-75042219D01*
X182959170Y-75060632D01*
X182968349Y-75080038D01*
X182975581Y-75100250D01*
X182980797Y-75121074D01*
X182983947Y-75142309D01*
X182985000Y-75163750D01*
X182985000Y-75676250D01*
X182983947Y-75697691D01*
X182980797Y-75718926D01*
X182975581Y-75739750D01*
X182968349Y-75759962D01*
X182959170Y-75779368D01*
X182948134Y-75797781D01*
X182935346Y-75815024D01*
X182920930Y-75830930D01*
X182905024Y-75845346D01*
X182887781Y-75858134D01*
X182869368Y-75869170D01*
X182849962Y-75878349D01*
X182829750Y-75885581D01*
X182808926Y-75890797D01*
X182787691Y-75893947D01*
X182766250Y-75895000D01*
X182328750Y-75895000D01*
X182307309Y-75893947D01*
X182286074Y-75890797D01*
X182265250Y-75885581D01*
X182245038Y-75878349D01*
X182225632Y-75869170D01*
X182207219Y-75858134D01*
X182189976Y-75845346D01*
X182174070Y-75830930D01*
X182159654Y-75815024D01*
X182146866Y-75797781D01*
X182135830Y-75779368D01*
X182126651Y-75759962D01*
X182119419Y-75739750D01*
X182114203Y-75718926D01*
X182111053Y-75697691D01*
X182110000Y-75676250D01*
X182110000Y-75163750D01*
X182111053Y-75142309D01*
X182114203Y-75121074D01*
X182119419Y-75100250D01*
X182126651Y-75080038D01*
X182135830Y-75060632D01*
X182146866Y-75042219D01*
X182159654Y-75024976D01*
X182174070Y-75009070D01*
X182189976Y-74994654D01*
X182207219Y-74981866D01*
X182225632Y-74970830D01*
X182245038Y-74961651D01*
X182265250Y-74954419D01*
X182286074Y-74949203D01*
X182307309Y-74946053D01*
X182328750Y-74945000D01*
X182766250Y-74945000D01*
X182787691Y-74946053D01*
G37*
G36*
X181212691Y-74946053D02*
G01*
X181233926Y-74949203D01*
X181254750Y-74954419D01*
X181274962Y-74961651D01*
X181294368Y-74970830D01*
X181312781Y-74981866D01*
X181330024Y-74994654D01*
X181345930Y-75009070D01*
X181360346Y-75024976D01*
X181373134Y-75042219D01*
X181384170Y-75060632D01*
X181393349Y-75080038D01*
X181400581Y-75100250D01*
X181405797Y-75121074D01*
X181408947Y-75142309D01*
X181410000Y-75163750D01*
X181410000Y-75676250D01*
X181408947Y-75697691D01*
X181405797Y-75718926D01*
X181400581Y-75739750D01*
X181393349Y-75759962D01*
X181384170Y-75779368D01*
X181373134Y-75797781D01*
X181360346Y-75815024D01*
X181345930Y-75830930D01*
X181330024Y-75845346D01*
X181312781Y-75858134D01*
X181294368Y-75869170D01*
X181274962Y-75878349D01*
X181254750Y-75885581D01*
X181233926Y-75890797D01*
X181212691Y-75893947D01*
X181191250Y-75895000D01*
X180753750Y-75895000D01*
X180732309Y-75893947D01*
X180711074Y-75890797D01*
X180690250Y-75885581D01*
X180670038Y-75878349D01*
X180650632Y-75869170D01*
X180632219Y-75858134D01*
X180614976Y-75845346D01*
X180599070Y-75830930D01*
X180584654Y-75815024D01*
X180571866Y-75797781D01*
X180560830Y-75779368D01*
X180551651Y-75759962D01*
X180544419Y-75739750D01*
X180539203Y-75718926D01*
X180536053Y-75697691D01*
X180535000Y-75676250D01*
X180535000Y-75163750D01*
X180536053Y-75142309D01*
X180539203Y-75121074D01*
X180544419Y-75100250D01*
X180551651Y-75080038D01*
X180560830Y-75060632D01*
X180571866Y-75042219D01*
X180584654Y-75024976D01*
X180599070Y-75009070D01*
X180614976Y-74994654D01*
X180632219Y-74981866D01*
X180650632Y-74970830D01*
X180670038Y-74961651D01*
X180690250Y-74954419D01*
X180711074Y-74949203D01*
X180732309Y-74946053D01*
X180753750Y-74945000D01*
X181191250Y-74945000D01*
X181212691Y-74946053D01*
G37*
G36*
X160000191Y-38596053D02*
G01*
X160021426Y-38599203D01*
X160042250Y-38604419D01*
X160062462Y-38611651D01*
X160081868Y-38620830D01*
X160100281Y-38631866D01*
X160117524Y-38644654D01*
X160133430Y-38659070D01*
X160147846Y-38674976D01*
X160160634Y-38692219D01*
X160171670Y-38710632D01*
X160180849Y-38730038D01*
X160188081Y-38750250D01*
X160193297Y-38771074D01*
X160196447Y-38792309D01*
X160197500Y-38813750D01*
X160197500Y-39326250D01*
X160196447Y-39347691D01*
X160193297Y-39368926D01*
X160188081Y-39389750D01*
X160180849Y-39409962D01*
X160171670Y-39429368D01*
X160160634Y-39447781D01*
X160147846Y-39465024D01*
X160133430Y-39480930D01*
X160117524Y-39495346D01*
X160100281Y-39508134D01*
X160081868Y-39519170D01*
X160062462Y-39528349D01*
X160042250Y-39535581D01*
X160021426Y-39540797D01*
X160000191Y-39543947D01*
X159978750Y-39545000D01*
X159541250Y-39545000D01*
X159519809Y-39543947D01*
X159498574Y-39540797D01*
X159477750Y-39535581D01*
X159457538Y-39528349D01*
X159438132Y-39519170D01*
X159419719Y-39508134D01*
X159402476Y-39495346D01*
X159386570Y-39480930D01*
X159372154Y-39465024D01*
X159359366Y-39447781D01*
X159348330Y-39429368D01*
X159339151Y-39409962D01*
X159331919Y-39389750D01*
X159326703Y-39368926D01*
X159323553Y-39347691D01*
X159322500Y-39326250D01*
X159322500Y-38813750D01*
X159323553Y-38792309D01*
X159326703Y-38771074D01*
X159331919Y-38750250D01*
X159339151Y-38730038D01*
X159348330Y-38710632D01*
X159359366Y-38692219D01*
X159372154Y-38674976D01*
X159386570Y-38659070D01*
X159402476Y-38644654D01*
X159419719Y-38631866D01*
X159438132Y-38620830D01*
X159457538Y-38611651D01*
X159477750Y-38604419D01*
X159498574Y-38599203D01*
X159519809Y-38596053D01*
X159541250Y-38595000D01*
X159978750Y-38595000D01*
X160000191Y-38596053D01*
G37*
G36*
X158425191Y-38596053D02*
G01*
X158446426Y-38599203D01*
X158467250Y-38604419D01*
X158487462Y-38611651D01*
X158506868Y-38620830D01*
X158525281Y-38631866D01*
X158542524Y-38644654D01*
X158558430Y-38659070D01*
X158572846Y-38674976D01*
X158585634Y-38692219D01*
X158596670Y-38710632D01*
X158605849Y-38730038D01*
X158613081Y-38750250D01*
X158618297Y-38771074D01*
X158621447Y-38792309D01*
X158622500Y-38813750D01*
X158622500Y-39326250D01*
X158621447Y-39347691D01*
X158618297Y-39368926D01*
X158613081Y-39389750D01*
X158605849Y-39409962D01*
X158596670Y-39429368D01*
X158585634Y-39447781D01*
X158572846Y-39465024D01*
X158558430Y-39480930D01*
X158542524Y-39495346D01*
X158525281Y-39508134D01*
X158506868Y-39519170D01*
X158487462Y-39528349D01*
X158467250Y-39535581D01*
X158446426Y-39540797D01*
X158425191Y-39543947D01*
X158403750Y-39545000D01*
X157966250Y-39545000D01*
X157944809Y-39543947D01*
X157923574Y-39540797D01*
X157902750Y-39535581D01*
X157882538Y-39528349D01*
X157863132Y-39519170D01*
X157844719Y-39508134D01*
X157827476Y-39495346D01*
X157811570Y-39480930D01*
X157797154Y-39465024D01*
X157784366Y-39447781D01*
X157773330Y-39429368D01*
X157764151Y-39409962D01*
X157756919Y-39389750D01*
X157751703Y-39368926D01*
X157748553Y-39347691D01*
X157747500Y-39326250D01*
X157747500Y-38813750D01*
X157748553Y-38792309D01*
X157751703Y-38771074D01*
X157756919Y-38750250D01*
X157764151Y-38730038D01*
X157773330Y-38710632D01*
X157784366Y-38692219D01*
X157797154Y-38674976D01*
X157811570Y-38659070D01*
X157827476Y-38644654D01*
X157844719Y-38631866D01*
X157863132Y-38620830D01*
X157882538Y-38611651D01*
X157902750Y-38604419D01*
X157923574Y-38599203D01*
X157944809Y-38596053D01*
X157966250Y-38595000D01*
X158403750Y-38595000D01*
X158425191Y-38596053D01*
G37*
G36*
X161652691Y-38596053D02*
G01*
X161673926Y-38599203D01*
X161694750Y-38604419D01*
X161714962Y-38611651D01*
X161734368Y-38620830D01*
X161752781Y-38631866D01*
X161770024Y-38644654D01*
X161785930Y-38659070D01*
X161800346Y-38674976D01*
X161813134Y-38692219D01*
X161824170Y-38710632D01*
X161833349Y-38730038D01*
X161840581Y-38750250D01*
X161845797Y-38771074D01*
X161848947Y-38792309D01*
X161850000Y-38813750D01*
X161850000Y-39326250D01*
X161848947Y-39347691D01*
X161845797Y-39368926D01*
X161840581Y-39389750D01*
X161833349Y-39409962D01*
X161824170Y-39429368D01*
X161813134Y-39447781D01*
X161800346Y-39465024D01*
X161785930Y-39480930D01*
X161770024Y-39495346D01*
X161752781Y-39508134D01*
X161734368Y-39519170D01*
X161714962Y-39528349D01*
X161694750Y-39535581D01*
X161673926Y-39540797D01*
X161652691Y-39543947D01*
X161631250Y-39545000D01*
X161193750Y-39545000D01*
X161172309Y-39543947D01*
X161151074Y-39540797D01*
X161130250Y-39535581D01*
X161110038Y-39528349D01*
X161090632Y-39519170D01*
X161072219Y-39508134D01*
X161054976Y-39495346D01*
X161039070Y-39480930D01*
X161024654Y-39465024D01*
X161011866Y-39447781D01*
X161000830Y-39429368D01*
X160991651Y-39409962D01*
X160984419Y-39389750D01*
X160979203Y-39368926D01*
X160976053Y-39347691D01*
X160975000Y-39326250D01*
X160975000Y-38813750D01*
X160976053Y-38792309D01*
X160979203Y-38771074D01*
X160984419Y-38750250D01*
X160991651Y-38730038D01*
X161000830Y-38710632D01*
X161011866Y-38692219D01*
X161024654Y-38674976D01*
X161039070Y-38659070D01*
X161054976Y-38644654D01*
X161072219Y-38631866D01*
X161090632Y-38620830D01*
X161110038Y-38611651D01*
X161130250Y-38604419D01*
X161151074Y-38599203D01*
X161172309Y-38596053D01*
X161193750Y-38595000D01*
X161631250Y-38595000D01*
X161652691Y-38596053D01*
G37*
G36*
X163227691Y-38596053D02*
G01*
X163248926Y-38599203D01*
X163269750Y-38604419D01*
X163289962Y-38611651D01*
X163309368Y-38620830D01*
X163327781Y-38631866D01*
X163345024Y-38644654D01*
X163360930Y-38659070D01*
X163375346Y-38674976D01*
X163388134Y-38692219D01*
X163399170Y-38710632D01*
X163408349Y-38730038D01*
X163415581Y-38750250D01*
X163420797Y-38771074D01*
X163423947Y-38792309D01*
X163425000Y-38813750D01*
X163425000Y-39326250D01*
X163423947Y-39347691D01*
X163420797Y-39368926D01*
X163415581Y-39389750D01*
X163408349Y-39409962D01*
X163399170Y-39429368D01*
X163388134Y-39447781D01*
X163375346Y-39465024D01*
X163360930Y-39480930D01*
X163345024Y-39495346D01*
X163327781Y-39508134D01*
X163309368Y-39519170D01*
X163289962Y-39528349D01*
X163269750Y-39535581D01*
X163248926Y-39540797D01*
X163227691Y-39543947D01*
X163206250Y-39545000D01*
X162768750Y-39545000D01*
X162747309Y-39543947D01*
X162726074Y-39540797D01*
X162705250Y-39535581D01*
X162685038Y-39528349D01*
X162665632Y-39519170D01*
X162647219Y-39508134D01*
X162629976Y-39495346D01*
X162614070Y-39480930D01*
X162599654Y-39465024D01*
X162586866Y-39447781D01*
X162575830Y-39429368D01*
X162566651Y-39409962D01*
X162559419Y-39389750D01*
X162554203Y-39368926D01*
X162551053Y-39347691D01*
X162550000Y-39326250D01*
X162550000Y-38813750D01*
X162551053Y-38792309D01*
X162554203Y-38771074D01*
X162559419Y-38750250D01*
X162566651Y-38730038D01*
X162575830Y-38710632D01*
X162586866Y-38692219D01*
X162599654Y-38674976D01*
X162614070Y-38659070D01*
X162629976Y-38644654D01*
X162647219Y-38631866D01*
X162665632Y-38620830D01*
X162685038Y-38611651D01*
X162705250Y-38604419D01*
X162726074Y-38599203D01*
X162747309Y-38596053D01*
X162768750Y-38595000D01*
X163206250Y-38595000D01*
X163227691Y-38596053D01*
G37*
D34*
X158000000Y-70250000D03*
X151300000Y-70250000D03*
D35*
X223630000Y-54400000D03*
X144970000Y-54400000D03*
D36*
X148370000Y-46400000D03*
M02*
