G04 #@! TF.GenerationSoftware,KiCad,Pcbnew,5.1.5+dfsg1-2build2*
G04 #@! TF.CreationDate,2022-03-31T13:11:17+02:00*
G04 #@! TF.ProjectId,EcoApi_pcb,45636f41-7069-45f7-9063-622e6b696361,rev?*
G04 #@! TF.SameCoordinates,Original*
G04 #@! TF.FileFunction,Soldermask,Top*
G04 #@! TF.FilePolarity,Negative*
%FSLAX46Y46*%
G04 Gerber Fmt 4.6, Leading zero omitted, Abs format (unit mm)*
G04 Created by KiCad (PCBNEW 5.1.5+dfsg1-2build2) date 2022-03-31 13:11:17*
%MOMM*%
%LPD*%
G04 APERTURE LIST*
%ADD10C,1.650000*%
%ADD11R,1.650000X1.650000*%
%ADD12O,1.700000X1.700000*%
%ADD13R,1.700000X1.700000*%
%ADD14C,1.308000*%
%ADD15R,1.308000X1.308000*%
%ADD16R,2.200000X1.050000*%
%ADD17R,1.050000X1.000000*%
%ADD18C,0.800000*%
%ADD19C,5.400000*%
%ADD20R,2.500000X1.200000*%
%ADD21R,2.100000X1.400000*%
%ADD22R,1.270000X0.760000*%
%ADD23O,1.716000X0.858000*%
%ADD24C,0.948000*%
%ADD25C,0.100000*%
%ADD26R,4.000000X2.150000*%
%ADD27R,7.350000X6.350000*%
%ADD28C,3.406000*%
G04 APERTURE END LIST*
D10*
X216916000Y-69114000D03*
X216916000Y-71614000D03*
X216916000Y-74114000D03*
X216916000Y-76614000D03*
X216916000Y-79114000D03*
X216916000Y-81614000D03*
X216916000Y-84114000D03*
D11*
X216916000Y-86614000D03*
D12*
X193300000Y-39790000D03*
X195840000Y-39790000D03*
X198380000Y-39790000D03*
X200920000Y-39790000D03*
X203460000Y-39790000D03*
X206000000Y-39790000D03*
X208540000Y-39790000D03*
D13*
X211080000Y-39790000D03*
D14*
X187370000Y-39540000D03*
X182290000Y-39540000D03*
D15*
X184830000Y-39540000D03*
D16*
X169760000Y-95085000D03*
D17*
X168235000Y-93610000D03*
D16*
X169760000Y-92135000D03*
D12*
X216140000Y-92450000D03*
D13*
X213600000Y-92450000D03*
D12*
X216250000Y-39790000D03*
D13*
X218790000Y-39790000D03*
D18*
X207481891Y-87818109D03*
X206050000Y-87225000D03*
X204618109Y-87818109D03*
X204025000Y-89250000D03*
X204618109Y-90681891D03*
X206050000Y-91275000D03*
X207481891Y-90681891D03*
X208075000Y-89250000D03*
D19*
X206050000Y-89250000D03*
D18*
X163981891Y-43318109D03*
X162550000Y-42725000D03*
X161118109Y-43318109D03*
X160525000Y-44750000D03*
X161118109Y-46181891D03*
X162550000Y-46775000D03*
X163981891Y-46181891D03*
X164575000Y-44750000D03*
D19*
X162550000Y-44750000D03*
D18*
X225531891Y-65568109D03*
X224100000Y-64975000D03*
X222668109Y-65568109D03*
X222075000Y-67000000D03*
X222668109Y-68431891D03*
X224100000Y-69025000D03*
X225531891Y-68431891D03*
X226125000Y-67000000D03*
D19*
X224100000Y-67000000D03*
D18*
X145931891Y-65568109D03*
X144500000Y-64975000D03*
X143068109Y-65568109D03*
X142475000Y-67000000D03*
X143068109Y-68431891D03*
X144500000Y-69025000D03*
X145931891Y-68431891D03*
X146525000Y-67000000D03*
D19*
X144500000Y-67000000D03*
D20*
X149750000Y-79650000D03*
X149750000Y-81650000D03*
X149750000Y-83650000D03*
X149750000Y-85650000D03*
X149750000Y-87650000D03*
X149750000Y-89650000D03*
X149750000Y-91650000D03*
X149750000Y-93650000D03*
X165750000Y-93650000D03*
X165750000Y-91650000D03*
X165750000Y-89650000D03*
X165750000Y-87650000D03*
X165750000Y-85650000D03*
X165750000Y-83650000D03*
X165750000Y-81650000D03*
X165750000Y-79650000D03*
D21*
X162800000Y-71850000D03*
X171350000Y-71850000D03*
X171350000Y-67350000D03*
X162800000Y-67350000D03*
D22*
X181610000Y-79045000D03*
X181610000Y-80315000D03*
X181610000Y-81585000D03*
X181610000Y-82855000D03*
X181610000Y-84125000D03*
X181610000Y-85395000D03*
X173990000Y-85395000D03*
X173990000Y-84125000D03*
X173990000Y-82855000D03*
X173990000Y-81585000D03*
X173990000Y-80315000D03*
X173990000Y-79045000D03*
D21*
X175150000Y-71850000D03*
X183700000Y-71850000D03*
X183700000Y-67350000D03*
X175150000Y-67350000D03*
D10*
X226050000Y-73750000D03*
X226050000Y-76250000D03*
X226050000Y-78750000D03*
X226050000Y-81250000D03*
D11*
X226050000Y-83750000D03*
D12*
X200800000Y-68150000D03*
X198260000Y-68150000D03*
X195720000Y-68150000D03*
X193180000Y-68150000D03*
X190640000Y-68150000D03*
D13*
X188100000Y-68150000D03*
D12*
X166490000Y-39830000D03*
D13*
X169030000Y-39830000D03*
D10*
X150830000Y-40650000D03*
D11*
X153330000Y-40650000D03*
D23*
X143740000Y-72885000D03*
X143740000Y-80035000D03*
D24*
X143520000Y-75160000D03*
X144520000Y-75810000D03*
X143520000Y-76460000D03*
X144520000Y-77110000D03*
X143520000Y-77760000D03*
D25*
G36*
X182787691Y-74946053D02*
G01*
X182808926Y-74949203D01*
X182829750Y-74954419D01*
X182849962Y-74961651D01*
X182869368Y-74970830D01*
X182887781Y-74981866D01*
X182905024Y-74994654D01*
X182920930Y-75009070D01*
X182935346Y-75024976D01*
X182948134Y-75042219D01*
X182959170Y-75060632D01*
X182968349Y-75080038D01*
X182975581Y-75100250D01*
X182980797Y-75121074D01*
X182983947Y-75142309D01*
X182985000Y-75163750D01*
X182985000Y-75676250D01*
X182983947Y-75697691D01*
X182980797Y-75718926D01*
X182975581Y-75739750D01*
X182968349Y-75759962D01*
X182959170Y-75779368D01*
X182948134Y-75797781D01*
X182935346Y-75815024D01*
X182920930Y-75830930D01*
X182905024Y-75845346D01*
X182887781Y-75858134D01*
X182869368Y-75869170D01*
X182849962Y-75878349D01*
X182829750Y-75885581D01*
X182808926Y-75890797D01*
X182787691Y-75893947D01*
X182766250Y-75895000D01*
X182328750Y-75895000D01*
X182307309Y-75893947D01*
X182286074Y-75890797D01*
X182265250Y-75885581D01*
X182245038Y-75878349D01*
X182225632Y-75869170D01*
X182207219Y-75858134D01*
X182189976Y-75845346D01*
X182174070Y-75830930D01*
X182159654Y-75815024D01*
X182146866Y-75797781D01*
X182135830Y-75779368D01*
X182126651Y-75759962D01*
X182119419Y-75739750D01*
X182114203Y-75718926D01*
X182111053Y-75697691D01*
X182110000Y-75676250D01*
X182110000Y-75163750D01*
X182111053Y-75142309D01*
X182114203Y-75121074D01*
X182119419Y-75100250D01*
X182126651Y-75080038D01*
X182135830Y-75060632D01*
X182146866Y-75042219D01*
X182159654Y-75024976D01*
X182174070Y-75009070D01*
X182189976Y-74994654D01*
X182207219Y-74981866D01*
X182225632Y-74970830D01*
X182245038Y-74961651D01*
X182265250Y-74954419D01*
X182286074Y-74949203D01*
X182307309Y-74946053D01*
X182328750Y-74945000D01*
X182766250Y-74945000D01*
X182787691Y-74946053D01*
G37*
G36*
X181212691Y-74946053D02*
G01*
X181233926Y-74949203D01*
X181254750Y-74954419D01*
X181274962Y-74961651D01*
X181294368Y-74970830D01*
X181312781Y-74981866D01*
X181330024Y-74994654D01*
X181345930Y-75009070D01*
X181360346Y-75024976D01*
X181373134Y-75042219D01*
X181384170Y-75060632D01*
X181393349Y-75080038D01*
X181400581Y-75100250D01*
X181405797Y-75121074D01*
X181408947Y-75142309D01*
X181410000Y-75163750D01*
X181410000Y-75676250D01*
X181408947Y-75697691D01*
X181405797Y-75718926D01*
X181400581Y-75739750D01*
X181393349Y-75759962D01*
X181384170Y-75779368D01*
X181373134Y-75797781D01*
X181360346Y-75815024D01*
X181345930Y-75830930D01*
X181330024Y-75845346D01*
X181312781Y-75858134D01*
X181294368Y-75869170D01*
X181274962Y-75878349D01*
X181254750Y-75885581D01*
X181233926Y-75890797D01*
X181212691Y-75893947D01*
X181191250Y-75895000D01*
X180753750Y-75895000D01*
X180732309Y-75893947D01*
X180711074Y-75890797D01*
X180690250Y-75885581D01*
X180670038Y-75878349D01*
X180650632Y-75869170D01*
X180632219Y-75858134D01*
X180614976Y-75845346D01*
X180599070Y-75830930D01*
X180584654Y-75815024D01*
X180571866Y-75797781D01*
X180560830Y-75779368D01*
X180551651Y-75759962D01*
X180544419Y-75739750D01*
X180539203Y-75718926D01*
X180536053Y-75697691D01*
X180535000Y-75676250D01*
X180535000Y-75163750D01*
X180536053Y-75142309D01*
X180539203Y-75121074D01*
X180544419Y-75100250D01*
X180551651Y-75080038D01*
X180560830Y-75060632D01*
X180571866Y-75042219D01*
X180584654Y-75024976D01*
X180599070Y-75009070D01*
X180614976Y-74994654D01*
X180632219Y-74981866D01*
X180650632Y-74970830D01*
X180670038Y-74961651D01*
X180690250Y-74954419D01*
X180711074Y-74949203D01*
X180732309Y-74946053D01*
X180753750Y-74945000D01*
X181191250Y-74945000D01*
X181212691Y-74946053D01*
G37*
G36*
X160000191Y-38596053D02*
G01*
X160021426Y-38599203D01*
X160042250Y-38604419D01*
X160062462Y-38611651D01*
X160081868Y-38620830D01*
X160100281Y-38631866D01*
X160117524Y-38644654D01*
X160133430Y-38659070D01*
X160147846Y-38674976D01*
X160160634Y-38692219D01*
X160171670Y-38710632D01*
X160180849Y-38730038D01*
X160188081Y-38750250D01*
X160193297Y-38771074D01*
X160196447Y-38792309D01*
X160197500Y-38813750D01*
X160197500Y-39326250D01*
X160196447Y-39347691D01*
X160193297Y-39368926D01*
X160188081Y-39389750D01*
X160180849Y-39409962D01*
X160171670Y-39429368D01*
X160160634Y-39447781D01*
X160147846Y-39465024D01*
X160133430Y-39480930D01*
X160117524Y-39495346D01*
X160100281Y-39508134D01*
X160081868Y-39519170D01*
X160062462Y-39528349D01*
X160042250Y-39535581D01*
X160021426Y-39540797D01*
X160000191Y-39543947D01*
X159978750Y-39545000D01*
X159541250Y-39545000D01*
X159519809Y-39543947D01*
X159498574Y-39540797D01*
X159477750Y-39535581D01*
X159457538Y-39528349D01*
X159438132Y-39519170D01*
X159419719Y-39508134D01*
X159402476Y-39495346D01*
X159386570Y-39480930D01*
X159372154Y-39465024D01*
X159359366Y-39447781D01*
X159348330Y-39429368D01*
X159339151Y-39409962D01*
X159331919Y-39389750D01*
X159326703Y-39368926D01*
X159323553Y-39347691D01*
X159322500Y-39326250D01*
X159322500Y-38813750D01*
X159323553Y-38792309D01*
X159326703Y-38771074D01*
X159331919Y-38750250D01*
X159339151Y-38730038D01*
X159348330Y-38710632D01*
X159359366Y-38692219D01*
X159372154Y-38674976D01*
X159386570Y-38659070D01*
X159402476Y-38644654D01*
X159419719Y-38631866D01*
X159438132Y-38620830D01*
X159457538Y-38611651D01*
X159477750Y-38604419D01*
X159498574Y-38599203D01*
X159519809Y-38596053D01*
X159541250Y-38595000D01*
X159978750Y-38595000D01*
X160000191Y-38596053D01*
G37*
G36*
X158425191Y-38596053D02*
G01*
X158446426Y-38599203D01*
X158467250Y-38604419D01*
X158487462Y-38611651D01*
X158506868Y-38620830D01*
X158525281Y-38631866D01*
X158542524Y-38644654D01*
X158558430Y-38659070D01*
X158572846Y-38674976D01*
X158585634Y-38692219D01*
X158596670Y-38710632D01*
X158605849Y-38730038D01*
X158613081Y-38750250D01*
X158618297Y-38771074D01*
X158621447Y-38792309D01*
X158622500Y-38813750D01*
X158622500Y-39326250D01*
X158621447Y-39347691D01*
X158618297Y-39368926D01*
X158613081Y-39389750D01*
X158605849Y-39409962D01*
X158596670Y-39429368D01*
X158585634Y-39447781D01*
X158572846Y-39465024D01*
X158558430Y-39480930D01*
X158542524Y-39495346D01*
X158525281Y-39508134D01*
X158506868Y-39519170D01*
X158487462Y-39528349D01*
X158467250Y-39535581D01*
X158446426Y-39540797D01*
X158425191Y-39543947D01*
X158403750Y-39545000D01*
X157966250Y-39545000D01*
X157944809Y-39543947D01*
X157923574Y-39540797D01*
X157902750Y-39535581D01*
X157882538Y-39528349D01*
X157863132Y-39519170D01*
X157844719Y-39508134D01*
X157827476Y-39495346D01*
X157811570Y-39480930D01*
X157797154Y-39465024D01*
X157784366Y-39447781D01*
X157773330Y-39429368D01*
X157764151Y-39409962D01*
X157756919Y-39389750D01*
X157751703Y-39368926D01*
X157748553Y-39347691D01*
X157747500Y-39326250D01*
X157747500Y-38813750D01*
X157748553Y-38792309D01*
X157751703Y-38771074D01*
X157756919Y-38750250D01*
X157764151Y-38730038D01*
X157773330Y-38710632D01*
X157784366Y-38692219D01*
X157797154Y-38674976D01*
X157811570Y-38659070D01*
X157827476Y-38644654D01*
X157844719Y-38631866D01*
X157863132Y-38620830D01*
X157882538Y-38611651D01*
X157902750Y-38604419D01*
X157923574Y-38599203D01*
X157944809Y-38596053D01*
X157966250Y-38595000D01*
X158403750Y-38595000D01*
X158425191Y-38596053D01*
G37*
G36*
X161652691Y-38596053D02*
G01*
X161673926Y-38599203D01*
X161694750Y-38604419D01*
X161714962Y-38611651D01*
X161734368Y-38620830D01*
X161752781Y-38631866D01*
X161770024Y-38644654D01*
X161785930Y-38659070D01*
X161800346Y-38674976D01*
X161813134Y-38692219D01*
X161824170Y-38710632D01*
X161833349Y-38730038D01*
X161840581Y-38750250D01*
X161845797Y-38771074D01*
X161848947Y-38792309D01*
X161850000Y-38813750D01*
X161850000Y-39326250D01*
X161848947Y-39347691D01*
X161845797Y-39368926D01*
X161840581Y-39389750D01*
X161833349Y-39409962D01*
X161824170Y-39429368D01*
X161813134Y-39447781D01*
X161800346Y-39465024D01*
X161785930Y-39480930D01*
X161770024Y-39495346D01*
X161752781Y-39508134D01*
X161734368Y-39519170D01*
X161714962Y-39528349D01*
X161694750Y-39535581D01*
X161673926Y-39540797D01*
X161652691Y-39543947D01*
X161631250Y-39545000D01*
X161193750Y-39545000D01*
X161172309Y-39543947D01*
X161151074Y-39540797D01*
X161130250Y-39535581D01*
X161110038Y-39528349D01*
X161090632Y-39519170D01*
X161072219Y-39508134D01*
X161054976Y-39495346D01*
X161039070Y-39480930D01*
X161024654Y-39465024D01*
X161011866Y-39447781D01*
X161000830Y-39429368D01*
X160991651Y-39409962D01*
X160984419Y-39389750D01*
X160979203Y-39368926D01*
X160976053Y-39347691D01*
X160975000Y-39326250D01*
X160975000Y-38813750D01*
X160976053Y-38792309D01*
X160979203Y-38771074D01*
X160984419Y-38750250D01*
X160991651Y-38730038D01*
X161000830Y-38710632D01*
X161011866Y-38692219D01*
X161024654Y-38674976D01*
X161039070Y-38659070D01*
X161054976Y-38644654D01*
X161072219Y-38631866D01*
X161090632Y-38620830D01*
X161110038Y-38611651D01*
X161130250Y-38604419D01*
X161151074Y-38599203D01*
X161172309Y-38596053D01*
X161193750Y-38595000D01*
X161631250Y-38595000D01*
X161652691Y-38596053D01*
G37*
G36*
X163227691Y-38596053D02*
G01*
X163248926Y-38599203D01*
X163269750Y-38604419D01*
X163289962Y-38611651D01*
X163309368Y-38620830D01*
X163327781Y-38631866D01*
X163345024Y-38644654D01*
X163360930Y-38659070D01*
X163375346Y-38674976D01*
X163388134Y-38692219D01*
X163399170Y-38710632D01*
X163408349Y-38730038D01*
X163415581Y-38750250D01*
X163420797Y-38771074D01*
X163423947Y-38792309D01*
X163425000Y-38813750D01*
X163425000Y-39326250D01*
X163423947Y-39347691D01*
X163420797Y-39368926D01*
X163415581Y-39389750D01*
X163408349Y-39409962D01*
X163399170Y-39429368D01*
X163388134Y-39447781D01*
X163375346Y-39465024D01*
X163360930Y-39480930D01*
X163345024Y-39495346D01*
X163327781Y-39508134D01*
X163309368Y-39519170D01*
X163289962Y-39528349D01*
X163269750Y-39535581D01*
X163248926Y-39540797D01*
X163227691Y-39543947D01*
X163206250Y-39545000D01*
X162768750Y-39545000D01*
X162747309Y-39543947D01*
X162726074Y-39540797D01*
X162705250Y-39535581D01*
X162685038Y-39528349D01*
X162665632Y-39519170D01*
X162647219Y-39508134D01*
X162629976Y-39495346D01*
X162614070Y-39480930D01*
X162599654Y-39465024D01*
X162586866Y-39447781D01*
X162575830Y-39429368D01*
X162566651Y-39409962D01*
X162559419Y-39389750D01*
X162554203Y-39368926D01*
X162551053Y-39347691D01*
X162550000Y-39326250D01*
X162550000Y-38813750D01*
X162551053Y-38792309D01*
X162554203Y-38771074D01*
X162559419Y-38750250D01*
X162566651Y-38730038D01*
X162575830Y-38710632D01*
X162586866Y-38692219D01*
X162599654Y-38674976D01*
X162614070Y-38659070D01*
X162629976Y-38644654D01*
X162647219Y-38631866D01*
X162665632Y-38620830D01*
X162685038Y-38611651D01*
X162705250Y-38604419D01*
X162726074Y-38599203D01*
X162747309Y-38596053D01*
X162768750Y-38595000D01*
X163206250Y-38595000D01*
X163227691Y-38596053D01*
G37*
D26*
X158000000Y-70250000D03*
X151300000Y-70250000D03*
D27*
X223630000Y-54400000D03*
X144970000Y-54400000D03*
D28*
X148370000Y-46400000D03*
M02*
