%FSLAX45Y45*%
G04 Gerber Fmt 4.5, Leading zero omitted, Abs format (unit mm)*
G04 Created by KiCad (PCBNEW 5.1.5+dfsg1-2build2) date 2022-03-31 13:11:22*
%MOMM*%
%LPD*%
G04 APERTURE LIST*
%TA.AperFunction,Profile*%
%ADD10C,0.100000*%
%TD*%
%ADD11C,0.200000*%
%ADD12C,0.300000*%
G04 APERTURE END LIST*
D10*
X13900000Y-8700000D02*
G75*
G02X14800000Y-9600000I0J-900000D01*
G01*
X22060000Y-9600000D02*
G75*
G02X22960000Y-8700000I900000J0D01*
G01*
X22960000Y-4700000D02*
G75*
G02X22060000Y-3800000I0J900000D01*
G01*
X14799986Y-3800009D02*
G75*
G02X13900000Y-4695000I-899986J5009D01*
G01*
X22960000Y-8700000D02*
X22960000Y-4700000D01*
X13900000Y-8700000D02*
X13900000Y-4695000D01*
X18430000Y-3800000D02*
X22060000Y-3800000D01*
X18430000Y-3800000D02*
X14800000Y-3800000D01*
X18430000Y-9600000D02*
X22060000Y-9600000D01*
X18430000Y-9600000D02*
X14800000Y-9600000D01*
D11*
X13957000Y-8299000D02*
X13987000Y-8329000D01*
X13987000Y-8299000D02*
X13957000Y-8329000D01*
X14092000Y-6289000D02*
X14122000Y-6319000D01*
X14122000Y-6289000D02*
X14092000Y-6319000D01*
X14118000Y-7860000D02*
X14148000Y-7890000D01*
X14148000Y-7860000D02*
X14118000Y-7890000D01*
X14381000Y-4711000D02*
X14411000Y-4741000D01*
X14411000Y-4711000D02*
X14381000Y-4741000D01*
X14424000Y-8757000D02*
X14454000Y-8787000D01*
X14454000Y-8757000D02*
X14424000Y-8787000D01*
X14625000Y-7851000D02*
X14655000Y-7881000D01*
X14655000Y-7851000D02*
X14625000Y-7881000D01*
X14652000Y-7236000D02*
X14682000Y-7266000D01*
X14682000Y-7236000D02*
X14652000Y-7266000D01*
X14700000Y-8934000D02*
X14730000Y-8964000D01*
X14730000Y-8934000D02*
X14700000Y-8964000D01*
X14897000Y-7250000D02*
X14927000Y-7280000D01*
X14927000Y-7250000D02*
X14897000Y-7280000D01*
X14897500Y-7600500D02*
X14927500Y-7630500D01*
X14927500Y-7600500D02*
X14897500Y-7630500D01*
X14901000Y-3917000D02*
X14931000Y-3947000D01*
X14931000Y-3917000D02*
X14901000Y-3947000D01*
X14933000Y-5607000D02*
X14963000Y-5637000D01*
X14963000Y-5607000D02*
X14933000Y-5637000D01*
X14958000Y-7764000D02*
X14988000Y-7794000D01*
X14988000Y-7764000D02*
X14958000Y-7794000D01*
X14959000Y-9486000D02*
X14989000Y-9516000D01*
X14989000Y-9486000D02*
X14959000Y-9516000D01*
X14981000Y-5840000D02*
X15011000Y-5870000D01*
X15011000Y-5840000D02*
X14981000Y-5870000D01*
X15098000Y-5125000D02*
X15128000Y-5155000D01*
X15128000Y-5125000D02*
X15098000Y-5155000D01*
X15100250Y-4800000D02*
X15130250Y-4830000D01*
X15130250Y-4800000D02*
X15100250Y-4830000D01*
X15165000Y-8351000D02*
X15195000Y-8381000D01*
X15195000Y-8351000D02*
X15165000Y-8381000D01*
X15165000Y-8547000D02*
X15195000Y-8577000D01*
X15195000Y-8547000D02*
X15165000Y-8577000D01*
X15166000Y-8749000D02*
X15196000Y-8779000D01*
X15196000Y-8749000D02*
X15166000Y-8779000D01*
X15167000Y-8950000D02*
X15197000Y-8980000D01*
X15197000Y-8950000D02*
X15167000Y-8980000D01*
X15179000Y-5040000D02*
X15209000Y-5070000D01*
X15209000Y-5040000D02*
X15179000Y-5070000D01*
X15196000Y-5159000D02*
X15226000Y-5189000D01*
X15226000Y-5159000D02*
X15196000Y-5189000D01*
X15256000Y-4809750D02*
X15286000Y-4839750D01*
X15286000Y-4809750D02*
X15256000Y-4839750D01*
X15287000Y-6050000D02*
X15317000Y-6080000D01*
X15317000Y-6050000D02*
X15287000Y-6080000D01*
X15304000Y-6772000D02*
X15334000Y-6802000D01*
X15334000Y-6772000D02*
X15304000Y-6802000D01*
X15341000Y-6183000D02*
X15371000Y-6213000D01*
X15371000Y-6183000D02*
X15341000Y-6213000D01*
X15494000Y-7015000D02*
X15524000Y-7045000D01*
X15524000Y-7015000D02*
X15494000Y-7045000D01*
X15645000Y-5432000D02*
X15675000Y-5462000D01*
X15675000Y-5432000D02*
X15645000Y-5462000D01*
X15666000Y-7581000D02*
X15696000Y-7611000D01*
X15696000Y-7581000D02*
X15666000Y-7611000D01*
X15685000Y-7281000D02*
X15715000Y-7311000D01*
X15715000Y-7281000D02*
X15685000Y-7311000D01*
X15687000Y-3892000D02*
X15717000Y-3922000D01*
X15717000Y-3892000D02*
X15687000Y-3922000D01*
X15690000Y-4626000D02*
X15720000Y-4656000D01*
X15720000Y-4626000D02*
X15690000Y-4656000D01*
X15730000Y-5557000D02*
X15760000Y-5587000D01*
X15760000Y-5557000D02*
X15730000Y-5587000D01*
X15742000Y-7705000D02*
X15772000Y-7735000D01*
X15772000Y-7705000D02*
X15742000Y-7735000D01*
X15785750Y-5070250D02*
X15815750Y-5100250D01*
X15815750Y-5070250D02*
X15785750Y-5100250D01*
X15807000Y-5203000D02*
X15837000Y-5233000D01*
X15837000Y-5203000D02*
X15807000Y-5233000D01*
X15904000Y-4921000D02*
X15934000Y-4951000D01*
X15934000Y-4921000D02*
X15904000Y-4951000D01*
X15933000Y-6485000D02*
X15963000Y-6515000D01*
X15963000Y-6485000D02*
X15933000Y-6515000D01*
X15944000Y-5221000D02*
X15974000Y-5251000D01*
X15974000Y-5221000D02*
X15944000Y-5251000D01*
X16004000Y-5013000D02*
X16034000Y-5043000D01*
X16034000Y-5013000D02*
X16004000Y-5043000D01*
X16081000Y-6455000D02*
X16111000Y-6485000D01*
X16111000Y-6455000D02*
X16081000Y-6485000D01*
X16090000Y-6674000D02*
X16120000Y-6704000D01*
X16120000Y-6674000D02*
X16090000Y-6704000D01*
X16150000Y-5351000D02*
X16180000Y-5381000D01*
X16180000Y-5351000D02*
X16150000Y-5381000D01*
X16224000Y-5606000D02*
X16254000Y-5636000D01*
X16254000Y-5606000D02*
X16224000Y-5636000D01*
X16225000Y-5351000D02*
X16255000Y-5381000D01*
X16255000Y-5351000D02*
X16225000Y-5381000D01*
X16300000Y-5351000D02*
X16330000Y-5381000D01*
X16330000Y-5351000D02*
X16300000Y-5381000D01*
X16396000Y-6439000D02*
X16426000Y-6469000D01*
X16426000Y-6439000D02*
X16396000Y-6469000D01*
X16401000Y-3892000D02*
X16431000Y-3922000D01*
X16431000Y-3892000D02*
X16401000Y-3922000D01*
X16459000Y-6927000D02*
X16489000Y-6957000D01*
X16489000Y-6927000D02*
X16459000Y-6957000D01*
X16479000Y-7433000D02*
X16509000Y-7463000D01*
X16509000Y-7433000D02*
X16479000Y-7463000D01*
X16484000Y-6369000D02*
X16514000Y-6399000D01*
X16514000Y-6369000D02*
X16484000Y-6399000D01*
X16586000Y-4863000D02*
X16616000Y-4893000D01*
X16616000Y-4863000D02*
X16586000Y-4893000D01*
X16606000Y-5297000D02*
X16636000Y-5327000D01*
X16636000Y-5297000D02*
X16606000Y-5327000D01*
X16675000Y-5808000D02*
X16705000Y-5838000D01*
X16705000Y-5808000D02*
X16675000Y-5838000D01*
X16737000Y-4248000D02*
X16767000Y-4278000D01*
X16767000Y-4248000D02*
X16737000Y-4278000D01*
X16806250Y-8550000D02*
X16836250Y-8580000D01*
X16836250Y-8550000D02*
X16806250Y-8580000D01*
X16810000Y-8930000D02*
X16840000Y-8960000D01*
X16840000Y-8930000D02*
X16810000Y-8960000D01*
X16811000Y-9027000D02*
X16841000Y-9057000D01*
X16841000Y-9027000D02*
X16811000Y-9057000D01*
X16838000Y-6139000D02*
X16868000Y-6169000D01*
X16868000Y-6139000D02*
X16838000Y-6169000D01*
X16913000Y-5789000D02*
X16943000Y-5819000D01*
X16943000Y-5789000D02*
X16913000Y-5819000D01*
X16914000Y-8930000D02*
X16944000Y-8960000D01*
X16944000Y-8930000D02*
X16914000Y-8960000D01*
X16914000Y-9029000D02*
X16944000Y-9059000D01*
X16944000Y-9029000D02*
X16914000Y-9059000D01*
X16915000Y-8240000D02*
X16945000Y-8270000D01*
X16945000Y-8240000D02*
X16915000Y-8270000D01*
X16961000Y-6545000D02*
X16991000Y-6575000D01*
X16991000Y-6545000D02*
X16961000Y-6575000D01*
X16973000Y-5886000D02*
X17003000Y-5916000D01*
X17003000Y-5886000D02*
X16973000Y-5916000D01*
X17017000Y-8930000D02*
X17047000Y-8960000D01*
X17047000Y-8930000D02*
X17017000Y-8960000D01*
X17017000Y-9030000D02*
X17047000Y-9060000D01*
X17047000Y-9030000D02*
X17017000Y-9060000D01*
X17036000Y-4690000D02*
X17066000Y-4720000D01*
X17066000Y-4690000D02*
X17036000Y-4720000D01*
X17071000Y-5625000D02*
X17101000Y-5655000D01*
X17101000Y-5625000D02*
X17071000Y-5655000D01*
X17116000Y-5834000D02*
X17146000Y-5864000D01*
X17146000Y-5834000D02*
X17116000Y-5864000D01*
X17116000Y-8930000D02*
X17146000Y-8960000D01*
X17146000Y-8930000D02*
X17116000Y-8960000D01*
X17116000Y-9030000D02*
X17146000Y-9060000D01*
X17146000Y-9030000D02*
X17116000Y-9060000D01*
X17118000Y-4467000D02*
X17148000Y-4497000D01*
X17148000Y-4467000D02*
X17118000Y-4497000D01*
X17182000Y-6469000D02*
X17212000Y-6499000D01*
X17212000Y-6469000D02*
X17182000Y-6499000D01*
X17183500Y-5981500D02*
X17213500Y-6011500D01*
X17213500Y-5981500D02*
X17183500Y-6011500D01*
X17194250Y-8550750D02*
X17224250Y-8580750D01*
X17224250Y-8550750D02*
X17194250Y-8580750D01*
X17205000Y-8972000D02*
X17235000Y-9002000D01*
X17235000Y-8972000D02*
X17205000Y-9002000D01*
X17209500Y-7889500D02*
X17239500Y-7919500D01*
X17239500Y-7889500D02*
X17209500Y-7919500D01*
X17211000Y-9071000D02*
X17241000Y-9101000D01*
X17241000Y-9071000D02*
X17211000Y-9101000D01*
X17211000Y-9174000D02*
X17241000Y-9204000D01*
X17241000Y-9174000D02*
X17211000Y-9204000D01*
X17212000Y-9277000D02*
X17242000Y-9307000D01*
X17242000Y-9277000D02*
X17212000Y-9307000D01*
X17212000Y-9377000D02*
X17242000Y-9407000D01*
X17242000Y-9377000D02*
X17212000Y-9407000D01*
X17213000Y-9478000D02*
X17243000Y-9508000D01*
X17243000Y-9478000D02*
X17213000Y-9508000D01*
X17230000Y-8030000D02*
X17260000Y-8060000D01*
X17260000Y-8030000D02*
X17230000Y-8060000D01*
X17255500Y-5088500D02*
X17285500Y-5118500D01*
X17285500Y-5088500D02*
X17255500Y-5118500D01*
X17276000Y-7443000D02*
X17306000Y-7473000D01*
X17306000Y-7443000D02*
X17276000Y-7473000D01*
X17293750Y-7043250D02*
X17323750Y-7073250D01*
X17323750Y-7043250D02*
X17293750Y-7073250D01*
X17299000Y-5625000D02*
X17329000Y-5655000D01*
X17329000Y-5625000D02*
X17299000Y-5655000D01*
X17305000Y-6851000D02*
X17335000Y-6881000D01*
X17335000Y-6851000D02*
X17305000Y-6881000D01*
X17308000Y-9277000D02*
X17338000Y-9307000D01*
X17338000Y-9277000D02*
X17308000Y-9307000D01*
X17308000Y-9377000D02*
X17338000Y-9407000D01*
X17338000Y-9377000D02*
X17308000Y-9407000D01*
X17308000Y-9478000D02*
X17338000Y-9508000D01*
X17338000Y-9478000D02*
X17308000Y-9508000D01*
X17309000Y-9071000D02*
X17339000Y-9101000D01*
X17339000Y-9071000D02*
X17309000Y-9101000D01*
X17309000Y-9174000D02*
X17339000Y-9204000D01*
X17339000Y-9174000D02*
X17309000Y-9204000D01*
X17331000Y-4825000D02*
X17361000Y-4855000D01*
X17361000Y-4825000D02*
X17331000Y-4855000D01*
X17342000Y-5900000D02*
X17372000Y-5930000D01*
X17372000Y-5900000D02*
X17342000Y-5930000D01*
X17412000Y-5816000D02*
X17442000Y-5846000D01*
X17442000Y-5816000D02*
X17412000Y-5846000D01*
X17446000Y-5483000D02*
X17476000Y-5513000D01*
X17476000Y-5483000D02*
X17446000Y-5513000D01*
X17488000Y-6133000D02*
X17518000Y-6163000D01*
X17518000Y-6133000D02*
X17488000Y-6163000D01*
X17496000Y-8202000D02*
X17526000Y-8232000D01*
X17526000Y-8202000D02*
X17496000Y-8232000D01*
X17501000Y-6298000D02*
X17531000Y-6328000D01*
X17531000Y-6298000D02*
X17501000Y-6328000D01*
X17523000Y-4089000D02*
X17553000Y-4119000D01*
X17553000Y-4089000D02*
X17523000Y-4119000D01*
X17558000Y-8371000D02*
X17588000Y-8401000D01*
X17588000Y-8371000D02*
X17558000Y-8401000D01*
X17671000Y-6851000D02*
X17701000Y-6881000D01*
X17701000Y-6851000D02*
X17671000Y-6881000D01*
X17688750Y-8394250D02*
X17718750Y-8424250D01*
X17718750Y-8394250D02*
X17688750Y-8424250D01*
X17700000Y-7203000D02*
X17730000Y-7233000D01*
X17730000Y-7203000D02*
X17700000Y-7233000D01*
X17722000Y-4932000D02*
X17752000Y-4962000D01*
X17752000Y-4932000D02*
X17722000Y-4962000D01*
X17739000Y-5168000D02*
X17769000Y-5198000D01*
X17769000Y-5168000D02*
X17739000Y-5198000D01*
X17759000Y-7717000D02*
X17789000Y-7747000D01*
X17789000Y-7717000D02*
X17759000Y-7747000D01*
X17774000Y-6434000D02*
X17804000Y-6464000D01*
X17804000Y-6434000D02*
X17774000Y-6464000D01*
X17775000Y-6120000D02*
X17805000Y-6150000D01*
X17805000Y-6120000D02*
X17775000Y-6150000D01*
X17775000Y-6707000D02*
X17805000Y-6737000D01*
X17805000Y-6707000D02*
X17775000Y-6737000D01*
X17777000Y-6825000D02*
X17807000Y-6855000D01*
X17807000Y-6825000D02*
X17777000Y-6855000D01*
X17811000Y-4979000D02*
X17841000Y-5009000D01*
X17841000Y-4979000D02*
X17811000Y-5009000D01*
X17812000Y-5068000D02*
X17842000Y-5098000D01*
X17842000Y-5068000D02*
X17812000Y-5098000D01*
X17884000Y-4313000D02*
X17914000Y-4343000D01*
X17914000Y-4313000D02*
X17884000Y-4343000D01*
X17885000Y-9246000D02*
X17915000Y-9276000D01*
X17915000Y-9246000D02*
X17885000Y-9276000D01*
X17947000Y-8022000D02*
X17977000Y-8052000D01*
X17977000Y-8022000D02*
X17947000Y-8052000D01*
X17949000Y-8223000D02*
X17979000Y-8253000D01*
X17979000Y-8223000D02*
X17949000Y-8253000D01*
X17981000Y-4623000D02*
X18011000Y-4653000D01*
X18011000Y-4623000D02*
X17981000Y-4653000D01*
X17999000Y-8143000D02*
X18029000Y-8173000D01*
X18029000Y-8143000D02*
X17999000Y-8173000D01*
X18003000Y-4742000D02*
X18033000Y-4772000D01*
X18033000Y-4742000D02*
X18003000Y-4772000D01*
X18010500Y-7344500D02*
X18040500Y-7374500D01*
X18040500Y-7344500D02*
X18010500Y-7374500D01*
X18035000Y-6206000D02*
X18065000Y-6236000D01*
X18065000Y-6206000D02*
X18035000Y-6236000D01*
X18083000Y-7203000D02*
X18113000Y-7233000D01*
X18113000Y-7203000D02*
X18083000Y-7233000D01*
X18091000Y-4584000D02*
X18121000Y-4614000D01*
X18121000Y-4584000D02*
X18091000Y-4614000D01*
X18097000Y-6106000D02*
X18127000Y-6136000D01*
X18127000Y-6106000D02*
X18097000Y-6136000D01*
X18106000Y-6939000D02*
X18136000Y-6969000D01*
X18136000Y-6939000D02*
X18106000Y-6969000D01*
X18146000Y-7785000D02*
X18176000Y-7815000D01*
X18176000Y-7785000D02*
X18146000Y-7815000D01*
X18148000Y-6369000D02*
X18178000Y-6399000D01*
X18178000Y-6369000D02*
X18148000Y-6399000D01*
X18151250Y-7391000D02*
X18181250Y-7421000D01*
X18181250Y-7391000D02*
X18151250Y-7421000D01*
X18172000Y-4738000D02*
X18202000Y-4768000D01*
X18202000Y-4738000D02*
X18172000Y-4768000D01*
X18182000Y-6720000D02*
X18212000Y-6750000D01*
X18212000Y-6720000D02*
X18182000Y-6750000D01*
X18184000Y-6014000D02*
X18214000Y-6044000D01*
X18214000Y-6014000D02*
X18184000Y-6044000D01*
X18190000Y-4646000D02*
X18220000Y-4676000D01*
X18220000Y-4646000D02*
X18190000Y-4676000D01*
X18276641Y-4602000D02*
X18306641Y-4632000D01*
X18306641Y-4602000D02*
X18276641Y-4632000D01*
X18308000Y-6519000D02*
X18338000Y-6549000D01*
X18338000Y-6519000D02*
X18308000Y-6549000D01*
X18320000Y-4518000D02*
X18350000Y-4548000D01*
X18350000Y-4518000D02*
X18320000Y-4548000D01*
X18327000Y-3837000D02*
X18357000Y-3867000D01*
X18357000Y-3837000D02*
X18327000Y-3867000D01*
X18457000Y-8282000D02*
X18487000Y-8312000D01*
X18487000Y-8282000D02*
X18457000Y-8312000D01*
X18470000Y-9088000D02*
X18500000Y-9118000D01*
X18500000Y-9088000D02*
X18470000Y-9118000D01*
X18505000Y-6510000D02*
X18535000Y-6540000D01*
X18535000Y-6510000D02*
X18505000Y-6540000D01*
X18535000Y-5448000D02*
X18565000Y-5478000D01*
X18565000Y-5448000D02*
X18535000Y-5478000D01*
X18538000Y-5160000D02*
X18568000Y-5190000D01*
X18568000Y-5160000D02*
X18538000Y-5190000D01*
X18539000Y-8874000D02*
X18569000Y-8904000D01*
X18569000Y-8874000D02*
X18539000Y-8904000D01*
X18541000Y-7471000D02*
X18571000Y-7501000D01*
X18571000Y-7471000D02*
X18541000Y-7501000D01*
X18586000Y-4528000D02*
X18616000Y-4558000D01*
X18616000Y-4528000D02*
X18586000Y-4558000D01*
X18614000Y-3837000D02*
X18644000Y-3867000D01*
X18644000Y-3837000D02*
X18614000Y-3867000D01*
X18646000Y-4619000D02*
X18676000Y-4649000D01*
X18676000Y-4619000D02*
X18646000Y-4649000D01*
X18654000Y-9245000D02*
X18684000Y-9275000D01*
X18684000Y-9245000D02*
X18654000Y-9275000D01*
X18660000Y-8829000D02*
X18690000Y-8859000D01*
X18690000Y-8829000D02*
X18660000Y-8859000D01*
X18677000Y-7732000D02*
X18707000Y-7762000D01*
X18707000Y-7732000D02*
X18677000Y-7762000D01*
X18678000Y-5015000D02*
X18708000Y-5045000D01*
X18708000Y-5015000D02*
X18678000Y-5045000D01*
X18678000Y-5299000D02*
X18708000Y-5329000D01*
X18708000Y-5299000D02*
X18678000Y-5329000D01*
X18793000Y-4661000D02*
X18823000Y-4691000D01*
X18823000Y-4661000D02*
X18793000Y-4691000D01*
X18868000Y-7049000D02*
X18898000Y-7079000D01*
X18898000Y-7049000D02*
X18868000Y-7079000D01*
X18911000Y-4793000D02*
X18941000Y-4823000D01*
X18941000Y-4793000D02*
X18911000Y-4823000D01*
X18968000Y-6273000D02*
X18998000Y-6303000D01*
X18998000Y-6273000D02*
X18968000Y-6303000D01*
X18981000Y-8464000D02*
X19011000Y-8494000D01*
X19011000Y-8464000D02*
X18981000Y-8494000D01*
X18998000Y-4975000D02*
X19028000Y-5005000D01*
X19028000Y-4975000D02*
X18998000Y-5005000D01*
X19038000Y-6409000D02*
X19068000Y-6439000D01*
X19068000Y-6409000D02*
X19038000Y-6439000D01*
X19121000Y-4098000D02*
X19151000Y-4128000D01*
X19151000Y-4098000D02*
X19121000Y-4128000D01*
X19121000Y-5584000D02*
X19151000Y-5614000D01*
X19151000Y-5584000D02*
X19121000Y-5614000D01*
X19155000Y-6515000D02*
X19185000Y-6545000D01*
X19185000Y-6515000D02*
X19155000Y-6545000D01*
X19184000Y-5483000D02*
X19214000Y-5513000D01*
X19214000Y-5483000D02*
X19184000Y-5513000D01*
X19192000Y-4490000D02*
X19222000Y-4520000D01*
X19222000Y-4490000D02*
X19192000Y-4520000D01*
X19234000Y-4905000D02*
X19264000Y-4935000D01*
X19264000Y-4905000D02*
X19234000Y-4935000D01*
X19255000Y-5958000D02*
X19285000Y-5988000D01*
X19285000Y-5958000D02*
X19255000Y-5988000D01*
X19277000Y-9469000D02*
X19307000Y-9499000D01*
X19307000Y-9469000D02*
X19277000Y-9499000D01*
X19315000Y-5631000D02*
X19345000Y-5661000D01*
X19345000Y-5631000D02*
X19315000Y-5661000D01*
X19336000Y-4936000D02*
X19366000Y-4966000D01*
X19366000Y-4936000D02*
X19336000Y-4966000D01*
X19350000Y-6431000D02*
X19380000Y-6461000D01*
X19380000Y-6431000D02*
X19350000Y-6461000D01*
X19369000Y-5706000D02*
X19399000Y-5736000D01*
X19399000Y-5706000D02*
X19369000Y-5736000D01*
X19373000Y-6548000D02*
X19403000Y-6578000D01*
X19403000Y-6548000D02*
X19373000Y-6578000D01*
X19388000Y-7038000D02*
X19418000Y-7068000D01*
X19418000Y-7038000D02*
X19388000Y-7068000D01*
X19430000Y-5305000D02*
X19460000Y-5335000D01*
X19460000Y-5305000D02*
X19430000Y-5335000D01*
X19432000Y-6898000D02*
X19462000Y-6928000D01*
X19462000Y-6898000D02*
X19432000Y-6928000D01*
X19456000Y-7867000D02*
X19486000Y-7897000D01*
X19486000Y-7867000D02*
X19456000Y-7897000D01*
X19464000Y-4826000D02*
X19494000Y-4856000D01*
X19494000Y-4826000D02*
X19464000Y-4856000D01*
X19464000Y-8615000D02*
X19494000Y-8645000D01*
X19494000Y-8615000D02*
X19464000Y-8645000D01*
X19483000Y-4474000D02*
X19513000Y-4504000D01*
X19513000Y-4474000D02*
X19483000Y-4504000D01*
X19501000Y-6362000D02*
X19531000Y-6392000D01*
X19531000Y-6362000D02*
X19501000Y-6392000D01*
X19547000Y-7287000D02*
X19577000Y-7317000D01*
X19577000Y-7287000D02*
X19547000Y-7317000D01*
X19574000Y-7417000D02*
X19604000Y-7447000D01*
X19604000Y-7417000D02*
X19574000Y-7447000D01*
X19643000Y-7955000D02*
X19673000Y-7985000D01*
X19673000Y-7955000D02*
X19643000Y-7985000D01*
X19643000Y-8645000D02*
X19673000Y-8675000D01*
X19673000Y-8645000D02*
X19643000Y-8675000D01*
X19687000Y-4984000D02*
X19717000Y-5014000D01*
X19717000Y-4984000D02*
X19687000Y-5014000D01*
X19703000Y-6568000D02*
X19733000Y-6598000D01*
X19733000Y-6568000D02*
X19703000Y-6598000D01*
X19716000Y-6430000D02*
X19746000Y-6460000D01*
X19746000Y-6430000D02*
X19716000Y-6460000D01*
X19736000Y-5794000D02*
X19766000Y-5824000D01*
X19766000Y-5794000D02*
X19736000Y-5824000D01*
X19758000Y-6289000D02*
X19788000Y-6319000D01*
X19788000Y-6289000D02*
X19758000Y-6319000D01*
X19798000Y-5428000D02*
X19828000Y-5458000D01*
X19828000Y-5428000D02*
X19798000Y-5458000D01*
X19833000Y-7092000D02*
X19863000Y-7122000D01*
X19863000Y-7092000D02*
X19833000Y-7122000D01*
X19837000Y-8672000D02*
X19867000Y-8702000D01*
X19867000Y-8672000D02*
X19837000Y-8702000D01*
X19841000Y-7907000D02*
X19871000Y-7937000D01*
X19871000Y-7907000D02*
X19841000Y-7937000D01*
X19867000Y-5529000D02*
X19897000Y-5559000D01*
X19897000Y-5529000D02*
X19867000Y-5559000D01*
X19937000Y-5614000D02*
X19967000Y-5644000D01*
X19967000Y-5614000D02*
X19937000Y-5644000D01*
X19943000Y-7336000D02*
X19973000Y-7366000D01*
X19973000Y-7336000D02*
X19943000Y-7366000D01*
X19974000Y-4846000D02*
X20004000Y-4876000D01*
X20004000Y-4846000D02*
X19974000Y-4876000D01*
X20078250Y-8623750D02*
X20108250Y-8653750D01*
X20108250Y-8623750D02*
X20078250Y-8653750D01*
X20084000Y-8849000D02*
X20114000Y-8879000D01*
X20114000Y-8849000D02*
X20084000Y-8879000D01*
X20111000Y-5008000D02*
X20141000Y-5038000D01*
X20141000Y-5008000D02*
X20111000Y-5038000D01*
X20174000Y-7642000D02*
X20204000Y-7672000D01*
X20204000Y-7642000D02*
X20174000Y-7672000D01*
X20178000Y-9413000D02*
X20208000Y-9443000D01*
X20208000Y-9413000D02*
X20178000Y-9443000D01*
X20199000Y-6079000D02*
X20229000Y-6109000D01*
X20229000Y-6079000D02*
X20199000Y-6109000D01*
X20314000Y-9230000D02*
X20344000Y-9260000D01*
X20344000Y-9230000D02*
X20314000Y-9260000D01*
X20357000Y-7331000D02*
X20387000Y-7361000D01*
X20387000Y-7331000D02*
X20357000Y-7361000D01*
X20364000Y-4514000D02*
X20394000Y-4544000D01*
X20394000Y-4514000D02*
X20364000Y-4544000D01*
X20395000Y-6575000D02*
X20425000Y-6605000D01*
X20425000Y-6575000D02*
X20395000Y-6605000D01*
X20422000Y-7730000D02*
X20452000Y-7760000D01*
X20452000Y-7730000D02*
X20422000Y-7760000D01*
X20485000Y-7374000D02*
X20515000Y-7404000D01*
X20515000Y-7374000D02*
X20485000Y-7404000D01*
X20573000Y-7925000D02*
X20603000Y-7955000D01*
X20603000Y-7925000D02*
X20573000Y-7955000D01*
X20607000Y-5343000D02*
X20637000Y-5373000D01*
X20637000Y-5343000D02*
X20607000Y-5373000D01*
X20675000Y-5009000D02*
X20705000Y-5039000D01*
X20705000Y-5009000D02*
X20675000Y-5039000D01*
X20675000Y-6404000D02*
X20705000Y-6434000D01*
X20705000Y-6404000D02*
X20675000Y-6434000D01*
X20680000Y-4263000D02*
X20710000Y-4293000D01*
X20710000Y-4263000D02*
X20680000Y-4293000D01*
X20682250Y-5720750D02*
X20712250Y-5750750D01*
X20712250Y-5720750D02*
X20682250Y-5750750D01*
X20698000Y-4840000D02*
X20728000Y-4870000D01*
X20728000Y-4840000D02*
X20698000Y-4870000D01*
X20757000Y-6689000D02*
X20787000Y-6719000D01*
X20787000Y-6689000D02*
X20757000Y-6719000D01*
X20784000Y-8361000D02*
X20814000Y-8391000D01*
X20814000Y-8361000D02*
X20784000Y-8391000D01*
X20882000Y-7038000D02*
X20912000Y-7068000D01*
X20912000Y-7038000D02*
X20882000Y-7068000D01*
X20883000Y-5630000D02*
X20913000Y-5660000D01*
X20913000Y-5630000D02*
X20883000Y-5660000D01*
X20883000Y-5250000D02*
X20913000Y-5280000D01*
X20913000Y-5250000D02*
X20883000Y-5280000D01*
X20888000Y-6688000D02*
X20918000Y-6718000D01*
X20918000Y-6688000D02*
X20888000Y-6718000D01*
X20889000Y-4219000D02*
X20919000Y-4249000D01*
X20919000Y-4219000D02*
X20889000Y-4249000D01*
X20931000Y-4929000D02*
X20961000Y-4959000D01*
X20961000Y-4929000D02*
X20931000Y-4959000D01*
X20991000Y-9389000D02*
X21021000Y-9419000D01*
X21021000Y-9389000D02*
X20991000Y-9419000D01*
X21046000Y-6788000D02*
X21076000Y-6818000D01*
X21076000Y-6788000D02*
X21046000Y-6818000D01*
X21309000Y-5203000D02*
X21339000Y-5233000D01*
X21339000Y-5203000D02*
X21309000Y-5233000D01*
X21359000Y-3851000D02*
X21389000Y-3881000D01*
X21389000Y-3851000D02*
X21359000Y-3881000D01*
X21379000Y-4570000D02*
X21409000Y-4600000D01*
X21409000Y-4570000D02*
X21379000Y-4600000D01*
X21420000Y-6441000D02*
X21450000Y-6471000D01*
X21450000Y-6441000D02*
X21420000Y-6471000D01*
X21438000Y-7777000D02*
X21468000Y-7807000D01*
X21468000Y-7777000D02*
X21438000Y-7807000D01*
X21466000Y-8592000D02*
X21496000Y-8622000D01*
X21496000Y-8592000D02*
X21466000Y-8622000D01*
X21686000Y-4753000D02*
X21716000Y-4783000D01*
X21716000Y-4753000D02*
X21686000Y-4783000D01*
X21747000Y-5650000D02*
X21777000Y-5680000D01*
X21777000Y-5650000D02*
X21747000Y-5680000D01*
X21863000Y-8734000D02*
X21893000Y-8764000D01*
X21893000Y-8734000D02*
X21863000Y-8764000D01*
X21887000Y-6650000D02*
X21917000Y-6680000D01*
X21917000Y-6650000D02*
X21887000Y-6680000D01*
X21946000Y-6440000D02*
X21976000Y-6470000D01*
X21976000Y-6440000D02*
X21946000Y-6470000D01*
X21998000Y-4284000D02*
X22028000Y-4314000D01*
X22028000Y-4284000D02*
X21998000Y-4314000D01*
X22007000Y-5812000D02*
X22037000Y-5842000D01*
X22037000Y-5812000D02*
X22007000Y-5842000D01*
X22077000Y-7041000D02*
X22107000Y-7071000D01*
X22107000Y-7041000D02*
X22077000Y-7071000D01*
X22179000Y-7655000D02*
X22209000Y-7685000D01*
X22209000Y-7655000D02*
X22179000Y-7685000D01*
X22350000Y-8722000D02*
X22380000Y-8752000D01*
X22380000Y-8722000D02*
X22350000Y-8752000D01*
X22723000Y-6323000D02*
X22753000Y-6353000D01*
X22753000Y-6323000D02*
X22723000Y-6353000D01*
X22728000Y-5985000D02*
X22758000Y-6015000D01*
X22758000Y-5985000D02*
X22728000Y-6015000D01*
X22817000Y-5268000D02*
X22847000Y-5298000D01*
X22847000Y-5268000D02*
X22817000Y-5298000D01*
X22842000Y-7968000D02*
X22872000Y-7998000D01*
X22872000Y-7968000D02*
X22842000Y-7998000D01*
X22852000Y-6126000D02*
X22882000Y-6156000D01*
X22882000Y-6126000D02*
X22852000Y-6156000D01*
X14391500Y-7288500D02*
G75*
G03X14391500Y-7288500I-17500J0D01*
G01*
X14324000Y-7296000D02*
X14424000Y-7296000D01*
X14324000Y-7281000D02*
X14424000Y-7281000D01*
X14424000Y-7296000D02*
G75*
G03X14424000Y-7281000I0J7500D01*
G01*
X14324000Y-7281000D02*
G75*
G03X14324000Y-7296000I0J-7500D01*
G01*
X14391500Y-8003500D02*
G75*
G03X14391500Y-8003500I-17500J0D01*
G01*
X14324000Y-8011000D02*
X14424000Y-8011000D01*
X14324000Y-7996000D02*
X14424000Y-7996000D01*
X14424000Y-8011000D02*
G75*
G03X14424000Y-7996000I0J7500D01*
G01*
X14324000Y-7996000D02*
G75*
G03X14324000Y-8011000I0J-7500D01*
G01*
X14352000Y-7494000D02*
X14352000Y-7538000D01*
X14330000Y-7516000D02*
X14374000Y-7516000D01*
X14352000Y-7624000D02*
X14352000Y-7668000D01*
X14330000Y-7646000D02*
X14374000Y-7646000D01*
X14352000Y-7754000D02*
X14352000Y-7798000D01*
X14330000Y-7776000D02*
X14374000Y-7776000D01*
X14452000Y-7559000D02*
X14452000Y-7603000D01*
X14430000Y-7581000D02*
X14474000Y-7581000D01*
X14452000Y-7689000D02*
X14452000Y-7733000D01*
X14430000Y-7711000D02*
X14474000Y-7711000D01*
X22225178Y-6717678D02*
X22225178Y-6682322D01*
X22189822Y-6682322D01*
X22189822Y-6717678D01*
X22225178Y-6717678D01*
X22284489Y-6574489D02*
X22284489Y-6539133D01*
X22249133Y-6539133D01*
X22249133Y-6574489D01*
X22284489Y-6574489D01*
X22284489Y-6860867D02*
X22284489Y-6825511D01*
X22249133Y-6825511D01*
X22249133Y-6860867D01*
X22284489Y-6860867D01*
X22427678Y-6515178D02*
X22427678Y-6479822D01*
X22392322Y-6479822D01*
X22392322Y-6515178D01*
X22427678Y-6515178D01*
X22427678Y-6920178D02*
X22427678Y-6884822D01*
X22392322Y-6884822D01*
X22392322Y-6920178D01*
X22427678Y-6920178D01*
X22570867Y-6574489D02*
X22570867Y-6539133D01*
X22535511Y-6539133D01*
X22535511Y-6574489D01*
X22570867Y-6574489D01*
X22570867Y-6860867D02*
X22570867Y-6825511D01*
X22535511Y-6825511D01*
X22535511Y-6860867D01*
X22570867Y-6860867D01*
X22630178Y-6717678D02*
X22630178Y-6682322D01*
X22594822Y-6682322D01*
X22594822Y-6717678D01*
X22630178Y-6717678D01*
X14265178Y-6717678D02*
X14265178Y-6682322D01*
X14229822Y-6682322D01*
X14229822Y-6717678D01*
X14265178Y-6717678D01*
X14324489Y-6574489D02*
X14324489Y-6539133D01*
X14289133Y-6539133D01*
X14289133Y-6574489D01*
X14324489Y-6574489D01*
X14324489Y-6860867D02*
X14324489Y-6825511D01*
X14289133Y-6825511D01*
X14289133Y-6860867D01*
X14324489Y-6860867D01*
X14467678Y-6515178D02*
X14467678Y-6479822D01*
X14432322Y-6479822D01*
X14432322Y-6515178D01*
X14467678Y-6515178D01*
X14467678Y-6920178D02*
X14467678Y-6884822D01*
X14432322Y-6884822D01*
X14432322Y-6920178D01*
X14467678Y-6920178D01*
X14610867Y-6574489D02*
X14610867Y-6539133D01*
X14575511Y-6539133D01*
X14575511Y-6574489D01*
X14610867Y-6574489D01*
X14610867Y-6860867D02*
X14610867Y-6825511D01*
X14575511Y-6825511D01*
X14575511Y-6860867D01*
X14610867Y-6860867D01*
X14670178Y-6717678D02*
X14670178Y-6682322D01*
X14634822Y-6682322D01*
X14634822Y-6717678D01*
X14670178Y-6717678D01*
X16070178Y-4492678D02*
X16070178Y-4457322D01*
X16034822Y-4457322D01*
X16034822Y-4492678D01*
X16070178Y-4492678D01*
X16129489Y-4349489D02*
X16129489Y-4314133D01*
X16094133Y-4314133D01*
X16094133Y-4349489D01*
X16129489Y-4349489D01*
X16129489Y-4635867D02*
X16129489Y-4600511D01*
X16094133Y-4600511D01*
X16094133Y-4635867D01*
X16129489Y-4635867D01*
X16272678Y-4290178D02*
X16272678Y-4254822D01*
X16237322Y-4254822D01*
X16237322Y-4290178D01*
X16272678Y-4290178D01*
X16272678Y-4695178D02*
X16272678Y-4659822D01*
X16237322Y-4659822D01*
X16237322Y-4695178D01*
X16272678Y-4695178D01*
X16415867Y-4349489D02*
X16415867Y-4314133D01*
X16380511Y-4314133D01*
X16380511Y-4349489D01*
X16415867Y-4349489D01*
X16415867Y-4635867D02*
X16415867Y-4600511D01*
X16380511Y-4600511D01*
X16380511Y-4635867D01*
X16415867Y-4635867D01*
X16475178Y-4492678D02*
X16475178Y-4457322D01*
X16439822Y-4457322D01*
X16439822Y-4492678D01*
X16475178Y-4492678D01*
X20420178Y-8942678D02*
X20420178Y-8907322D01*
X20384822Y-8907322D01*
X20384822Y-8942678D01*
X20420178Y-8942678D01*
X20479489Y-8799489D02*
X20479489Y-8764133D01*
X20444133Y-8764133D01*
X20444133Y-8799489D01*
X20479489Y-8799489D01*
X20479489Y-9085867D02*
X20479489Y-9050511D01*
X20444133Y-9050511D01*
X20444133Y-9085867D01*
X20479489Y-9085867D01*
X20622678Y-8740178D02*
X20622678Y-8704822D01*
X20587322Y-8704822D01*
X20587322Y-8740178D01*
X20622678Y-8740178D01*
X20622678Y-9145178D02*
X20622678Y-9109822D01*
X20587322Y-9109822D01*
X20587322Y-9145178D01*
X20622678Y-9145178D01*
X20765867Y-8799489D02*
X20765867Y-8764133D01*
X20730511Y-8764133D01*
X20730511Y-8799489D01*
X20765867Y-8799489D01*
X20765867Y-9085867D02*
X20765867Y-9050511D01*
X20730511Y-9050511D01*
X20730511Y-9085867D01*
X20765867Y-9085867D01*
X20825178Y-8942678D02*
X20825178Y-8907322D01*
X20789822Y-8907322D01*
X20789822Y-8942678D01*
X20825178Y-8942678D01*
X18229000Y-3994000D02*
X18269000Y-3954000D01*
X18229000Y-3914000D01*
X18189000Y-3954000D01*
X18229000Y-3994000D01*
X18483000Y-3994000D02*
X18523000Y-3954000D01*
X18483000Y-3914000D01*
X18443000Y-3954000D01*
X18483000Y-3994000D01*
X18737000Y-3994000D02*
X18777000Y-3954000D01*
X18737000Y-3914000D01*
X18697000Y-3954000D01*
X18737000Y-3994000D01*
X21575000Y-3929000D02*
X21675000Y-4029000D01*
X21675000Y-3929000D02*
X21575000Y-4029000D01*
X21675000Y-3979000D02*
G75*
G03X21675000Y-3979000I-50000J0D01*
G01*
X21829000Y-3929000D02*
X21929000Y-4029000D01*
X21929000Y-3929000D02*
X21829000Y-4029000D01*
X21929000Y-3979000D02*
G75*
G03X21929000Y-3979000I-50000J0D01*
G01*
X16599000Y-3933000D02*
X16699000Y-4033000D01*
X16699000Y-3933000D02*
X16599000Y-4033000D01*
X16699000Y-3983000D02*
G75*
G03X16699000Y-3983000I-50000J0D01*
G01*
X16853000Y-3933000D02*
X16953000Y-4033000D01*
X16953000Y-3933000D02*
X16853000Y-4033000D01*
X16953000Y-3983000D02*
G75*
G03X16953000Y-3983000I-50000J0D01*
G01*
X19280000Y-3929000D02*
X19380000Y-4029000D01*
X19380000Y-3929000D02*
X19280000Y-4029000D01*
X19380000Y-3979000D02*
G75*
G03X19380000Y-3979000I-50000J0D01*
G01*
X19534000Y-3929000D02*
X19634000Y-4029000D01*
X19634000Y-3929000D02*
X19534000Y-4029000D01*
X19634000Y-3979000D02*
G75*
G03X19634000Y-3979000I-50000J0D01*
G01*
X19788000Y-3929000D02*
X19888000Y-4029000D01*
X19888000Y-3929000D02*
X19788000Y-4029000D01*
X19888000Y-3979000D02*
G75*
G03X19888000Y-3979000I-50000J0D01*
G01*
X20042000Y-3929000D02*
X20142000Y-4029000D01*
X20142000Y-3929000D02*
X20042000Y-4029000D01*
X20142000Y-3979000D02*
G75*
G03X20142000Y-3979000I-50000J0D01*
G01*
X20296000Y-3929000D02*
X20396000Y-4029000D01*
X20396000Y-3929000D02*
X20296000Y-4029000D01*
X20396000Y-3979000D02*
G75*
G03X20396000Y-3979000I-50000J0D01*
G01*
X20550000Y-3929000D02*
X20650000Y-4029000D01*
X20650000Y-3929000D02*
X20550000Y-4029000D01*
X20650000Y-3979000D02*
G75*
G03X20650000Y-3979000I-50000J0D01*
G01*
X20804000Y-3929000D02*
X20904000Y-4029000D01*
X20904000Y-3929000D02*
X20804000Y-4029000D01*
X20904000Y-3979000D02*
G75*
G03X20904000Y-3979000I-50000J0D01*
G01*
X21058000Y-3929000D02*
X21158000Y-4029000D01*
X21158000Y-3929000D02*
X21058000Y-4029000D01*
X21158000Y-3979000D02*
G75*
G03X21158000Y-3979000I-50000J0D01*
G01*
X18760000Y-6765000D02*
X18860000Y-6865000D01*
X18860000Y-6765000D02*
X18760000Y-6865000D01*
X18860000Y-6815000D02*
G75*
G03X18860000Y-6815000I-50000J0D01*
G01*
X19014000Y-6765000D02*
X19114000Y-6865000D01*
X19114000Y-6765000D02*
X19014000Y-6865000D01*
X19114000Y-6815000D02*
G75*
G03X19114000Y-6815000I-50000J0D01*
G01*
X19268000Y-6765000D02*
X19368000Y-6865000D01*
X19368000Y-6765000D02*
X19268000Y-6865000D01*
X19368000Y-6815000D02*
G75*
G03X19368000Y-6815000I-50000J0D01*
G01*
X19522000Y-6765000D02*
X19622000Y-6865000D01*
X19622000Y-6765000D02*
X19522000Y-6865000D01*
X19622000Y-6815000D02*
G75*
G03X19622000Y-6815000I-50000J0D01*
G01*
X19776000Y-6765000D02*
X19876000Y-6865000D01*
X19876000Y-6765000D02*
X19776000Y-6865000D01*
X19876000Y-6815000D02*
G75*
G03X19876000Y-6815000I-50000J0D01*
G01*
X20030000Y-6765000D02*
X20130000Y-6865000D01*
X20130000Y-6765000D02*
X20030000Y-6865000D01*
X20130000Y-6815000D02*
G75*
G03X20130000Y-6815000I-50000J0D01*
G01*
X21310000Y-9195000D02*
X21410000Y-9295000D01*
X21410000Y-9195000D02*
X21310000Y-9295000D01*
X21410000Y-9245000D02*
G75*
G03X21410000Y-9245000I-50000J0D01*
G01*
X21564000Y-9195000D02*
X21664000Y-9295000D01*
X21664000Y-9195000D02*
X21564000Y-9295000D01*
X21664000Y-9245000D02*
G75*
G03X21664000Y-9245000I-50000J0D01*
G01*
X22550000Y-7320000D02*
X22660000Y-7430000D01*
X22660000Y-7320000D02*
X22550000Y-7430000D01*
X22605000Y-7320000D02*
X22605000Y-7430000D01*
X22550000Y-7375000D02*
X22660000Y-7375000D01*
X22550000Y-7570000D02*
X22660000Y-7680000D01*
X22660000Y-7570000D02*
X22550000Y-7680000D01*
X22605000Y-7570000D02*
X22605000Y-7680000D01*
X22550000Y-7625000D02*
X22660000Y-7625000D01*
X22550000Y-7820000D02*
X22660000Y-7930000D01*
X22660000Y-7820000D02*
X22550000Y-7930000D01*
X22605000Y-7820000D02*
X22605000Y-7930000D01*
X22550000Y-7875000D02*
X22660000Y-7875000D01*
X22550000Y-8070000D02*
X22660000Y-8180000D01*
X22660000Y-8070000D02*
X22550000Y-8180000D01*
X22605000Y-8070000D02*
X22605000Y-8180000D01*
X22550000Y-8125000D02*
X22660000Y-8125000D01*
X22550000Y-8320000D02*
X22660000Y-8430000D01*
X22660000Y-8320000D02*
X22550000Y-8430000D01*
X22605000Y-8320000D02*
X22605000Y-8430000D01*
X22550000Y-8375000D02*
X22660000Y-8375000D01*
X21636600Y-6856400D02*
X21746600Y-6966400D01*
X21746600Y-6856400D02*
X21636600Y-6966400D01*
X21691600Y-6856400D02*
X21691600Y-6966400D01*
X21636600Y-6911400D02*
X21746600Y-6911400D01*
X21636600Y-7106400D02*
X21746600Y-7216400D01*
X21746600Y-7106400D02*
X21636600Y-7216400D01*
X21691600Y-7106400D02*
X21691600Y-7216400D01*
X21636600Y-7161400D02*
X21746600Y-7161400D01*
X21636600Y-7356400D02*
X21746600Y-7466400D01*
X21746600Y-7356400D02*
X21636600Y-7466400D01*
X21691600Y-7356400D02*
X21691600Y-7466400D01*
X21636600Y-7411400D02*
X21746600Y-7411400D01*
X21636600Y-7606400D02*
X21746600Y-7716400D01*
X21746600Y-7606400D02*
X21636600Y-7716400D01*
X21691600Y-7606400D02*
X21691600Y-7716400D01*
X21636600Y-7661400D02*
X21746600Y-7661400D01*
X21636600Y-7856400D02*
X21746600Y-7966400D01*
X21746600Y-7856400D02*
X21636600Y-7966400D01*
X21691600Y-7856400D02*
X21691600Y-7966400D01*
X21636600Y-7911400D02*
X21746600Y-7911400D01*
X21636600Y-8106400D02*
X21746600Y-8216400D01*
X21746600Y-8106400D02*
X21636600Y-8216400D01*
X21691600Y-8106400D02*
X21691600Y-8216400D01*
X21636600Y-8161400D02*
X21746600Y-8161400D01*
X21636600Y-8356400D02*
X21746600Y-8466400D01*
X21746600Y-8356400D02*
X21636600Y-8466400D01*
X21691600Y-8356400D02*
X21691600Y-8466400D01*
X21636600Y-8411400D02*
X21746600Y-8411400D01*
X21636600Y-8606400D02*
X21746600Y-8716400D01*
X21746600Y-8606400D02*
X21636600Y-8716400D01*
X21691600Y-8606400D02*
X21691600Y-8716400D01*
X21636600Y-8661400D02*
X21746600Y-8661400D01*
X15028000Y-4010000D02*
X15138000Y-4120000D01*
X15138000Y-4010000D02*
X15028000Y-4120000D01*
X15083000Y-4010000D02*
X15083000Y-4120000D01*
X15028000Y-4065000D02*
X15138000Y-4065000D01*
X15278000Y-4010000D02*
X15388000Y-4120000D01*
X15388000Y-4010000D02*
X15278000Y-4120000D01*
X15333000Y-4010000D02*
X15333000Y-4120000D01*
X15278000Y-4065000D02*
X15388000Y-4065000D01*
X14717500Y-4520500D02*
X14956500Y-4759500D01*
X14956500Y-4520500D02*
X14717500Y-4759500D01*
X14921500Y-4724500D02*
X14921500Y-4555500D01*
X14752500Y-4555500D01*
X14752500Y-4724500D01*
X14921500Y-4724500D01*
X22275000Y-6565000D02*
X22545000Y-6835000D01*
X22545000Y-6565000D02*
X22275000Y-6835000D01*
X22410000Y-6835000D02*
X22545000Y-6700000D01*
X22410000Y-6565000D01*
X22275000Y-6700000D01*
X22410000Y-6835000D01*
X16120000Y-4340000D02*
X16390000Y-4610000D01*
X16390000Y-4340000D02*
X16120000Y-4610000D01*
X16255000Y-4610000D02*
X16390000Y-4475000D01*
X16255000Y-4340000D01*
X16120000Y-4475000D01*
X16255000Y-4610000D01*
X20470000Y-8790000D02*
X20740000Y-9060000D01*
X20740000Y-8790000D02*
X20470000Y-9060000D01*
X20605000Y-9060000D02*
X20740000Y-8925000D01*
X20605000Y-8790000D01*
X20470000Y-8925000D01*
X20605000Y-9060000D01*
X14315000Y-6565000D02*
X14585000Y-6835000D01*
X14585000Y-6565000D02*
X14315000Y-6835000D01*
X14450000Y-6835000D02*
X14585000Y-6700000D01*
X14450000Y-6565000D01*
X14315000Y-6700000D01*
X14450000Y-6835000D01*
D12*
X14181428Y-10070714D02*
X14181428Y-9770714D01*
X14252857Y-9770714D01*
X14295714Y-9785000D01*
X14324286Y-9813572D01*
X14338571Y-9842143D01*
X14352857Y-9899286D01*
X14352857Y-9942143D01*
X14338571Y-9999286D01*
X14324286Y-10027857D01*
X14295714Y-10056429D01*
X14252857Y-10070714D01*
X14181428Y-10070714D01*
X14481428Y-10070714D02*
X14481428Y-9870714D01*
X14481428Y-9927857D02*
X14495714Y-9899286D01*
X14510000Y-9885000D01*
X14538571Y-9870714D01*
X14567143Y-9870714D01*
X14667143Y-10070714D02*
X14667143Y-9870714D01*
X14667143Y-9770714D02*
X14652857Y-9785000D01*
X14667143Y-9799286D01*
X14681428Y-9785000D01*
X14667143Y-9770714D01*
X14667143Y-9799286D01*
X14852857Y-10070714D02*
X14824286Y-10056429D01*
X14810000Y-10027857D01*
X14810000Y-9770714D01*
X15010000Y-10070714D02*
X14981428Y-10056429D01*
X14967143Y-10027857D01*
X14967143Y-9770714D01*
X15352857Y-10070714D02*
X15352857Y-9770714D01*
X15452857Y-9985000D01*
X15552857Y-9770714D01*
X15552857Y-10070714D01*
X15824286Y-10070714D02*
X15824286Y-9913572D01*
X15810000Y-9885000D01*
X15781428Y-9870714D01*
X15724286Y-9870714D01*
X15695714Y-9885000D01*
X15824286Y-10056429D02*
X15795714Y-10070714D01*
X15724286Y-10070714D01*
X15695714Y-10056429D01*
X15681428Y-10027857D01*
X15681428Y-9999286D01*
X15695714Y-9970714D01*
X15724286Y-9956429D01*
X15795714Y-9956429D01*
X15824286Y-9942143D01*
X15967143Y-9870714D02*
X15967143Y-10170714D01*
X15967143Y-9885000D02*
X15995714Y-9870714D01*
X16052857Y-9870714D01*
X16081428Y-9885000D01*
X16095714Y-9899286D01*
X16110000Y-9927857D01*
X16110000Y-10013572D01*
X16095714Y-10042143D01*
X16081428Y-10056429D01*
X16052857Y-10070714D01*
X15995714Y-10070714D01*
X15967143Y-10056429D01*
X16238571Y-10042143D02*
X16252857Y-10056429D01*
X16238571Y-10070714D01*
X16224286Y-10056429D01*
X16238571Y-10042143D01*
X16238571Y-10070714D01*
X16238571Y-9885000D02*
X16252857Y-9899286D01*
X16238571Y-9913572D01*
X16224286Y-9899286D01*
X16238571Y-9885000D01*
X16238571Y-9913572D01*
X13865000Y-10550000D02*
X13895000Y-10580000D01*
X13895000Y-10550000D02*
X13865000Y-10580000D01*
X14238571Y-10400714D02*
X14267143Y-10400714D01*
X14295714Y-10415000D01*
X14310000Y-10429286D01*
X14324286Y-10457857D01*
X14338571Y-10515000D01*
X14338571Y-10586429D01*
X14324286Y-10643572D01*
X14310000Y-10672143D01*
X14295714Y-10686429D01*
X14267143Y-10700714D01*
X14238571Y-10700714D01*
X14210000Y-10686429D01*
X14195714Y-10672143D01*
X14181428Y-10643572D01*
X14167143Y-10586429D01*
X14167143Y-10515000D01*
X14181428Y-10457857D01*
X14195714Y-10429286D01*
X14210000Y-10415000D01*
X14238571Y-10400714D01*
X14467143Y-10672143D02*
X14481428Y-10686429D01*
X14467143Y-10700714D01*
X14452857Y-10686429D01*
X14467143Y-10672143D01*
X14467143Y-10700714D01*
X14581428Y-10400714D02*
X14767143Y-10400714D01*
X14667143Y-10515000D01*
X14710000Y-10515000D01*
X14738571Y-10529286D01*
X14752857Y-10543572D01*
X14767143Y-10572143D01*
X14767143Y-10643572D01*
X14752857Y-10672143D01*
X14738571Y-10686429D01*
X14710000Y-10700714D01*
X14624286Y-10700714D01*
X14595714Y-10686429D01*
X14581428Y-10672143D01*
X14952857Y-10400714D02*
X14981428Y-10400714D01*
X15010000Y-10415000D01*
X15024286Y-10429286D01*
X15038571Y-10457857D01*
X15052857Y-10515000D01*
X15052857Y-10586429D01*
X15038571Y-10643572D01*
X15024286Y-10672143D01*
X15010000Y-10686429D01*
X14981428Y-10700714D01*
X14952857Y-10700714D01*
X14924286Y-10686429D01*
X14910000Y-10672143D01*
X14895714Y-10643572D01*
X14881428Y-10586429D01*
X14881428Y-10515000D01*
X14895714Y-10457857D01*
X14910000Y-10429286D01*
X14924286Y-10415000D01*
X14952857Y-10400714D01*
X15181428Y-10700714D02*
X15181428Y-10500714D01*
X15181428Y-10529286D02*
X15195714Y-10515000D01*
X15224286Y-10500714D01*
X15267143Y-10500714D01*
X15295714Y-10515000D01*
X15310000Y-10543572D01*
X15310000Y-10700714D01*
X15310000Y-10543572D02*
X15324286Y-10515000D01*
X15352857Y-10500714D01*
X15395714Y-10500714D01*
X15424286Y-10515000D01*
X15438571Y-10543572D01*
X15438571Y-10700714D01*
X15581428Y-10700714D02*
X15581428Y-10500714D01*
X15581428Y-10529286D02*
X15595714Y-10515000D01*
X15624286Y-10500714D01*
X15667143Y-10500714D01*
X15695714Y-10515000D01*
X15710000Y-10543572D01*
X15710000Y-10700714D01*
X15710000Y-10543572D02*
X15724286Y-10515000D01*
X15752857Y-10500714D01*
X15795714Y-10500714D01*
X15824286Y-10515000D01*
X15838571Y-10543572D01*
X15838571Y-10700714D01*
X16424286Y-10386429D02*
X16167143Y-10772143D01*
X16810000Y-10400714D02*
X16838571Y-10400714D01*
X16867143Y-10415000D01*
X16881428Y-10429286D01*
X16895714Y-10457857D01*
X16910000Y-10515000D01*
X16910000Y-10586429D01*
X16895714Y-10643572D01*
X16881428Y-10672143D01*
X16867143Y-10686429D01*
X16838571Y-10700714D01*
X16810000Y-10700714D01*
X16781428Y-10686429D01*
X16767143Y-10672143D01*
X16752857Y-10643572D01*
X16738571Y-10586429D01*
X16738571Y-10515000D01*
X16752857Y-10457857D01*
X16767143Y-10429286D01*
X16781428Y-10415000D01*
X16810000Y-10400714D01*
X17038571Y-10672143D02*
X17052857Y-10686429D01*
X17038571Y-10700714D01*
X17024286Y-10686429D01*
X17038571Y-10672143D01*
X17038571Y-10700714D01*
X17238571Y-10400714D02*
X17267143Y-10400714D01*
X17295714Y-10415000D01*
X17310000Y-10429286D01*
X17324286Y-10457857D01*
X17338571Y-10515000D01*
X17338571Y-10586429D01*
X17324286Y-10643572D01*
X17310000Y-10672143D01*
X17295714Y-10686429D01*
X17267143Y-10700714D01*
X17238571Y-10700714D01*
X17210000Y-10686429D01*
X17195714Y-10672143D01*
X17181428Y-10643572D01*
X17167143Y-10586429D01*
X17167143Y-10515000D01*
X17181428Y-10457857D01*
X17195714Y-10429286D01*
X17210000Y-10415000D01*
X17238571Y-10400714D01*
X17624286Y-10700714D02*
X17452857Y-10700714D01*
X17538571Y-10700714D02*
X17538571Y-10400714D01*
X17510000Y-10443572D01*
X17481428Y-10472143D01*
X17452857Y-10486429D01*
X17738571Y-10429286D02*
X17752857Y-10415000D01*
X17781428Y-10400714D01*
X17852857Y-10400714D01*
X17881428Y-10415000D01*
X17895714Y-10429286D01*
X17910000Y-10457857D01*
X17910000Y-10486429D01*
X17895714Y-10529286D01*
X17724286Y-10700714D01*
X17910000Y-10700714D01*
X18024286Y-10400714D02*
X18024286Y-10457857D01*
X18138571Y-10400714D02*
X18138571Y-10457857D01*
X18581428Y-10815000D02*
X18567143Y-10800714D01*
X18538571Y-10757857D01*
X18524286Y-10729286D01*
X18510000Y-10686429D01*
X18495714Y-10615000D01*
X18495714Y-10557857D01*
X18510000Y-10486429D01*
X18524286Y-10443572D01*
X18538571Y-10415000D01*
X18567143Y-10372143D01*
X18581428Y-10357857D01*
X18681428Y-10429286D02*
X18695714Y-10415000D01*
X18724286Y-10400714D01*
X18795714Y-10400714D01*
X18824286Y-10415000D01*
X18838571Y-10429286D01*
X18852857Y-10457857D01*
X18852857Y-10486429D01*
X18838571Y-10529286D01*
X18667143Y-10700714D01*
X18852857Y-10700714D01*
X19124286Y-10400714D02*
X18981428Y-10400714D01*
X18967143Y-10543572D01*
X18981428Y-10529286D01*
X19010000Y-10515000D01*
X19081428Y-10515000D01*
X19110000Y-10529286D01*
X19124286Y-10543572D01*
X19138571Y-10572143D01*
X19138571Y-10643572D01*
X19124286Y-10672143D01*
X19110000Y-10686429D01*
X19081428Y-10700714D01*
X19010000Y-10700714D01*
X18981428Y-10686429D01*
X18967143Y-10672143D01*
X19324286Y-10400714D02*
X19352857Y-10400714D01*
X19381428Y-10415000D01*
X19395714Y-10429286D01*
X19410000Y-10457857D01*
X19424286Y-10515000D01*
X19424286Y-10586429D01*
X19410000Y-10643572D01*
X19395714Y-10672143D01*
X19381428Y-10686429D01*
X19352857Y-10700714D01*
X19324286Y-10700714D01*
X19295714Y-10686429D01*
X19281428Y-10672143D01*
X19267143Y-10643572D01*
X19252857Y-10586429D01*
X19252857Y-10515000D01*
X19267143Y-10457857D01*
X19281428Y-10429286D01*
X19295714Y-10415000D01*
X19324286Y-10400714D01*
X19781428Y-10700714D02*
X19781428Y-10400714D01*
X19910000Y-10700714D02*
X19910000Y-10543572D01*
X19895714Y-10515000D01*
X19867143Y-10500714D01*
X19824286Y-10500714D01*
X19795714Y-10515000D01*
X19781428Y-10529286D01*
X20095714Y-10700714D02*
X20067143Y-10686429D01*
X20052857Y-10672143D01*
X20038571Y-10643572D01*
X20038571Y-10557857D01*
X20052857Y-10529286D01*
X20067143Y-10515000D01*
X20095714Y-10500714D01*
X20138571Y-10500714D01*
X20167143Y-10515000D01*
X20181428Y-10529286D01*
X20195714Y-10557857D01*
X20195714Y-10643572D01*
X20181428Y-10672143D01*
X20167143Y-10686429D01*
X20138571Y-10700714D01*
X20095714Y-10700714D01*
X20367143Y-10700714D02*
X20338571Y-10686429D01*
X20324286Y-10657857D01*
X20324286Y-10400714D01*
X20595714Y-10686429D02*
X20567143Y-10700714D01*
X20510000Y-10700714D01*
X20481428Y-10686429D01*
X20467143Y-10657857D01*
X20467143Y-10543572D01*
X20481428Y-10515000D01*
X20510000Y-10500714D01*
X20567143Y-10500714D01*
X20595714Y-10515000D01*
X20610000Y-10543572D01*
X20610000Y-10572143D01*
X20467143Y-10600714D01*
X20724286Y-10686429D02*
X20752857Y-10700714D01*
X20810000Y-10700714D01*
X20838571Y-10686429D01*
X20852857Y-10657857D01*
X20852857Y-10643572D01*
X20838571Y-10615000D01*
X20810000Y-10600714D01*
X20767143Y-10600714D01*
X20738571Y-10586429D01*
X20724286Y-10557857D01*
X20724286Y-10543572D01*
X20738571Y-10515000D01*
X20767143Y-10500714D01*
X20810000Y-10500714D01*
X20838571Y-10515000D01*
X20952857Y-10815000D02*
X20967143Y-10800714D01*
X20995714Y-10757857D01*
X21010000Y-10729286D01*
X21024286Y-10686429D01*
X21038571Y-10615000D01*
X21038571Y-10557857D01*
X21024286Y-10486429D01*
X21010000Y-10443572D01*
X20995714Y-10415000D01*
X20967143Y-10372143D01*
X20952857Y-10357857D01*
X13895000Y-10961000D02*
G75*
G03X13895000Y-10961000I-17500J0D01*
G01*
X14238571Y-10796714D02*
X14267143Y-10796714D01*
X14295714Y-10811000D01*
X14310000Y-10825286D01*
X14324286Y-10853857D01*
X14338571Y-10911000D01*
X14338571Y-10982429D01*
X14324286Y-11039572D01*
X14310000Y-11068143D01*
X14295714Y-11082429D01*
X14267143Y-11096714D01*
X14238571Y-11096714D01*
X14210000Y-11082429D01*
X14195714Y-11068143D01*
X14181428Y-11039572D01*
X14167143Y-10982429D01*
X14167143Y-10911000D01*
X14181428Y-10853857D01*
X14195714Y-10825286D01*
X14210000Y-10811000D01*
X14238571Y-10796714D01*
X14467143Y-11068143D02*
X14481428Y-11082429D01*
X14467143Y-11096714D01*
X14452857Y-11082429D01*
X14467143Y-11068143D01*
X14467143Y-11096714D01*
X14581428Y-10796714D02*
X14767143Y-10796714D01*
X14667143Y-10911000D01*
X14710000Y-10911000D01*
X14738571Y-10925286D01*
X14752857Y-10939572D01*
X14767143Y-10968143D01*
X14767143Y-11039572D01*
X14752857Y-11068143D01*
X14738571Y-11082429D01*
X14710000Y-11096714D01*
X14624286Y-11096714D01*
X14595714Y-11082429D01*
X14581428Y-11068143D01*
X15038571Y-10796714D02*
X14895714Y-10796714D01*
X14881428Y-10939572D01*
X14895714Y-10925286D01*
X14924286Y-10911000D01*
X14995714Y-10911000D01*
X15024286Y-10925286D01*
X15038571Y-10939572D01*
X15052857Y-10968143D01*
X15052857Y-11039572D01*
X15038571Y-11068143D01*
X15024286Y-11082429D01*
X14995714Y-11096714D01*
X14924286Y-11096714D01*
X14895714Y-11082429D01*
X14881428Y-11068143D01*
X15181428Y-11096714D02*
X15181428Y-10896714D01*
X15181428Y-10925286D02*
X15195714Y-10911000D01*
X15224286Y-10896714D01*
X15267143Y-10896714D01*
X15295714Y-10911000D01*
X15310000Y-10939572D01*
X15310000Y-11096714D01*
X15310000Y-10939572D02*
X15324286Y-10911000D01*
X15352857Y-10896714D01*
X15395714Y-10896714D01*
X15424286Y-10911000D01*
X15438571Y-10939572D01*
X15438571Y-11096714D01*
X15581428Y-11096714D02*
X15581428Y-10896714D01*
X15581428Y-10925286D02*
X15595714Y-10911000D01*
X15624286Y-10896714D01*
X15667143Y-10896714D01*
X15695714Y-10911000D01*
X15710000Y-10939572D01*
X15710000Y-11096714D01*
X15710000Y-10939572D02*
X15724286Y-10911000D01*
X15752857Y-10896714D01*
X15795714Y-10896714D01*
X15824286Y-10911000D01*
X15838571Y-10939572D01*
X15838571Y-11096714D01*
X16424286Y-10782429D02*
X16167143Y-11168143D01*
X16810000Y-10796714D02*
X16838571Y-10796714D01*
X16867143Y-10811000D01*
X16881428Y-10825286D01*
X16895714Y-10853857D01*
X16910000Y-10911000D01*
X16910000Y-10982429D01*
X16895714Y-11039572D01*
X16881428Y-11068143D01*
X16867143Y-11082429D01*
X16838571Y-11096714D01*
X16810000Y-11096714D01*
X16781428Y-11082429D01*
X16767143Y-11068143D01*
X16752857Y-11039572D01*
X16738571Y-10982429D01*
X16738571Y-10911000D01*
X16752857Y-10853857D01*
X16767143Y-10825286D01*
X16781428Y-10811000D01*
X16810000Y-10796714D01*
X17038571Y-11068143D02*
X17052857Y-11082429D01*
X17038571Y-11096714D01*
X17024286Y-11082429D01*
X17038571Y-11068143D01*
X17038571Y-11096714D01*
X17238571Y-10796714D02*
X17267143Y-10796714D01*
X17295714Y-10811000D01*
X17310000Y-10825286D01*
X17324286Y-10853857D01*
X17338571Y-10911000D01*
X17338571Y-10982429D01*
X17324286Y-11039572D01*
X17310000Y-11068143D01*
X17295714Y-11082429D01*
X17267143Y-11096714D01*
X17238571Y-11096714D01*
X17210000Y-11082429D01*
X17195714Y-11068143D01*
X17181428Y-11039572D01*
X17167143Y-10982429D01*
X17167143Y-10911000D01*
X17181428Y-10853857D01*
X17195714Y-10825286D01*
X17210000Y-10811000D01*
X17238571Y-10796714D01*
X17624286Y-11096714D02*
X17452857Y-11096714D01*
X17538571Y-11096714D02*
X17538571Y-10796714D01*
X17510000Y-10839572D01*
X17481428Y-10868143D01*
X17452857Y-10882429D01*
X17881428Y-10896714D02*
X17881428Y-11096714D01*
X17810000Y-10782429D02*
X17738571Y-10996714D01*
X17924286Y-10996714D01*
X18024286Y-10796714D02*
X18024286Y-10853857D01*
X18138571Y-10796714D02*
X18138571Y-10853857D01*
X18581428Y-11211000D02*
X18567143Y-11196714D01*
X18538571Y-11153857D01*
X18524286Y-11125286D01*
X18510000Y-11082429D01*
X18495714Y-11011000D01*
X18495714Y-10953857D01*
X18510000Y-10882429D01*
X18524286Y-10839572D01*
X18538571Y-10811000D01*
X18567143Y-10768143D01*
X18581428Y-10753857D01*
X18752857Y-10796714D02*
X18781428Y-10796714D01*
X18810000Y-10811000D01*
X18824286Y-10825286D01*
X18838571Y-10853857D01*
X18852857Y-10911000D01*
X18852857Y-10982429D01*
X18838571Y-11039572D01*
X18824286Y-11068143D01*
X18810000Y-11082429D01*
X18781428Y-11096714D01*
X18752857Y-11096714D01*
X18724286Y-11082429D01*
X18710000Y-11068143D01*
X18695714Y-11039572D01*
X18681428Y-10982429D01*
X18681428Y-10911000D01*
X18695714Y-10853857D01*
X18710000Y-10825286D01*
X18724286Y-10811000D01*
X18752857Y-10796714D01*
X19210000Y-11096714D02*
X19210000Y-10796714D01*
X19338571Y-11096714D02*
X19338571Y-10939572D01*
X19324286Y-10911000D01*
X19295714Y-10896714D01*
X19252857Y-10896714D01*
X19224286Y-10911000D01*
X19210000Y-10925286D01*
X19524286Y-11096714D02*
X19495714Y-11082429D01*
X19481428Y-11068143D01*
X19467143Y-11039572D01*
X19467143Y-10953857D01*
X19481428Y-10925286D01*
X19495714Y-10911000D01*
X19524286Y-10896714D01*
X19567143Y-10896714D01*
X19595714Y-10911000D01*
X19610000Y-10925286D01*
X19624286Y-10953857D01*
X19624286Y-11039572D01*
X19610000Y-11068143D01*
X19595714Y-11082429D01*
X19567143Y-11096714D01*
X19524286Y-11096714D01*
X19795714Y-11096714D02*
X19767143Y-11082429D01*
X19752857Y-11053857D01*
X19752857Y-10796714D01*
X20024286Y-11082429D02*
X19995714Y-11096714D01*
X19938571Y-11096714D01*
X19910000Y-11082429D01*
X19895714Y-11053857D01*
X19895714Y-10939572D01*
X19910000Y-10911000D01*
X19938571Y-10896714D01*
X19995714Y-10896714D01*
X20024286Y-10911000D01*
X20038571Y-10939572D01*
X20038571Y-10968143D01*
X19895714Y-10996714D01*
X20152857Y-11082429D02*
X20181428Y-11096714D01*
X20238571Y-11096714D01*
X20267143Y-11082429D01*
X20281428Y-11053857D01*
X20281428Y-11039572D01*
X20267143Y-11011000D01*
X20238571Y-10996714D01*
X20195714Y-10996714D01*
X20167143Y-10982429D01*
X20152857Y-10953857D01*
X20152857Y-10939572D01*
X20167143Y-10911000D01*
X20195714Y-10896714D01*
X20238571Y-10896714D01*
X20267143Y-10911000D01*
X20638571Y-10982429D02*
X20867143Y-10982429D01*
X20752857Y-11096714D02*
X20752857Y-10868143D01*
X21224286Y-10825286D02*
X21238571Y-10811000D01*
X21267143Y-10796714D01*
X21338571Y-10796714D01*
X21367143Y-10811000D01*
X21381428Y-10825286D01*
X21395714Y-10853857D01*
X21395714Y-10882429D01*
X21381428Y-10925286D01*
X21210000Y-11096714D01*
X21395714Y-11096714D01*
X21738571Y-11082429D02*
X21767143Y-11096714D01*
X21824286Y-11096714D01*
X21852857Y-11082429D01*
X21867143Y-11053857D01*
X21867143Y-11039572D01*
X21852857Y-11011000D01*
X21824286Y-10996714D01*
X21781428Y-10996714D01*
X21752857Y-10982429D01*
X21738571Y-10953857D01*
X21738571Y-10939572D01*
X21752857Y-10911000D01*
X21781428Y-10896714D01*
X21824286Y-10896714D01*
X21852857Y-10911000D01*
X22038571Y-11096714D02*
X22010000Y-11082429D01*
X21995714Y-11053857D01*
X21995714Y-10796714D01*
X22195714Y-11096714D02*
X22167143Y-11082429D01*
X22152857Y-11068143D01*
X22138571Y-11039572D01*
X22138571Y-10953857D01*
X22152857Y-10925286D01*
X22167143Y-10911000D01*
X22195714Y-10896714D01*
X22238571Y-10896714D01*
X22267143Y-10911000D01*
X22281428Y-10925286D01*
X22295714Y-10953857D01*
X22295714Y-11039572D01*
X22281428Y-11068143D01*
X22267143Y-11082429D01*
X22238571Y-11096714D01*
X22195714Y-11096714D01*
X22381428Y-10896714D02*
X22495714Y-10896714D01*
X22424286Y-10796714D02*
X22424286Y-11053857D01*
X22438571Y-11082429D01*
X22467143Y-11096714D01*
X22495714Y-11096714D01*
X22581428Y-11082429D02*
X22610000Y-11096714D01*
X22667143Y-11096714D01*
X22695714Y-11082429D01*
X22710000Y-11053857D01*
X22710000Y-11039572D01*
X22695714Y-11011000D01*
X22667143Y-10996714D01*
X22624286Y-10996714D01*
X22595714Y-10982429D01*
X22581428Y-10953857D01*
X22581428Y-10939572D01*
X22595714Y-10911000D01*
X22624286Y-10896714D01*
X22667143Y-10896714D01*
X22695714Y-10911000D01*
X22810000Y-11211000D02*
X22824286Y-11196714D01*
X22852857Y-11153857D01*
X22867143Y-11125286D01*
X22881428Y-11082429D01*
X22895714Y-11011000D01*
X22895714Y-10953857D01*
X22881428Y-10882429D01*
X22867143Y-10839572D01*
X22852857Y-10811000D01*
X22824286Y-10768143D01*
X22810000Y-10753857D01*
X13873000Y-11335000D02*
X13873000Y-11379000D01*
X13851000Y-11357000D02*
X13895000Y-11357000D01*
X14238571Y-11192714D02*
X14267143Y-11192714D01*
X14295714Y-11207000D01*
X14310000Y-11221286D01*
X14324286Y-11249857D01*
X14338571Y-11307000D01*
X14338571Y-11378429D01*
X14324286Y-11435571D01*
X14310000Y-11464143D01*
X14295714Y-11478429D01*
X14267143Y-11492714D01*
X14238571Y-11492714D01*
X14210000Y-11478429D01*
X14195714Y-11464143D01*
X14181428Y-11435571D01*
X14167143Y-11378429D01*
X14167143Y-11307000D01*
X14181428Y-11249857D01*
X14195714Y-11221286D01*
X14210000Y-11207000D01*
X14238571Y-11192714D01*
X14467143Y-11464143D02*
X14481428Y-11478429D01*
X14467143Y-11492714D01*
X14452857Y-11478429D01*
X14467143Y-11464143D01*
X14467143Y-11492714D01*
X14738571Y-11292714D02*
X14738571Y-11492714D01*
X14667143Y-11178429D02*
X14595714Y-11392714D01*
X14781428Y-11392714D01*
X15024286Y-11292714D02*
X15024286Y-11492714D01*
X14952857Y-11178429D02*
X14881428Y-11392714D01*
X15067143Y-11392714D01*
X15181428Y-11492714D02*
X15181428Y-11292714D01*
X15181428Y-11321286D02*
X15195714Y-11307000D01*
X15224286Y-11292714D01*
X15267143Y-11292714D01*
X15295714Y-11307000D01*
X15310000Y-11335571D01*
X15310000Y-11492714D01*
X15310000Y-11335571D02*
X15324286Y-11307000D01*
X15352857Y-11292714D01*
X15395714Y-11292714D01*
X15424286Y-11307000D01*
X15438571Y-11335571D01*
X15438571Y-11492714D01*
X15581428Y-11492714D02*
X15581428Y-11292714D01*
X15581428Y-11321286D02*
X15595714Y-11307000D01*
X15624286Y-11292714D01*
X15667143Y-11292714D01*
X15695714Y-11307000D01*
X15710000Y-11335571D01*
X15710000Y-11492714D01*
X15710000Y-11335571D02*
X15724286Y-11307000D01*
X15752857Y-11292714D01*
X15795714Y-11292714D01*
X15824286Y-11307000D01*
X15838571Y-11335571D01*
X15838571Y-11492714D01*
X16424286Y-11178429D02*
X16167143Y-11564143D01*
X16810000Y-11192714D02*
X16838571Y-11192714D01*
X16867143Y-11207000D01*
X16881428Y-11221286D01*
X16895714Y-11249857D01*
X16910000Y-11307000D01*
X16910000Y-11378429D01*
X16895714Y-11435571D01*
X16881428Y-11464143D01*
X16867143Y-11478429D01*
X16838571Y-11492714D01*
X16810000Y-11492714D01*
X16781428Y-11478429D01*
X16767143Y-11464143D01*
X16752857Y-11435571D01*
X16738571Y-11378429D01*
X16738571Y-11307000D01*
X16752857Y-11249857D01*
X16767143Y-11221286D01*
X16781428Y-11207000D01*
X16810000Y-11192714D01*
X17038571Y-11464143D02*
X17052857Y-11478429D01*
X17038571Y-11492714D01*
X17024286Y-11478429D01*
X17038571Y-11464143D01*
X17038571Y-11492714D01*
X17238571Y-11192714D02*
X17267143Y-11192714D01*
X17295714Y-11207000D01*
X17310000Y-11221286D01*
X17324286Y-11249857D01*
X17338571Y-11307000D01*
X17338571Y-11378429D01*
X17324286Y-11435571D01*
X17310000Y-11464143D01*
X17295714Y-11478429D01*
X17267143Y-11492714D01*
X17238571Y-11492714D01*
X17210000Y-11478429D01*
X17195714Y-11464143D01*
X17181428Y-11435571D01*
X17167143Y-11378429D01*
X17167143Y-11307000D01*
X17181428Y-11249857D01*
X17195714Y-11221286D01*
X17210000Y-11207000D01*
X17238571Y-11192714D01*
X17624286Y-11492714D02*
X17452857Y-11492714D01*
X17538571Y-11492714D02*
X17538571Y-11192714D01*
X17510000Y-11235571D01*
X17481428Y-11264143D01*
X17452857Y-11278429D01*
X17724286Y-11192714D02*
X17924286Y-11192714D01*
X17795714Y-11492714D01*
X18024286Y-11192714D02*
X18024286Y-11249857D01*
X18138571Y-11192714D02*
X18138571Y-11249857D01*
X18581428Y-11607000D02*
X18567143Y-11592714D01*
X18538571Y-11549857D01*
X18524286Y-11521286D01*
X18510000Y-11478429D01*
X18495714Y-11407000D01*
X18495714Y-11349857D01*
X18510000Y-11278429D01*
X18524286Y-11235571D01*
X18538571Y-11207000D01*
X18567143Y-11164143D01*
X18581428Y-11149857D01*
X18838571Y-11192714D02*
X18695714Y-11192714D01*
X18681428Y-11335571D01*
X18695714Y-11321286D01*
X18724286Y-11307000D01*
X18795714Y-11307000D01*
X18824286Y-11321286D01*
X18838571Y-11335571D01*
X18852857Y-11364143D01*
X18852857Y-11435571D01*
X18838571Y-11464143D01*
X18824286Y-11478429D01*
X18795714Y-11492714D01*
X18724286Y-11492714D01*
X18695714Y-11478429D01*
X18681428Y-11464143D01*
X19210000Y-11492714D02*
X19210000Y-11192714D01*
X19338571Y-11492714D02*
X19338571Y-11335571D01*
X19324286Y-11307000D01*
X19295714Y-11292714D01*
X19252857Y-11292714D01*
X19224286Y-11307000D01*
X19210000Y-11321286D01*
X19524286Y-11492714D02*
X19495714Y-11478429D01*
X19481428Y-11464143D01*
X19467143Y-11435571D01*
X19467143Y-11349857D01*
X19481428Y-11321286D01*
X19495714Y-11307000D01*
X19524286Y-11292714D01*
X19567143Y-11292714D01*
X19595714Y-11307000D01*
X19610000Y-11321286D01*
X19624286Y-11349857D01*
X19624286Y-11435571D01*
X19610000Y-11464143D01*
X19595714Y-11478429D01*
X19567143Y-11492714D01*
X19524286Y-11492714D01*
X19795714Y-11492714D02*
X19767143Y-11478429D01*
X19752857Y-11449857D01*
X19752857Y-11192714D01*
X20024286Y-11478429D02*
X19995714Y-11492714D01*
X19938571Y-11492714D01*
X19910000Y-11478429D01*
X19895714Y-11449857D01*
X19895714Y-11335571D01*
X19910000Y-11307000D01*
X19938571Y-11292714D01*
X19995714Y-11292714D01*
X20024286Y-11307000D01*
X20038571Y-11335571D01*
X20038571Y-11364143D01*
X19895714Y-11392714D01*
X20152857Y-11478429D02*
X20181428Y-11492714D01*
X20238571Y-11492714D01*
X20267143Y-11478429D01*
X20281428Y-11449857D01*
X20281428Y-11435571D01*
X20267143Y-11407000D01*
X20238571Y-11392714D01*
X20195714Y-11392714D01*
X20167143Y-11378429D01*
X20152857Y-11349857D01*
X20152857Y-11335571D01*
X20167143Y-11307000D01*
X20195714Y-11292714D01*
X20238571Y-11292714D01*
X20267143Y-11307000D01*
X20381428Y-11607000D02*
X20395714Y-11592714D01*
X20424286Y-11549857D01*
X20438571Y-11521286D01*
X20452857Y-11478429D01*
X20467143Y-11407000D01*
X20467143Y-11349857D01*
X20452857Y-11278429D01*
X20438571Y-11235571D01*
X20424286Y-11207000D01*
X20395714Y-11164143D01*
X20381428Y-11149857D01*
X13887678Y-11770678D02*
X13887678Y-11735322D01*
X13852322Y-11735322D01*
X13852322Y-11770678D01*
X13887678Y-11770678D01*
X14238571Y-11588714D02*
X14267143Y-11588714D01*
X14295714Y-11603000D01*
X14310000Y-11617286D01*
X14324286Y-11645857D01*
X14338571Y-11703000D01*
X14338571Y-11774429D01*
X14324286Y-11831571D01*
X14310000Y-11860143D01*
X14295714Y-11874429D01*
X14267143Y-11888714D01*
X14238571Y-11888714D01*
X14210000Y-11874429D01*
X14195714Y-11860143D01*
X14181428Y-11831571D01*
X14167143Y-11774429D01*
X14167143Y-11703000D01*
X14181428Y-11645857D01*
X14195714Y-11617286D01*
X14210000Y-11603000D01*
X14238571Y-11588714D01*
X14467143Y-11860143D02*
X14481428Y-11874429D01*
X14467143Y-11888714D01*
X14452857Y-11874429D01*
X14467143Y-11860143D01*
X14467143Y-11888714D01*
X14752857Y-11588714D02*
X14610000Y-11588714D01*
X14595714Y-11731571D01*
X14610000Y-11717286D01*
X14638571Y-11703000D01*
X14710000Y-11703000D01*
X14738571Y-11717286D01*
X14752857Y-11731571D01*
X14767143Y-11760143D01*
X14767143Y-11831571D01*
X14752857Y-11860143D01*
X14738571Y-11874429D01*
X14710000Y-11888714D01*
X14638571Y-11888714D01*
X14610000Y-11874429D01*
X14595714Y-11860143D01*
X14952857Y-11588714D02*
X14981428Y-11588714D01*
X15010000Y-11603000D01*
X15024286Y-11617286D01*
X15038571Y-11645857D01*
X15052857Y-11703000D01*
X15052857Y-11774429D01*
X15038571Y-11831571D01*
X15024286Y-11860143D01*
X15010000Y-11874429D01*
X14981428Y-11888714D01*
X14952857Y-11888714D01*
X14924286Y-11874429D01*
X14910000Y-11860143D01*
X14895714Y-11831571D01*
X14881428Y-11774429D01*
X14881428Y-11703000D01*
X14895714Y-11645857D01*
X14910000Y-11617286D01*
X14924286Y-11603000D01*
X14952857Y-11588714D01*
X15181428Y-11888714D02*
X15181428Y-11688714D01*
X15181428Y-11717286D02*
X15195714Y-11703000D01*
X15224286Y-11688714D01*
X15267143Y-11688714D01*
X15295714Y-11703000D01*
X15310000Y-11731571D01*
X15310000Y-11888714D01*
X15310000Y-11731571D02*
X15324286Y-11703000D01*
X15352857Y-11688714D01*
X15395714Y-11688714D01*
X15424286Y-11703000D01*
X15438571Y-11731571D01*
X15438571Y-11888714D01*
X15581428Y-11888714D02*
X15581428Y-11688714D01*
X15581428Y-11717286D02*
X15595714Y-11703000D01*
X15624286Y-11688714D01*
X15667143Y-11688714D01*
X15695714Y-11703000D01*
X15710000Y-11731571D01*
X15710000Y-11888714D01*
X15710000Y-11731571D02*
X15724286Y-11703000D01*
X15752857Y-11688714D01*
X15795714Y-11688714D01*
X15824286Y-11703000D01*
X15838571Y-11731571D01*
X15838571Y-11888714D01*
X16424286Y-11574429D02*
X16167143Y-11960143D01*
X16810000Y-11588714D02*
X16838571Y-11588714D01*
X16867143Y-11603000D01*
X16881428Y-11617286D01*
X16895714Y-11645857D01*
X16910000Y-11703000D01*
X16910000Y-11774429D01*
X16895714Y-11831571D01*
X16881428Y-11860143D01*
X16867143Y-11874429D01*
X16838571Y-11888714D01*
X16810000Y-11888714D01*
X16781428Y-11874429D01*
X16767143Y-11860143D01*
X16752857Y-11831571D01*
X16738571Y-11774429D01*
X16738571Y-11703000D01*
X16752857Y-11645857D01*
X16767143Y-11617286D01*
X16781428Y-11603000D01*
X16810000Y-11588714D01*
X17038571Y-11860143D02*
X17052857Y-11874429D01*
X17038571Y-11888714D01*
X17024286Y-11874429D01*
X17038571Y-11860143D01*
X17038571Y-11888714D01*
X17238571Y-11588714D02*
X17267143Y-11588714D01*
X17295714Y-11603000D01*
X17310000Y-11617286D01*
X17324286Y-11645857D01*
X17338571Y-11703000D01*
X17338571Y-11774429D01*
X17324286Y-11831571D01*
X17310000Y-11860143D01*
X17295714Y-11874429D01*
X17267143Y-11888714D01*
X17238571Y-11888714D01*
X17210000Y-11874429D01*
X17195714Y-11860143D01*
X17181428Y-11831571D01*
X17167143Y-11774429D01*
X17167143Y-11703000D01*
X17181428Y-11645857D01*
X17195714Y-11617286D01*
X17210000Y-11603000D01*
X17238571Y-11588714D01*
X17452857Y-11617286D02*
X17467143Y-11603000D01*
X17495714Y-11588714D01*
X17567143Y-11588714D01*
X17595714Y-11603000D01*
X17610000Y-11617286D01*
X17624286Y-11645857D01*
X17624286Y-11674429D01*
X17610000Y-11717286D01*
X17438571Y-11888714D01*
X17624286Y-11888714D01*
X17810000Y-11588714D02*
X17838571Y-11588714D01*
X17867143Y-11603000D01*
X17881428Y-11617286D01*
X17895714Y-11645857D01*
X17910000Y-11703000D01*
X17910000Y-11774429D01*
X17895714Y-11831571D01*
X17881428Y-11860143D01*
X17867143Y-11874429D01*
X17838571Y-11888714D01*
X17810000Y-11888714D01*
X17781428Y-11874429D01*
X17767143Y-11860143D01*
X17752857Y-11831571D01*
X17738571Y-11774429D01*
X17738571Y-11703000D01*
X17752857Y-11645857D01*
X17767143Y-11617286D01*
X17781428Y-11603000D01*
X17810000Y-11588714D01*
X18024286Y-11588714D02*
X18024286Y-11645857D01*
X18138571Y-11588714D02*
X18138571Y-11645857D01*
X18581428Y-12003000D02*
X18567143Y-11988714D01*
X18538571Y-11945857D01*
X18524286Y-11917286D01*
X18510000Y-11874429D01*
X18495714Y-11803000D01*
X18495714Y-11745857D01*
X18510000Y-11674429D01*
X18524286Y-11631571D01*
X18538571Y-11603000D01*
X18567143Y-11560143D01*
X18581428Y-11545857D01*
X18667143Y-11588714D02*
X18852857Y-11588714D01*
X18752857Y-11703000D01*
X18795714Y-11703000D01*
X18824286Y-11717286D01*
X18838571Y-11731571D01*
X18852857Y-11760143D01*
X18852857Y-11831571D01*
X18838571Y-11860143D01*
X18824286Y-11874429D01*
X18795714Y-11888714D01*
X18710000Y-11888714D01*
X18681428Y-11874429D01*
X18667143Y-11860143D01*
X18967143Y-11617286D02*
X18981428Y-11603000D01*
X19010000Y-11588714D01*
X19081428Y-11588714D01*
X19110000Y-11603000D01*
X19124286Y-11617286D01*
X19138571Y-11645857D01*
X19138571Y-11674429D01*
X19124286Y-11717286D01*
X18952857Y-11888714D01*
X19138571Y-11888714D01*
X19495714Y-11888714D02*
X19495714Y-11588714D01*
X19624286Y-11888714D02*
X19624286Y-11731571D01*
X19610000Y-11703000D01*
X19581428Y-11688714D01*
X19538571Y-11688714D01*
X19510000Y-11703000D01*
X19495714Y-11717286D01*
X19810000Y-11888714D02*
X19781428Y-11874429D01*
X19767143Y-11860143D01*
X19752857Y-11831571D01*
X19752857Y-11745857D01*
X19767143Y-11717286D01*
X19781428Y-11703000D01*
X19810000Y-11688714D01*
X19852857Y-11688714D01*
X19881428Y-11703000D01*
X19895714Y-11717286D01*
X19910000Y-11745857D01*
X19910000Y-11831571D01*
X19895714Y-11860143D01*
X19881428Y-11874429D01*
X19852857Y-11888714D01*
X19810000Y-11888714D01*
X20081428Y-11888714D02*
X20052857Y-11874429D01*
X20038571Y-11845857D01*
X20038571Y-11588714D01*
X20310000Y-11874429D02*
X20281428Y-11888714D01*
X20224286Y-11888714D01*
X20195714Y-11874429D01*
X20181428Y-11845857D01*
X20181428Y-11731571D01*
X20195714Y-11703000D01*
X20224286Y-11688714D01*
X20281428Y-11688714D01*
X20310000Y-11703000D01*
X20324286Y-11731571D01*
X20324286Y-11760143D01*
X20181428Y-11788714D01*
X20438571Y-11874429D02*
X20467143Y-11888714D01*
X20524286Y-11888714D01*
X20552857Y-11874429D01*
X20567143Y-11845857D01*
X20567143Y-11831571D01*
X20552857Y-11803000D01*
X20524286Y-11788714D01*
X20481428Y-11788714D01*
X20452857Y-11774429D01*
X20438571Y-11745857D01*
X20438571Y-11731571D01*
X20452857Y-11703000D01*
X20481428Y-11688714D01*
X20524286Y-11688714D01*
X20552857Y-11703000D01*
X20667143Y-12003000D02*
X20681428Y-11988714D01*
X20710000Y-11945857D01*
X20724286Y-11917286D01*
X20738571Y-11874429D01*
X20752857Y-11803000D01*
X20752857Y-11745857D01*
X20738571Y-11674429D01*
X20724286Y-11631571D01*
X20710000Y-11603000D01*
X20681428Y-11560143D01*
X20667143Y-11545857D01*
X13855000Y-12189000D02*
X13895000Y-12149000D01*
X13855000Y-12109000D01*
X13815000Y-12149000D01*
X13855000Y-12189000D01*
X14238571Y-11984714D02*
X14267143Y-11984714D01*
X14295714Y-11999000D01*
X14310000Y-12013286D01*
X14324286Y-12041857D01*
X14338571Y-12099000D01*
X14338571Y-12170429D01*
X14324286Y-12227571D01*
X14310000Y-12256143D01*
X14295714Y-12270429D01*
X14267143Y-12284714D01*
X14238571Y-12284714D01*
X14210000Y-12270429D01*
X14195714Y-12256143D01*
X14181428Y-12227571D01*
X14167143Y-12170429D01*
X14167143Y-12099000D01*
X14181428Y-12041857D01*
X14195714Y-12013286D01*
X14210000Y-11999000D01*
X14238571Y-11984714D01*
X14467143Y-12256143D02*
X14481428Y-12270429D01*
X14467143Y-12284714D01*
X14452857Y-12270429D01*
X14467143Y-12256143D01*
X14467143Y-12284714D01*
X14652857Y-12113286D02*
X14624286Y-12099000D01*
X14610000Y-12084714D01*
X14595714Y-12056143D01*
X14595714Y-12041857D01*
X14610000Y-12013286D01*
X14624286Y-11999000D01*
X14652857Y-11984714D01*
X14710000Y-11984714D01*
X14738571Y-11999000D01*
X14752857Y-12013286D01*
X14767143Y-12041857D01*
X14767143Y-12056143D01*
X14752857Y-12084714D01*
X14738571Y-12099000D01*
X14710000Y-12113286D01*
X14652857Y-12113286D01*
X14624286Y-12127571D01*
X14610000Y-12141857D01*
X14595714Y-12170429D01*
X14595714Y-12227571D01*
X14610000Y-12256143D01*
X14624286Y-12270429D01*
X14652857Y-12284714D01*
X14710000Y-12284714D01*
X14738571Y-12270429D01*
X14752857Y-12256143D01*
X14767143Y-12227571D01*
X14767143Y-12170429D01*
X14752857Y-12141857D01*
X14738571Y-12127571D01*
X14710000Y-12113286D01*
X14952857Y-11984714D02*
X14981428Y-11984714D01*
X15010000Y-11999000D01*
X15024286Y-12013286D01*
X15038571Y-12041857D01*
X15052857Y-12099000D01*
X15052857Y-12170429D01*
X15038571Y-12227571D01*
X15024286Y-12256143D01*
X15010000Y-12270429D01*
X14981428Y-12284714D01*
X14952857Y-12284714D01*
X14924286Y-12270429D01*
X14910000Y-12256143D01*
X14895714Y-12227571D01*
X14881428Y-12170429D01*
X14881428Y-12099000D01*
X14895714Y-12041857D01*
X14910000Y-12013286D01*
X14924286Y-11999000D01*
X14952857Y-11984714D01*
X15181428Y-12284714D02*
X15181428Y-12084714D01*
X15181428Y-12113286D02*
X15195714Y-12099000D01*
X15224286Y-12084714D01*
X15267143Y-12084714D01*
X15295714Y-12099000D01*
X15310000Y-12127571D01*
X15310000Y-12284714D01*
X15310000Y-12127571D02*
X15324286Y-12099000D01*
X15352857Y-12084714D01*
X15395714Y-12084714D01*
X15424286Y-12099000D01*
X15438571Y-12127571D01*
X15438571Y-12284714D01*
X15581428Y-12284714D02*
X15581428Y-12084714D01*
X15581428Y-12113286D02*
X15595714Y-12099000D01*
X15624286Y-12084714D01*
X15667143Y-12084714D01*
X15695714Y-12099000D01*
X15710000Y-12127571D01*
X15710000Y-12284714D01*
X15710000Y-12127571D02*
X15724286Y-12099000D01*
X15752857Y-12084714D01*
X15795714Y-12084714D01*
X15824286Y-12099000D01*
X15838571Y-12127571D01*
X15838571Y-12284714D01*
X16424286Y-11970429D02*
X16167143Y-12356143D01*
X16810000Y-11984714D02*
X16838571Y-11984714D01*
X16867143Y-11999000D01*
X16881428Y-12013286D01*
X16895714Y-12041857D01*
X16910000Y-12099000D01*
X16910000Y-12170429D01*
X16895714Y-12227571D01*
X16881428Y-12256143D01*
X16867143Y-12270429D01*
X16838571Y-12284714D01*
X16810000Y-12284714D01*
X16781428Y-12270429D01*
X16767143Y-12256143D01*
X16752857Y-12227571D01*
X16738571Y-12170429D01*
X16738571Y-12099000D01*
X16752857Y-12041857D01*
X16767143Y-12013286D01*
X16781428Y-11999000D01*
X16810000Y-11984714D01*
X17038571Y-12256143D02*
X17052857Y-12270429D01*
X17038571Y-12284714D01*
X17024286Y-12270429D01*
X17038571Y-12256143D01*
X17038571Y-12284714D01*
X17238571Y-11984714D02*
X17267143Y-11984714D01*
X17295714Y-11999000D01*
X17310000Y-12013286D01*
X17324286Y-12041857D01*
X17338571Y-12099000D01*
X17338571Y-12170429D01*
X17324286Y-12227571D01*
X17310000Y-12256143D01*
X17295714Y-12270429D01*
X17267143Y-12284714D01*
X17238571Y-12284714D01*
X17210000Y-12270429D01*
X17195714Y-12256143D01*
X17181428Y-12227571D01*
X17167143Y-12170429D01*
X17167143Y-12099000D01*
X17181428Y-12041857D01*
X17195714Y-12013286D01*
X17210000Y-11999000D01*
X17238571Y-11984714D01*
X17438571Y-11984714D02*
X17624286Y-11984714D01*
X17524286Y-12099000D01*
X17567143Y-12099000D01*
X17595714Y-12113286D01*
X17610000Y-12127571D01*
X17624286Y-12156143D01*
X17624286Y-12227571D01*
X17610000Y-12256143D01*
X17595714Y-12270429D01*
X17567143Y-12284714D01*
X17481428Y-12284714D01*
X17452857Y-12270429D01*
X17438571Y-12256143D01*
X17910000Y-12284714D02*
X17738571Y-12284714D01*
X17824286Y-12284714D02*
X17824286Y-11984714D01*
X17795714Y-12027571D01*
X17767143Y-12056143D01*
X17738571Y-12070429D01*
X18024286Y-11984714D02*
X18024286Y-12041857D01*
X18138571Y-11984714D02*
X18138571Y-12041857D01*
X18581428Y-12399000D02*
X18567143Y-12384714D01*
X18538571Y-12341857D01*
X18524286Y-12313286D01*
X18510000Y-12270429D01*
X18495714Y-12199000D01*
X18495714Y-12141857D01*
X18510000Y-12070429D01*
X18524286Y-12027571D01*
X18538571Y-11999000D01*
X18567143Y-11956143D01*
X18581428Y-11941857D01*
X18667143Y-11984714D02*
X18852857Y-11984714D01*
X18752857Y-12099000D01*
X18795714Y-12099000D01*
X18824286Y-12113286D01*
X18838571Y-12127571D01*
X18852857Y-12156143D01*
X18852857Y-12227571D01*
X18838571Y-12256143D01*
X18824286Y-12270429D01*
X18795714Y-12284714D01*
X18710000Y-12284714D01*
X18681428Y-12270429D01*
X18667143Y-12256143D01*
X19210000Y-12284714D02*
X19210000Y-11984714D01*
X19338571Y-12284714D02*
X19338571Y-12127571D01*
X19324286Y-12099000D01*
X19295714Y-12084714D01*
X19252857Y-12084714D01*
X19224286Y-12099000D01*
X19210000Y-12113286D01*
X19524286Y-12284714D02*
X19495714Y-12270429D01*
X19481428Y-12256143D01*
X19467143Y-12227571D01*
X19467143Y-12141857D01*
X19481428Y-12113286D01*
X19495714Y-12099000D01*
X19524286Y-12084714D01*
X19567143Y-12084714D01*
X19595714Y-12099000D01*
X19610000Y-12113286D01*
X19624286Y-12141857D01*
X19624286Y-12227571D01*
X19610000Y-12256143D01*
X19595714Y-12270429D01*
X19567143Y-12284714D01*
X19524286Y-12284714D01*
X19795714Y-12284714D02*
X19767143Y-12270429D01*
X19752857Y-12241857D01*
X19752857Y-11984714D01*
X20024286Y-12270429D02*
X19995714Y-12284714D01*
X19938571Y-12284714D01*
X19910000Y-12270429D01*
X19895714Y-12241857D01*
X19895714Y-12127571D01*
X19910000Y-12099000D01*
X19938571Y-12084714D01*
X19995714Y-12084714D01*
X20024286Y-12099000D01*
X20038571Y-12127571D01*
X20038571Y-12156143D01*
X19895714Y-12184714D01*
X20152857Y-12270429D02*
X20181428Y-12284714D01*
X20238571Y-12284714D01*
X20267143Y-12270429D01*
X20281428Y-12241857D01*
X20281428Y-12227571D01*
X20267143Y-12199000D01*
X20238571Y-12184714D01*
X20195714Y-12184714D01*
X20167143Y-12170429D01*
X20152857Y-12141857D01*
X20152857Y-12127571D01*
X20167143Y-12099000D01*
X20195714Y-12084714D01*
X20238571Y-12084714D01*
X20267143Y-12099000D01*
X20381428Y-12399000D02*
X20395714Y-12384714D01*
X20424286Y-12341857D01*
X20438571Y-12313286D01*
X20452857Y-12270429D01*
X20467143Y-12199000D01*
X20467143Y-12141857D01*
X20452857Y-12070429D01*
X20438571Y-12027571D01*
X20424286Y-11999000D01*
X20395714Y-11956143D01*
X20381428Y-11941857D01*
X13795000Y-12495000D02*
X13895000Y-12595000D01*
X13895000Y-12495000D02*
X13795000Y-12595000D01*
X13895000Y-12545000D02*
G75*
G03X13895000Y-12545000I-50000J0D01*
G01*
X14338571Y-12680714D02*
X14167143Y-12680714D01*
X14252857Y-12680714D02*
X14252857Y-12380714D01*
X14224286Y-12423571D01*
X14195714Y-12452143D01*
X14167143Y-12466429D01*
X14467143Y-12652143D02*
X14481428Y-12666429D01*
X14467143Y-12680714D01*
X14452857Y-12666429D01*
X14467143Y-12652143D01*
X14467143Y-12680714D01*
X14667143Y-12380714D02*
X14695714Y-12380714D01*
X14724286Y-12395000D01*
X14738571Y-12409286D01*
X14752857Y-12437857D01*
X14767143Y-12495000D01*
X14767143Y-12566429D01*
X14752857Y-12623571D01*
X14738571Y-12652143D01*
X14724286Y-12666429D01*
X14695714Y-12680714D01*
X14667143Y-12680714D01*
X14638571Y-12666429D01*
X14624286Y-12652143D01*
X14610000Y-12623571D01*
X14595714Y-12566429D01*
X14595714Y-12495000D01*
X14610000Y-12437857D01*
X14624286Y-12409286D01*
X14638571Y-12395000D01*
X14667143Y-12380714D01*
X14952857Y-12380714D02*
X14981428Y-12380714D01*
X15010000Y-12395000D01*
X15024286Y-12409286D01*
X15038571Y-12437857D01*
X15052857Y-12495000D01*
X15052857Y-12566429D01*
X15038571Y-12623571D01*
X15024286Y-12652143D01*
X15010000Y-12666429D01*
X14981428Y-12680714D01*
X14952857Y-12680714D01*
X14924286Y-12666429D01*
X14910000Y-12652143D01*
X14895714Y-12623571D01*
X14881428Y-12566429D01*
X14881428Y-12495000D01*
X14895714Y-12437857D01*
X14910000Y-12409286D01*
X14924286Y-12395000D01*
X14952857Y-12380714D01*
X15181428Y-12680714D02*
X15181428Y-12480714D01*
X15181428Y-12509286D02*
X15195714Y-12495000D01*
X15224286Y-12480714D01*
X15267143Y-12480714D01*
X15295714Y-12495000D01*
X15310000Y-12523571D01*
X15310000Y-12680714D01*
X15310000Y-12523571D02*
X15324286Y-12495000D01*
X15352857Y-12480714D01*
X15395714Y-12480714D01*
X15424286Y-12495000D01*
X15438571Y-12523571D01*
X15438571Y-12680714D01*
X15581428Y-12680714D02*
X15581428Y-12480714D01*
X15581428Y-12509286D02*
X15595714Y-12495000D01*
X15624286Y-12480714D01*
X15667143Y-12480714D01*
X15695714Y-12495000D01*
X15710000Y-12523571D01*
X15710000Y-12680714D01*
X15710000Y-12523571D02*
X15724286Y-12495000D01*
X15752857Y-12480714D01*
X15795714Y-12480714D01*
X15824286Y-12495000D01*
X15838571Y-12523571D01*
X15838571Y-12680714D01*
X16424286Y-12366429D02*
X16167143Y-12752143D01*
X16810000Y-12380714D02*
X16838571Y-12380714D01*
X16867143Y-12395000D01*
X16881428Y-12409286D01*
X16895714Y-12437857D01*
X16910000Y-12495000D01*
X16910000Y-12566429D01*
X16895714Y-12623571D01*
X16881428Y-12652143D01*
X16867143Y-12666429D01*
X16838571Y-12680714D01*
X16810000Y-12680714D01*
X16781428Y-12666429D01*
X16767143Y-12652143D01*
X16752857Y-12623571D01*
X16738571Y-12566429D01*
X16738571Y-12495000D01*
X16752857Y-12437857D01*
X16767143Y-12409286D01*
X16781428Y-12395000D01*
X16810000Y-12380714D01*
X17038571Y-12652143D02*
X17052857Y-12666429D01*
X17038571Y-12680714D01*
X17024286Y-12666429D01*
X17038571Y-12652143D01*
X17038571Y-12680714D01*
X17238571Y-12380714D02*
X17267143Y-12380714D01*
X17295714Y-12395000D01*
X17310000Y-12409286D01*
X17324286Y-12437857D01*
X17338571Y-12495000D01*
X17338571Y-12566429D01*
X17324286Y-12623571D01*
X17310000Y-12652143D01*
X17295714Y-12666429D01*
X17267143Y-12680714D01*
X17238571Y-12680714D01*
X17210000Y-12666429D01*
X17195714Y-12652143D01*
X17181428Y-12623571D01*
X17167143Y-12566429D01*
X17167143Y-12495000D01*
X17181428Y-12437857D01*
X17195714Y-12409286D01*
X17210000Y-12395000D01*
X17238571Y-12380714D01*
X17438571Y-12380714D02*
X17624286Y-12380714D01*
X17524286Y-12495000D01*
X17567143Y-12495000D01*
X17595714Y-12509286D01*
X17610000Y-12523571D01*
X17624286Y-12552143D01*
X17624286Y-12623571D01*
X17610000Y-12652143D01*
X17595714Y-12666429D01*
X17567143Y-12680714D01*
X17481428Y-12680714D01*
X17452857Y-12666429D01*
X17438571Y-12652143D01*
X17767143Y-12680714D02*
X17824286Y-12680714D01*
X17852857Y-12666429D01*
X17867143Y-12652143D01*
X17895714Y-12609286D01*
X17910000Y-12552143D01*
X17910000Y-12437857D01*
X17895714Y-12409286D01*
X17881428Y-12395000D01*
X17852857Y-12380714D01*
X17795714Y-12380714D01*
X17767143Y-12395000D01*
X17752857Y-12409286D01*
X17738571Y-12437857D01*
X17738571Y-12509286D01*
X17752857Y-12537857D01*
X17767143Y-12552143D01*
X17795714Y-12566429D01*
X17852857Y-12566429D01*
X17881428Y-12552143D01*
X17895714Y-12537857D01*
X17910000Y-12509286D01*
X18024286Y-12380714D02*
X18024286Y-12437857D01*
X18138571Y-12380714D02*
X18138571Y-12437857D01*
X18581428Y-12795000D02*
X18567143Y-12780714D01*
X18538571Y-12737857D01*
X18524286Y-12709286D01*
X18510000Y-12666429D01*
X18495714Y-12595000D01*
X18495714Y-12537857D01*
X18510000Y-12466429D01*
X18524286Y-12423571D01*
X18538571Y-12395000D01*
X18567143Y-12352143D01*
X18581428Y-12337857D01*
X18681428Y-12409286D02*
X18695714Y-12395000D01*
X18724286Y-12380714D01*
X18795714Y-12380714D01*
X18824286Y-12395000D01*
X18838571Y-12409286D01*
X18852857Y-12437857D01*
X18852857Y-12466429D01*
X18838571Y-12509286D01*
X18667143Y-12680714D01*
X18852857Y-12680714D01*
X19038571Y-12380714D02*
X19067143Y-12380714D01*
X19095714Y-12395000D01*
X19110000Y-12409286D01*
X19124286Y-12437857D01*
X19138571Y-12495000D01*
X19138571Y-12566429D01*
X19124286Y-12623571D01*
X19110000Y-12652143D01*
X19095714Y-12666429D01*
X19067143Y-12680714D01*
X19038571Y-12680714D01*
X19010000Y-12666429D01*
X18995714Y-12652143D01*
X18981428Y-12623571D01*
X18967143Y-12566429D01*
X18967143Y-12495000D01*
X18981428Y-12437857D01*
X18995714Y-12409286D01*
X19010000Y-12395000D01*
X19038571Y-12380714D01*
X19495714Y-12680714D02*
X19495714Y-12380714D01*
X19624286Y-12680714D02*
X19624286Y-12523571D01*
X19610000Y-12495000D01*
X19581428Y-12480714D01*
X19538571Y-12480714D01*
X19510000Y-12495000D01*
X19495714Y-12509286D01*
X19810000Y-12680714D02*
X19781428Y-12666429D01*
X19767143Y-12652143D01*
X19752857Y-12623571D01*
X19752857Y-12537857D01*
X19767143Y-12509286D01*
X19781428Y-12495000D01*
X19810000Y-12480714D01*
X19852857Y-12480714D01*
X19881428Y-12495000D01*
X19895714Y-12509286D01*
X19910000Y-12537857D01*
X19910000Y-12623571D01*
X19895714Y-12652143D01*
X19881428Y-12666429D01*
X19852857Y-12680714D01*
X19810000Y-12680714D01*
X20081428Y-12680714D02*
X20052857Y-12666429D01*
X20038571Y-12637857D01*
X20038571Y-12380714D01*
X20310000Y-12666429D02*
X20281428Y-12680714D01*
X20224286Y-12680714D01*
X20195714Y-12666429D01*
X20181428Y-12637857D01*
X20181428Y-12523571D01*
X20195714Y-12495000D01*
X20224286Y-12480714D01*
X20281428Y-12480714D01*
X20310000Y-12495000D01*
X20324286Y-12523571D01*
X20324286Y-12552143D01*
X20181428Y-12580714D01*
X20438571Y-12666429D02*
X20467143Y-12680714D01*
X20524286Y-12680714D01*
X20552857Y-12666429D01*
X20567143Y-12637857D01*
X20567143Y-12623571D01*
X20552857Y-12595000D01*
X20524286Y-12580714D01*
X20481428Y-12580714D01*
X20452857Y-12566429D01*
X20438571Y-12537857D01*
X20438571Y-12523571D01*
X20452857Y-12495000D01*
X20481428Y-12480714D01*
X20524286Y-12480714D01*
X20552857Y-12495000D01*
X20667143Y-12795000D02*
X20681428Y-12780714D01*
X20710000Y-12737857D01*
X20724286Y-12709286D01*
X20738571Y-12666429D01*
X20752857Y-12595000D01*
X20752857Y-12537857D01*
X20738571Y-12466429D01*
X20724286Y-12423571D01*
X20710000Y-12395000D01*
X20681428Y-12352143D01*
X20667143Y-12337857D01*
X13785000Y-12886000D02*
X13895000Y-12996000D01*
X13895000Y-12886000D02*
X13785000Y-12996000D01*
X13840000Y-12886000D02*
X13840000Y-12996000D01*
X13785000Y-12941000D02*
X13895000Y-12941000D01*
X14338571Y-13076714D02*
X14167143Y-13076714D01*
X14252857Y-13076714D02*
X14252857Y-12776714D01*
X14224286Y-12819571D01*
X14195714Y-12848143D01*
X14167143Y-12862429D01*
X14467143Y-13048143D02*
X14481428Y-13062429D01*
X14467143Y-13076714D01*
X14452857Y-13062429D01*
X14467143Y-13048143D01*
X14467143Y-13076714D01*
X14767143Y-13076714D02*
X14595714Y-13076714D01*
X14681428Y-13076714D02*
X14681428Y-12776714D01*
X14652857Y-12819571D01*
X14624286Y-12848143D01*
X14595714Y-12862429D01*
X14952857Y-12776714D02*
X14981428Y-12776714D01*
X15010000Y-12791000D01*
X15024286Y-12805286D01*
X15038571Y-12833857D01*
X15052857Y-12891000D01*
X15052857Y-12962429D01*
X15038571Y-13019571D01*
X15024286Y-13048143D01*
X15010000Y-13062429D01*
X14981428Y-13076714D01*
X14952857Y-13076714D01*
X14924286Y-13062429D01*
X14910000Y-13048143D01*
X14895714Y-13019571D01*
X14881428Y-12962429D01*
X14881428Y-12891000D01*
X14895714Y-12833857D01*
X14910000Y-12805286D01*
X14924286Y-12791000D01*
X14952857Y-12776714D01*
X15181428Y-13076714D02*
X15181428Y-12876714D01*
X15181428Y-12905286D02*
X15195714Y-12891000D01*
X15224286Y-12876714D01*
X15267143Y-12876714D01*
X15295714Y-12891000D01*
X15310000Y-12919571D01*
X15310000Y-13076714D01*
X15310000Y-12919571D02*
X15324286Y-12891000D01*
X15352857Y-12876714D01*
X15395714Y-12876714D01*
X15424286Y-12891000D01*
X15438571Y-12919571D01*
X15438571Y-13076714D01*
X15581428Y-13076714D02*
X15581428Y-12876714D01*
X15581428Y-12905286D02*
X15595714Y-12891000D01*
X15624286Y-12876714D01*
X15667143Y-12876714D01*
X15695714Y-12891000D01*
X15710000Y-12919571D01*
X15710000Y-13076714D01*
X15710000Y-12919571D02*
X15724286Y-12891000D01*
X15752857Y-12876714D01*
X15795714Y-12876714D01*
X15824286Y-12891000D01*
X15838571Y-12919571D01*
X15838571Y-13076714D01*
X16424286Y-12762429D02*
X16167143Y-13148143D01*
X16810000Y-12776714D02*
X16838571Y-12776714D01*
X16867143Y-12791000D01*
X16881428Y-12805286D01*
X16895714Y-12833857D01*
X16910000Y-12891000D01*
X16910000Y-12962429D01*
X16895714Y-13019571D01*
X16881428Y-13048143D01*
X16867143Y-13062429D01*
X16838571Y-13076714D01*
X16810000Y-13076714D01*
X16781428Y-13062429D01*
X16767143Y-13048143D01*
X16752857Y-13019571D01*
X16738571Y-12962429D01*
X16738571Y-12891000D01*
X16752857Y-12833857D01*
X16767143Y-12805286D01*
X16781428Y-12791000D01*
X16810000Y-12776714D01*
X17038571Y-13048143D02*
X17052857Y-13062429D01*
X17038571Y-13076714D01*
X17024286Y-13062429D01*
X17038571Y-13048143D01*
X17038571Y-13076714D01*
X17238571Y-12776714D02*
X17267143Y-12776714D01*
X17295714Y-12791000D01*
X17310000Y-12805286D01*
X17324286Y-12833857D01*
X17338571Y-12891000D01*
X17338571Y-12962429D01*
X17324286Y-13019571D01*
X17310000Y-13048143D01*
X17295714Y-13062429D01*
X17267143Y-13076714D01*
X17238571Y-13076714D01*
X17210000Y-13062429D01*
X17195714Y-13048143D01*
X17181428Y-13019571D01*
X17167143Y-12962429D01*
X17167143Y-12891000D01*
X17181428Y-12833857D01*
X17195714Y-12805286D01*
X17210000Y-12791000D01*
X17238571Y-12776714D01*
X17595714Y-12876714D02*
X17595714Y-13076714D01*
X17524286Y-12762429D02*
X17452857Y-12976714D01*
X17638571Y-12976714D01*
X17724286Y-12776714D02*
X17910000Y-12776714D01*
X17810000Y-12891000D01*
X17852857Y-12891000D01*
X17881428Y-12905286D01*
X17895714Y-12919571D01*
X17910000Y-12948143D01*
X17910000Y-13019571D01*
X17895714Y-13048143D01*
X17881428Y-13062429D01*
X17852857Y-13076714D01*
X17767143Y-13076714D01*
X17738571Y-13062429D01*
X17724286Y-13048143D01*
X18024286Y-12776714D02*
X18024286Y-12833857D01*
X18138571Y-12776714D02*
X18138571Y-12833857D01*
X18581428Y-13191000D02*
X18567143Y-13176714D01*
X18538571Y-13133857D01*
X18524286Y-13105286D01*
X18510000Y-13062429D01*
X18495714Y-12991000D01*
X18495714Y-12933857D01*
X18510000Y-12862429D01*
X18524286Y-12819571D01*
X18538571Y-12791000D01*
X18567143Y-12748143D01*
X18581428Y-12733857D01*
X18852857Y-13076714D02*
X18681428Y-13076714D01*
X18767143Y-13076714D02*
X18767143Y-12776714D01*
X18738571Y-12819571D01*
X18710000Y-12848143D01*
X18681428Y-12862429D01*
X19124286Y-12776714D02*
X18981428Y-12776714D01*
X18967143Y-12919571D01*
X18981428Y-12905286D01*
X19010000Y-12891000D01*
X19081428Y-12891000D01*
X19110000Y-12905286D01*
X19124286Y-12919571D01*
X19138571Y-12948143D01*
X19138571Y-13019571D01*
X19124286Y-13048143D01*
X19110000Y-13062429D01*
X19081428Y-13076714D01*
X19010000Y-13076714D01*
X18981428Y-13062429D01*
X18967143Y-13048143D01*
X19495714Y-13076714D02*
X19495714Y-12776714D01*
X19624286Y-13076714D02*
X19624286Y-12919571D01*
X19610000Y-12891000D01*
X19581428Y-12876714D01*
X19538571Y-12876714D01*
X19510000Y-12891000D01*
X19495714Y-12905286D01*
X19810000Y-13076714D02*
X19781428Y-13062429D01*
X19767143Y-13048143D01*
X19752857Y-13019571D01*
X19752857Y-12933857D01*
X19767143Y-12905286D01*
X19781428Y-12891000D01*
X19810000Y-12876714D01*
X19852857Y-12876714D01*
X19881428Y-12891000D01*
X19895714Y-12905286D01*
X19910000Y-12933857D01*
X19910000Y-13019571D01*
X19895714Y-13048143D01*
X19881428Y-13062429D01*
X19852857Y-13076714D01*
X19810000Y-13076714D01*
X20081428Y-13076714D02*
X20052857Y-13062429D01*
X20038571Y-13033857D01*
X20038571Y-12776714D01*
X20310000Y-13062429D02*
X20281428Y-13076714D01*
X20224286Y-13076714D01*
X20195714Y-13062429D01*
X20181428Y-13033857D01*
X20181428Y-12919571D01*
X20195714Y-12891000D01*
X20224286Y-12876714D01*
X20281428Y-12876714D01*
X20310000Y-12891000D01*
X20324286Y-12919571D01*
X20324286Y-12948143D01*
X20181428Y-12976714D01*
X20438571Y-13062429D02*
X20467143Y-13076714D01*
X20524286Y-13076714D01*
X20552857Y-13062429D01*
X20567143Y-13033857D01*
X20567143Y-13019571D01*
X20552857Y-12991000D01*
X20524286Y-12976714D01*
X20481428Y-12976714D01*
X20452857Y-12962429D01*
X20438571Y-12933857D01*
X20438571Y-12919571D01*
X20452857Y-12891000D01*
X20481428Y-12876714D01*
X20524286Y-12876714D01*
X20552857Y-12891000D01*
X20667143Y-13191000D02*
X20681428Y-13176714D01*
X20710000Y-13133857D01*
X20724286Y-13105286D01*
X20738571Y-13062429D01*
X20752857Y-12991000D01*
X20752857Y-12933857D01*
X20738571Y-12862429D01*
X20724286Y-12819571D01*
X20710000Y-12791000D01*
X20681428Y-12748143D01*
X20667143Y-12733857D01*
X13656000Y-13217500D02*
X13895000Y-13456500D01*
X13895000Y-13217500D02*
X13656000Y-13456500D01*
X13860000Y-13421500D02*
X13860000Y-13252500D01*
X13691000Y-13252500D01*
X13691000Y-13421500D01*
X13860000Y-13421500D01*
X14167143Y-13201286D02*
X14181428Y-13187000D01*
X14210000Y-13172714D01*
X14281428Y-13172714D01*
X14310000Y-13187000D01*
X14324286Y-13201286D01*
X14338571Y-13229857D01*
X14338571Y-13258429D01*
X14324286Y-13301286D01*
X14152857Y-13472714D01*
X14338571Y-13472714D01*
X14467143Y-13444143D02*
X14481428Y-13458429D01*
X14467143Y-13472714D01*
X14452857Y-13458429D01*
X14467143Y-13444143D01*
X14467143Y-13472714D01*
X14581428Y-13172714D02*
X14767143Y-13172714D01*
X14667143Y-13287000D01*
X14710000Y-13287000D01*
X14738571Y-13301286D01*
X14752857Y-13315571D01*
X14767143Y-13344143D01*
X14767143Y-13415571D01*
X14752857Y-13444143D01*
X14738571Y-13458429D01*
X14710000Y-13472714D01*
X14624286Y-13472714D01*
X14595714Y-13458429D01*
X14581428Y-13444143D01*
X14910000Y-13472714D02*
X14967143Y-13472714D01*
X14995714Y-13458429D01*
X15010000Y-13444143D01*
X15038571Y-13401286D01*
X15052857Y-13344143D01*
X15052857Y-13229857D01*
X15038571Y-13201286D01*
X15024286Y-13187000D01*
X14995714Y-13172714D01*
X14938571Y-13172714D01*
X14910000Y-13187000D01*
X14895714Y-13201286D01*
X14881428Y-13229857D01*
X14881428Y-13301286D01*
X14895714Y-13329857D01*
X14910000Y-13344143D01*
X14938571Y-13358429D01*
X14995714Y-13358429D01*
X15024286Y-13344143D01*
X15038571Y-13329857D01*
X15052857Y-13301286D01*
X15181428Y-13472714D02*
X15181428Y-13272714D01*
X15181428Y-13301286D02*
X15195714Y-13287000D01*
X15224286Y-13272714D01*
X15267143Y-13272714D01*
X15295714Y-13287000D01*
X15310000Y-13315571D01*
X15310000Y-13472714D01*
X15310000Y-13315571D02*
X15324286Y-13287000D01*
X15352857Y-13272714D01*
X15395714Y-13272714D01*
X15424286Y-13287000D01*
X15438571Y-13315571D01*
X15438571Y-13472714D01*
X15581428Y-13472714D02*
X15581428Y-13272714D01*
X15581428Y-13301286D02*
X15595714Y-13287000D01*
X15624286Y-13272714D01*
X15667143Y-13272714D01*
X15695714Y-13287000D01*
X15710000Y-13315571D01*
X15710000Y-13472714D01*
X15710000Y-13315571D02*
X15724286Y-13287000D01*
X15752857Y-13272714D01*
X15795714Y-13272714D01*
X15824286Y-13287000D01*
X15838571Y-13315571D01*
X15838571Y-13472714D01*
X16424286Y-13158429D02*
X16167143Y-13544143D01*
X16810000Y-13172714D02*
X16838571Y-13172714D01*
X16867143Y-13187000D01*
X16881428Y-13201286D01*
X16895714Y-13229857D01*
X16910000Y-13287000D01*
X16910000Y-13358429D01*
X16895714Y-13415571D01*
X16881428Y-13444143D01*
X16867143Y-13458429D01*
X16838571Y-13472714D01*
X16810000Y-13472714D01*
X16781428Y-13458429D01*
X16767143Y-13444143D01*
X16752857Y-13415571D01*
X16738571Y-13358429D01*
X16738571Y-13287000D01*
X16752857Y-13229857D01*
X16767143Y-13201286D01*
X16781428Y-13187000D01*
X16810000Y-13172714D01*
X17038571Y-13444143D02*
X17052857Y-13458429D01*
X17038571Y-13472714D01*
X17024286Y-13458429D01*
X17038571Y-13444143D01*
X17038571Y-13472714D01*
X17238571Y-13172714D02*
X17267143Y-13172714D01*
X17295714Y-13187000D01*
X17310000Y-13201286D01*
X17324286Y-13229857D01*
X17338571Y-13287000D01*
X17338571Y-13358429D01*
X17324286Y-13415571D01*
X17310000Y-13444143D01*
X17295714Y-13458429D01*
X17267143Y-13472714D01*
X17238571Y-13472714D01*
X17210000Y-13458429D01*
X17195714Y-13444143D01*
X17181428Y-13415571D01*
X17167143Y-13358429D01*
X17167143Y-13287000D01*
X17181428Y-13229857D01*
X17195714Y-13201286D01*
X17210000Y-13187000D01*
X17238571Y-13172714D01*
X17481428Y-13472714D02*
X17538571Y-13472714D01*
X17567143Y-13458429D01*
X17581428Y-13444143D01*
X17610000Y-13401286D01*
X17624286Y-13344143D01*
X17624286Y-13229857D01*
X17610000Y-13201286D01*
X17595714Y-13187000D01*
X17567143Y-13172714D01*
X17510000Y-13172714D01*
X17481428Y-13187000D01*
X17467143Y-13201286D01*
X17452857Y-13229857D01*
X17452857Y-13301286D01*
X17467143Y-13329857D01*
X17481428Y-13344143D01*
X17510000Y-13358429D01*
X17567143Y-13358429D01*
X17595714Y-13344143D01*
X17610000Y-13329857D01*
X17624286Y-13301286D01*
X17881428Y-13272714D02*
X17881428Y-13472714D01*
X17810000Y-13158429D02*
X17738571Y-13372714D01*
X17924286Y-13372714D01*
X18024286Y-13172714D02*
X18024286Y-13229857D01*
X18138571Y-13172714D02*
X18138571Y-13229857D01*
X18581428Y-13587000D02*
X18567143Y-13572714D01*
X18538571Y-13529857D01*
X18524286Y-13501286D01*
X18510000Y-13458429D01*
X18495714Y-13387000D01*
X18495714Y-13329857D01*
X18510000Y-13258429D01*
X18524286Y-13215571D01*
X18538571Y-13187000D01*
X18567143Y-13144143D01*
X18581428Y-13129857D01*
X18852857Y-13472714D02*
X18681428Y-13472714D01*
X18767143Y-13472714D02*
X18767143Y-13172714D01*
X18738571Y-13215571D01*
X18710000Y-13244143D01*
X18681428Y-13258429D01*
X19210000Y-13472714D02*
X19210000Y-13172714D01*
X19338571Y-13472714D02*
X19338571Y-13315571D01*
X19324286Y-13287000D01*
X19295714Y-13272714D01*
X19252857Y-13272714D01*
X19224286Y-13287000D01*
X19210000Y-13301286D01*
X19524286Y-13472714D02*
X19495714Y-13458429D01*
X19481428Y-13444143D01*
X19467143Y-13415571D01*
X19467143Y-13329857D01*
X19481428Y-13301286D01*
X19495714Y-13287000D01*
X19524286Y-13272714D01*
X19567143Y-13272714D01*
X19595714Y-13287000D01*
X19610000Y-13301286D01*
X19624286Y-13329857D01*
X19624286Y-13415571D01*
X19610000Y-13444143D01*
X19595714Y-13458429D01*
X19567143Y-13472714D01*
X19524286Y-13472714D01*
X19795714Y-13472714D02*
X19767143Y-13458429D01*
X19752857Y-13429857D01*
X19752857Y-13172714D01*
X20024286Y-13458429D02*
X19995714Y-13472714D01*
X19938571Y-13472714D01*
X19910000Y-13458429D01*
X19895714Y-13429857D01*
X19895714Y-13315571D01*
X19910000Y-13287000D01*
X19938571Y-13272714D01*
X19995714Y-13272714D01*
X20024286Y-13287000D01*
X20038571Y-13315571D01*
X20038571Y-13344143D01*
X19895714Y-13372714D01*
X20138571Y-13587000D02*
X20152857Y-13572714D01*
X20181428Y-13529857D01*
X20195714Y-13501286D01*
X20210000Y-13458429D01*
X20224286Y-13387000D01*
X20224286Y-13329857D01*
X20210000Y-13258429D01*
X20195714Y-13215571D01*
X20181428Y-13187000D01*
X20152857Y-13144143D01*
X20138571Y-13129857D01*
X13625000Y-13598000D02*
X13895000Y-13868000D01*
X13895000Y-13598000D02*
X13625000Y-13868000D01*
X13760000Y-13868000D02*
X13895000Y-13733000D01*
X13760000Y-13598000D01*
X13625000Y-13733000D01*
X13760000Y-13868000D01*
X14167143Y-13597286D02*
X14181428Y-13583000D01*
X14210000Y-13568714D01*
X14281428Y-13568714D01*
X14310000Y-13583000D01*
X14324286Y-13597286D01*
X14338571Y-13625857D01*
X14338571Y-13654429D01*
X14324286Y-13697286D01*
X14152857Y-13868714D01*
X14338571Y-13868714D01*
X14467143Y-13840143D02*
X14481428Y-13854429D01*
X14467143Y-13868714D01*
X14452857Y-13854429D01*
X14467143Y-13840143D01*
X14467143Y-13868714D01*
X14581428Y-13568714D02*
X14781428Y-13568714D01*
X14652857Y-13868714D01*
X14952857Y-13568714D02*
X14981428Y-13568714D01*
X15010000Y-13583000D01*
X15024286Y-13597286D01*
X15038571Y-13625857D01*
X15052857Y-13683000D01*
X15052857Y-13754429D01*
X15038571Y-13811571D01*
X15024286Y-13840143D01*
X15010000Y-13854429D01*
X14981428Y-13868714D01*
X14952857Y-13868714D01*
X14924286Y-13854429D01*
X14910000Y-13840143D01*
X14895714Y-13811571D01*
X14881428Y-13754429D01*
X14881428Y-13683000D01*
X14895714Y-13625857D01*
X14910000Y-13597286D01*
X14924286Y-13583000D01*
X14952857Y-13568714D01*
X15181428Y-13868714D02*
X15181428Y-13668714D01*
X15181428Y-13697286D02*
X15195714Y-13683000D01*
X15224286Y-13668714D01*
X15267143Y-13668714D01*
X15295714Y-13683000D01*
X15310000Y-13711571D01*
X15310000Y-13868714D01*
X15310000Y-13711571D02*
X15324286Y-13683000D01*
X15352857Y-13668714D01*
X15395714Y-13668714D01*
X15424286Y-13683000D01*
X15438571Y-13711571D01*
X15438571Y-13868714D01*
X15581428Y-13868714D02*
X15581428Y-13668714D01*
X15581428Y-13697286D02*
X15595714Y-13683000D01*
X15624286Y-13668714D01*
X15667143Y-13668714D01*
X15695714Y-13683000D01*
X15710000Y-13711571D01*
X15710000Y-13868714D01*
X15710000Y-13711571D02*
X15724286Y-13683000D01*
X15752857Y-13668714D01*
X15795714Y-13668714D01*
X15824286Y-13683000D01*
X15838571Y-13711571D01*
X15838571Y-13868714D01*
X16424286Y-13554429D02*
X16167143Y-13940143D01*
X16810000Y-13568714D02*
X16838571Y-13568714D01*
X16867143Y-13583000D01*
X16881428Y-13597286D01*
X16895714Y-13625857D01*
X16910000Y-13683000D01*
X16910000Y-13754429D01*
X16895714Y-13811571D01*
X16881428Y-13840143D01*
X16867143Y-13854429D01*
X16838571Y-13868714D01*
X16810000Y-13868714D01*
X16781428Y-13854429D01*
X16767143Y-13840143D01*
X16752857Y-13811571D01*
X16738571Y-13754429D01*
X16738571Y-13683000D01*
X16752857Y-13625857D01*
X16767143Y-13597286D01*
X16781428Y-13583000D01*
X16810000Y-13568714D01*
X17038571Y-13840143D02*
X17052857Y-13854429D01*
X17038571Y-13868714D01*
X17024286Y-13854429D01*
X17038571Y-13840143D01*
X17038571Y-13868714D01*
X17338571Y-13868714D02*
X17167143Y-13868714D01*
X17252857Y-13868714D02*
X17252857Y-13568714D01*
X17224286Y-13611571D01*
X17195714Y-13640143D01*
X17167143Y-13654429D01*
X17524286Y-13568714D02*
X17552857Y-13568714D01*
X17581428Y-13583000D01*
X17595714Y-13597286D01*
X17610000Y-13625857D01*
X17624286Y-13683000D01*
X17624286Y-13754429D01*
X17610000Y-13811571D01*
X17595714Y-13840143D01*
X17581428Y-13854429D01*
X17552857Y-13868714D01*
X17524286Y-13868714D01*
X17495714Y-13854429D01*
X17481428Y-13840143D01*
X17467143Y-13811571D01*
X17452857Y-13754429D01*
X17452857Y-13683000D01*
X17467143Y-13625857D01*
X17481428Y-13597286D01*
X17495714Y-13583000D01*
X17524286Y-13568714D01*
X17881428Y-13568714D02*
X17824286Y-13568714D01*
X17795714Y-13583000D01*
X17781428Y-13597286D01*
X17752857Y-13640143D01*
X17738571Y-13697286D01*
X17738571Y-13811571D01*
X17752857Y-13840143D01*
X17767143Y-13854429D01*
X17795714Y-13868714D01*
X17852857Y-13868714D01*
X17881428Y-13854429D01*
X17895714Y-13840143D01*
X17910000Y-13811571D01*
X17910000Y-13740143D01*
X17895714Y-13711571D01*
X17881428Y-13697286D01*
X17852857Y-13683000D01*
X17795714Y-13683000D01*
X17767143Y-13697286D01*
X17752857Y-13711571D01*
X17738571Y-13740143D01*
X18024286Y-13568714D02*
X18024286Y-13625857D01*
X18138571Y-13568714D02*
X18138571Y-13625857D01*
X18581428Y-13983000D02*
X18567143Y-13968714D01*
X18538571Y-13925857D01*
X18524286Y-13897286D01*
X18510000Y-13854429D01*
X18495714Y-13783000D01*
X18495714Y-13725857D01*
X18510000Y-13654429D01*
X18524286Y-13611571D01*
X18538571Y-13583000D01*
X18567143Y-13540143D01*
X18581428Y-13525857D01*
X18824286Y-13668714D02*
X18824286Y-13868714D01*
X18752857Y-13554429D02*
X18681428Y-13768714D01*
X18867143Y-13768714D01*
X19210000Y-13868714D02*
X19210000Y-13568714D01*
X19338571Y-13868714D02*
X19338571Y-13711571D01*
X19324286Y-13683000D01*
X19295714Y-13668714D01*
X19252857Y-13668714D01*
X19224286Y-13683000D01*
X19210000Y-13697286D01*
X19524286Y-13868714D02*
X19495714Y-13854429D01*
X19481428Y-13840143D01*
X19467143Y-13811571D01*
X19467143Y-13725857D01*
X19481428Y-13697286D01*
X19495714Y-13683000D01*
X19524286Y-13668714D01*
X19567143Y-13668714D01*
X19595714Y-13683000D01*
X19610000Y-13697286D01*
X19624286Y-13725857D01*
X19624286Y-13811571D01*
X19610000Y-13840143D01*
X19595714Y-13854429D01*
X19567143Y-13868714D01*
X19524286Y-13868714D01*
X19795714Y-13868714D02*
X19767143Y-13854429D01*
X19752857Y-13825857D01*
X19752857Y-13568714D01*
X20024286Y-13854429D02*
X19995714Y-13868714D01*
X19938571Y-13868714D01*
X19910000Y-13854429D01*
X19895714Y-13825857D01*
X19895714Y-13711571D01*
X19910000Y-13683000D01*
X19938571Y-13668714D01*
X19995714Y-13668714D01*
X20024286Y-13683000D01*
X20038571Y-13711571D01*
X20038571Y-13740143D01*
X19895714Y-13768714D01*
X20152857Y-13854429D02*
X20181428Y-13868714D01*
X20238571Y-13868714D01*
X20267143Y-13854429D01*
X20281428Y-13825857D01*
X20281428Y-13811571D01*
X20267143Y-13783000D01*
X20238571Y-13768714D01*
X20195714Y-13768714D01*
X20167143Y-13754429D01*
X20152857Y-13725857D01*
X20152857Y-13711571D01*
X20167143Y-13683000D01*
X20195714Y-13668714D01*
X20238571Y-13668714D01*
X20267143Y-13683000D01*
X20381428Y-13983000D02*
X20395714Y-13968714D01*
X20424286Y-13925857D01*
X20438571Y-13897286D01*
X20452857Y-13854429D01*
X20467143Y-13783000D01*
X20467143Y-13725857D01*
X20452857Y-13654429D01*
X20438571Y-13611571D01*
X20424286Y-13583000D01*
X20395714Y-13540143D01*
X20381428Y-13525857D01*
M02*
