G04 #@! TF.GenerationSoftware,KiCad,Pcbnew,5.1.9-73d0e3b20d~88~ubuntu18.04.1*
G04 #@! TF.CreationDate,2021-04-09T21:08:54+02:00*
G04 #@! TF.ProjectId,EcoApi_pcb,45636f41-7069-45f7-9063-622e6b696361,rev?*
G04 #@! TF.SameCoordinates,Original*
G04 #@! TF.FileFunction,Other,Fab,Top*
%FSLAX46Y46*%
G04 Gerber Fmt 4.6, Leading zero omitted, Abs format (unit mm)*
G04 Created by KiCad (PCBNEW 5.1.9-73d0e3b20d~88~ubuntu18.04.1) date 2021-04-09 21:08:54*
%MOMM*%
%LPD*%
G01*
G04 APERTURE LIST*
%ADD10C,0.127000*%
%ADD11C,0.010000*%
%ADD12C,0.100000*%
%ADD13C,0.200000*%
%ADD14C,0.150000*%
%ADD15C,0.060000*%
G04 APERTURE END LIST*
D10*
G04 #@! TO.C,BT1*
X75575000Y-101425000D02*
X75575000Y-80775000D01*
X152625000Y-80775000D02*
X152625000Y-101425000D01*
D11*
G36*
X77293000Y-93300000D02*
G01*
X71900000Y-93300000D01*
X71900000Y-88699540D01*
X77293000Y-88699540D01*
X77293000Y-93300000D01*
G37*
X77293000Y-93300000D02*
X71900000Y-93300000D01*
X71900000Y-88699540D01*
X77293000Y-88699540D01*
X77293000Y-93300000D01*
G36*
X156346400Y-93300000D02*
G01*
X150500000Y-93300000D01*
X150500000Y-88697360D01*
X156346400Y-88697360D01*
X156346400Y-93300000D01*
G37*
X156346400Y-93300000D02*
X150500000Y-93300000D01*
X150500000Y-88697360D01*
X156346400Y-88697360D01*
X156346400Y-93300000D01*
D10*
X143500000Y-94100000D02*
X143500000Y-87600000D01*
X143500000Y-87600000D02*
X83600000Y-87600000D01*
X83600000Y-87600000D02*
X83600000Y-94100000D01*
X83600000Y-94100000D02*
X143500000Y-94100000D01*
D12*
G04 #@! TO.C,J16*
X71930000Y-110865000D02*
X72565000Y-110230000D01*
X71930000Y-120390000D02*
X71930000Y-110865000D01*
X74470000Y-120390000D02*
X71930000Y-120390000D01*
X74470000Y-110230000D02*
X74470000Y-120390000D01*
X72565000Y-110230000D02*
X74470000Y-110230000D01*
D13*
G04 #@! TO.C,S3*
X121800000Y-126500000D02*
G75*
G03*
X121800000Y-126500000I-100000J0D01*
G01*
D10*
X127000000Y-123300000D02*
X127000000Y-117800000D01*
X121000000Y-123300000D02*
X127000000Y-123300000D01*
X121000000Y-117800000D02*
X121000000Y-123300000D01*
X127000000Y-117800000D02*
X121000000Y-117800000D01*
D13*
G04 #@! TO.C,S2*
X100150000Y-126400000D02*
G75*
G03*
X100150000Y-126400000I-100000J0D01*
G01*
D10*
X105350000Y-123200000D02*
X105350000Y-117700000D01*
X99350000Y-123200000D02*
X105350000Y-123200000D01*
X99350000Y-117700000D02*
X99350000Y-123200000D01*
X105350000Y-117700000D02*
X99350000Y-117700000D01*
D13*
G04 #@! TO.C,S1*
X109950000Y-126500000D02*
G75*
G03*
X109950000Y-126500000I-100000J0D01*
G01*
D10*
X115150000Y-123300000D02*
X115150000Y-117800000D01*
X109150000Y-123300000D02*
X115150000Y-123300000D01*
X109150000Y-117800000D02*
X109150000Y-123300000D01*
X115150000Y-117800000D02*
X109150000Y-117800000D01*
D12*
G04 #@! TO.C,R15*
X120012500Y-115700000D02*
X120012500Y-117300000D01*
X119187500Y-115700000D02*
X120012500Y-115700000D01*
X119187500Y-117300000D02*
X119187500Y-115700000D01*
X120012500Y-117300000D02*
X119187500Y-117300000D01*
G04 #@! TO.C,R14*
X108212500Y-115700000D02*
X108212500Y-117300000D01*
X107387500Y-115700000D02*
X108212500Y-115700000D01*
X107387500Y-117300000D02*
X107387500Y-115700000D01*
X108212500Y-117300000D02*
X107387500Y-117300000D01*
G04 #@! TO.C,J15*
X81930000Y-121565000D02*
X82565000Y-120930000D01*
X81930000Y-126010000D02*
X81930000Y-121565000D01*
X84470000Y-126010000D02*
X81930000Y-126010000D01*
X84470000Y-120930000D02*
X84470000Y-126010000D01*
X82565000Y-120930000D02*
X84470000Y-120930000D01*
D10*
G04 #@! TO.C,J3*
X151600000Y-116000000D02*
X131600000Y-116000000D01*
X151600000Y-107000000D02*
X151600000Y-116000000D01*
X131600000Y-107000000D02*
X151600000Y-107000000D01*
X131600000Y-116000000D02*
X131600000Y-107000000D01*
D12*
G04 #@! TO.C,J6*
X146310000Y-129570000D02*
X136150000Y-129570000D01*
X146310000Y-127030000D02*
X146310000Y-129570000D01*
X136785000Y-127030000D02*
X146310000Y-127030000D01*
X136150000Y-127665000D02*
X136785000Y-127030000D01*
X136150000Y-129570000D02*
X136150000Y-127665000D01*
G04 #@! TO.C,R8*
X98412500Y-115675000D02*
X98412500Y-117275000D01*
X97587500Y-115675000D02*
X98412500Y-115675000D01*
X97587500Y-117275000D02*
X97587500Y-115675000D01*
X98412500Y-117275000D02*
X97587500Y-117275000D01*
G04 #@! TO.C,R2*
X80712500Y-123775000D02*
X80712500Y-125375000D01*
X79887500Y-123775000D02*
X80712500Y-123775000D01*
X79887500Y-125375000D02*
X79887500Y-123775000D01*
X80712500Y-125375000D02*
X79887500Y-125375000D01*
G04 #@! TO.C,R1*
X77887500Y-125375000D02*
X77887500Y-123775000D01*
X78712500Y-125375000D02*
X77887500Y-125375000D01*
X78712500Y-123775000D02*
X78712500Y-125375000D01*
X77887500Y-123775000D02*
X78712500Y-123775000D01*
G04 #@! TO.C,J14*
X157270000Y-115535000D02*
X156635000Y-116170000D01*
X157270000Y-108550000D02*
X157270000Y-115535000D01*
X154730000Y-108550000D02*
X157270000Y-108550000D01*
X154730000Y-116170000D02*
X154730000Y-108550000D01*
X156635000Y-116170000D02*
X154730000Y-116170000D01*
G04 #@! TO.C,J13*
X155330000Y-119665000D02*
X155965000Y-119030000D01*
X155330000Y-121570000D02*
X155330000Y-119665000D01*
X157870000Y-121570000D02*
X155330000Y-121570000D01*
X157870000Y-119030000D02*
X157870000Y-121570000D01*
X155965000Y-119030000D02*
X157870000Y-119030000D01*
G04 #@! TO.C,J12*
X151730000Y-119665000D02*
X152365000Y-119030000D01*
X151730000Y-121570000D02*
X151730000Y-119665000D01*
X154270000Y-121570000D02*
X151730000Y-121570000D01*
X154270000Y-119030000D02*
X154270000Y-121570000D01*
X152365000Y-119030000D02*
X154270000Y-119030000D01*
G04 #@! TO.C,J10*
X72670000Y-100135000D02*
X72035000Y-100770000D01*
X72670000Y-95690000D02*
X72670000Y-100135000D01*
X70130000Y-95690000D02*
X72670000Y-95690000D01*
X70130000Y-100770000D02*
X70130000Y-95690000D01*
X72035000Y-100770000D02*
X70130000Y-100770000D01*
D10*
G04 #@! TO.C,J5*
X93800000Y-111300000D02*
X93800000Y-102300000D01*
X93800000Y-102300000D02*
X108800000Y-102300000D01*
X108800000Y-102300000D02*
X108800000Y-111300000D01*
X108800000Y-111300000D02*
X93800000Y-111300000D01*
G04 #@! TO.C,J2*
X130200000Y-111300000D02*
X110200000Y-111300000D01*
X130200000Y-102300000D02*
X130200000Y-111300000D01*
X110200000Y-102300000D02*
X130200000Y-102300000D01*
X110200000Y-111300000D02*
X110200000Y-102300000D01*
G04 #@! TO.C,J1*
X77400000Y-111300000D02*
X77400000Y-102300000D01*
X77400000Y-102300000D02*
X92400000Y-102300000D01*
X92400000Y-102300000D02*
X92400000Y-111300000D01*
X92400000Y-111300000D02*
X77400000Y-111300000D01*
G04 #@! TD*
G04 #@! TO.C,H4*
D14*
X153938095Y-104452380D02*
X153938095Y-103452380D01*
X153938095Y-103928571D02*
X154509523Y-103928571D01*
X154509523Y-104452380D02*
X154509523Y-103452380D01*
X155414285Y-103785714D02*
X155414285Y-104452380D01*
X155176190Y-103404761D02*
X154938095Y-104119047D01*
X155557142Y-104119047D01*
G04 #@! TO.C,H2*
X73338095Y-104452380D02*
X73338095Y-103452380D01*
X73338095Y-103928571D02*
X73909523Y-103928571D01*
X73909523Y-104452380D02*
X73909523Y-103452380D01*
X74338095Y-103547619D02*
X74385714Y-103500000D01*
X74480952Y-103452380D01*
X74719047Y-103452380D01*
X74814285Y-103500000D01*
X74861904Y-103547619D01*
X74909523Y-103642857D01*
X74909523Y-103738095D01*
X74861904Y-103880952D01*
X74290476Y-104452380D01*
X74909523Y-104452380D01*
G04 #@! TO.C,J16*
X72652380Y-116119523D02*
X73366666Y-116119523D01*
X73509523Y-116167142D01*
X73604761Y-116262380D01*
X73652380Y-116405238D01*
X73652380Y-116500476D01*
X73652380Y-115119523D02*
X73652380Y-115690952D01*
X73652380Y-115405238D02*
X72652380Y-115405238D01*
X72795238Y-115500476D01*
X72890476Y-115595714D01*
X72938095Y-115690952D01*
X72652380Y-114262380D02*
X72652380Y-114452857D01*
X72700000Y-114548095D01*
X72747619Y-114595714D01*
X72890476Y-114690952D01*
X73080952Y-114738571D01*
X73461904Y-114738571D01*
X73557142Y-114690952D01*
X73604761Y-114643333D01*
X73652380Y-114548095D01*
X73652380Y-114357619D01*
X73604761Y-114262380D01*
X73557142Y-114214761D01*
X73461904Y-114167142D01*
X73223809Y-114167142D01*
X73128571Y-114214761D01*
X73080952Y-114262380D01*
X73033333Y-114357619D01*
X73033333Y-114548095D01*
X73080952Y-114643333D01*
X73128571Y-114690952D01*
X73223809Y-114738571D01*
G04 #@! TO.C,R15*
D15*
X119780952Y-116757142D02*
X119590476Y-116890476D01*
X119780952Y-116985714D02*
X119380952Y-116985714D01*
X119380952Y-116833333D01*
X119400000Y-116795238D01*
X119419047Y-116776190D01*
X119457142Y-116757142D01*
X119514285Y-116757142D01*
X119552380Y-116776190D01*
X119571428Y-116795238D01*
X119590476Y-116833333D01*
X119590476Y-116985714D01*
X119780952Y-116376190D02*
X119780952Y-116604761D01*
X119780952Y-116490476D02*
X119380952Y-116490476D01*
X119438095Y-116528571D01*
X119476190Y-116566666D01*
X119495238Y-116604761D01*
X119380952Y-116014285D02*
X119380952Y-116204761D01*
X119571428Y-116223809D01*
X119552380Y-116204761D01*
X119533333Y-116166666D01*
X119533333Y-116071428D01*
X119552380Y-116033333D01*
X119571428Y-116014285D01*
X119609523Y-115995238D01*
X119704761Y-115995238D01*
X119742857Y-116014285D01*
X119761904Y-116033333D01*
X119780952Y-116071428D01*
X119780952Y-116166666D01*
X119761904Y-116204761D01*
X119742857Y-116223809D01*
G04 #@! TO.C,R14*
X107980952Y-116757142D02*
X107790476Y-116890476D01*
X107980952Y-116985714D02*
X107580952Y-116985714D01*
X107580952Y-116833333D01*
X107600000Y-116795238D01*
X107619047Y-116776190D01*
X107657142Y-116757142D01*
X107714285Y-116757142D01*
X107752380Y-116776190D01*
X107771428Y-116795238D01*
X107790476Y-116833333D01*
X107790476Y-116985714D01*
X107980952Y-116376190D02*
X107980952Y-116604761D01*
X107980952Y-116490476D02*
X107580952Y-116490476D01*
X107638095Y-116528571D01*
X107676190Y-116566666D01*
X107695238Y-116604761D01*
X107714285Y-116033333D02*
X107980952Y-116033333D01*
X107561904Y-116128571D02*
X107847619Y-116223809D01*
X107847619Y-115976190D01*
G04 #@! TO.C,J15*
D14*
X82452380Y-125909523D02*
X83166666Y-125909523D01*
X83309523Y-125957142D01*
X83404761Y-126052380D01*
X83452380Y-126195238D01*
X83452380Y-126290476D01*
X83452380Y-124909523D02*
X83452380Y-125480952D01*
X83452380Y-125195238D02*
X82452380Y-125195238D01*
X82595238Y-125290476D01*
X82690476Y-125385714D01*
X82738095Y-125480952D01*
X82452380Y-124004761D02*
X82452380Y-124480952D01*
X82928571Y-124528571D01*
X82880952Y-124480952D01*
X82833333Y-124385714D01*
X82833333Y-124147619D01*
X82880952Y-124052380D01*
X82928571Y-124004761D01*
X83023809Y-123957142D01*
X83261904Y-123957142D01*
X83357142Y-124004761D01*
X83404761Y-124052380D01*
X83452380Y-124147619D01*
X83452380Y-124385714D01*
X83404761Y-124480952D01*
X83357142Y-124528571D01*
G04 #@! TO.C,J6*
X140896666Y-127752380D02*
X140896666Y-128466666D01*
X140849047Y-128609523D01*
X140753809Y-128704761D01*
X140610952Y-128752380D01*
X140515714Y-128752380D01*
X141801428Y-127752380D02*
X141610952Y-127752380D01*
X141515714Y-127800000D01*
X141468095Y-127847619D01*
X141372857Y-127990476D01*
X141325238Y-128180952D01*
X141325238Y-128561904D01*
X141372857Y-128657142D01*
X141420476Y-128704761D01*
X141515714Y-128752380D01*
X141706190Y-128752380D01*
X141801428Y-128704761D01*
X141849047Y-128657142D01*
X141896666Y-128561904D01*
X141896666Y-128323809D01*
X141849047Y-128228571D01*
X141801428Y-128180952D01*
X141706190Y-128133333D01*
X141515714Y-128133333D01*
X141420476Y-128180952D01*
X141372857Y-128228571D01*
X141325238Y-128323809D01*
G04 #@! TO.C,R8*
D15*
X101280952Y-115141666D02*
X101090476Y-115275000D01*
X101280952Y-115370238D02*
X100880952Y-115370238D01*
X100880952Y-115217857D01*
X100900000Y-115179761D01*
X100919047Y-115160714D01*
X100957142Y-115141666D01*
X101014285Y-115141666D01*
X101052380Y-115160714D01*
X101071428Y-115179761D01*
X101090476Y-115217857D01*
X101090476Y-115370238D01*
X101052380Y-114913095D02*
X101033333Y-114951190D01*
X101014285Y-114970238D01*
X100976190Y-114989285D01*
X100957142Y-114989285D01*
X100919047Y-114970238D01*
X100900000Y-114951190D01*
X100880952Y-114913095D01*
X100880952Y-114836904D01*
X100900000Y-114798809D01*
X100919047Y-114779761D01*
X100957142Y-114760714D01*
X100976190Y-114760714D01*
X101014285Y-114779761D01*
X101033333Y-114798809D01*
X101052380Y-114836904D01*
X101052380Y-114913095D01*
X101071428Y-114951190D01*
X101090476Y-114970238D01*
X101128571Y-114989285D01*
X101204761Y-114989285D01*
X101242857Y-114970238D01*
X101261904Y-114951190D01*
X101280952Y-114913095D01*
X101280952Y-114836904D01*
X101261904Y-114798809D01*
X101242857Y-114779761D01*
X101204761Y-114760714D01*
X101128571Y-114760714D01*
X101090476Y-114779761D01*
X101071428Y-114798809D01*
X101052380Y-114836904D01*
G04 #@! TO.C,R2*
X80480952Y-124641666D02*
X80290476Y-124775000D01*
X80480952Y-124870238D02*
X80080952Y-124870238D01*
X80080952Y-124717857D01*
X80100000Y-124679761D01*
X80119047Y-124660714D01*
X80157142Y-124641666D01*
X80214285Y-124641666D01*
X80252380Y-124660714D01*
X80271428Y-124679761D01*
X80290476Y-124717857D01*
X80290476Y-124870238D01*
X80119047Y-124489285D02*
X80100000Y-124470238D01*
X80080952Y-124432142D01*
X80080952Y-124336904D01*
X80100000Y-124298809D01*
X80119047Y-124279761D01*
X80157142Y-124260714D01*
X80195238Y-124260714D01*
X80252380Y-124279761D01*
X80480952Y-124508333D01*
X80480952Y-124260714D01*
G04 #@! TO.C,R1*
X78480952Y-124641666D02*
X78290476Y-124775000D01*
X78480952Y-124870238D02*
X78080952Y-124870238D01*
X78080952Y-124717857D01*
X78100000Y-124679761D01*
X78119047Y-124660714D01*
X78157142Y-124641666D01*
X78214285Y-124641666D01*
X78252380Y-124660714D01*
X78271428Y-124679761D01*
X78290476Y-124717857D01*
X78290476Y-124870238D01*
X78480952Y-124260714D02*
X78480952Y-124489285D01*
X78480952Y-124375000D02*
X78080952Y-124375000D01*
X78138095Y-124413095D01*
X78176190Y-124451190D01*
X78195238Y-124489285D01*
G04 #@! TO.C,J14*
D14*
X155452380Y-113169523D02*
X156166666Y-113169523D01*
X156309523Y-113217142D01*
X156404761Y-113312380D01*
X156452380Y-113455238D01*
X156452380Y-113550476D01*
X156452380Y-112169523D02*
X156452380Y-112740952D01*
X156452380Y-112455238D02*
X155452380Y-112455238D01*
X155595238Y-112550476D01*
X155690476Y-112645714D01*
X155738095Y-112740952D01*
X155785714Y-111312380D02*
X156452380Y-111312380D01*
X155404761Y-111550476D02*
X156119047Y-111788571D01*
X156119047Y-111169523D01*
G04 #@! TO.C,J13*
X156952380Y-117609523D02*
X157666666Y-117609523D01*
X157809523Y-117657142D01*
X157904761Y-117752380D01*
X157952380Y-117895238D01*
X157952380Y-117990476D01*
X157952380Y-116609523D02*
X157952380Y-117180952D01*
X157952380Y-116895238D02*
X156952380Y-116895238D01*
X157095238Y-116990476D01*
X157190476Y-117085714D01*
X157238095Y-117180952D01*
X156952380Y-116276190D02*
X156952380Y-115657142D01*
X157333333Y-115990476D01*
X157333333Y-115847619D01*
X157380952Y-115752380D01*
X157428571Y-115704761D01*
X157523809Y-115657142D01*
X157761904Y-115657142D01*
X157857142Y-115704761D01*
X157904761Y-115752380D01*
X157952380Y-115847619D01*
X157952380Y-116133333D01*
X157904761Y-116228571D01*
X157857142Y-116276190D01*
G04 #@! TO.C,J12*
X152452380Y-121209523D02*
X153166666Y-121209523D01*
X153309523Y-121257142D01*
X153404761Y-121352380D01*
X153452380Y-121495238D01*
X153452380Y-121590476D01*
X153452380Y-120209523D02*
X153452380Y-120780952D01*
X153452380Y-120495238D02*
X152452380Y-120495238D01*
X152595238Y-120590476D01*
X152690476Y-120685714D01*
X152738095Y-120780952D01*
X152547619Y-119828571D02*
X152500000Y-119780952D01*
X152452380Y-119685714D01*
X152452380Y-119447619D01*
X152500000Y-119352380D01*
X152547619Y-119304761D01*
X152642857Y-119257142D01*
X152738095Y-119257142D01*
X152880952Y-119304761D01*
X153452380Y-119876190D01*
X153452380Y-119257142D01*
G04 #@! TO.C,J10*
X67752380Y-99109523D02*
X68466666Y-99109523D01*
X68609523Y-99157142D01*
X68704761Y-99252380D01*
X68752380Y-99395238D01*
X68752380Y-99490476D01*
X68752380Y-98109523D02*
X68752380Y-98680952D01*
X68752380Y-98395238D02*
X67752380Y-98395238D01*
X67895238Y-98490476D01*
X67990476Y-98585714D01*
X68038095Y-98680952D01*
X67752380Y-97490476D02*
X67752380Y-97395238D01*
X67800000Y-97300000D01*
X67847619Y-97252380D01*
X67942857Y-97204761D01*
X68133333Y-97157142D01*
X68371428Y-97157142D01*
X68561904Y-97204761D01*
X68657142Y-97252380D01*
X68704761Y-97300000D01*
X68752380Y-97395238D01*
X68752380Y-97490476D01*
X68704761Y-97585714D01*
X68657142Y-97633333D01*
X68561904Y-97680952D01*
X68371428Y-97728571D01*
X68133333Y-97728571D01*
X67942857Y-97680952D01*
X67847619Y-97633333D01*
X67800000Y-97585714D01*
X67752380Y-97490476D01*
G04 #@! TD*
M02*
