G04 #@! TF.GenerationSoftware,KiCad,Pcbnew,5.1.9-73d0e3b20d~88~ubuntu18.04.1*
G04 #@! TF.CreationDate,2021-04-09T21:08:54+02:00*
G04 #@! TF.ProjectId,EcoApi_pcb,45636f41-7069-45f7-9063-622e6b696361,rev?*
G04 #@! TF.SameCoordinates,Original*
G04 #@! TF.FileFunction,Other,Fab,Bot*
%FSLAX46Y46*%
G04 Gerber Fmt 4.6, Leading zero omitted, Abs format (unit mm)*
G04 Created by KiCad (PCBNEW 5.1.9-73d0e3b20d~88~ubuntu18.04.1) date 2021-04-09 21:08:54*
%MOMM*%
%LPD*%
G01*
G04 APERTURE LIST*
%ADD10C,0.100000*%
%ADD11C,0.120000*%
%ADD12C,0.200000*%
%ADD13C,0.127000*%
%ADD14C,0.150000*%
%ADD15C,0.254000*%
%ADD16C,0.060000*%
G04 APERTURE END LIST*
D10*
G04 #@! TO.C,J4*
X128480000Y-78530000D02*
X128480000Y-74720000D01*
X128480000Y-74720000D02*
X120860000Y-74720000D01*
X120860000Y-74720000D02*
X120860000Y-79800000D01*
X120860000Y-79800000D02*
X127210000Y-79800000D01*
X127210000Y-79800000D02*
X128480000Y-78530000D01*
G04 #@! TO.C,C3*
X78690000Y-87010000D02*
X78690000Y-93235000D01*
X78690000Y-93235000D02*
X76615000Y-95310000D01*
X76615000Y-95310000D02*
X72465000Y-95310000D01*
X72465000Y-95310000D02*
X70390000Y-93235000D01*
X70390000Y-93235000D02*
X70390000Y-87010000D01*
X70390000Y-87010000D02*
X78690000Y-87010000D01*
G04 #@! TO.C,C2*
X105830000Y-91275000D02*
X105830000Y-89675000D01*
X105030000Y-91275000D02*
X105830000Y-91275000D01*
X105030000Y-89675000D02*
X105030000Y-91275000D01*
X105830000Y-89675000D02*
X105030000Y-89675000D01*
G04 #@! TO.C,C1*
X102770000Y-91285000D02*
X102770000Y-89685000D01*
X101970000Y-91285000D02*
X102770000Y-91285000D01*
X101970000Y-89685000D02*
X101970000Y-91285000D01*
X102770000Y-89685000D02*
X101970000Y-89685000D01*
G04 #@! TO.C,R13*
X85987500Y-122875000D02*
X85987500Y-124475000D01*
X86812500Y-122875000D02*
X85987500Y-122875000D01*
X86812500Y-124475000D02*
X86812500Y-122875000D01*
X85987500Y-124475000D02*
X86812500Y-124475000D01*
D11*
G04 #@! TO.C,U1*
X78330000Y-109220000D02*
X78330000Y-131820000D01*
X131330000Y-109220000D02*
X78380000Y-109220000D01*
X131330000Y-109220000D02*
X131330000Y-131820000D01*
X78330000Y-131820000D02*
X131330000Y-131820000D01*
D10*
X84180000Y-116620000D02*
X84180000Y-124420000D01*
X84180000Y-116620000D02*
X78380000Y-116620000D01*
X84180000Y-124420000D02*
X78380000Y-124420000D01*
X80065000Y-111630000D02*
X79430000Y-112265000D01*
X79430000Y-112265000D02*
X79430000Y-114170000D01*
X79430000Y-114170000D02*
X130230000Y-114170000D01*
X130230000Y-114170000D02*
X130230000Y-111630000D01*
X130230000Y-111630000D02*
X80065000Y-111630000D01*
X79430000Y-126870000D02*
X79430000Y-129410000D01*
X79430000Y-129410000D02*
X130230000Y-129410000D01*
X130230000Y-129410000D02*
X130230000Y-126870000D01*
X130230000Y-126870000D02*
X79430000Y-126870000D01*
X123880000Y-115440000D02*
X123880000Y-125600000D01*
X123880000Y-125600000D02*
X126420000Y-125600000D01*
X126420000Y-125600000D02*
X126420000Y-115440000D01*
X126420000Y-115440000D02*
X123880000Y-115440000D01*
G04 #@! TO.C,J7*
X132530000Y-77670000D02*
X147770000Y-77670000D01*
X132530000Y-75130000D02*
X132530000Y-77670000D01*
X147135000Y-75130000D02*
X132530000Y-75130000D01*
X147770000Y-75765000D02*
X147135000Y-75130000D01*
X147770000Y-77670000D02*
X147770000Y-75765000D01*
G04 #@! TO.C,J8*
X105410000Y-77670000D02*
X118110000Y-77670000D01*
X105410000Y-75130000D02*
X105410000Y-77670000D01*
X117475000Y-75130000D02*
X105410000Y-75130000D01*
X118110000Y-75765000D02*
X117475000Y-75130000D01*
X118110000Y-77670000D02*
X118110000Y-75765000D01*
G04 #@! TO.C,R7*
X142812500Y-119875000D02*
X142812500Y-118275000D01*
X141987500Y-119875000D02*
X142812500Y-119875000D01*
X141987500Y-118275000D02*
X141987500Y-119875000D01*
X142812500Y-118275000D02*
X141987500Y-118275000D01*
G04 #@! TO.C,R6*
X140312500Y-119875000D02*
X140312500Y-118275000D01*
X139487500Y-119875000D02*
X140312500Y-119875000D01*
X139487500Y-118275000D02*
X139487500Y-119875000D01*
X140312500Y-118275000D02*
X139487500Y-118275000D01*
G04 #@! TO.C,R5*
X86675000Y-106112500D02*
X88275000Y-106112500D01*
X86675000Y-105287500D02*
X86675000Y-106112500D01*
X88275000Y-105287500D02*
X86675000Y-105287500D01*
X88275000Y-106112500D02*
X88275000Y-105287500D01*
G04 #@! TO.C,R4*
X138487500Y-79675000D02*
X138487500Y-81275000D01*
X139312500Y-79675000D02*
X138487500Y-79675000D01*
X139312500Y-81275000D02*
X139312500Y-79675000D01*
X138487500Y-81275000D02*
X139312500Y-81275000D01*
G04 #@! TO.C,R3*
X140887500Y-79675000D02*
X140887500Y-81275000D01*
X141712500Y-79675000D02*
X140887500Y-79675000D01*
X141712500Y-81275000D02*
X141712500Y-79675000D01*
X140887500Y-81275000D02*
X141712500Y-81275000D01*
D12*
G04 #@! TO.C,J0*
X98645000Y-80610000D02*
G75*
G03*
X98645000Y-80610000I-100000J0D01*
G01*
D13*
X98225000Y-76700000D02*
X98225000Y-76450000D01*
X97225000Y-76700000D02*
X98225000Y-76700000D01*
X97225000Y-77100000D02*
X97225000Y-76700000D01*
X97025000Y-77100000D02*
X97225000Y-77100000D01*
X97025000Y-78900000D02*
X97025000Y-77100000D01*
X97225000Y-78900000D02*
X97025000Y-78900000D01*
X97225000Y-79300000D02*
X97225000Y-78900000D01*
X98225000Y-79300000D02*
X97225000Y-79300000D01*
X98225000Y-79550000D02*
X98225000Y-79300000D01*
X98825000Y-79550000D02*
X98225000Y-79550000D01*
X98825000Y-79300000D02*
X98825000Y-79550000D01*
X99825000Y-79300000D02*
X98825000Y-79300000D01*
X99825000Y-78900000D02*
X99825000Y-79300000D01*
X100025000Y-78900000D02*
X99825000Y-78900000D01*
X100025000Y-77100000D02*
X100025000Y-78900000D01*
X99825000Y-77100000D02*
X100025000Y-77100000D01*
X99825000Y-76700000D02*
X99825000Y-77100000D01*
X98825000Y-76700000D02*
X99825000Y-76700000D01*
X98825000Y-76450000D02*
X98825000Y-76700000D01*
X98225000Y-76450000D02*
X98825000Y-76450000D01*
G04 #@! TD*
G04 #@! TO.C,J4*
D14*
X125003333Y-76712380D02*
X125003333Y-77426666D01*
X125050952Y-77569523D01*
X125146190Y-77664761D01*
X125289047Y-77712380D01*
X125384285Y-77712380D01*
X124098571Y-77045714D02*
X124098571Y-77712380D01*
X124336666Y-76664761D02*
X124574761Y-77379047D01*
X123955714Y-77379047D01*
G04 #@! TO.C,C3*
D15*
X74993571Y-90948333D02*
X75054047Y-90887857D01*
X75114523Y-90706428D01*
X75114523Y-90585476D01*
X75054047Y-90404047D01*
X74933095Y-90283095D01*
X74812142Y-90222619D01*
X74570238Y-90162142D01*
X74388809Y-90162142D01*
X74146904Y-90222619D01*
X74025952Y-90283095D01*
X73905000Y-90404047D01*
X73844523Y-90585476D01*
X73844523Y-90706428D01*
X73905000Y-90887857D01*
X73965476Y-90948333D01*
X73844523Y-91371666D02*
X73844523Y-92157857D01*
X74328333Y-91734523D01*
X74328333Y-91915952D01*
X74388809Y-92036904D01*
X74449285Y-92097380D01*
X74570238Y-92157857D01*
X74872619Y-92157857D01*
X74993571Y-92097380D01*
X75054047Y-92036904D01*
X75114523Y-91915952D01*
X75114523Y-91553095D01*
X75054047Y-91432142D01*
X74993571Y-91371666D01*
G04 #@! TO.C,C2*
D16*
X105572857Y-90408333D02*
X105591904Y-90389285D01*
X105610952Y-90332142D01*
X105610952Y-90294047D01*
X105591904Y-90236904D01*
X105553809Y-90198809D01*
X105515714Y-90179761D01*
X105439523Y-90160714D01*
X105382380Y-90160714D01*
X105306190Y-90179761D01*
X105268095Y-90198809D01*
X105230000Y-90236904D01*
X105210952Y-90294047D01*
X105210952Y-90332142D01*
X105230000Y-90389285D01*
X105249047Y-90408333D01*
X105249047Y-90560714D02*
X105230000Y-90579761D01*
X105210952Y-90617857D01*
X105210952Y-90713095D01*
X105230000Y-90751190D01*
X105249047Y-90770238D01*
X105287142Y-90789285D01*
X105325238Y-90789285D01*
X105382380Y-90770238D01*
X105610952Y-90541666D01*
X105610952Y-90789285D01*
G04 #@! TO.C,C1*
X102512857Y-90418333D02*
X102531904Y-90399285D01*
X102550952Y-90342142D01*
X102550952Y-90304047D01*
X102531904Y-90246904D01*
X102493809Y-90208809D01*
X102455714Y-90189761D01*
X102379523Y-90170714D01*
X102322380Y-90170714D01*
X102246190Y-90189761D01*
X102208095Y-90208809D01*
X102170000Y-90246904D01*
X102150952Y-90304047D01*
X102150952Y-90342142D01*
X102170000Y-90399285D01*
X102189047Y-90418333D01*
X102550952Y-90799285D02*
X102550952Y-90570714D01*
X102550952Y-90685000D02*
X102150952Y-90685000D01*
X102208095Y-90646904D01*
X102246190Y-90608809D01*
X102265238Y-90570714D01*
G04 #@! TO.C,TP11*
D14*
X97238095Y-101702380D02*
X96666666Y-101702380D01*
X96952380Y-102702380D02*
X96952380Y-101702380D01*
X96333333Y-102702380D02*
X96333333Y-101702380D01*
X95952380Y-101702380D01*
X95857142Y-101750000D01*
X95809523Y-101797619D01*
X95761904Y-101892857D01*
X95761904Y-102035714D01*
X95809523Y-102130952D01*
X95857142Y-102178571D01*
X95952380Y-102226190D01*
X96333333Y-102226190D01*
X94809523Y-102702380D02*
X95380952Y-102702380D01*
X95095238Y-102702380D02*
X95095238Y-101702380D01*
X95190476Y-101845238D01*
X95285714Y-101940476D01*
X95380952Y-101988095D01*
X93857142Y-102702380D02*
X94428571Y-102702380D01*
X94142857Y-102702380D02*
X94142857Y-101702380D01*
X94238095Y-101845238D01*
X94333333Y-101940476D01*
X94428571Y-101988095D01*
G04 #@! TO.C,TP16*
X94738095Y-101702380D02*
X94166666Y-101702380D01*
X94452380Y-102702380D02*
X94452380Y-101702380D01*
X93833333Y-102702380D02*
X93833333Y-101702380D01*
X93452380Y-101702380D01*
X93357142Y-101750000D01*
X93309523Y-101797619D01*
X93261904Y-101892857D01*
X93261904Y-102035714D01*
X93309523Y-102130952D01*
X93357142Y-102178571D01*
X93452380Y-102226190D01*
X93833333Y-102226190D01*
X92309523Y-102702380D02*
X92880952Y-102702380D01*
X92595238Y-102702380D02*
X92595238Y-101702380D01*
X92690476Y-101845238D01*
X92785714Y-101940476D01*
X92880952Y-101988095D01*
X91452380Y-101702380D02*
X91642857Y-101702380D01*
X91738095Y-101750000D01*
X91785714Y-101797619D01*
X91880952Y-101940476D01*
X91928571Y-102130952D01*
X91928571Y-102511904D01*
X91880952Y-102607142D01*
X91833333Y-102654761D01*
X91738095Y-102702380D01*
X91547619Y-102702380D01*
X91452380Y-102654761D01*
X91404761Y-102607142D01*
X91357142Y-102511904D01*
X91357142Y-102273809D01*
X91404761Y-102178571D01*
X91452380Y-102130952D01*
X91547619Y-102083333D01*
X91738095Y-102083333D01*
X91833333Y-102130952D01*
X91880952Y-102178571D01*
X91928571Y-102273809D01*
G04 #@! TO.C,TP15*
X102238095Y-101702380D02*
X101666666Y-101702380D01*
X101952380Y-102702380D02*
X101952380Y-101702380D01*
X101333333Y-102702380D02*
X101333333Y-101702380D01*
X100952380Y-101702380D01*
X100857142Y-101750000D01*
X100809523Y-101797619D01*
X100761904Y-101892857D01*
X100761904Y-102035714D01*
X100809523Y-102130952D01*
X100857142Y-102178571D01*
X100952380Y-102226190D01*
X101333333Y-102226190D01*
X99809523Y-102702380D02*
X100380952Y-102702380D01*
X100095238Y-102702380D02*
X100095238Y-101702380D01*
X100190476Y-101845238D01*
X100285714Y-101940476D01*
X100380952Y-101988095D01*
X98904761Y-101702380D02*
X99380952Y-101702380D01*
X99428571Y-102178571D01*
X99380952Y-102130952D01*
X99285714Y-102083333D01*
X99047619Y-102083333D01*
X98952380Y-102130952D01*
X98904761Y-102178571D01*
X98857142Y-102273809D01*
X98857142Y-102511904D01*
X98904761Y-102607142D01*
X98952380Y-102654761D01*
X99047619Y-102702380D01*
X99285714Y-102702380D01*
X99380952Y-102654761D01*
X99428571Y-102607142D01*
G04 #@! TO.C,TP12*
X99738095Y-101702380D02*
X99166666Y-101702380D01*
X99452380Y-102702380D02*
X99452380Y-101702380D01*
X98833333Y-102702380D02*
X98833333Y-101702380D01*
X98452380Y-101702380D01*
X98357142Y-101750000D01*
X98309523Y-101797619D01*
X98261904Y-101892857D01*
X98261904Y-102035714D01*
X98309523Y-102130952D01*
X98357142Y-102178571D01*
X98452380Y-102226190D01*
X98833333Y-102226190D01*
X97309523Y-102702380D02*
X97880952Y-102702380D01*
X97595238Y-102702380D02*
X97595238Y-101702380D01*
X97690476Y-101845238D01*
X97785714Y-101940476D01*
X97880952Y-101988095D01*
X96928571Y-101797619D02*
X96880952Y-101750000D01*
X96785714Y-101702380D01*
X96547619Y-101702380D01*
X96452380Y-101750000D01*
X96404761Y-101797619D01*
X96357142Y-101892857D01*
X96357142Y-101988095D01*
X96404761Y-102130952D01*
X96976190Y-102702380D01*
X96357142Y-102702380D01*
G04 #@! TO.C,TP10*
X92238095Y-101702380D02*
X91666666Y-101702380D01*
X91952380Y-102702380D02*
X91952380Y-101702380D01*
X91333333Y-102702380D02*
X91333333Y-101702380D01*
X90952380Y-101702380D01*
X90857142Y-101750000D01*
X90809523Y-101797619D01*
X90761904Y-101892857D01*
X90761904Y-102035714D01*
X90809523Y-102130952D01*
X90857142Y-102178571D01*
X90952380Y-102226190D01*
X91333333Y-102226190D01*
X89809523Y-102702380D02*
X90380952Y-102702380D01*
X90095238Y-102702380D02*
X90095238Y-101702380D01*
X90190476Y-101845238D01*
X90285714Y-101940476D01*
X90380952Y-101988095D01*
X89190476Y-101702380D02*
X89095238Y-101702380D01*
X89000000Y-101750000D01*
X88952380Y-101797619D01*
X88904761Y-101892857D01*
X88857142Y-102083333D01*
X88857142Y-102321428D01*
X88904761Y-102511904D01*
X88952380Y-102607142D01*
X89000000Y-102654761D01*
X89095238Y-102702380D01*
X89190476Y-102702380D01*
X89285714Y-102654761D01*
X89333333Y-102607142D01*
X89380952Y-102511904D01*
X89428571Y-102321428D01*
X89428571Y-102083333D01*
X89380952Y-101892857D01*
X89333333Y-101797619D01*
X89285714Y-101750000D01*
X89190476Y-101702380D01*
G04 #@! TO.C,TP9*
X84251904Y-101872380D02*
X83680476Y-101872380D01*
X83966190Y-102872380D02*
X83966190Y-101872380D01*
X83347142Y-102872380D02*
X83347142Y-101872380D01*
X82966190Y-101872380D01*
X82870952Y-101920000D01*
X82823333Y-101967619D01*
X82775714Y-102062857D01*
X82775714Y-102205714D01*
X82823333Y-102300952D01*
X82870952Y-102348571D01*
X82966190Y-102396190D01*
X83347142Y-102396190D01*
X82299523Y-102872380D02*
X82109047Y-102872380D01*
X82013809Y-102824761D01*
X81966190Y-102777142D01*
X81870952Y-102634285D01*
X81823333Y-102443809D01*
X81823333Y-102062857D01*
X81870952Y-101967619D01*
X81918571Y-101920000D01*
X82013809Y-101872380D01*
X82204285Y-101872380D01*
X82299523Y-101920000D01*
X82347142Y-101967619D01*
X82394761Y-102062857D01*
X82394761Y-102300952D01*
X82347142Y-102396190D01*
X82299523Y-102443809D01*
X82204285Y-102491428D01*
X82013809Y-102491428D01*
X81918571Y-102443809D01*
X81870952Y-102396190D01*
X81823333Y-102300952D01*
G04 #@! TO.C,TP8*
X86761904Y-101902380D02*
X86190476Y-101902380D01*
X86476190Y-102902380D02*
X86476190Y-101902380D01*
X85857142Y-102902380D02*
X85857142Y-101902380D01*
X85476190Y-101902380D01*
X85380952Y-101950000D01*
X85333333Y-101997619D01*
X85285714Y-102092857D01*
X85285714Y-102235714D01*
X85333333Y-102330952D01*
X85380952Y-102378571D01*
X85476190Y-102426190D01*
X85857142Y-102426190D01*
X84714285Y-102330952D02*
X84809523Y-102283333D01*
X84857142Y-102235714D01*
X84904761Y-102140476D01*
X84904761Y-102092857D01*
X84857142Y-101997619D01*
X84809523Y-101950000D01*
X84714285Y-101902380D01*
X84523809Y-101902380D01*
X84428571Y-101950000D01*
X84380952Y-101997619D01*
X84333333Y-102092857D01*
X84333333Y-102140476D01*
X84380952Y-102235714D01*
X84428571Y-102283333D01*
X84523809Y-102330952D01*
X84714285Y-102330952D01*
X84809523Y-102378571D01*
X84857142Y-102426190D01*
X84904761Y-102521428D01*
X84904761Y-102711904D01*
X84857142Y-102807142D01*
X84809523Y-102854761D01*
X84714285Y-102902380D01*
X84523809Y-102902380D01*
X84428571Y-102854761D01*
X84380952Y-102807142D01*
X84333333Y-102711904D01*
X84333333Y-102521428D01*
X84380952Y-102426190D01*
X84428571Y-102378571D01*
X84523809Y-102330952D01*
G04 #@! TO.C,TP7*
X89261904Y-101802380D02*
X88690476Y-101802380D01*
X88976190Y-102802380D02*
X88976190Y-101802380D01*
X88357142Y-102802380D02*
X88357142Y-101802380D01*
X87976190Y-101802380D01*
X87880952Y-101850000D01*
X87833333Y-101897619D01*
X87785714Y-101992857D01*
X87785714Y-102135714D01*
X87833333Y-102230952D01*
X87880952Y-102278571D01*
X87976190Y-102326190D01*
X88357142Y-102326190D01*
X87452380Y-101802380D02*
X86785714Y-101802380D01*
X87214285Y-102802380D01*
G04 #@! TO.C,TP3*
X81711904Y-101872380D02*
X81140476Y-101872380D01*
X81426190Y-102872380D02*
X81426190Y-101872380D01*
X80807142Y-102872380D02*
X80807142Y-101872380D01*
X80426190Y-101872380D01*
X80330952Y-101920000D01*
X80283333Y-101967619D01*
X80235714Y-102062857D01*
X80235714Y-102205714D01*
X80283333Y-102300952D01*
X80330952Y-102348571D01*
X80426190Y-102396190D01*
X80807142Y-102396190D01*
X79902380Y-101872380D02*
X79283333Y-101872380D01*
X79616666Y-102253333D01*
X79473809Y-102253333D01*
X79378571Y-102300952D01*
X79330952Y-102348571D01*
X79283333Y-102443809D01*
X79283333Y-102681904D01*
X79330952Y-102777142D01*
X79378571Y-102824761D01*
X79473809Y-102872380D01*
X79759523Y-102872380D01*
X79854761Y-102824761D01*
X79902380Y-102777142D01*
G04 #@! TO.C,R13*
D16*
X86580952Y-123417857D02*
X86390476Y-123284523D01*
X86580952Y-123189285D02*
X86180952Y-123189285D01*
X86180952Y-123341666D01*
X86200000Y-123379761D01*
X86219047Y-123398809D01*
X86257142Y-123417857D01*
X86314285Y-123417857D01*
X86352380Y-123398809D01*
X86371428Y-123379761D01*
X86390476Y-123341666D01*
X86390476Y-123189285D01*
X86580952Y-123798809D02*
X86580952Y-123570238D01*
X86580952Y-123684523D02*
X86180952Y-123684523D01*
X86238095Y-123646428D01*
X86276190Y-123608333D01*
X86295238Y-123570238D01*
X86180952Y-123932142D02*
X86180952Y-124179761D01*
X86333333Y-124046428D01*
X86333333Y-124103571D01*
X86352380Y-124141666D01*
X86371428Y-124160714D01*
X86409523Y-124179761D01*
X86504761Y-124179761D01*
X86542857Y-124160714D01*
X86561904Y-124141666D01*
X86580952Y-124103571D01*
X86580952Y-123989285D01*
X86561904Y-123951190D01*
X86542857Y-123932142D01*
G04 #@! TO.C,U1*
D14*
X106163333Y-120972380D02*
X106496666Y-120496190D01*
X106734761Y-120972380D02*
X106734761Y-119972380D01*
X106353809Y-119972380D01*
X106258571Y-120020000D01*
X106210952Y-120067619D01*
X106163333Y-120162857D01*
X106163333Y-120305714D01*
X106210952Y-120400952D01*
X106258571Y-120448571D01*
X106353809Y-120496190D01*
X106734761Y-120496190D01*
X105734761Y-120448571D02*
X105401428Y-120448571D01*
X105258571Y-120972380D02*
X105734761Y-120972380D01*
X105734761Y-119972380D01*
X105258571Y-119972380D01*
X104496666Y-120448571D02*
X104830000Y-120448571D01*
X104830000Y-120972380D02*
X104830000Y-119972380D01*
X104353809Y-119972380D01*
X103830000Y-119972380D02*
X103830000Y-120210476D01*
X104068095Y-120115238D02*
X103830000Y-120210476D01*
X103591904Y-120115238D01*
X103972857Y-120400952D02*
X103830000Y-120210476D01*
X103687142Y-120400952D01*
X103068095Y-119972380D02*
X103068095Y-120210476D01*
X103306190Y-120115238D02*
X103068095Y-120210476D01*
X102830000Y-120115238D01*
X103210952Y-120400952D02*
X103068095Y-120210476D01*
X102925238Y-120400952D01*
G04 #@! TO.C,J7*
X140483333Y-75852380D02*
X140483333Y-76566666D01*
X140530952Y-76709523D01*
X140626190Y-76804761D01*
X140769047Y-76852380D01*
X140864285Y-76852380D01*
X140102380Y-75852380D02*
X139435714Y-75852380D01*
X139864285Y-76852380D01*
G04 #@! TO.C,J8*
X112093333Y-75852380D02*
X112093333Y-76566666D01*
X112140952Y-76709523D01*
X112236190Y-76804761D01*
X112379047Y-76852380D01*
X112474285Y-76852380D01*
X111474285Y-76280952D02*
X111569523Y-76233333D01*
X111617142Y-76185714D01*
X111664761Y-76090476D01*
X111664761Y-76042857D01*
X111617142Y-75947619D01*
X111569523Y-75900000D01*
X111474285Y-75852380D01*
X111283809Y-75852380D01*
X111188571Y-75900000D01*
X111140952Y-75947619D01*
X111093333Y-76042857D01*
X111093333Y-76090476D01*
X111140952Y-76185714D01*
X111188571Y-76233333D01*
X111283809Y-76280952D01*
X111474285Y-76280952D01*
X111569523Y-76328571D01*
X111617142Y-76376190D01*
X111664761Y-76471428D01*
X111664761Y-76661904D01*
X111617142Y-76757142D01*
X111569523Y-76804761D01*
X111474285Y-76852380D01*
X111283809Y-76852380D01*
X111188571Y-76804761D01*
X111140952Y-76757142D01*
X111093333Y-76661904D01*
X111093333Y-76471428D01*
X111140952Y-76376190D01*
X111188571Y-76328571D01*
X111283809Y-76280952D01*
G04 #@! TO.C,R7*
D16*
X142580952Y-119008333D02*
X142390476Y-118875000D01*
X142580952Y-118779761D02*
X142180952Y-118779761D01*
X142180952Y-118932142D01*
X142200000Y-118970238D01*
X142219047Y-118989285D01*
X142257142Y-119008333D01*
X142314285Y-119008333D01*
X142352380Y-118989285D01*
X142371428Y-118970238D01*
X142390476Y-118932142D01*
X142390476Y-118779761D01*
X142180952Y-119141666D02*
X142180952Y-119408333D01*
X142580952Y-119236904D01*
G04 #@! TO.C,R6*
X140080952Y-119008333D02*
X139890476Y-118875000D01*
X140080952Y-118779761D02*
X139680952Y-118779761D01*
X139680952Y-118932142D01*
X139700000Y-118970238D01*
X139719047Y-118989285D01*
X139757142Y-119008333D01*
X139814285Y-119008333D01*
X139852380Y-118989285D01*
X139871428Y-118970238D01*
X139890476Y-118932142D01*
X139890476Y-118779761D01*
X139680952Y-119351190D02*
X139680952Y-119275000D01*
X139700000Y-119236904D01*
X139719047Y-119217857D01*
X139776190Y-119179761D01*
X139852380Y-119160714D01*
X140004761Y-119160714D01*
X140042857Y-119179761D01*
X140061904Y-119198809D01*
X140080952Y-119236904D01*
X140080952Y-119313095D01*
X140061904Y-119351190D01*
X140042857Y-119370238D01*
X140004761Y-119389285D01*
X139909523Y-119389285D01*
X139871428Y-119370238D01*
X139852380Y-119351190D01*
X139833333Y-119313095D01*
X139833333Y-119236904D01*
X139852380Y-119198809D01*
X139871428Y-119179761D01*
X139909523Y-119160714D01*
G04 #@! TO.C,R5*
X87541666Y-105880952D02*
X87675000Y-105690476D01*
X87770238Y-105880952D02*
X87770238Y-105480952D01*
X87617857Y-105480952D01*
X87579761Y-105500000D01*
X87560714Y-105519047D01*
X87541666Y-105557142D01*
X87541666Y-105614285D01*
X87560714Y-105652380D01*
X87579761Y-105671428D01*
X87617857Y-105690476D01*
X87770238Y-105690476D01*
X87179761Y-105480952D02*
X87370238Y-105480952D01*
X87389285Y-105671428D01*
X87370238Y-105652380D01*
X87332142Y-105633333D01*
X87236904Y-105633333D01*
X87198809Y-105652380D01*
X87179761Y-105671428D01*
X87160714Y-105709523D01*
X87160714Y-105804761D01*
X87179761Y-105842857D01*
X87198809Y-105861904D01*
X87236904Y-105880952D01*
X87332142Y-105880952D01*
X87370238Y-105861904D01*
X87389285Y-105842857D01*
G04 #@! TO.C,R4*
X139080952Y-80408333D02*
X138890476Y-80275000D01*
X139080952Y-80179761D02*
X138680952Y-80179761D01*
X138680952Y-80332142D01*
X138700000Y-80370238D01*
X138719047Y-80389285D01*
X138757142Y-80408333D01*
X138814285Y-80408333D01*
X138852380Y-80389285D01*
X138871428Y-80370238D01*
X138890476Y-80332142D01*
X138890476Y-80179761D01*
X138814285Y-80751190D02*
X139080952Y-80751190D01*
X138661904Y-80655952D02*
X138947619Y-80560714D01*
X138947619Y-80808333D01*
G04 #@! TO.C,R3*
X141480952Y-80408333D02*
X141290476Y-80275000D01*
X141480952Y-80179761D02*
X141080952Y-80179761D01*
X141080952Y-80332142D01*
X141100000Y-80370238D01*
X141119047Y-80389285D01*
X141157142Y-80408333D01*
X141214285Y-80408333D01*
X141252380Y-80389285D01*
X141271428Y-80370238D01*
X141290476Y-80332142D01*
X141290476Y-80179761D01*
X141080952Y-80541666D02*
X141080952Y-80789285D01*
X141233333Y-80655952D01*
X141233333Y-80713095D01*
X141252380Y-80751190D01*
X141271428Y-80770238D01*
X141309523Y-80789285D01*
X141404761Y-80789285D01*
X141442857Y-80770238D01*
X141461904Y-80751190D01*
X141480952Y-80713095D01*
X141480952Y-80598809D01*
X141461904Y-80560714D01*
X141442857Y-80541666D01*
G04 #@! TD*
M02*
