%FSLAX45Y45*%
G04 Gerber Fmt 4.5, Leading zero omitted, Abs format (unit mm)*
G04 Created by KiCad (PCBNEW 5.1.5+dfsg1-2build2) date 2022-03-31 13:11:22*
%MOMM*%
%LPD*%
G04 APERTURE LIST*
%TA.AperFunction,Profile*%
%ADD10C,0.100000*%
%TD*%
%ADD11C,0.200000*%
%ADD12C,0.300000*%
G04 APERTURE END LIST*
D10*
X13900000Y-8700000D02*
G75*
G02X14800000Y-9600000I0J-900000D01*
G01*
X22060000Y-9600000D02*
G75*
G02X22960000Y-8700000I900000J0D01*
G01*
X22960000Y-4700000D02*
G75*
G02X22060000Y-3800000I0J900000D01*
G01*
X14799986Y-3800009D02*
G75*
G02X13900000Y-4695000I-899986J5009D01*
G01*
X22960000Y-8700000D02*
X22960000Y-4700000D01*
X13900000Y-8700000D02*
X13900000Y-4695000D01*
X18430000Y-3800000D02*
X22060000Y-3800000D01*
X18430000Y-3800000D02*
X14800000Y-3800000D01*
X18430000Y-9600000D02*
X22060000Y-9600000D01*
X18430000Y-9600000D02*
X14800000Y-9600000D01*
D11*
D12*
X14181428Y-10070714D02*
X14181428Y-9770714D01*
X14252857Y-9770714D01*
X14295714Y-9785000D01*
X14324286Y-9813572D01*
X14338571Y-9842143D01*
X14352857Y-9899286D01*
X14352857Y-9942143D01*
X14338571Y-9999286D01*
X14324286Y-10027857D01*
X14295714Y-10056429D01*
X14252857Y-10070714D01*
X14181428Y-10070714D01*
X14481428Y-10070714D02*
X14481428Y-9870714D01*
X14481428Y-9927857D02*
X14495714Y-9899286D01*
X14510000Y-9885000D01*
X14538571Y-9870714D01*
X14567143Y-9870714D01*
X14667143Y-10070714D02*
X14667143Y-9870714D01*
X14667143Y-9770714D02*
X14652857Y-9785000D01*
X14667143Y-9799286D01*
X14681428Y-9785000D01*
X14667143Y-9770714D01*
X14667143Y-9799286D01*
X14852857Y-10070714D02*
X14824286Y-10056429D01*
X14810000Y-10027857D01*
X14810000Y-9770714D01*
X15010000Y-10070714D02*
X14981428Y-10056429D01*
X14967143Y-10027857D01*
X14967143Y-9770714D01*
X15352857Y-10070714D02*
X15352857Y-9770714D01*
X15452857Y-9985000D01*
X15552857Y-9770714D01*
X15552857Y-10070714D01*
X15824286Y-10070714D02*
X15824286Y-9913572D01*
X15810000Y-9885000D01*
X15781428Y-9870714D01*
X15724286Y-9870714D01*
X15695714Y-9885000D01*
X15824286Y-10056429D02*
X15795714Y-10070714D01*
X15724286Y-10070714D01*
X15695714Y-10056429D01*
X15681428Y-10027857D01*
X15681428Y-9999286D01*
X15695714Y-9970714D01*
X15724286Y-9956429D01*
X15795714Y-9956429D01*
X15824286Y-9942143D01*
X15967143Y-9870714D02*
X15967143Y-10170714D01*
X15967143Y-9885000D02*
X15995714Y-9870714D01*
X16052857Y-9870714D01*
X16081428Y-9885000D01*
X16095714Y-9899286D01*
X16110000Y-9927857D01*
X16110000Y-10013572D01*
X16095714Y-10042143D01*
X16081428Y-10056429D01*
X16052857Y-10070714D01*
X15995714Y-10070714D01*
X15967143Y-10056429D01*
X16238571Y-10042143D02*
X16252857Y-10056429D01*
X16238571Y-10070714D01*
X16224286Y-10056429D01*
X16238571Y-10042143D01*
X16238571Y-10070714D01*
X16238571Y-9885000D02*
X16252857Y-9899286D01*
X16238571Y-9913572D01*
X16224286Y-9899286D01*
X16238571Y-9885000D01*
X16238571Y-9913572D01*
M02*
