G04 #@! TF.GenerationSoftware,KiCad,Pcbnew,5.1.9-73d0e3b20d~88~ubuntu18.04.1*
G04 #@! TF.CreationDate,2021-04-09T21:08:54+02:00*
G04 #@! TF.ProjectId,EcoApi_pcb,45636f41-7069-45f7-9063-622e6b696361,rev?*
G04 #@! TF.SameCoordinates,Original*
G04 #@! TF.FileFunction,Soldermask,Top*
G04 #@! TF.FilePolarity,Negative*
%FSLAX46Y46*%
G04 Gerber Fmt 4.6, Leading zero omitted, Abs format (unit mm)*
G04 Created by KiCad (PCBNEW 5.1.9-73d0e3b20d~88~ubuntu18.04.1) date 2021-04-09 21:08:54*
%MOMM*%
%LPD*%
G01*
G04 APERTURE LIST*
%ADD10O,2.032000X2.540000*%
%ADD11O,2.000000X2.540000*%
%ADD12R,7.350000X6.350000*%
%ADD13C,3.406000*%
%ADD14C,2.700000*%
%ADD15O,1.700000X1.700000*%
%ADD16R,1.700000X1.700000*%
%ADD17R,1.500000X1.000000*%
%ADD18R,1.400000X2.100000*%
%ADD19R,1.950000X1.950000*%
%ADD20C,1.950000*%
%ADD21C,1.700000*%
G04 APERTURE END LIST*
D10*
G04 #@! TO.C,U3*
X147550000Y-104080000D03*
X145010000Y-104080000D03*
X142470000Y-104080000D03*
D11*
X139930000Y-104080000D03*
D10*
X137390000Y-124400000D03*
X139930000Y-124400000D03*
X142470000Y-124400000D03*
X145010000Y-124400000D03*
D11*
X134850000Y-104080000D03*
X137390000Y-104080000D03*
G04 #@! TD*
D12*
G04 #@! TO.C,BT1*
X153430000Y-91100000D03*
X74770000Y-91100000D03*
D13*
X78170000Y-83100000D03*
G04 #@! TD*
D14*
G04 #@! TO.C,H4*
X154400000Y-104000000D03*
G04 #@! TD*
G04 #@! TO.C,H2*
X73800000Y-104000000D03*
G04 #@! TD*
D15*
G04 #@! TO.C,J4*
X122130000Y-75990000D03*
X122130000Y-78530000D03*
X124670000Y-75990000D03*
X124670000Y-78530000D03*
X127210000Y-75990000D03*
D16*
X127210000Y-78530000D03*
G04 #@! TD*
D17*
G04 #@! TO.C,JP7*
X119600000Y-125000000D03*
X119600000Y-123700000D03*
G04 #@! TD*
G04 #@! TO.C,JP3*
X117500000Y-125000000D03*
X117500000Y-123700000D03*
G04 #@! TD*
D15*
G04 #@! TO.C,J16*
X73200000Y-119120000D03*
X73200000Y-116580000D03*
X73200000Y-114040000D03*
D16*
X73200000Y-111500000D03*
G04 #@! TD*
D18*
G04 #@! TO.C,S3*
X121750000Y-116250000D03*
X121750000Y-124800000D03*
X126250000Y-124800000D03*
X126250000Y-116250000D03*
G04 #@! TD*
G04 #@! TO.C,S2*
X100100000Y-116150000D03*
X100100000Y-124700000D03*
X104600000Y-124700000D03*
X104600000Y-116150000D03*
G04 #@! TD*
G04 #@! TO.C,S1*
X109900000Y-116250000D03*
X109900000Y-124800000D03*
X114400000Y-124800000D03*
X114400000Y-116250000D03*
G04 #@! TD*
G04 #@! TO.C,R15*
G36*
G01*
X119875000Y-116075000D02*
X119325000Y-116075000D01*
G75*
G02*
X119125000Y-115875000I0J200000D01*
G01*
X119125000Y-115475000D01*
G75*
G02*
X119325000Y-115275000I200000J0D01*
G01*
X119875000Y-115275000D01*
G75*
G02*
X120075000Y-115475000I0J-200000D01*
G01*
X120075000Y-115875000D01*
G75*
G02*
X119875000Y-116075000I-200000J0D01*
G01*
G37*
G36*
G01*
X119875000Y-117725000D02*
X119325000Y-117725000D01*
G75*
G02*
X119125000Y-117525000I0J200000D01*
G01*
X119125000Y-117125000D01*
G75*
G02*
X119325000Y-116925000I200000J0D01*
G01*
X119875000Y-116925000D01*
G75*
G02*
X120075000Y-117125000I0J-200000D01*
G01*
X120075000Y-117525000D01*
G75*
G02*
X119875000Y-117725000I-200000J0D01*
G01*
G37*
G04 #@! TD*
G04 #@! TO.C,R14*
G36*
G01*
X108075000Y-116075000D02*
X107525000Y-116075000D01*
G75*
G02*
X107325000Y-115875000I0J200000D01*
G01*
X107325000Y-115475000D01*
G75*
G02*
X107525000Y-115275000I200000J0D01*
G01*
X108075000Y-115275000D01*
G75*
G02*
X108275000Y-115475000I0J-200000D01*
G01*
X108275000Y-115875000D01*
G75*
G02*
X108075000Y-116075000I-200000J0D01*
G01*
G37*
G36*
G01*
X108075000Y-117725000D02*
X107525000Y-117725000D01*
G75*
G02*
X107325000Y-117525000I0J200000D01*
G01*
X107325000Y-117125000D01*
G75*
G02*
X107525000Y-116925000I200000J0D01*
G01*
X108075000Y-116925000D01*
G75*
G02*
X108275000Y-117125000I0J-200000D01*
G01*
X108275000Y-117525000D01*
G75*
G02*
X108075000Y-117725000I-200000J0D01*
G01*
G37*
G04 #@! TD*
D15*
G04 #@! TO.C,J15*
X83200000Y-124740000D03*
D16*
X83200000Y-122200000D03*
G04 #@! TD*
D19*
G04 #@! TO.C,J3*
X134100000Y-112000000D03*
D20*
X139100000Y-112000000D03*
X144100000Y-112000000D03*
X149100000Y-112000000D03*
G04 #@! TD*
D21*
G04 #@! TO.C,U1*
X80700000Y-128140000D03*
D16*
X80700000Y-112900000D03*
D21*
X83240000Y-128140000D03*
X83240000Y-112900000D03*
X85780000Y-128140000D03*
X85780000Y-112900000D03*
X88320000Y-128140000D03*
X88320000Y-112900000D03*
X90860000Y-128140000D03*
X90860000Y-112900000D03*
X93400000Y-128140000D03*
X93400000Y-112900000D03*
X95940000Y-128140000D03*
X95940000Y-112900000D03*
X98480000Y-128140000D03*
X98480000Y-112900000D03*
X101020000Y-128140000D03*
X101020000Y-112900000D03*
X103560000Y-128140000D03*
X103560000Y-112900000D03*
X106100000Y-128140000D03*
X106100000Y-112900000D03*
X108640000Y-128140000D03*
X108640000Y-112900000D03*
X111180000Y-128140000D03*
X111180000Y-112900000D03*
X113720000Y-128140000D03*
X113720000Y-112900000D03*
X116260000Y-128140000D03*
X116260000Y-112900000D03*
X118800000Y-128140000D03*
X118800000Y-112900000D03*
X121340000Y-128140000D03*
X121340000Y-112900000D03*
X123880000Y-128140000D03*
X123880000Y-112900000D03*
X126420000Y-128140000D03*
X126420000Y-112900000D03*
X128960000Y-128140000D03*
X128960000Y-112900000D03*
G04 #@! TD*
D15*
G04 #@! TO.C,J7*
X133800000Y-76400000D03*
X136340000Y-76400000D03*
X138880000Y-76400000D03*
X141420000Y-76400000D03*
X143960000Y-76400000D03*
D16*
X146500000Y-76400000D03*
G04 #@! TD*
D15*
G04 #@! TO.C,J8*
X106680000Y-76400000D03*
X109220000Y-76400000D03*
X111760000Y-76400000D03*
X114300000Y-76400000D03*
D16*
X116840000Y-76400000D03*
G04 #@! TD*
D15*
G04 #@! TO.C,J6*
X145040000Y-128300000D03*
X142500000Y-128300000D03*
X139960000Y-128300000D03*
D16*
X137420000Y-128300000D03*
G04 #@! TD*
G04 #@! TO.C,R8*
G36*
G01*
X98275000Y-116050000D02*
X97725000Y-116050000D01*
G75*
G02*
X97525000Y-115850000I0J200000D01*
G01*
X97525000Y-115450000D01*
G75*
G02*
X97725000Y-115250000I200000J0D01*
G01*
X98275000Y-115250000D01*
G75*
G02*
X98475000Y-115450000I0J-200000D01*
G01*
X98475000Y-115850000D01*
G75*
G02*
X98275000Y-116050000I-200000J0D01*
G01*
G37*
G36*
G01*
X98275000Y-117700000D02*
X97725000Y-117700000D01*
G75*
G02*
X97525000Y-117500000I0J200000D01*
G01*
X97525000Y-117100000D01*
G75*
G02*
X97725000Y-116900000I200000J0D01*
G01*
X98275000Y-116900000D01*
G75*
G02*
X98475000Y-117100000I0J-200000D01*
G01*
X98475000Y-117500000D01*
G75*
G02*
X98275000Y-117700000I-200000J0D01*
G01*
G37*
G04 #@! TD*
G04 #@! TO.C,R2*
G36*
G01*
X80575000Y-124150000D02*
X80025000Y-124150000D01*
G75*
G02*
X79825000Y-123950000I0J200000D01*
G01*
X79825000Y-123550000D01*
G75*
G02*
X80025000Y-123350000I200000J0D01*
G01*
X80575000Y-123350000D01*
G75*
G02*
X80775000Y-123550000I0J-200000D01*
G01*
X80775000Y-123950000D01*
G75*
G02*
X80575000Y-124150000I-200000J0D01*
G01*
G37*
G36*
G01*
X80575000Y-125800000D02*
X80025000Y-125800000D01*
G75*
G02*
X79825000Y-125600000I0J200000D01*
G01*
X79825000Y-125200000D01*
G75*
G02*
X80025000Y-125000000I200000J0D01*
G01*
X80575000Y-125000000D01*
G75*
G02*
X80775000Y-125200000I0J-200000D01*
G01*
X80775000Y-125600000D01*
G75*
G02*
X80575000Y-125800000I-200000J0D01*
G01*
G37*
G04 #@! TD*
G04 #@! TO.C,R1*
G36*
G01*
X78025000Y-125000000D02*
X78575000Y-125000000D01*
G75*
G02*
X78775000Y-125200000I0J-200000D01*
G01*
X78775000Y-125600000D01*
G75*
G02*
X78575000Y-125800000I-200000J0D01*
G01*
X78025000Y-125800000D01*
G75*
G02*
X77825000Y-125600000I0J200000D01*
G01*
X77825000Y-125200000D01*
G75*
G02*
X78025000Y-125000000I200000J0D01*
G01*
G37*
G36*
G01*
X78025000Y-123350000D02*
X78575000Y-123350000D01*
G75*
G02*
X78775000Y-123550000I0J-200000D01*
G01*
X78775000Y-123950000D01*
G75*
G02*
X78575000Y-124150000I-200000J0D01*
G01*
X78025000Y-124150000D01*
G75*
G02*
X77825000Y-123950000I0J200000D01*
G01*
X77825000Y-123550000D01*
G75*
G02*
X78025000Y-123350000I200000J0D01*
G01*
G37*
G04 #@! TD*
D15*
G04 #@! TO.C,J14*
X156000000Y-109820000D03*
X156000000Y-112360000D03*
D16*
X156000000Y-114900000D03*
G04 #@! TD*
G04 #@! TO.C,J13*
X156600000Y-120300000D03*
G04 #@! TD*
G04 #@! TO.C,J12*
X153000000Y-120300000D03*
G04 #@! TD*
D15*
G04 #@! TO.C,J10*
X71400000Y-96960000D03*
D16*
X71400000Y-99500000D03*
G04 #@! TD*
D19*
G04 #@! TO.C,J5*
X96300000Y-107300000D03*
D20*
X101300000Y-107300000D03*
X106300000Y-107300000D03*
G04 #@! TD*
D19*
G04 #@! TO.C,J2*
X112700000Y-107300000D03*
D20*
X117700000Y-107300000D03*
X122700000Y-107300000D03*
X127700000Y-107300000D03*
G04 #@! TD*
D19*
G04 #@! TO.C,J1*
X79900000Y-107300000D03*
D20*
X84900000Y-107300000D03*
X89900000Y-107300000D03*
G04 #@! TD*
M02*
