G04 #@! TF.GenerationSoftware,KiCad,Pcbnew,5.1.5+dfsg1-2build2*
G04 #@! TF.CreationDate,2022-03-24T14:40:24+01:00*
G04 #@! TF.ProjectId,EcoApi_pcb,45636f41-7069-45f7-9063-622e6b696361,rev?*
G04 #@! TF.SameCoordinates,Original*
G04 #@! TF.FileFunction,Legend,Top*
G04 #@! TF.FilePolarity,Positive*
%FSLAX46Y46*%
G04 Gerber Fmt 4.6, Leading zero omitted, Abs format (unit mm)*
G04 Created by KiCad (PCBNEW 5.1.5+dfsg1-2build2) date 2022-03-24 14:40:24*
%MOMM*%
%LPD*%
G04 APERTURE LIST*
%ADD10C,0.300000*%
%ADD11C,0.150000*%
%ADD12C,0.200000*%
%ADD13C,0.120000*%
%ADD14C,0.127000*%
%ADD15C,0.100000*%
%ADD16C,0.125000*%
%ADD17C,1.650000*%
%ADD18R,1.650000X1.650000*%
%ADD19O,1.700000X1.700000*%
%ADD20R,1.700000X1.700000*%
%ADD21C,1.308000*%
%ADD22R,1.308000X1.308000*%
%ADD23R,2.200000X1.050000*%
%ADD24R,1.050000X1.000000*%
%ADD25C,0.800000*%
%ADD26C,5.400000*%
%ADD27R,2.500000X1.200000*%
%ADD28R,2.100000X1.400000*%
%ADD29R,1.270000X0.760000*%
%ADD30O,1.716000X0.858000*%
%ADD31C,0.948000*%
%ADD32R,4.000000X2.150000*%
%ADD33R,7.350000X6.350000*%
%ADD34C,3.406000*%
G04 APERTURE END LIST*
D10*
X190971190Y-80817142D02*
X191637857Y-80817142D01*
X191923571Y-81864761D02*
X190971190Y-81864761D01*
X190971190Y-79864761D01*
X191923571Y-79864761D01*
X193637857Y-81769523D02*
X193447380Y-81864761D01*
X193066428Y-81864761D01*
X192875952Y-81769523D01*
X192780714Y-81674285D01*
X192685476Y-81483809D01*
X192685476Y-80912380D01*
X192780714Y-80721904D01*
X192875952Y-80626666D01*
X193066428Y-80531428D01*
X193447380Y-80531428D01*
X193637857Y-80626666D01*
X194780714Y-81864761D02*
X194590238Y-81769523D01*
X194495000Y-81674285D01*
X194399761Y-81483809D01*
X194399761Y-80912380D01*
X194495000Y-80721904D01*
X194590238Y-80626666D01*
X194780714Y-80531428D01*
X195066428Y-80531428D01*
X195256904Y-80626666D01*
X195352142Y-80721904D01*
X195447380Y-80912380D01*
X195447380Y-81483809D01*
X195352142Y-81674285D01*
X195256904Y-81769523D01*
X195066428Y-81864761D01*
X194780714Y-81864761D01*
X196209285Y-81293333D02*
X197161666Y-81293333D01*
X196018809Y-81864761D02*
X196685476Y-79864761D01*
X197352142Y-81864761D01*
X198018809Y-80531428D02*
X198018809Y-82531428D01*
X198018809Y-80626666D02*
X198209285Y-80531428D01*
X198590238Y-80531428D01*
X198780714Y-80626666D01*
X198875952Y-80721904D01*
X198971190Y-80912380D01*
X198971190Y-81483809D01*
X198875952Y-81674285D01*
X198780714Y-81769523D01*
X198590238Y-81864761D01*
X198209285Y-81864761D01*
X198018809Y-81769523D01*
X199828333Y-81864761D02*
X199828333Y-80531428D01*
X199828333Y-79864761D02*
X199733095Y-79960000D01*
X199828333Y-80055238D01*
X199923571Y-79960000D01*
X199828333Y-79864761D01*
X199828333Y-80055238D01*
X202018809Y-79864761D02*
X202685476Y-81864761D01*
X203352142Y-79864761D01*
X203923571Y-80055238D02*
X204018809Y-79960000D01*
X204209285Y-79864761D01*
X204685476Y-79864761D01*
X204875952Y-79960000D01*
X204971190Y-80055238D01*
X205066428Y-80245714D01*
X205066428Y-80436190D01*
X204971190Y-80721904D01*
X203828333Y-81864761D01*
X205066428Y-81864761D01*
X205923571Y-81674285D02*
X206018809Y-81769523D01*
X205923571Y-81864761D01*
X205828333Y-81769523D01*
X205923571Y-81674285D01*
X205923571Y-81864761D01*
X207923571Y-81864761D02*
X206780714Y-81864761D01*
X207352142Y-81864761D02*
X207352142Y-79864761D01*
X207161666Y-80150476D01*
X206971190Y-80340952D01*
X206780714Y-80436190D01*
X191352142Y-83164761D02*
X191542619Y-83164761D01*
X191733095Y-83260000D01*
X191828333Y-83355238D01*
X191923571Y-83545714D01*
X192018809Y-83926666D01*
X192018809Y-84402857D01*
X191923571Y-84783809D01*
X191828333Y-84974285D01*
X191733095Y-85069523D01*
X191542619Y-85164761D01*
X191352142Y-85164761D01*
X191161666Y-85069523D01*
X191066428Y-84974285D01*
X190971190Y-84783809D01*
X190875952Y-84402857D01*
X190875952Y-83926666D01*
X190971190Y-83545714D01*
X191066428Y-83355238D01*
X191161666Y-83260000D01*
X191352142Y-83164761D01*
X192685476Y-83164761D02*
X193923571Y-83164761D01*
X193256904Y-83926666D01*
X193542619Y-83926666D01*
X193733095Y-84021904D01*
X193828333Y-84117142D01*
X193923571Y-84307619D01*
X193923571Y-84783809D01*
X193828333Y-84974285D01*
X193733095Y-85069523D01*
X193542619Y-85164761D01*
X192971190Y-85164761D01*
X192780714Y-85069523D01*
X192685476Y-84974285D01*
X196209285Y-83069523D02*
X194495000Y-85640952D01*
X196780714Y-83355238D02*
X196875952Y-83260000D01*
X197066428Y-83164761D01*
X197542619Y-83164761D01*
X197733095Y-83260000D01*
X197828333Y-83355238D01*
X197923571Y-83545714D01*
X197923571Y-83736190D01*
X197828333Y-84021904D01*
X196685476Y-85164761D01*
X197923571Y-85164761D01*
X198685476Y-83355238D02*
X198780714Y-83260000D01*
X198971190Y-83164761D01*
X199447380Y-83164761D01*
X199637857Y-83260000D01*
X199733095Y-83355238D01*
X199828333Y-83545714D01*
X199828333Y-83736190D01*
X199733095Y-84021904D01*
X198590238Y-85164761D01*
X199828333Y-85164761D01*
D11*
X147414285Y-41653571D02*
X147985714Y-41653571D01*
X147700000Y-41939285D02*
X147700000Y-41367857D01*
X166020714Y-74009285D02*
X165770714Y-73652142D01*
X165592142Y-74009285D02*
X165592142Y-73259285D01*
X165877857Y-73259285D01*
X165949285Y-73295000D01*
X165985000Y-73330714D01*
X166020714Y-73402142D01*
X166020714Y-73509285D01*
X165985000Y-73580714D01*
X165949285Y-73616428D01*
X165877857Y-73652142D01*
X165592142Y-73652142D01*
X166342142Y-73616428D02*
X166592142Y-73616428D01*
X166699285Y-74009285D02*
X166342142Y-74009285D01*
X166342142Y-73259285D01*
X166699285Y-73259285D01*
X166985000Y-73973571D02*
X167092142Y-74009285D01*
X167270714Y-74009285D01*
X167342142Y-73973571D01*
X167377857Y-73937857D01*
X167413571Y-73866428D01*
X167413571Y-73795000D01*
X167377857Y-73723571D01*
X167342142Y-73687857D01*
X167270714Y-73652142D01*
X167127857Y-73616428D01*
X167056428Y-73580714D01*
X167020714Y-73545000D01*
X166985000Y-73473571D01*
X166985000Y-73402142D01*
X167020714Y-73330714D01*
X167056428Y-73295000D01*
X167127857Y-73259285D01*
X167306428Y-73259285D01*
X167413571Y-73295000D01*
X167735000Y-73616428D02*
X167985000Y-73616428D01*
X168092142Y-74009285D02*
X167735000Y-74009285D01*
X167735000Y-73259285D01*
X168092142Y-73259285D01*
X168306428Y-73259285D02*
X168735000Y-73259285D01*
X168520714Y-74009285D02*
X168520714Y-73259285D01*
X178370000Y-73259285D02*
X178798571Y-73259285D01*
X178584285Y-74009285D02*
X178584285Y-73259285D01*
X179012857Y-73795000D02*
X179370000Y-73795000D01*
X178941428Y-74009285D02*
X179191428Y-73259285D01*
X179441428Y-74009285D01*
X180120000Y-74009285D02*
X179870000Y-73652142D01*
X179691428Y-74009285D02*
X179691428Y-73259285D01*
X179977142Y-73259285D01*
X180048571Y-73295000D01*
X180084285Y-73330714D01*
X180120000Y-73402142D01*
X180120000Y-73509285D01*
X180084285Y-73580714D01*
X180048571Y-73616428D01*
X179977142Y-73652142D01*
X179691428Y-73652142D01*
X180441428Y-73616428D02*
X180691428Y-73616428D01*
X180798571Y-74009285D02*
X180441428Y-74009285D01*
X180441428Y-73259285D01*
X180798571Y-73259285D01*
X215585714Y-42839285D02*
X215585714Y-42089285D01*
X215871428Y-42089285D01*
X215942857Y-42125000D01*
X215978571Y-42160714D01*
X216014285Y-42232142D01*
X216014285Y-42339285D01*
X215978571Y-42410714D01*
X215942857Y-42446428D01*
X215871428Y-42482142D01*
X215585714Y-42482142D01*
X216264285Y-42089285D02*
X216442857Y-42839285D01*
X216585714Y-42303571D01*
X216728571Y-42839285D01*
X216907142Y-42089285D01*
X217621428Y-42839285D02*
X217371428Y-42482142D01*
X217192857Y-42839285D02*
X217192857Y-42089285D01*
X217478571Y-42089285D01*
X217550000Y-42125000D01*
X217585714Y-42160714D01*
X217621428Y-42232142D01*
X217621428Y-42339285D01*
X217585714Y-42410714D01*
X217550000Y-42446428D01*
X217478571Y-42482142D01*
X217192857Y-42482142D01*
X218621428Y-42839285D02*
X218550000Y-42803571D01*
X218514285Y-42767857D01*
X218478571Y-42696428D01*
X218478571Y-42482142D01*
X218514285Y-42410714D01*
X218550000Y-42375000D01*
X218621428Y-42339285D01*
X218728571Y-42339285D01*
X218800000Y-42375000D01*
X218835714Y-42410714D01*
X218871428Y-42482142D01*
X218871428Y-42696428D01*
X218835714Y-42767857D01*
X218800000Y-42803571D01*
X218728571Y-42839285D01*
X218621428Y-42839285D01*
X219192857Y-42339285D02*
X219192857Y-42839285D01*
X219192857Y-42410714D02*
X219228571Y-42375000D01*
X219300000Y-42339285D01*
X219407142Y-42339285D01*
X219478571Y-42375000D01*
X219514285Y-42446428D01*
X219514285Y-42839285D01*
X210719285Y-42839285D02*
X210469285Y-42482142D01*
X210290714Y-42839285D02*
X210290714Y-42089285D01*
X210576428Y-42089285D01*
X210647857Y-42125000D01*
X210683571Y-42160714D01*
X210719285Y-42232142D01*
X210719285Y-42339285D01*
X210683571Y-42410714D01*
X210647857Y-42446428D01*
X210576428Y-42482142D01*
X210290714Y-42482142D01*
X211005000Y-42803571D02*
X211112142Y-42839285D01*
X211290714Y-42839285D01*
X211362142Y-42803571D01*
X211397857Y-42767857D01*
X211433571Y-42696428D01*
X211433571Y-42625000D01*
X211397857Y-42553571D01*
X211362142Y-42517857D01*
X211290714Y-42482142D01*
X211147857Y-42446428D01*
X211076428Y-42410714D01*
X211040714Y-42375000D01*
X211005000Y-42303571D01*
X211005000Y-42232142D01*
X211040714Y-42160714D01*
X211076428Y-42125000D01*
X211147857Y-42089285D01*
X211326428Y-42089285D01*
X211433571Y-42125000D01*
X211647857Y-42089285D02*
X212076428Y-42089285D01*
X211862142Y-42839285D02*
X211862142Y-42089285D01*
X202682142Y-42829285D02*
X202682142Y-42079285D01*
X202860714Y-42079285D01*
X202967857Y-42115000D01*
X203039285Y-42186428D01*
X203075000Y-42257857D01*
X203110714Y-42400714D01*
X203110714Y-42507857D01*
X203075000Y-42650714D01*
X203039285Y-42722142D01*
X202967857Y-42793571D01*
X202860714Y-42829285D01*
X202682142Y-42829285D01*
X203432142Y-42829285D02*
X203432142Y-42079285D01*
X203932142Y-42079285D02*
X204075000Y-42079285D01*
X204146428Y-42115000D01*
X204217857Y-42186428D01*
X204253571Y-42329285D01*
X204253571Y-42579285D01*
X204217857Y-42722142D01*
X204146428Y-42793571D01*
X204075000Y-42829285D01*
X203932142Y-42829285D01*
X203860714Y-42793571D01*
X203789285Y-42722142D01*
X203753571Y-42579285D01*
X203753571Y-42329285D01*
X203789285Y-42186428D01*
X203860714Y-42115000D01*
X203932142Y-42079285D01*
X205528571Y-42115000D02*
X205457142Y-42079285D01*
X205350000Y-42079285D01*
X205242857Y-42115000D01*
X205171428Y-42186428D01*
X205135714Y-42257857D01*
X205100000Y-42400714D01*
X205100000Y-42507857D01*
X205135714Y-42650714D01*
X205171428Y-42722142D01*
X205242857Y-42793571D01*
X205350000Y-42829285D01*
X205421428Y-42829285D01*
X205528571Y-42793571D01*
X205564285Y-42757857D01*
X205564285Y-42507857D01*
X205421428Y-42507857D01*
X205885714Y-42829285D02*
X205885714Y-42079285D01*
X206314285Y-42829285D01*
X206314285Y-42079285D01*
X206671428Y-42829285D02*
X206671428Y-42079285D01*
X206850000Y-42079285D01*
X206957142Y-42115000D01*
X207028571Y-42186428D01*
X207064285Y-42257857D01*
X207100000Y-42400714D01*
X207100000Y-42507857D01*
X207064285Y-42650714D01*
X207028571Y-42722142D01*
X206957142Y-42793571D01*
X206850000Y-42829285D01*
X206671428Y-42829285D01*
X208153571Y-42767857D02*
X208117857Y-42803571D01*
X208010714Y-42839285D01*
X207939285Y-42839285D01*
X207832142Y-42803571D01*
X207760714Y-42732142D01*
X207725000Y-42660714D01*
X207689285Y-42517857D01*
X207689285Y-42410714D01*
X207725000Y-42267857D01*
X207760714Y-42196428D01*
X207832142Y-42125000D01*
X207939285Y-42089285D01*
X208010714Y-42089285D01*
X208117857Y-42125000D01*
X208153571Y-42160714D01*
X208832142Y-42839285D02*
X208475000Y-42839285D01*
X208475000Y-42089285D01*
X209082142Y-42839285D02*
X209082142Y-42089285D01*
X209510714Y-42839285D02*
X209189285Y-42410714D01*
X209510714Y-42089285D02*
X209082142Y-42517857D01*
X200097142Y-42079285D02*
X200561428Y-42079285D01*
X200311428Y-42365000D01*
X200418571Y-42365000D01*
X200490000Y-42400714D01*
X200525714Y-42436428D01*
X200561428Y-42507857D01*
X200561428Y-42686428D01*
X200525714Y-42757857D01*
X200490000Y-42793571D01*
X200418571Y-42829285D01*
X200204285Y-42829285D01*
X200132857Y-42793571D01*
X200097142Y-42757857D01*
X200811428Y-42329285D02*
X200990000Y-42829285D01*
X201168571Y-42329285D01*
X201382857Y-42079285D02*
X201847142Y-42079285D01*
X201597142Y-42365000D01*
X201704285Y-42365000D01*
X201775714Y-42400714D01*
X201811428Y-42436428D01*
X201847142Y-42507857D01*
X201847142Y-42686428D01*
X201811428Y-42757857D01*
X201775714Y-42793571D01*
X201704285Y-42829285D01*
X201490000Y-42829285D01*
X201418571Y-42793571D01*
X201382857Y-42757857D01*
X192678571Y-42075000D02*
X192607142Y-42039285D01*
X192500000Y-42039285D01*
X192392857Y-42075000D01*
X192321428Y-42146428D01*
X192285714Y-42217857D01*
X192250000Y-42360714D01*
X192250000Y-42467857D01*
X192285714Y-42610714D01*
X192321428Y-42682142D01*
X192392857Y-42753571D01*
X192500000Y-42789285D01*
X192571428Y-42789285D01*
X192678571Y-42753571D01*
X192714285Y-42717857D01*
X192714285Y-42467857D01*
X192571428Y-42467857D01*
X193035714Y-42789285D02*
X193035714Y-42039285D01*
X193464285Y-42789285D01*
X193464285Y-42039285D01*
X193821428Y-42789285D02*
X193821428Y-42039285D01*
X194000000Y-42039285D01*
X194107142Y-42075000D01*
X194178571Y-42146428D01*
X194214285Y-42217857D01*
X194250000Y-42360714D01*
X194250000Y-42467857D01*
X194214285Y-42610714D01*
X194178571Y-42682142D01*
X194107142Y-42753571D01*
X194000000Y-42789285D01*
X193821428Y-42789285D01*
X198275000Y-42829285D02*
X198025000Y-42472142D01*
X197846428Y-42829285D02*
X197846428Y-42079285D01*
X198132142Y-42079285D01*
X198203571Y-42115000D01*
X198239285Y-42150714D01*
X198275000Y-42222142D01*
X198275000Y-42329285D01*
X198239285Y-42400714D01*
X198203571Y-42436428D01*
X198132142Y-42472142D01*
X197846428Y-42472142D01*
X198525000Y-42079285D02*
X199025000Y-42829285D01*
X199025000Y-42079285D02*
X198525000Y-42829285D01*
X195228571Y-42079285D02*
X195657142Y-42079285D01*
X195442857Y-42829285D02*
X195442857Y-42079285D01*
X195835714Y-42079285D02*
X196335714Y-42829285D01*
X196335714Y-42079285D02*
X195835714Y-42829285D01*
X167403571Y-43159285D02*
X167403571Y-42409285D01*
X167689285Y-42409285D01*
X167760714Y-42445000D01*
X167796428Y-42480714D01*
X167832142Y-42552142D01*
X167832142Y-42659285D01*
X167796428Y-42730714D01*
X167760714Y-42766428D01*
X167689285Y-42802142D01*
X167403571Y-42802142D01*
X168082142Y-42409285D02*
X168260714Y-43159285D01*
X168403571Y-42623571D01*
X168546428Y-43159285D01*
X168725000Y-42409285D01*
X169439285Y-43159285D02*
X169189285Y-42802142D01*
X169010714Y-43159285D02*
X169010714Y-42409285D01*
X169296428Y-42409285D01*
X169367857Y-42445000D01*
X169403571Y-42480714D01*
X169439285Y-42552142D01*
X169439285Y-42659285D01*
X169403571Y-42730714D01*
X169367857Y-42766428D01*
X169296428Y-42802142D01*
X169010714Y-42802142D01*
X170617857Y-43123571D02*
X170546428Y-43159285D01*
X170403571Y-43159285D01*
X170332142Y-43123571D01*
X170296428Y-43052142D01*
X170296428Y-42766428D01*
X170332142Y-42695000D01*
X170403571Y-42659285D01*
X170546428Y-42659285D01*
X170617857Y-42695000D01*
X170653571Y-42766428D01*
X170653571Y-42837857D01*
X170296428Y-42909285D01*
X170975000Y-42659285D02*
X170975000Y-43159285D01*
X170975000Y-42730714D02*
X171010714Y-42695000D01*
X171082142Y-42659285D01*
X171189285Y-42659285D01*
X171260714Y-42695000D01*
X171296428Y-42766428D01*
X171296428Y-43159285D01*
X161409285Y-40847857D02*
X161373571Y-40883571D01*
X161266428Y-40919285D01*
X161195000Y-40919285D01*
X161087857Y-40883571D01*
X161016428Y-40812142D01*
X160980714Y-40740714D01*
X160945000Y-40597857D01*
X160945000Y-40490714D01*
X160980714Y-40347857D01*
X161016428Y-40276428D01*
X161087857Y-40205000D01*
X161195000Y-40169285D01*
X161266428Y-40169285D01*
X161373571Y-40205000D01*
X161409285Y-40240714D01*
X161730714Y-40919285D02*
X161730714Y-40169285D01*
X161730714Y-40526428D02*
X162159285Y-40526428D01*
X162159285Y-40919285D02*
X162159285Y-40169285D01*
X162945000Y-40919285D02*
X162695000Y-40562142D01*
X162516428Y-40919285D02*
X162516428Y-40169285D01*
X162802142Y-40169285D01*
X162873571Y-40205000D01*
X162909285Y-40240714D01*
X162945000Y-40312142D01*
X162945000Y-40419285D01*
X162909285Y-40490714D01*
X162873571Y-40526428D01*
X162802142Y-40562142D01*
X162516428Y-40562142D01*
X163659285Y-40205000D02*
X163587857Y-40169285D01*
X163480714Y-40169285D01*
X163373571Y-40205000D01*
X163302142Y-40276428D01*
X163266428Y-40347857D01*
X163230714Y-40490714D01*
X163230714Y-40597857D01*
X163266428Y-40740714D01*
X163302142Y-40812142D01*
X163373571Y-40883571D01*
X163480714Y-40919285D01*
X163552142Y-40919285D01*
X163659285Y-40883571D01*
X163695000Y-40847857D01*
X163695000Y-40597857D01*
X163552142Y-40597857D01*
X157498571Y-40929285D02*
X157498571Y-40179285D01*
X157677142Y-40179285D01*
X157784285Y-40215000D01*
X157855714Y-40286428D01*
X157891428Y-40357857D01*
X157927142Y-40500714D01*
X157927142Y-40607857D01*
X157891428Y-40750714D01*
X157855714Y-40822142D01*
X157784285Y-40893571D01*
X157677142Y-40929285D01*
X157498571Y-40929285D01*
X158391428Y-40179285D02*
X158534285Y-40179285D01*
X158605714Y-40215000D01*
X158677142Y-40286428D01*
X158712857Y-40429285D01*
X158712857Y-40679285D01*
X158677142Y-40822142D01*
X158605714Y-40893571D01*
X158534285Y-40929285D01*
X158391428Y-40929285D01*
X158320000Y-40893571D01*
X158248571Y-40822142D01*
X158212857Y-40679285D01*
X158212857Y-40429285D01*
X158248571Y-40286428D01*
X158320000Y-40215000D01*
X158391428Y-40179285D01*
X159034285Y-40929285D02*
X159034285Y-40179285D01*
X159462857Y-40929285D01*
X159462857Y-40179285D01*
X159820000Y-40536428D02*
X160070000Y-40536428D01*
X160177142Y-40929285D02*
X159820000Y-40929285D01*
X159820000Y-40179285D01*
X160177142Y-40179285D01*
X177692857Y-75859285D02*
X177692857Y-75109285D01*
X178050000Y-75859285D02*
X178050000Y-75109285D01*
X178478571Y-75859285D01*
X178478571Y-75109285D01*
X179085714Y-75466428D02*
X178835714Y-75466428D01*
X178835714Y-75859285D02*
X178835714Y-75109285D01*
X179192857Y-75109285D01*
X179621428Y-75109285D02*
X179764285Y-75109285D01*
X179835714Y-75145000D01*
X179907142Y-75216428D01*
X179942857Y-75359285D01*
X179942857Y-75609285D01*
X179907142Y-75752142D01*
X179835714Y-75823571D01*
X179764285Y-75859285D01*
X179621428Y-75859285D01*
X179550000Y-75823571D01*
X179478571Y-75752142D01*
X179442857Y-75609285D01*
X179442857Y-75359285D01*
X179478571Y-75216428D01*
X179550000Y-75145000D01*
X179621428Y-75109285D01*
X175416071Y-88198928D02*
X175523214Y-88234642D01*
X175558928Y-88270357D01*
X175594642Y-88341785D01*
X175594642Y-88448928D01*
X175558928Y-88520357D01*
X175523214Y-88556071D01*
X175451785Y-88591785D01*
X175166071Y-88591785D01*
X175166071Y-87841785D01*
X175416071Y-87841785D01*
X175487500Y-87877500D01*
X175523214Y-87913214D01*
X175558928Y-87984642D01*
X175558928Y-88056071D01*
X175523214Y-88127500D01*
X175487500Y-88163214D01*
X175416071Y-88198928D01*
X175166071Y-88198928D01*
X176058928Y-87841785D02*
X176201785Y-87841785D01*
X176273214Y-87877500D01*
X176344642Y-87948928D01*
X176380357Y-88091785D01*
X176380357Y-88341785D01*
X176344642Y-88484642D01*
X176273214Y-88556071D01*
X176201785Y-88591785D01*
X176058928Y-88591785D01*
X175987500Y-88556071D01*
X175916071Y-88484642D01*
X175880357Y-88341785D01*
X175880357Y-88091785D01*
X175916071Y-87948928D01*
X175987500Y-87877500D01*
X176058928Y-87841785D01*
X176844642Y-87841785D02*
X176987500Y-87841785D01*
X177058928Y-87877500D01*
X177130357Y-87948928D01*
X177166071Y-88091785D01*
X177166071Y-88341785D01*
X177130357Y-88484642D01*
X177058928Y-88556071D01*
X176987500Y-88591785D01*
X176844642Y-88591785D01*
X176773214Y-88556071D01*
X176701785Y-88484642D01*
X176666071Y-88341785D01*
X176666071Y-88091785D01*
X176701785Y-87948928D01*
X176773214Y-87877500D01*
X176844642Y-87841785D01*
X177380357Y-87841785D02*
X177808928Y-87841785D01*
X177594642Y-88591785D02*
X177594642Y-87841785D01*
X178201785Y-87841785D02*
X178273214Y-87841785D01*
X178344642Y-87877500D01*
X178380357Y-87913214D01*
X178416071Y-87984642D01*
X178451785Y-88127500D01*
X178451785Y-88306071D01*
X178416071Y-88448928D01*
X178380357Y-88520357D01*
X178344642Y-88556071D01*
X178273214Y-88591785D01*
X178201785Y-88591785D01*
X178130357Y-88556071D01*
X178094642Y-88520357D01*
X178058928Y-88448928D01*
X178023214Y-88306071D01*
X178023214Y-88127500D01*
X178058928Y-87984642D01*
X178094642Y-87913214D01*
X178130357Y-87877500D01*
X178201785Y-87841785D01*
X179630357Y-88556071D02*
X179558928Y-88591785D01*
X179416071Y-88591785D01*
X179344642Y-88556071D01*
X179308928Y-88484642D01*
X179308928Y-88198928D01*
X179344642Y-88127500D01*
X179416071Y-88091785D01*
X179558928Y-88091785D01*
X179630357Y-88127500D01*
X179666071Y-88198928D01*
X179666071Y-88270357D01*
X179308928Y-88341785D01*
X179987500Y-88091785D02*
X179987500Y-88591785D01*
X179987500Y-88163214D02*
X180023214Y-88127500D01*
X180094642Y-88091785D01*
X180201785Y-88091785D01*
X180273214Y-88127500D01*
X180308928Y-88198928D01*
X180308928Y-88591785D01*
X175523214Y-89866785D02*
X175166071Y-89866785D01*
X175166071Y-89116785D01*
X175773214Y-89473928D02*
X176023214Y-89473928D01*
X176130357Y-89866785D02*
X175773214Y-89866785D01*
X175773214Y-89116785D01*
X176130357Y-89116785D01*
X176451785Y-89866785D02*
X176451785Y-89116785D01*
X176630357Y-89116785D01*
X176737500Y-89152500D01*
X176808928Y-89223928D01*
X176844642Y-89295357D01*
X176880357Y-89438214D01*
X176880357Y-89545357D01*
X176844642Y-89688214D01*
X176808928Y-89759642D01*
X176737500Y-89831071D01*
X176630357Y-89866785D01*
X176451785Y-89866785D01*
X177773214Y-89866785D02*
X177773214Y-89366785D01*
X177773214Y-89116785D02*
X177737500Y-89152500D01*
X177773214Y-89188214D01*
X177808928Y-89152500D01*
X177773214Y-89116785D01*
X177773214Y-89188214D01*
X178130357Y-89366785D02*
X178130357Y-89866785D01*
X178130357Y-89438214D02*
X178166071Y-89402500D01*
X178237500Y-89366785D01*
X178344642Y-89366785D01*
X178416071Y-89402500D01*
X178451785Y-89473928D01*
X178451785Y-89866785D01*
X178701785Y-89366785D02*
X178987500Y-89366785D01*
X178808928Y-89866785D02*
X178808928Y-89223928D01*
X178844642Y-89152500D01*
X178916071Y-89116785D01*
X178987500Y-89116785D01*
X179344642Y-89866785D02*
X179273214Y-89831071D01*
X179237500Y-89795357D01*
X179201785Y-89723928D01*
X179201785Y-89509642D01*
X179237500Y-89438214D01*
X179273214Y-89402500D01*
X179344642Y-89366785D01*
X179451785Y-89366785D01*
X179523214Y-89402500D01*
X179558928Y-89438214D01*
X179594642Y-89509642D01*
X179594642Y-89723928D01*
X179558928Y-89795357D01*
X179523214Y-89831071D01*
X179451785Y-89866785D01*
X179344642Y-89866785D01*
X180773214Y-89831071D02*
X180701785Y-89866785D01*
X180558928Y-89866785D01*
X180487500Y-89831071D01*
X180451785Y-89759642D01*
X180451785Y-89473928D01*
X180487500Y-89402500D01*
X180558928Y-89366785D01*
X180701785Y-89366785D01*
X180773214Y-89402500D01*
X180808928Y-89473928D01*
X180808928Y-89545357D01*
X180451785Y-89616785D01*
X181130357Y-89366785D02*
X181130357Y-89866785D01*
X181130357Y-89438214D02*
X181166071Y-89402500D01*
X181237500Y-89366785D01*
X181344642Y-89366785D01*
X181416071Y-89402500D01*
X181451785Y-89473928D01*
X181451785Y-89866785D01*
X175058928Y-90391785D02*
X175487500Y-90391785D01*
X175273214Y-91141785D02*
X175273214Y-90391785D01*
X176166071Y-91141785D02*
X175916071Y-90784642D01*
X175737500Y-91141785D02*
X175737500Y-90391785D01*
X176023214Y-90391785D01*
X176094642Y-90427500D01*
X176130357Y-90463214D01*
X176166071Y-90534642D01*
X176166071Y-90641785D01*
X176130357Y-90713214D01*
X176094642Y-90748928D01*
X176023214Y-90784642D01*
X175737500Y-90784642D01*
X176451785Y-90927500D02*
X176808928Y-90927500D01*
X176380357Y-91141785D02*
X176630357Y-90391785D01*
X176880357Y-91141785D01*
X177558928Y-91070357D02*
X177523214Y-91106071D01*
X177416071Y-91141785D01*
X177344642Y-91141785D01*
X177237500Y-91106071D01*
X177166071Y-91034642D01*
X177130357Y-90963214D01*
X177094642Y-90820357D01*
X177094642Y-90713214D01*
X177130357Y-90570357D01*
X177166071Y-90498928D01*
X177237500Y-90427500D01*
X177344642Y-90391785D01*
X177416071Y-90391785D01*
X177523214Y-90427500D01*
X177558928Y-90463214D01*
X177880357Y-90748928D02*
X178130357Y-90748928D01*
X178237500Y-91141785D02*
X177880357Y-91141785D01*
X177880357Y-90391785D01*
X178237500Y-90391785D01*
X179416071Y-91106071D02*
X179344642Y-91141785D01*
X179201785Y-91141785D01*
X179130357Y-91106071D01*
X179094642Y-91034642D01*
X179094642Y-90748928D01*
X179130357Y-90677500D01*
X179201785Y-90641785D01*
X179344642Y-90641785D01*
X179416071Y-90677500D01*
X179451785Y-90748928D01*
X179451785Y-90820357D01*
X179094642Y-90891785D01*
X179773214Y-90641785D02*
X179773214Y-91141785D01*
X179773214Y-90713214D02*
X179808928Y-90677500D01*
X179880357Y-90641785D01*
X179987500Y-90641785D01*
X180058928Y-90677500D01*
X180094642Y-90748928D01*
X180094642Y-91141785D01*
X175130357Y-92381071D02*
X175237500Y-92416785D01*
X175416071Y-92416785D01*
X175487500Y-92381071D01*
X175523214Y-92345357D01*
X175558928Y-92273928D01*
X175558928Y-92202500D01*
X175523214Y-92131071D01*
X175487500Y-92095357D01*
X175416071Y-92059642D01*
X175273214Y-92023928D01*
X175201785Y-91988214D01*
X175166071Y-91952500D01*
X175130357Y-91881071D01*
X175130357Y-91809642D01*
X175166071Y-91738214D01*
X175201785Y-91702500D01*
X175273214Y-91666785D01*
X175451785Y-91666785D01*
X175558928Y-91702500D01*
X176308928Y-92345357D02*
X176273214Y-92381071D01*
X176166071Y-92416785D01*
X176094642Y-92416785D01*
X175987500Y-92381071D01*
X175916071Y-92309642D01*
X175880357Y-92238214D01*
X175844642Y-92095357D01*
X175844642Y-91988214D01*
X175880357Y-91845357D01*
X175916071Y-91773928D01*
X175987500Y-91702500D01*
X176094642Y-91666785D01*
X176166071Y-91666785D01*
X176273214Y-91702500D01*
X176308928Y-91738214D01*
X176594642Y-92202500D02*
X176951785Y-92202500D01*
X176523214Y-92416785D02*
X176773214Y-91666785D01*
X177023214Y-92416785D01*
X177630357Y-92416785D02*
X177273214Y-92416785D01*
X177273214Y-91666785D01*
X177880357Y-92023928D02*
X178130357Y-92023928D01*
X178237500Y-92416785D02*
X177880357Y-92416785D01*
X177880357Y-91666785D01*
X178237500Y-91666785D01*
X179023214Y-91916785D02*
X179308928Y-91916785D01*
X179130357Y-91666785D02*
X179130357Y-92309642D01*
X179166071Y-92381071D01*
X179237500Y-92416785D01*
X179308928Y-92416785D01*
X179487500Y-91916785D02*
X179666071Y-92416785D01*
X179844642Y-91916785D02*
X179666071Y-92416785D01*
X179594642Y-92595357D01*
X179558928Y-92631071D01*
X179487500Y-92666785D01*
X180130357Y-91916785D02*
X180130357Y-92666785D01*
X180130357Y-91952500D02*
X180201785Y-91916785D01*
X180344642Y-91916785D01*
X180416071Y-91952500D01*
X180451785Y-91988214D01*
X180487500Y-92059642D01*
X180487500Y-92273928D01*
X180451785Y-92345357D01*
X180416071Y-92381071D01*
X180344642Y-92416785D01*
X180201785Y-92416785D01*
X180130357Y-92381071D01*
X181094642Y-92381071D02*
X181023214Y-92416785D01*
X180880357Y-92416785D01*
X180808928Y-92381071D01*
X180773214Y-92309642D01*
X180773214Y-92023928D01*
X180808928Y-91952500D01*
X180880357Y-91916785D01*
X181023214Y-91916785D01*
X181094642Y-91952500D01*
X181130357Y-92023928D01*
X181130357Y-92095357D01*
X180773214Y-92166785D01*
X182237500Y-92702500D02*
X182201785Y-92666785D01*
X182130357Y-92559642D01*
X182094642Y-92488214D01*
X182058928Y-92381071D01*
X182023214Y-92202500D01*
X182023214Y-92059642D01*
X182058928Y-91881071D01*
X182094642Y-91773928D01*
X182130357Y-91702500D01*
X182201785Y-91595357D01*
X182237500Y-91559642D01*
X182416071Y-91916785D02*
X182701785Y-91916785D01*
X182523214Y-92416785D02*
X182523214Y-91773928D01*
X182558928Y-91702500D01*
X182630357Y-91666785D01*
X182701785Y-91666785D01*
X183273214Y-91916785D02*
X183273214Y-92416785D01*
X182951785Y-91916785D02*
X182951785Y-92309642D01*
X182987500Y-92381071D01*
X183058928Y-92416785D01*
X183166071Y-92416785D01*
X183237500Y-92381071D01*
X183273214Y-92345357D01*
X183737500Y-92416785D02*
X183666071Y-92381071D01*
X183630357Y-92309642D01*
X183630357Y-91666785D01*
X184130357Y-92416785D02*
X184058928Y-92381071D01*
X184023214Y-92309642D01*
X184023214Y-91666785D01*
X184987500Y-92131071D02*
X185558928Y-92131071D01*
X186487500Y-92416785D02*
X186487500Y-91666785D01*
X186808928Y-92416785D02*
X186808928Y-92023928D01*
X186773214Y-91952500D01*
X186701785Y-91916785D01*
X186594642Y-91916785D01*
X186523214Y-91952500D01*
X186487500Y-91988214D01*
X187487500Y-92416785D02*
X187487500Y-92023928D01*
X187451785Y-91952500D01*
X187380357Y-91916785D01*
X187237500Y-91916785D01*
X187166071Y-91952500D01*
X187487500Y-92381071D02*
X187416071Y-92416785D01*
X187237500Y-92416785D01*
X187166071Y-92381071D01*
X187130357Y-92309642D01*
X187130357Y-92238214D01*
X187166071Y-92166785D01*
X187237500Y-92131071D01*
X187416071Y-92131071D01*
X187487500Y-92095357D01*
X187951785Y-92416785D02*
X187880357Y-92381071D01*
X187844642Y-92309642D01*
X187844642Y-91666785D01*
X188130357Y-91916785D02*
X188416071Y-91916785D01*
X188237500Y-92416785D02*
X188237500Y-91773928D01*
X188273214Y-91702500D01*
X188344642Y-91666785D01*
X188416071Y-91666785D01*
X188594642Y-92702500D02*
X188630357Y-92666785D01*
X188701785Y-92559642D01*
X188737500Y-92488214D01*
X188773214Y-92381071D01*
X188808928Y-92202500D01*
X188808928Y-92059642D01*
X188773214Y-91881071D01*
X188737500Y-91773928D01*
X188701785Y-91702500D01*
X188630357Y-91595357D01*
X188594642Y-91559642D01*
X175094642Y-92941785D02*
X175273214Y-93691785D01*
X175416071Y-93156071D01*
X175558928Y-93691785D01*
X175737500Y-92941785D01*
X176023214Y-93691785D02*
X176023214Y-92941785D01*
X176201785Y-92941785D01*
X176308928Y-92977500D01*
X176380357Y-93048928D01*
X176416071Y-93120357D01*
X176451785Y-93263214D01*
X176451785Y-93370357D01*
X176416071Y-93513214D01*
X176380357Y-93584642D01*
X176308928Y-93656071D01*
X176201785Y-93691785D01*
X176023214Y-93691785D01*
X177166071Y-92977500D02*
X177094642Y-92941785D01*
X176987500Y-92941785D01*
X176880357Y-92977500D01*
X176808928Y-93048928D01*
X176773214Y-93120357D01*
X176737500Y-93263214D01*
X176737500Y-93370357D01*
X176773214Y-93513214D01*
X176808928Y-93584642D01*
X176880357Y-93656071D01*
X176987500Y-93691785D01*
X177058928Y-93691785D01*
X177166071Y-93656071D01*
X177201785Y-93620357D01*
X177201785Y-93370357D01*
X177058928Y-93370357D01*
X178416071Y-93691785D02*
X178416071Y-92941785D01*
X178416071Y-93656071D02*
X178344642Y-93691785D01*
X178201785Y-93691785D01*
X178130357Y-93656071D01*
X178094642Y-93620357D01*
X178058928Y-93548928D01*
X178058928Y-93334642D01*
X178094642Y-93263214D01*
X178130357Y-93227500D01*
X178201785Y-93191785D01*
X178344642Y-93191785D01*
X178416071Y-93227500D01*
X179058928Y-93656071D02*
X178987500Y-93691785D01*
X178844642Y-93691785D01*
X178773214Y-93656071D01*
X178737500Y-93584642D01*
X178737500Y-93298928D01*
X178773214Y-93227500D01*
X178844642Y-93191785D01*
X178987500Y-93191785D01*
X179058928Y-93227500D01*
X179094642Y-93298928D01*
X179094642Y-93370357D01*
X178737500Y-93441785D01*
X179523214Y-93691785D02*
X179451785Y-93656071D01*
X179416071Y-93584642D01*
X179416071Y-92941785D01*
X180130357Y-93691785D02*
X180130357Y-93298928D01*
X180094642Y-93227500D01*
X180023214Y-93191785D01*
X179880357Y-93191785D01*
X179808928Y-93227500D01*
X180130357Y-93656071D02*
X180058928Y-93691785D01*
X179880357Y-93691785D01*
X179808928Y-93656071D01*
X179773214Y-93584642D01*
X179773214Y-93513214D01*
X179808928Y-93441785D01*
X179880357Y-93406071D01*
X180058928Y-93406071D01*
X180130357Y-93370357D01*
X180416071Y-93191785D02*
X180594642Y-93691785D01*
X180773214Y-93191785D02*
X180594642Y-93691785D01*
X180523214Y-93870357D01*
X180487500Y-93906071D01*
X180416071Y-93941785D01*
X182023214Y-93691785D02*
X181594642Y-93691785D01*
X181808928Y-93691785D02*
X181808928Y-92941785D01*
X181737500Y-93048928D01*
X181666071Y-93120357D01*
X181594642Y-93156071D01*
X183201785Y-93656071D02*
X183130357Y-93691785D01*
X182987500Y-93691785D01*
X182916071Y-93656071D01*
X182880357Y-93584642D01*
X182880357Y-93298928D01*
X182916071Y-93227500D01*
X182987500Y-93191785D01*
X183130357Y-93191785D01*
X183201785Y-93227500D01*
X183237500Y-93298928D01*
X183237500Y-93370357D01*
X182880357Y-93441785D01*
X183558928Y-93191785D02*
X183558928Y-93691785D01*
X183558928Y-93263214D02*
X183594642Y-93227500D01*
X183666071Y-93191785D01*
X183773214Y-93191785D01*
X183844642Y-93227500D01*
X183880357Y-93298928D01*
X183880357Y-93691785D01*
X175094642Y-94216785D02*
X175273214Y-94966785D01*
X175416071Y-94431071D01*
X175558928Y-94966785D01*
X175737500Y-94216785D01*
X176023214Y-94966785D02*
X176023214Y-94216785D01*
X176201785Y-94216785D01*
X176308928Y-94252500D01*
X176380357Y-94323928D01*
X176416071Y-94395357D01*
X176451785Y-94538214D01*
X176451785Y-94645357D01*
X176416071Y-94788214D01*
X176380357Y-94859642D01*
X176308928Y-94931071D01*
X176201785Y-94966785D01*
X176023214Y-94966785D01*
X177166071Y-94252500D02*
X177094642Y-94216785D01*
X176987500Y-94216785D01*
X176880357Y-94252500D01*
X176808928Y-94323928D01*
X176773214Y-94395357D01*
X176737500Y-94538214D01*
X176737500Y-94645357D01*
X176773214Y-94788214D01*
X176808928Y-94859642D01*
X176880357Y-94931071D01*
X176987500Y-94966785D01*
X177058928Y-94966785D01*
X177166071Y-94931071D01*
X177201785Y-94895357D01*
X177201785Y-94645357D01*
X177058928Y-94645357D01*
X178416071Y-94966785D02*
X178416071Y-94216785D01*
X178416071Y-94931071D02*
X178344642Y-94966785D01*
X178201785Y-94966785D01*
X178130357Y-94931071D01*
X178094642Y-94895357D01*
X178058928Y-94823928D01*
X178058928Y-94609642D01*
X178094642Y-94538214D01*
X178130357Y-94502500D01*
X178201785Y-94466785D01*
X178344642Y-94466785D01*
X178416071Y-94502500D01*
X179058928Y-94931071D02*
X178987500Y-94966785D01*
X178844642Y-94966785D01*
X178773214Y-94931071D01*
X178737500Y-94859642D01*
X178737500Y-94573928D01*
X178773214Y-94502500D01*
X178844642Y-94466785D01*
X178987500Y-94466785D01*
X179058928Y-94502500D01*
X179094642Y-94573928D01*
X179094642Y-94645357D01*
X178737500Y-94716785D01*
X179523214Y-94966785D02*
X179451785Y-94931071D01*
X179416071Y-94859642D01*
X179416071Y-94216785D01*
X180130357Y-94966785D02*
X180130357Y-94573928D01*
X180094642Y-94502500D01*
X180023214Y-94466785D01*
X179880357Y-94466785D01*
X179808928Y-94502500D01*
X180130357Y-94931071D02*
X180058928Y-94966785D01*
X179880357Y-94966785D01*
X179808928Y-94931071D01*
X179773214Y-94859642D01*
X179773214Y-94788214D01*
X179808928Y-94716785D01*
X179880357Y-94681071D01*
X180058928Y-94681071D01*
X180130357Y-94645357D01*
X180416071Y-94466785D02*
X180594642Y-94966785D01*
X180773214Y-94466785D02*
X180594642Y-94966785D01*
X180523214Y-95145357D01*
X180487500Y-95181071D01*
X180416071Y-95216785D01*
X181594642Y-94288214D02*
X181630357Y-94252500D01*
X181701785Y-94216785D01*
X181880357Y-94216785D01*
X181951785Y-94252500D01*
X181987500Y-94288214D01*
X182023214Y-94359642D01*
X182023214Y-94431071D01*
X181987500Y-94538214D01*
X181558928Y-94966785D01*
X182023214Y-94966785D01*
X183201785Y-94931071D02*
X183130357Y-94966785D01*
X182987500Y-94966785D01*
X182916071Y-94931071D01*
X182880357Y-94859642D01*
X182880357Y-94573928D01*
X182916071Y-94502500D01*
X182987500Y-94466785D01*
X183130357Y-94466785D01*
X183201785Y-94502500D01*
X183237500Y-94573928D01*
X183237500Y-94645357D01*
X182880357Y-94716785D01*
X183558928Y-94466785D02*
X183558928Y-94966785D01*
X183558928Y-94538214D02*
X183594642Y-94502500D01*
X183666071Y-94466785D01*
X183773214Y-94466785D01*
X183844642Y-94502500D01*
X183880357Y-94573928D01*
X183880357Y-94966785D01*
X211087142Y-86209285D02*
X211551428Y-86209285D01*
X211301428Y-86495000D01*
X211408571Y-86495000D01*
X211480000Y-86530714D01*
X211515714Y-86566428D01*
X211551428Y-86637857D01*
X211551428Y-86816428D01*
X211515714Y-86887857D01*
X211480000Y-86923571D01*
X211408571Y-86959285D01*
X211194285Y-86959285D01*
X211122857Y-86923571D01*
X211087142Y-86887857D01*
X211801428Y-86459285D02*
X211980000Y-86959285D01*
X212158571Y-86459285D01*
X212372857Y-86209285D02*
X212837142Y-86209285D01*
X212587142Y-86495000D01*
X212694285Y-86495000D01*
X212765714Y-86530714D01*
X212801428Y-86566428D01*
X212837142Y-86637857D01*
X212837142Y-86816428D01*
X212801428Y-86887857D01*
X212765714Y-86923571D01*
X212694285Y-86959285D01*
X212480000Y-86959285D01*
X212408571Y-86923571D01*
X212372857Y-86887857D01*
X210967142Y-84413571D02*
X211074285Y-84449285D01*
X211252857Y-84449285D01*
X211324285Y-84413571D01*
X211360000Y-84377857D01*
X211395714Y-84306428D01*
X211395714Y-84235000D01*
X211360000Y-84163571D01*
X211324285Y-84127857D01*
X211252857Y-84092142D01*
X211110000Y-84056428D01*
X211038571Y-84020714D01*
X211002857Y-83985000D01*
X210967142Y-83913571D01*
X210967142Y-83842142D01*
X211002857Y-83770714D01*
X211038571Y-83735000D01*
X211110000Y-83699285D01*
X211288571Y-83699285D01*
X211395714Y-83735000D01*
X212145714Y-84377857D02*
X212110000Y-84413571D01*
X212002857Y-84449285D01*
X211931428Y-84449285D01*
X211824285Y-84413571D01*
X211752857Y-84342142D01*
X211717142Y-84270714D01*
X211681428Y-84127857D01*
X211681428Y-84020714D01*
X211717142Y-83877857D01*
X211752857Y-83806428D01*
X211824285Y-83735000D01*
X211931428Y-83699285D01*
X212002857Y-83699285D01*
X212110000Y-83735000D01*
X212145714Y-83770714D01*
X212824285Y-84449285D02*
X212467142Y-84449285D01*
X212467142Y-83699285D01*
X210919285Y-81883571D02*
X211026428Y-81919285D01*
X211205000Y-81919285D01*
X211276428Y-81883571D01*
X211312142Y-81847857D01*
X211347857Y-81776428D01*
X211347857Y-81705000D01*
X211312142Y-81633571D01*
X211276428Y-81597857D01*
X211205000Y-81562142D01*
X211062142Y-81526428D01*
X210990714Y-81490714D01*
X210955000Y-81455000D01*
X210919285Y-81383571D01*
X210919285Y-81312142D01*
X210955000Y-81240714D01*
X210990714Y-81205000D01*
X211062142Y-81169285D01*
X211240714Y-81169285D01*
X211347857Y-81205000D01*
X211669285Y-81919285D02*
X211669285Y-81169285D01*
X211847857Y-81169285D01*
X211955000Y-81205000D01*
X212026428Y-81276428D01*
X212062142Y-81347857D01*
X212097857Y-81490714D01*
X212097857Y-81597857D01*
X212062142Y-81740714D01*
X212026428Y-81812142D01*
X211955000Y-81883571D01*
X211847857Y-81919285D01*
X211669285Y-81919285D01*
X212383571Y-81705000D02*
X212740714Y-81705000D01*
X212312142Y-81919285D02*
X212562142Y-81169285D01*
X212812142Y-81919285D01*
X211238571Y-78775000D02*
X211167142Y-78739285D01*
X211060000Y-78739285D01*
X210952857Y-78775000D01*
X210881428Y-78846428D01*
X210845714Y-78917857D01*
X210810000Y-79060714D01*
X210810000Y-79167857D01*
X210845714Y-79310714D01*
X210881428Y-79382142D01*
X210952857Y-79453571D01*
X211060000Y-79489285D01*
X211131428Y-79489285D01*
X211238571Y-79453571D01*
X211274285Y-79417857D01*
X211274285Y-79167857D01*
X211131428Y-79167857D01*
X211595714Y-79489285D02*
X211595714Y-78739285D01*
X212024285Y-79489285D01*
X212024285Y-78739285D01*
X212381428Y-79489285D02*
X212381428Y-78739285D01*
X212560000Y-78739285D01*
X212667142Y-78775000D01*
X212738571Y-78846428D01*
X212774285Y-78917857D01*
X212810000Y-79060714D01*
X212810000Y-79167857D01*
X212774285Y-79310714D01*
X212738571Y-79382142D01*
X212667142Y-79453571D01*
X212560000Y-79489285D01*
X212381428Y-79489285D01*
X208570714Y-76863571D02*
X208677857Y-76899285D01*
X208856428Y-76899285D01*
X208927857Y-76863571D01*
X208963571Y-76827857D01*
X208999285Y-76756428D01*
X208999285Y-76685000D01*
X208963571Y-76613571D01*
X208927857Y-76577857D01*
X208856428Y-76542142D01*
X208713571Y-76506428D01*
X208642142Y-76470714D01*
X208606428Y-76435000D01*
X208570714Y-76363571D01*
X208570714Y-76292142D01*
X208606428Y-76220714D01*
X208642142Y-76185000D01*
X208713571Y-76149285D01*
X208892142Y-76149285D01*
X208999285Y-76185000D01*
X209320714Y-76899285D02*
X209320714Y-76149285D01*
X209499285Y-76149285D01*
X209606428Y-76185000D01*
X209677857Y-76256428D01*
X209713571Y-76327857D01*
X209749285Y-76470714D01*
X209749285Y-76577857D01*
X209713571Y-76720714D01*
X209677857Y-76792142D01*
X209606428Y-76863571D01*
X209499285Y-76899285D01*
X209320714Y-76899285D01*
X210070714Y-76613571D02*
X210642142Y-76613571D01*
X210963571Y-76685000D02*
X211320714Y-76685000D01*
X210892142Y-76899285D02*
X211142142Y-76149285D01*
X211392142Y-76899285D01*
X211642142Y-76899285D02*
X211642142Y-76149285D01*
X212070714Y-76899285D01*
X212070714Y-76149285D01*
X212392142Y-76685000D02*
X212749285Y-76685000D01*
X212320714Y-76899285D02*
X212570714Y-76149285D01*
X212820714Y-76899285D01*
X211501428Y-73689285D02*
X211680000Y-74439285D01*
X211822857Y-73903571D01*
X211965714Y-74439285D01*
X212144285Y-73689285D01*
X212394285Y-74403571D02*
X212501428Y-74439285D01*
X212680000Y-74439285D01*
X212751428Y-74403571D01*
X212787142Y-74367857D01*
X212822857Y-74296428D01*
X212822857Y-74225000D01*
X212787142Y-74153571D01*
X212751428Y-74117857D01*
X212680000Y-74082142D01*
X212537142Y-74046428D01*
X212465714Y-74010714D01*
X212430000Y-73975000D01*
X212394285Y-73903571D01*
X212394285Y-73832142D01*
X212430000Y-73760714D01*
X212465714Y-73725000D01*
X212537142Y-73689285D01*
X212715714Y-73689285D01*
X212822857Y-73725000D01*
X208645000Y-71867857D02*
X208609285Y-71903571D01*
X208502142Y-71939285D01*
X208430714Y-71939285D01*
X208323571Y-71903571D01*
X208252142Y-71832142D01*
X208216428Y-71760714D01*
X208180714Y-71617857D01*
X208180714Y-71510714D01*
X208216428Y-71367857D01*
X208252142Y-71296428D01*
X208323571Y-71225000D01*
X208430714Y-71189285D01*
X208502142Y-71189285D01*
X208609285Y-71225000D01*
X208645000Y-71260714D01*
X208966428Y-71939285D02*
X208966428Y-71189285D01*
X209395000Y-71939285D02*
X209073571Y-71510714D01*
X209395000Y-71189285D02*
X208966428Y-71617857D01*
X209716428Y-71653571D02*
X210287857Y-71653571D01*
X211037857Y-71225000D02*
X210966428Y-71189285D01*
X210859285Y-71189285D01*
X210752142Y-71225000D01*
X210680714Y-71296428D01*
X210645000Y-71367857D01*
X210609285Y-71510714D01*
X210609285Y-71617857D01*
X210645000Y-71760714D01*
X210680714Y-71832142D01*
X210752142Y-71903571D01*
X210859285Y-71939285D01*
X210930714Y-71939285D01*
X211037857Y-71903571D01*
X211073571Y-71867857D01*
X211073571Y-71617857D01*
X210930714Y-71617857D01*
X211359285Y-71725000D02*
X211716428Y-71725000D01*
X211287857Y-71939285D02*
X211537857Y-71189285D01*
X211787857Y-71939285D01*
X212037857Y-71939285D02*
X212037857Y-71189285D01*
X212395000Y-71939285D02*
X212395000Y-71189285D01*
X212823571Y-71939285D01*
X212823571Y-71189285D01*
X211067142Y-68679285D02*
X211531428Y-68679285D01*
X211281428Y-68965000D01*
X211388571Y-68965000D01*
X211460000Y-69000714D01*
X211495714Y-69036428D01*
X211531428Y-69107857D01*
X211531428Y-69286428D01*
X211495714Y-69357857D01*
X211460000Y-69393571D01*
X211388571Y-69429285D01*
X211174285Y-69429285D01*
X211102857Y-69393571D01*
X211067142Y-69357857D01*
X211781428Y-68929285D02*
X211960000Y-69429285D01*
X212138571Y-68929285D01*
X212352857Y-68679285D02*
X212817142Y-68679285D01*
X212567142Y-68965000D01*
X212674285Y-68965000D01*
X212745714Y-69000714D01*
X212781428Y-69036428D01*
X212817142Y-69107857D01*
X212817142Y-69286428D01*
X212781428Y-69357857D01*
X212745714Y-69393571D01*
X212674285Y-69429285D01*
X212460000Y-69429285D01*
X212388571Y-69393571D01*
X212352857Y-69357857D01*
X220752857Y-83983571D02*
X220860000Y-84019285D01*
X221038571Y-84019285D01*
X221110000Y-83983571D01*
X221145714Y-83947857D01*
X221181428Y-83876428D01*
X221181428Y-83805000D01*
X221145714Y-83733571D01*
X221110000Y-83697857D01*
X221038571Y-83662142D01*
X220895714Y-83626428D01*
X220824285Y-83590714D01*
X220788571Y-83555000D01*
X220752857Y-83483571D01*
X220752857Y-83412142D01*
X220788571Y-83340714D01*
X220824285Y-83305000D01*
X220895714Y-83269285D01*
X221074285Y-83269285D01*
X221181428Y-83305000D01*
X221502857Y-84019285D02*
X221502857Y-83269285D01*
X221502857Y-83626428D02*
X221931428Y-83626428D01*
X221931428Y-84019285D02*
X221931428Y-83269285D01*
X220827142Y-81315000D02*
X221184285Y-81315000D01*
X220755714Y-81529285D02*
X221005714Y-80779285D01*
X221255714Y-81529285D01*
X221505714Y-81243571D02*
X222077142Y-81243571D01*
X221791428Y-81529285D02*
X221791428Y-80957857D01*
X220817142Y-78815000D02*
X221174285Y-78815000D01*
X220745714Y-79029285D02*
X220995714Y-78279285D01*
X221245714Y-79029285D01*
X221495714Y-78743571D02*
X222067142Y-78743571D01*
X220755000Y-76146428D02*
X221005000Y-76146428D01*
X221112142Y-76539285D02*
X220755000Y-76539285D01*
X220755000Y-75789285D01*
X221112142Y-75789285D01*
X221433571Y-76253571D02*
X222005000Y-76253571D01*
X220735000Y-73646428D02*
X220985000Y-73646428D01*
X221092142Y-74039285D02*
X220735000Y-74039285D01*
X220735000Y-73289285D01*
X221092142Y-73289285D01*
X221413571Y-73753571D02*
X221985000Y-73753571D01*
X221699285Y-74039285D02*
X221699285Y-73467857D01*
X192269285Y-70663571D02*
X192376428Y-70699285D01*
X192555000Y-70699285D01*
X192626428Y-70663571D01*
X192662142Y-70627857D01*
X192697857Y-70556428D01*
X192697857Y-70485000D01*
X192662142Y-70413571D01*
X192626428Y-70377857D01*
X192555000Y-70342142D01*
X192412142Y-70306428D01*
X192340714Y-70270714D01*
X192305000Y-70235000D01*
X192269285Y-70163571D01*
X192269285Y-70092142D01*
X192305000Y-70020714D01*
X192340714Y-69985000D01*
X192412142Y-69949285D01*
X192590714Y-69949285D01*
X192697857Y-69985000D01*
X193019285Y-70699285D02*
X193019285Y-69949285D01*
X193197857Y-69949285D01*
X193305000Y-69985000D01*
X193376428Y-70056428D01*
X193412142Y-70127857D01*
X193447857Y-70270714D01*
X193447857Y-70377857D01*
X193412142Y-70520714D01*
X193376428Y-70592142D01*
X193305000Y-70663571D01*
X193197857Y-70699285D01*
X193019285Y-70699285D01*
X193733571Y-70485000D02*
X194090714Y-70485000D01*
X193662142Y-70699285D02*
X193912142Y-69949285D01*
X194162142Y-70699285D01*
X194837142Y-70663571D02*
X194944285Y-70699285D01*
X195122857Y-70699285D01*
X195194285Y-70663571D01*
X195230000Y-70627857D01*
X195265714Y-70556428D01*
X195265714Y-70485000D01*
X195230000Y-70413571D01*
X195194285Y-70377857D01*
X195122857Y-70342142D01*
X194980000Y-70306428D01*
X194908571Y-70270714D01*
X194872857Y-70235000D01*
X194837142Y-70163571D01*
X194837142Y-70092142D01*
X194872857Y-70020714D01*
X194908571Y-69985000D01*
X194980000Y-69949285D01*
X195158571Y-69949285D01*
X195265714Y-69985000D01*
X196015714Y-70627857D02*
X195980000Y-70663571D01*
X195872857Y-70699285D01*
X195801428Y-70699285D01*
X195694285Y-70663571D01*
X195622857Y-70592142D01*
X195587142Y-70520714D01*
X195551428Y-70377857D01*
X195551428Y-70270714D01*
X195587142Y-70127857D01*
X195622857Y-70056428D01*
X195694285Y-69985000D01*
X195801428Y-69949285D01*
X195872857Y-69949285D01*
X195980000Y-69985000D01*
X196015714Y-70020714D01*
X196694285Y-70699285D02*
X196337142Y-70699285D01*
X196337142Y-69949285D01*
X197718571Y-69985000D02*
X197647142Y-69949285D01*
X197540000Y-69949285D01*
X197432857Y-69985000D01*
X197361428Y-70056428D01*
X197325714Y-70127857D01*
X197290000Y-70270714D01*
X197290000Y-70377857D01*
X197325714Y-70520714D01*
X197361428Y-70592142D01*
X197432857Y-70663571D01*
X197540000Y-70699285D01*
X197611428Y-70699285D01*
X197718571Y-70663571D01*
X197754285Y-70627857D01*
X197754285Y-70377857D01*
X197611428Y-70377857D01*
X198075714Y-70699285D02*
X198075714Y-69949285D01*
X198504285Y-70699285D01*
X198504285Y-69949285D01*
X198861428Y-70699285D02*
X198861428Y-69949285D01*
X199040000Y-69949285D01*
X199147142Y-69985000D01*
X199218571Y-70056428D01*
X199254285Y-70127857D01*
X199290000Y-70270714D01*
X199290000Y-70377857D01*
X199254285Y-70520714D01*
X199218571Y-70592142D01*
X199147142Y-70663571D01*
X199040000Y-70699285D01*
X198861428Y-70699285D01*
X200077142Y-69949285D02*
X200541428Y-69949285D01*
X200291428Y-70235000D01*
X200398571Y-70235000D01*
X200470000Y-70270714D01*
X200505714Y-70306428D01*
X200541428Y-70377857D01*
X200541428Y-70556428D01*
X200505714Y-70627857D01*
X200470000Y-70663571D01*
X200398571Y-70699285D01*
X200184285Y-70699285D01*
X200112857Y-70663571D01*
X200077142Y-70627857D01*
X200791428Y-70199285D02*
X200970000Y-70699285D01*
X201148571Y-70199285D01*
X201362857Y-69949285D02*
X201827142Y-69949285D01*
X201577142Y-70235000D01*
X201684285Y-70235000D01*
X201755714Y-70270714D01*
X201791428Y-70306428D01*
X201827142Y-70377857D01*
X201827142Y-70556428D01*
X201791428Y-70627857D01*
X201755714Y-70663571D01*
X201684285Y-70699285D01*
X201470000Y-70699285D01*
X201398571Y-70663571D01*
X201362857Y-70627857D01*
D10*
X141257142Y-48584285D02*
X143542857Y-48584285D01*
X142400000Y-49727142D02*
X142400000Y-47441428D01*
D12*
X213516000Y-89064000D02*
X216916000Y-89064000D01*
X213516000Y-66664000D02*
X213516000Y-89064000D01*
X219266000Y-66664000D02*
X213516000Y-66664000D01*
X219266000Y-86614000D02*
X219266000Y-66664000D01*
D13*
X212410000Y-38460000D02*
X212410000Y-39790000D01*
X211080000Y-38460000D02*
X212410000Y-38460000D01*
X209810000Y-38460000D02*
X209810000Y-41120000D01*
X209810000Y-41120000D02*
X191970000Y-41120000D01*
X209810000Y-38460000D02*
X191970000Y-38460000D01*
X191970000Y-38460000D02*
X191970000Y-41120000D01*
D14*
X178320000Y-38290000D02*
X178320000Y-40790000D01*
X188320000Y-38290000D02*
X178320000Y-38290000D01*
X188320000Y-40790000D02*
X188320000Y-38290000D01*
X178320000Y-40790000D02*
X188320000Y-40790000D01*
D12*
X183420000Y-41390000D02*
G75*
G03X183420000Y-41390000I-100000J0D01*
G01*
X167650000Y-95000000D02*
G75*
G03X167650000Y-95000000I-100000J0D01*
G01*
D14*
X171060000Y-93910000D02*
X171310000Y-93910000D01*
X171060000Y-94310000D02*
X171060000Y-93910000D01*
X171060000Y-93310000D02*
X171060000Y-92910000D01*
X171310000Y-93310000D02*
X171060000Y-93310000D01*
X171310000Y-93910000D02*
X171310000Y-93310000D01*
D13*
X212270000Y-93780000D02*
X212270000Y-92450000D01*
X213600000Y-93780000D02*
X212270000Y-93780000D01*
X214870000Y-93780000D02*
X214870000Y-91120000D01*
X214870000Y-91120000D02*
X217470000Y-91120000D01*
X214870000Y-93780000D02*
X217470000Y-93780000D01*
X217470000Y-93780000D02*
X217470000Y-91120000D01*
X220120000Y-38460000D02*
X220120000Y-39790000D01*
X218790000Y-38460000D02*
X220120000Y-38460000D01*
X217520000Y-38460000D02*
X217520000Y-41120000D01*
X217520000Y-41120000D02*
X214920000Y-41120000D01*
X217520000Y-38460000D02*
X214920000Y-38460000D01*
X214920000Y-38460000D02*
X214920000Y-41120000D01*
D11*
X149750000Y-78650000D02*
X165750000Y-78650000D01*
X149750000Y-94650000D02*
X165750000Y-94650000D01*
X152750000Y-79650000D02*
G75*
G03X152750000Y-79650000I-500000J0D01*
G01*
D12*
X173150000Y-71900000D02*
G75*
G03X173150000Y-71900000I-100000J0D01*
G01*
D14*
X164350000Y-72600000D02*
X169850000Y-72600000D01*
X169850000Y-66600000D02*
X169850000Y-72600000D01*
X164350000Y-66600000D02*
X169850000Y-66600000D01*
X164350000Y-72600000D02*
X164350000Y-66600000D01*
D12*
X172200000Y-79045000D02*
G75*
G02X172300000Y-79045000I50000J0D01*
G01*
X172300000Y-79045000D02*
G75*
G02X172200000Y-79045000I-50000J0D01*
G01*
X172200000Y-79045000D02*
G75*
G02X172300000Y-79045000I50000J0D01*
G01*
X172300000Y-79045000D02*
X172300000Y-79045000D01*
X172200000Y-79045000D02*
X172200000Y-79045000D01*
X172300000Y-79045000D02*
X172300000Y-79045000D01*
D15*
X175100000Y-77610000D02*
X180500000Y-77610000D01*
X175100000Y-86830000D02*
X175100000Y-77610000D01*
X180500000Y-86830000D02*
X175100000Y-86830000D01*
X180500000Y-77610000D02*
X180500000Y-86830000D01*
D12*
X185500000Y-71900000D02*
G75*
G03X185500000Y-71900000I-100000J0D01*
G01*
D14*
X176700000Y-72600000D02*
X182200000Y-72600000D01*
X182200000Y-66600000D02*
X182200000Y-72600000D01*
X176700000Y-66600000D02*
X182200000Y-66600000D01*
X176700000Y-72600000D02*
X176700000Y-66600000D01*
D12*
X222650000Y-86200000D02*
X226050000Y-86200000D01*
X222650000Y-71300000D02*
X222650000Y-86200000D01*
X228400000Y-71300000D02*
X222650000Y-71300000D01*
X228400000Y-83750000D02*
X228400000Y-71300000D01*
D13*
X186770000Y-68150000D02*
X186770000Y-66820000D01*
X186770000Y-66820000D02*
X188100000Y-66820000D01*
X189370000Y-66820000D02*
X202130000Y-66820000D01*
X202130000Y-69480000D02*
X202130000Y-66820000D01*
X189370000Y-69480000D02*
X202130000Y-69480000D01*
X189370000Y-69480000D02*
X189370000Y-66820000D01*
X171830000Y-39270000D02*
X171830000Y-40600000D01*
X170500000Y-39270000D02*
X171830000Y-39270000D01*
X169230000Y-39270000D02*
X169230000Y-41930000D01*
X169230000Y-41930000D02*
X166630000Y-41930000D01*
X169230000Y-39270000D02*
X166630000Y-39270000D01*
X166630000Y-39270000D02*
X166630000Y-41930000D01*
D12*
X155780000Y-44050000D02*
X155780000Y-40650000D01*
X148380000Y-44050000D02*
X155780000Y-44050000D01*
X148380000Y-38300000D02*
X148380000Y-44050000D01*
X153330000Y-38300000D02*
X148380000Y-38300000D01*
X146050000Y-75200000D02*
G75*
G03X146050000Y-75200000I-100000J0D01*
G01*
D14*
X142500000Y-80075000D02*
X142690000Y-80075000D01*
X142500000Y-77640000D02*
X142500000Y-80075000D01*
X142500000Y-76350000D02*
X142500000Y-76670000D01*
X142500000Y-72925000D02*
X142500000Y-75360000D01*
X142690000Y-72925000D02*
X142500000Y-72925000D01*
X145400000Y-72925000D02*
X144770000Y-72925000D01*
X145400000Y-80075000D02*
X144770000Y-80075000D01*
X145400000Y-72925000D02*
X145400000Y-80075000D01*
D13*
X180275000Y-76155000D02*
X182560000Y-76155000D01*
X180275000Y-74685000D02*
X180275000Y-76155000D01*
X182560000Y-74685000D02*
X180275000Y-74685000D01*
X157487500Y-39805000D02*
X159772500Y-39805000D01*
X157487500Y-38335000D02*
X157487500Y-39805000D01*
X159772500Y-38335000D02*
X157487500Y-38335000D01*
X163685000Y-38335000D02*
X161400000Y-38335000D01*
X163685000Y-39805000D02*
X163685000Y-38335000D01*
X161400000Y-39805000D02*
X163685000Y-39805000D01*
D12*
X149300000Y-66100000D02*
X158800000Y-66100000D01*
X152575000Y-74400000D02*
X158800000Y-74400000D01*
D14*
X145775000Y-44075000D02*
X222825000Y-44075000D01*
X222825000Y-64725000D02*
X145775000Y-64725000D01*
D16*
X212500000Y-89539285D02*
X212500000Y-90075000D01*
X212464285Y-90182142D01*
X212392857Y-90253571D01*
X212285714Y-90289285D01*
X212214285Y-90289285D01*
X212892857Y-90289285D02*
X213035714Y-90289285D01*
X213107142Y-90253571D01*
X213142857Y-90217857D01*
X213214285Y-90110714D01*
X213250000Y-89967857D01*
X213250000Y-89682142D01*
X213214285Y-89610714D01*
X213178571Y-89575000D01*
X213107142Y-89539285D01*
X212964285Y-89539285D01*
X212892857Y-89575000D01*
X212857142Y-89610714D01*
X212821428Y-89682142D01*
X212821428Y-89860714D01*
X212857142Y-89932142D01*
X212892857Y-89967857D01*
X212964285Y-90003571D01*
X213107142Y-90003571D01*
X213178571Y-89967857D01*
X213214285Y-89932142D01*
X213250000Y-89860714D01*
X190639285Y-40050000D02*
X191175000Y-40050000D01*
X191282142Y-40085714D01*
X191353571Y-40157142D01*
X191389285Y-40264285D01*
X191389285Y-40335714D01*
X190639285Y-39335714D02*
X190639285Y-39692857D01*
X190996428Y-39728571D01*
X190960714Y-39692857D01*
X190925000Y-39621428D01*
X190925000Y-39442857D01*
X190960714Y-39371428D01*
X190996428Y-39335714D01*
X191067857Y-39300000D01*
X191246428Y-39300000D01*
X191317857Y-39335714D01*
X191353571Y-39371428D01*
X191389285Y-39442857D01*
X191389285Y-39621428D01*
X191353571Y-39692857D01*
X191317857Y-39728571D01*
X177853571Y-40171428D02*
X177889285Y-40064285D01*
X177889285Y-39885714D01*
X177853571Y-39814285D01*
X177817857Y-39778571D01*
X177746428Y-39742857D01*
X177675000Y-39742857D01*
X177603571Y-39778571D01*
X177567857Y-39814285D01*
X177532142Y-39885714D01*
X177496428Y-40028571D01*
X177460714Y-40100000D01*
X177425000Y-40135714D01*
X177353571Y-40171428D01*
X177282142Y-40171428D01*
X177210714Y-40135714D01*
X177175000Y-40100000D01*
X177139285Y-40028571D01*
X177139285Y-39850000D01*
X177175000Y-39742857D01*
X177389285Y-39100000D02*
X177889285Y-39100000D01*
X177103571Y-39278571D02*
X177639285Y-39457142D01*
X177639285Y-38992857D01*
X213539285Y-40407142D02*
X214075000Y-40407142D01*
X214182142Y-40442857D01*
X214253571Y-40514285D01*
X214289285Y-40621428D01*
X214289285Y-40692857D01*
X214289285Y-39657142D02*
X214289285Y-40085714D01*
X214289285Y-39871428D02*
X213539285Y-39871428D01*
X213646428Y-39942857D01*
X213717857Y-40014285D01*
X213753571Y-40085714D01*
X213610714Y-39371428D02*
X213575000Y-39335714D01*
X213539285Y-39264285D01*
X213539285Y-39085714D01*
X213575000Y-39014285D01*
X213610714Y-38978571D01*
X213682142Y-38942857D01*
X213753571Y-38942857D01*
X213860714Y-38978571D01*
X214289285Y-39407142D01*
X214289285Y-38942857D01*
X221700000Y-86739285D02*
X221700000Y-87275000D01*
X221664285Y-87382142D01*
X221592857Y-87453571D01*
X221485714Y-87489285D01*
X221414285Y-87489285D01*
X222164285Y-87060714D02*
X222092857Y-87025000D01*
X222057142Y-86989285D01*
X222021428Y-86917857D01*
X222021428Y-86882142D01*
X222057142Y-86810714D01*
X222092857Y-86775000D01*
X222164285Y-86739285D01*
X222307142Y-86739285D01*
X222378571Y-86775000D01*
X222414285Y-86810714D01*
X222450000Y-86882142D01*
X222450000Y-86917857D01*
X222414285Y-86989285D01*
X222378571Y-87025000D01*
X222307142Y-87060714D01*
X222164285Y-87060714D01*
X222092857Y-87096428D01*
X222057142Y-87132142D01*
X222021428Y-87203571D01*
X222021428Y-87346428D01*
X222057142Y-87417857D01*
X222092857Y-87453571D01*
X222164285Y-87489285D01*
X222307142Y-87489285D01*
X222378571Y-87453571D01*
X222414285Y-87417857D01*
X222450000Y-87346428D01*
X222450000Y-87203571D01*
X222414285Y-87132142D01*
X222378571Y-87096428D01*
X222307142Y-87060714D01*
X185550000Y-69789285D02*
X185550000Y-70325000D01*
X185514285Y-70432142D01*
X185442857Y-70503571D01*
X185335714Y-70539285D01*
X185264285Y-70539285D01*
X185835714Y-69789285D02*
X186335714Y-69789285D01*
X186014285Y-70539285D01*
X165189285Y-40800000D02*
X165725000Y-40800000D01*
X165832142Y-40835714D01*
X165903571Y-40907142D01*
X165939285Y-41014285D01*
X165939285Y-41085714D01*
X165439285Y-40121428D02*
X165939285Y-40121428D01*
X165153571Y-40300000D02*
X165689285Y-40478571D01*
X165689285Y-40014285D01*
X156239285Y-42950000D02*
X156775000Y-42950000D01*
X156882142Y-42985714D01*
X156953571Y-43057142D01*
X156989285Y-43164285D01*
X156989285Y-43235714D01*
X156239285Y-42664285D02*
X156239285Y-42200000D01*
X156525000Y-42450000D01*
X156525000Y-42342857D01*
X156560714Y-42271428D01*
X156596428Y-42235714D01*
X156667857Y-42200000D01*
X156846428Y-42200000D01*
X156917857Y-42235714D01*
X156953571Y-42271428D01*
X156989285Y-42342857D01*
X156989285Y-42557142D01*
X156953571Y-42628571D01*
X156917857Y-42664285D01*
X141380000Y-80539285D02*
X141380000Y-81075000D01*
X141344285Y-81182142D01*
X141272857Y-81253571D01*
X141165714Y-81289285D01*
X141094285Y-81289285D01*
X141701428Y-80610714D02*
X141737142Y-80575000D01*
X141808571Y-80539285D01*
X141987142Y-80539285D01*
X142058571Y-80575000D01*
X142094285Y-80610714D01*
X142130000Y-80682142D01*
X142130000Y-80753571D01*
X142094285Y-80860714D01*
X141665714Y-81289285D01*
X142130000Y-81289285D01*
%LPC*%
D17*
X216916000Y-69114000D03*
X216916000Y-71614000D03*
X216916000Y-74114000D03*
X216916000Y-76614000D03*
X216916000Y-79114000D03*
X216916000Y-81614000D03*
X216916000Y-84114000D03*
D18*
X216916000Y-86614000D03*
D19*
X193300000Y-39790000D03*
X195840000Y-39790000D03*
X198380000Y-39790000D03*
X200920000Y-39790000D03*
X203460000Y-39790000D03*
X206000000Y-39790000D03*
X208540000Y-39790000D03*
D20*
X211080000Y-39790000D03*
D21*
X185860000Y-39540000D03*
X180780000Y-39540000D03*
D22*
X183320000Y-39540000D03*
D23*
X169760000Y-95085000D03*
D24*
X168235000Y-93610000D03*
D23*
X169760000Y-92135000D03*
D19*
X216140000Y-92450000D03*
D20*
X213600000Y-92450000D03*
D19*
X216250000Y-39790000D03*
D20*
X218790000Y-39790000D03*
D25*
X207481891Y-87818109D03*
X206050000Y-87225000D03*
X204618109Y-87818109D03*
X204025000Y-89250000D03*
X204618109Y-90681891D03*
X206050000Y-91275000D03*
X207481891Y-90681891D03*
X208075000Y-89250000D03*
D26*
X206050000Y-89250000D03*
D25*
X163981891Y-43318109D03*
X162550000Y-42725000D03*
X161118109Y-43318109D03*
X160525000Y-44750000D03*
X161118109Y-46181891D03*
X162550000Y-46775000D03*
X163981891Y-46181891D03*
X164575000Y-44750000D03*
D26*
X162550000Y-44750000D03*
D25*
X225531891Y-65568109D03*
X224100000Y-64975000D03*
X222668109Y-65568109D03*
X222075000Y-67000000D03*
X222668109Y-68431891D03*
X224100000Y-69025000D03*
X225531891Y-68431891D03*
X226125000Y-67000000D03*
D26*
X224100000Y-67000000D03*
D25*
X145931891Y-65568109D03*
X144500000Y-64975000D03*
X143068109Y-65568109D03*
X142475000Y-67000000D03*
X143068109Y-68431891D03*
X144500000Y-69025000D03*
X145931891Y-68431891D03*
X146525000Y-67000000D03*
D26*
X144500000Y-67000000D03*
D27*
X149750000Y-79650000D03*
X149750000Y-81650000D03*
X149750000Y-83650000D03*
X149750000Y-85650000D03*
X149750000Y-87650000D03*
X149750000Y-89650000D03*
X149750000Y-91650000D03*
X149750000Y-93650000D03*
X165750000Y-93650000D03*
X165750000Y-91650000D03*
X165750000Y-89650000D03*
X165750000Y-87650000D03*
X165750000Y-85650000D03*
X165750000Y-83650000D03*
X165750000Y-81650000D03*
X165750000Y-79650000D03*
D28*
X162800000Y-71850000D03*
X171350000Y-71850000D03*
X171350000Y-67350000D03*
X162800000Y-67350000D03*
D29*
X181610000Y-79045000D03*
X181610000Y-80315000D03*
X181610000Y-81585000D03*
X181610000Y-82855000D03*
X181610000Y-84125000D03*
X181610000Y-85395000D03*
X173990000Y-85395000D03*
X173990000Y-84125000D03*
X173990000Y-82855000D03*
X173990000Y-81585000D03*
X173990000Y-80315000D03*
X173990000Y-79045000D03*
D28*
X175150000Y-71850000D03*
X183700000Y-71850000D03*
X183700000Y-67350000D03*
X175150000Y-67350000D03*
D17*
X226050000Y-73750000D03*
X226050000Y-76250000D03*
X226050000Y-78750000D03*
X226050000Y-81250000D03*
D18*
X226050000Y-83750000D03*
D19*
X200800000Y-68150000D03*
X198260000Y-68150000D03*
X195720000Y-68150000D03*
X193180000Y-68150000D03*
X190640000Y-68150000D03*
D20*
X188100000Y-68150000D03*
D19*
X167960000Y-40600000D03*
D20*
X170500000Y-40600000D03*
D17*
X150830000Y-40650000D03*
D18*
X153330000Y-40650000D03*
D30*
X143730000Y-80075000D03*
X143730000Y-72925000D03*
D31*
X143950000Y-77800000D03*
X142950000Y-77150000D03*
X143950000Y-76500000D03*
X142950000Y-75850000D03*
X143950000Y-75200000D03*
D15*
G36*
X182787691Y-74946053D02*
G01*
X182808926Y-74949203D01*
X182829750Y-74954419D01*
X182849962Y-74961651D01*
X182869368Y-74970830D01*
X182887781Y-74981866D01*
X182905024Y-74994654D01*
X182920930Y-75009070D01*
X182935346Y-75024976D01*
X182948134Y-75042219D01*
X182959170Y-75060632D01*
X182968349Y-75080038D01*
X182975581Y-75100250D01*
X182980797Y-75121074D01*
X182983947Y-75142309D01*
X182985000Y-75163750D01*
X182985000Y-75676250D01*
X182983947Y-75697691D01*
X182980797Y-75718926D01*
X182975581Y-75739750D01*
X182968349Y-75759962D01*
X182959170Y-75779368D01*
X182948134Y-75797781D01*
X182935346Y-75815024D01*
X182920930Y-75830930D01*
X182905024Y-75845346D01*
X182887781Y-75858134D01*
X182869368Y-75869170D01*
X182849962Y-75878349D01*
X182829750Y-75885581D01*
X182808926Y-75890797D01*
X182787691Y-75893947D01*
X182766250Y-75895000D01*
X182328750Y-75895000D01*
X182307309Y-75893947D01*
X182286074Y-75890797D01*
X182265250Y-75885581D01*
X182245038Y-75878349D01*
X182225632Y-75869170D01*
X182207219Y-75858134D01*
X182189976Y-75845346D01*
X182174070Y-75830930D01*
X182159654Y-75815024D01*
X182146866Y-75797781D01*
X182135830Y-75779368D01*
X182126651Y-75759962D01*
X182119419Y-75739750D01*
X182114203Y-75718926D01*
X182111053Y-75697691D01*
X182110000Y-75676250D01*
X182110000Y-75163750D01*
X182111053Y-75142309D01*
X182114203Y-75121074D01*
X182119419Y-75100250D01*
X182126651Y-75080038D01*
X182135830Y-75060632D01*
X182146866Y-75042219D01*
X182159654Y-75024976D01*
X182174070Y-75009070D01*
X182189976Y-74994654D01*
X182207219Y-74981866D01*
X182225632Y-74970830D01*
X182245038Y-74961651D01*
X182265250Y-74954419D01*
X182286074Y-74949203D01*
X182307309Y-74946053D01*
X182328750Y-74945000D01*
X182766250Y-74945000D01*
X182787691Y-74946053D01*
G37*
G36*
X181212691Y-74946053D02*
G01*
X181233926Y-74949203D01*
X181254750Y-74954419D01*
X181274962Y-74961651D01*
X181294368Y-74970830D01*
X181312781Y-74981866D01*
X181330024Y-74994654D01*
X181345930Y-75009070D01*
X181360346Y-75024976D01*
X181373134Y-75042219D01*
X181384170Y-75060632D01*
X181393349Y-75080038D01*
X181400581Y-75100250D01*
X181405797Y-75121074D01*
X181408947Y-75142309D01*
X181410000Y-75163750D01*
X181410000Y-75676250D01*
X181408947Y-75697691D01*
X181405797Y-75718926D01*
X181400581Y-75739750D01*
X181393349Y-75759962D01*
X181384170Y-75779368D01*
X181373134Y-75797781D01*
X181360346Y-75815024D01*
X181345930Y-75830930D01*
X181330024Y-75845346D01*
X181312781Y-75858134D01*
X181294368Y-75869170D01*
X181274962Y-75878349D01*
X181254750Y-75885581D01*
X181233926Y-75890797D01*
X181212691Y-75893947D01*
X181191250Y-75895000D01*
X180753750Y-75895000D01*
X180732309Y-75893947D01*
X180711074Y-75890797D01*
X180690250Y-75885581D01*
X180670038Y-75878349D01*
X180650632Y-75869170D01*
X180632219Y-75858134D01*
X180614976Y-75845346D01*
X180599070Y-75830930D01*
X180584654Y-75815024D01*
X180571866Y-75797781D01*
X180560830Y-75779368D01*
X180551651Y-75759962D01*
X180544419Y-75739750D01*
X180539203Y-75718926D01*
X180536053Y-75697691D01*
X180535000Y-75676250D01*
X180535000Y-75163750D01*
X180536053Y-75142309D01*
X180539203Y-75121074D01*
X180544419Y-75100250D01*
X180551651Y-75080038D01*
X180560830Y-75060632D01*
X180571866Y-75042219D01*
X180584654Y-75024976D01*
X180599070Y-75009070D01*
X180614976Y-74994654D01*
X180632219Y-74981866D01*
X180650632Y-74970830D01*
X180670038Y-74961651D01*
X180690250Y-74954419D01*
X180711074Y-74949203D01*
X180732309Y-74946053D01*
X180753750Y-74945000D01*
X181191250Y-74945000D01*
X181212691Y-74946053D01*
G37*
G36*
X160000191Y-38596053D02*
G01*
X160021426Y-38599203D01*
X160042250Y-38604419D01*
X160062462Y-38611651D01*
X160081868Y-38620830D01*
X160100281Y-38631866D01*
X160117524Y-38644654D01*
X160133430Y-38659070D01*
X160147846Y-38674976D01*
X160160634Y-38692219D01*
X160171670Y-38710632D01*
X160180849Y-38730038D01*
X160188081Y-38750250D01*
X160193297Y-38771074D01*
X160196447Y-38792309D01*
X160197500Y-38813750D01*
X160197500Y-39326250D01*
X160196447Y-39347691D01*
X160193297Y-39368926D01*
X160188081Y-39389750D01*
X160180849Y-39409962D01*
X160171670Y-39429368D01*
X160160634Y-39447781D01*
X160147846Y-39465024D01*
X160133430Y-39480930D01*
X160117524Y-39495346D01*
X160100281Y-39508134D01*
X160081868Y-39519170D01*
X160062462Y-39528349D01*
X160042250Y-39535581D01*
X160021426Y-39540797D01*
X160000191Y-39543947D01*
X159978750Y-39545000D01*
X159541250Y-39545000D01*
X159519809Y-39543947D01*
X159498574Y-39540797D01*
X159477750Y-39535581D01*
X159457538Y-39528349D01*
X159438132Y-39519170D01*
X159419719Y-39508134D01*
X159402476Y-39495346D01*
X159386570Y-39480930D01*
X159372154Y-39465024D01*
X159359366Y-39447781D01*
X159348330Y-39429368D01*
X159339151Y-39409962D01*
X159331919Y-39389750D01*
X159326703Y-39368926D01*
X159323553Y-39347691D01*
X159322500Y-39326250D01*
X159322500Y-38813750D01*
X159323553Y-38792309D01*
X159326703Y-38771074D01*
X159331919Y-38750250D01*
X159339151Y-38730038D01*
X159348330Y-38710632D01*
X159359366Y-38692219D01*
X159372154Y-38674976D01*
X159386570Y-38659070D01*
X159402476Y-38644654D01*
X159419719Y-38631866D01*
X159438132Y-38620830D01*
X159457538Y-38611651D01*
X159477750Y-38604419D01*
X159498574Y-38599203D01*
X159519809Y-38596053D01*
X159541250Y-38595000D01*
X159978750Y-38595000D01*
X160000191Y-38596053D01*
G37*
G36*
X158425191Y-38596053D02*
G01*
X158446426Y-38599203D01*
X158467250Y-38604419D01*
X158487462Y-38611651D01*
X158506868Y-38620830D01*
X158525281Y-38631866D01*
X158542524Y-38644654D01*
X158558430Y-38659070D01*
X158572846Y-38674976D01*
X158585634Y-38692219D01*
X158596670Y-38710632D01*
X158605849Y-38730038D01*
X158613081Y-38750250D01*
X158618297Y-38771074D01*
X158621447Y-38792309D01*
X158622500Y-38813750D01*
X158622500Y-39326250D01*
X158621447Y-39347691D01*
X158618297Y-39368926D01*
X158613081Y-39389750D01*
X158605849Y-39409962D01*
X158596670Y-39429368D01*
X158585634Y-39447781D01*
X158572846Y-39465024D01*
X158558430Y-39480930D01*
X158542524Y-39495346D01*
X158525281Y-39508134D01*
X158506868Y-39519170D01*
X158487462Y-39528349D01*
X158467250Y-39535581D01*
X158446426Y-39540797D01*
X158425191Y-39543947D01*
X158403750Y-39545000D01*
X157966250Y-39545000D01*
X157944809Y-39543947D01*
X157923574Y-39540797D01*
X157902750Y-39535581D01*
X157882538Y-39528349D01*
X157863132Y-39519170D01*
X157844719Y-39508134D01*
X157827476Y-39495346D01*
X157811570Y-39480930D01*
X157797154Y-39465024D01*
X157784366Y-39447781D01*
X157773330Y-39429368D01*
X157764151Y-39409962D01*
X157756919Y-39389750D01*
X157751703Y-39368926D01*
X157748553Y-39347691D01*
X157747500Y-39326250D01*
X157747500Y-38813750D01*
X157748553Y-38792309D01*
X157751703Y-38771074D01*
X157756919Y-38750250D01*
X157764151Y-38730038D01*
X157773330Y-38710632D01*
X157784366Y-38692219D01*
X157797154Y-38674976D01*
X157811570Y-38659070D01*
X157827476Y-38644654D01*
X157844719Y-38631866D01*
X157863132Y-38620830D01*
X157882538Y-38611651D01*
X157902750Y-38604419D01*
X157923574Y-38599203D01*
X157944809Y-38596053D01*
X157966250Y-38595000D01*
X158403750Y-38595000D01*
X158425191Y-38596053D01*
G37*
G36*
X161652691Y-38596053D02*
G01*
X161673926Y-38599203D01*
X161694750Y-38604419D01*
X161714962Y-38611651D01*
X161734368Y-38620830D01*
X161752781Y-38631866D01*
X161770024Y-38644654D01*
X161785930Y-38659070D01*
X161800346Y-38674976D01*
X161813134Y-38692219D01*
X161824170Y-38710632D01*
X161833349Y-38730038D01*
X161840581Y-38750250D01*
X161845797Y-38771074D01*
X161848947Y-38792309D01*
X161850000Y-38813750D01*
X161850000Y-39326250D01*
X161848947Y-39347691D01*
X161845797Y-39368926D01*
X161840581Y-39389750D01*
X161833349Y-39409962D01*
X161824170Y-39429368D01*
X161813134Y-39447781D01*
X161800346Y-39465024D01*
X161785930Y-39480930D01*
X161770024Y-39495346D01*
X161752781Y-39508134D01*
X161734368Y-39519170D01*
X161714962Y-39528349D01*
X161694750Y-39535581D01*
X161673926Y-39540797D01*
X161652691Y-39543947D01*
X161631250Y-39545000D01*
X161193750Y-39545000D01*
X161172309Y-39543947D01*
X161151074Y-39540797D01*
X161130250Y-39535581D01*
X161110038Y-39528349D01*
X161090632Y-39519170D01*
X161072219Y-39508134D01*
X161054976Y-39495346D01*
X161039070Y-39480930D01*
X161024654Y-39465024D01*
X161011866Y-39447781D01*
X161000830Y-39429368D01*
X160991651Y-39409962D01*
X160984419Y-39389750D01*
X160979203Y-39368926D01*
X160976053Y-39347691D01*
X160975000Y-39326250D01*
X160975000Y-38813750D01*
X160976053Y-38792309D01*
X160979203Y-38771074D01*
X160984419Y-38750250D01*
X160991651Y-38730038D01*
X161000830Y-38710632D01*
X161011866Y-38692219D01*
X161024654Y-38674976D01*
X161039070Y-38659070D01*
X161054976Y-38644654D01*
X161072219Y-38631866D01*
X161090632Y-38620830D01*
X161110038Y-38611651D01*
X161130250Y-38604419D01*
X161151074Y-38599203D01*
X161172309Y-38596053D01*
X161193750Y-38595000D01*
X161631250Y-38595000D01*
X161652691Y-38596053D01*
G37*
G36*
X163227691Y-38596053D02*
G01*
X163248926Y-38599203D01*
X163269750Y-38604419D01*
X163289962Y-38611651D01*
X163309368Y-38620830D01*
X163327781Y-38631866D01*
X163345024Y-38644654D01*
X163360930Y-38659070D01*
X163375346Y-38674976D01*
X163388134Y-38692219D01*
X163399170Y-38710632D01*
X163408349Y-38730038D01*
X163415581Y-38750250D01*
X163420797Y-38771074D01*
X163423947Y-38792309D01*
X163425000Y-38813750D01*
X163425000Y-39326250D01*
X163423947Y-39347691D01*
X163420797Y-39368926D01*
X163415581Y-39389750D01*
X163408349Y-39409962D01*
X163399170Y-39429368D01*
X163388134Y-39447781D01*
X163375346Y-39465024D01*
X163360930Y-39480930D01*
X163345024Y-39495346D01*
X163327781Y-39508134D01*
X163309368Y-39519170D01*
X163289962Y-39528349D01*
X163269750Y-39535581D01*
X163248926Y-39540797D01*
X163227691Y-39543947D01*
X163206250Y-39545000D01*
X162768750Y-39545000D01*
X162747309Y-39543947D01*
X162726074Y-39540797D01*
X162705250Y-39535581D01*
X162685038Y-39528349D01*
X162665632Y-39519170D01*
X162647219Y-39508134D01*
X162629976Y-39495346D01*
X162614070Y-39480930D01*
X162599654Y-39465024D01*
X162586866Y-39447781D01*
X162575830Y-39429368D01*
X162566651Y-39409962D01*
X162559419Y-39389750D01*
X162554203Y-39368926D01*
X162551053Y-39347691D01*
X162550000Y-39326250D01*
X162550000Y-38813750D01*
X162551053Y-38792309D01*
X162554203Y-38771074D01*
X162559419Y-38750250D01*
X162566651Y-38730038D01*
X162575830Y-38710632D01*
X162586866Y-38692219D01*
X162599654Y-38674976D01*
X162614070Y-38659070D01*
X162629976Y-38644654D01*
X162647219Y-38631866D01*
X162665632Y-38620830D01*
X162685038Y-38611651D01*
X162705250Y-38604419D01*
X162726074Y-38599203D01*
X162747309Y-38596053D01*
X162768750Y-38595000D01*
X163206250Y-38595000D01*
X163227691Y-38596053D01*
G37*
D32*
X158000000Y-70250000D03*
X151300000Y-70250000D03*
D33*
X223630000Y-54400000D03*
X144970000Y-54400000D03*
D34*
X148370000Y-46400000D03*
M02*
