G04 #@! TF.GenerationSoftware,KiCad,Pcbnew,5.1.9-73d0e3b20d~88~ubuntu18.04.1*
G04 #@! TF.CreationDate,2021-04-09T21:08:54+02:00*
G04 #@! TF.ProjectId,EcoApi_pcb,45636f41-7069-45f7-9063-622e6b696361,rev?*
G04 #@! TF.SameCoordinates,Original*
G04 #@! TF.FileFunction,Paste,Bot*
G04 #@! TF.FilePolarity,Positive*
%FSLAX46Y46*%
G04 Gerber Fmt 4.6, Leading zero omitted, Abs format (unit mm)*
G04 Created by KiCad (PCBNEW 5.1.9-73d0e3b20d~88~ubuntu18.04.1) date 2021-04-09 21:08:54*
%MOMM*%
%LPD*%
G01*
G04 APERTURE LIST*
%ADD10R,2.150000X4.000000*%
%ADD11R,2.500000X1.200000*%
%ADD12R,1.050000X2.200000*%
%ADD13R,1.000000X1.050000*%
G04 APERTURE END LIST*
D10*
G04 #@! TO.C,C3*
X74540000Y-87810000D03*
X74540000Y-94510000D03*
G04 #@! TD*
G04 #@! TO.C,C2*
G36*
G01*
X105180000Y-90800000D02*
X105680000Y-90800000D01*
G75*
G02*
X105905000Y-91025000I0J-225000D01*
G01*
X105905000Y-91475000D01*
G75*
G02*
X105680000Y-91700000I-225000J0D01*
G01*
X105180000Y-91700000D01*
G75*
G02*
X104955000Y-91475000I0J225000D01*
G01*
X104955000Y-91025000D01*
G75*
G02*
X105180000Y-90800000I225000J0D01*
G01*
G37*
G36*
G01*
X105180000Y-89250000D02*
X105680000Y-89250000D01*
G75*
G02*
X105905000Y-89475000I0J-225000D01*
G01*
X105905000Y-89925000D01*
G75*
G02*
X105680000Y-90150000I-225000J0D01*
G01*
X105180000Y-90150000D01*
G75*
G02*
X104955000Y-89925000I0J225000D01*
G01*
X104955000Y-89475000D01*
G75*
G02*
X105180000Y-89250000I225000J0D01*
G01*
G37*
G04 #@! TD*
G04 #@! TO.C,C1*
G36*
G01*
X102120000Y-90810000D02*
X102620000Y-90810000D01*
G75*
G02*
X102845000Y-91035000I0J-225000D01*
G01*
X102845000Y-91485000D01*
G75*
G02*
X102620000Y-91710000I-225000J0D01*
G01*
X102120000Y-91710000D01*
G75*
G02*
X101895000Y-91485000I0J225000D01*
G01*
X101895000Y-91035000D01*
G75*
G02*
X102120000Y-90810000I225000J0D01*
G01*
G37*
G36*
G01*
X102120000Y-89260000D02*
X102620000Y-89260000D01*
G75*
G02*
X102845000Y-89485000I0J-225000D01*
G01*
X102845000Y-89935000D01*
G75*
G02*
X102620000Y-90160000I-225000J0D01*
G01*
X102120000Y-90160000D01*
G75*
G02*
X101895000Y-89935000I0J225000D01*
G01*
X101895000Y-89485000D01*
G75*
G02*
X102120000Y-89260000I225000J0D01*
G01*
G37*
G04 #@! TD*
G04 #@! TO.C,R13*
G36*
G01*
X86675000Y-123250000D02*
X86125000Y-123250000D01*
G75*
G02*
X85925000Y-123050000I0J200000D01*
G01*
X85925000Y-122650000D01*
G75*
G02*
X86125000Y-122450000I200000J0D01*
G01*
X86675000Y-122450000D01*
G75*
G02*
X86875000Y-122650000I0J-200000D01*
G01*
X86875000Y-123050000D01*
G75*
G02*
X86675000Y-123250000I-200000J0D01*
G01*
G37*
G36*
G01*
X86675000Y-124900000D02*
X86125000Y-124900000D01*
G75*
G02*
X85925000Y-124700000I0J200000D01*
G01*
X85925000Y-124300000D01*
G75*
G02*
X86125000Y-124100000I200000J0D01*
G01*
X86675000Y-124100000D01*
G75*
G02*
X86875000Y-124300000I0J-200000D01*
G01*
X86875000Y-124700000D01*
G75*
G02*
X86675000Y-124900000I-200000J0D01*
G01*
G37*
G04 #@! TD*
D11*
G04 #@! TO.C,U2*
X82500000Y-95700000D03*
X82500000Y-93700000D03*
X82500000Y-91700000D03*
X82500000Y-89700000D03*
X82500000Y-87700000D03*
X82500000Y-85700000D03*
X82500000Y-83700000D03*
X82500000Y-81700000D03*
X98500000Y-81700000D03*
X98500000Y-83700000D03*
X98500000Y-85700000D03*
X98500000Y-87700000D03*
X98500000Y-89700000D03*
X98500000Y-91700000D03*
X98500000Y-93700000D03*
X98500000Y-95700000D03*
G04 #@! TD*
G04 #@! TO.C,R7*
G36*
G01*
X142125000Y-119500000D02*
X142675000Y-119500000D01*
G75*
G02*
X142875000Y-119700000I0J-200000D01*
G01*
X142875000Y-120100000D01*
G75*
G02*
X142675000Y-120300000I-200000J0D01*
G01*
X142125000Y-120300000D01*
G75*
G02*
X141925000Y-120100000I0J200000D01*
G01*
X141925000Y-119700000D01*
G75*
G02*
X142125000Y-119500000I200000J0D01*
G01*
G37*
G36*
G01*
X142125000Y-117850000D02*
X142675000Y-117850000D01*
G75*
G02*
X142875000Y-118050000I0J-200000D01*
G01*
X142875000Y-118450000D01*
G75*
G02*
X142675000Y-118650000I-200000J0D01*
G01*
X142125000Y-118650000D01*
G75*
G02*
X141925000Y-118450000I0J200000D01*
G01*
X141925000Y-118050000D01*
G75*
G02*
X142125000Y-117850000I200000J0D01*
G01*
G37*
G04 #@! TD*
G04 #@! TO.C,R6*
G36*
G01*
X139625000Y-119500000D02*
X140175000Y-119500000D01*
G75*
G02*
X140375000Y-119700000I0J-200000D01*
G01*
X140375000Y-120100000D01*
G75*
G02*
X140175000Y-120300000I-200000J0D01*
G01*
X139625000Y-120300000D01*
G75*
G02*
X139425000Y-120100000I0J200000D01*
G01*
X139425000Y-119700000D01*
G75*
G02*
X139625000Y-119500000I200000J0D01*
G01*
G37*
G36*
G01*
X139625000Y-117850000D02*
X140175000Y-117850000D01*
G75*
G02*
X140375000Y-118050000I0J-200000D01*
G01*
X140375000Y-118450000D01*
G75*
G02*
X140175000Y-118650000I-200000J0D01*
G01*
X139625000Y-118650000D01*
G75*
G02*
X139425000Y-118450000I0J200000D01*
G01*
X139425000Y-118050000D01*
G75*
G02*
X139625000Y-117850000I200000J0D01*
G01*
G37*
G04 #@! TD*
G04 #@! TO.C,R5*
G36*
G01*
X87050000Y-105425000D02*
X87050000Y-105975000D01*
G75*
G02*
X86850000Y-106175000I-200000J0D01*
G01*
X86450000Y-106175000D01*
G75*
G02*
X86250000Y-105975000I0J200000D01*
G01*
X86250000Y-105425000D01*
G75*
G02*
X86450000Y-105225000I200000J0D01*
G01*
X86850000Y-105225000D01*
G75*
G02*
X87050000Y-105425000I0J-200000D01*
G01*
G37*
G36*
G01*
X88700000Y-105425000D02*
X88700000Y-105975000D01*
G75*
G02*
X88500000Y-106175000I-200000J0D01*
G01*
X88100000Y-106175000D01*
G75*
G02*
X87900000Y-105975000I0J200000D01*
G01*
X87900000Y-105425000D01*
G75*
G02*
X88100000Y-105225000I200000J0D01*
G01*
X88500000Y-105225000D01*
G75*
G02*
X88700000Y-105425000I0J-200000D01*
G01*
G37*
G04 #@! TD*
G04 #@! TO.C,R4*
G36*
G01*
X139175000Y-80050000D02*
X138625000Y-80050000D01*
G75*
G02*
X138425000Y-79850000I0J200000D01*
G01*
X138425000Y-79450000D01*
G75*
G02*
X138625000Y-79250000I200000J0D01*
G01*
X139175000Y-79250000D01*
G75*
G02*
X139375000Y-79450000I0J-200000D01*
G01*
X139375000Y-79850000D01*
G75*
G02*
X139175000Y-80050000I-200000J0D01*
G01*
G37*
G36*
G01*
X139175000Y-81700000D02*
X138625000Y-81700000D01*
G75*
G02*
X138425000Y-81500000I0J200000D01*
G01*
X138425000Y-81100000D01*
G75*
G02*
X138625000Y-80900000I200000J0D01*
G01*
X139175000Y-80900000D01*
G75*
G02*
X139375000Y-81100000I0J-200000D01*
G01*
X139375000Y-81500000D01*
G75*
G02*
X139175000Y-81700000I-200000J0D01*
G01*
G37*
G04 #@! TD*
G04 #@! TO.C,R3*
G36*
G01*
X141575000Y-80050000D02*
X141025000Y-80050000D01*
G75*
G02*
X140825000Y-79850000I0J200000D01*
G01*
X140825000Y-79450000D01*
G75*
G02*
X141025000Y-79250000I200000J0D01*
G01*
X141575000Y-79250000D01*
G75*
G02*
X141775000Y-79450000I0J-200000D01*
G01*
X141775000Y-79850000D01*
G75*
G02*
X141575000Y-80050000I-200000J0D01*
G01*
G37*
G36*
G01*
X141575000Y-81700000D02*
X141025000Y-81700000D01*
G75*
G02*
X140825000Y-81500000I0J200000D01*
G01*
X140825000Y-81100000D01*
G75*
G02*
X141025000Y-80900000I200000J0D01*
G01*
X141575000Y-80900000D01*
G75*
G02*
X141775000Y-81100000I0J-200000D01*
G01*
X141775000Y-81500000D01*
G75*
G02*
X141575000Y-81700000I-200000J0D01*
G01*
G37*
G04 #@! TD*
D12*
G04 #@! TO.C,J0*
X97050000Y-78000000D03*
D13*
X98525000Y-79525000D03*
D12*
X100000000Y-78000000D03*
G04 #@! TD*
M02*
