G04 #@! TF.GenerationSoftware,KiCad,Pcbnew,5.1.9-73d0e3b20d~88~ubuntu18.04.1*
G04 #@! TF.CreationDate,2021-04-09T21:08:54+02:00*
G04 #@! TF.ProjectId,EcoApi_pcb,45636f41-7069-45f7-9063-622e6b696361,rev?*
G04 #@! TF.SameCoordinates,Original*
G04 #@! TF.FileFunction,Other,User*
%FSLAX46Y46*%
G04 Gerber Fmt 4.6, Leading zero omitted, Abs format (unit mm)*
G04 Created by KiCad (PCBNEW 5.1.9-73d0e3b20d~88~ubuntu18.04.1) date 2021-04-09 21:08:54*
%MOMM*%
%LPD*%
G01*
G04 APERTURE LIST*
%ADD10C,0.127000*%
%ADD11C,0.050000*%
G04 APERTURE END LIST*
D10*
G04 #@! TO.C,BT1*
X157400000Y-94500000D02*
X153000000Y-94500000D01*
X153000000Y-94500000D02*
X153000000Y-101700000D01*
X153000000Y-101700000D02*
X75200000Y-101700000D01*
X75200000Y-101700000D02*
X75200000Y-94600000D01*
X75200000Y-94600000D02*
X70800000Y-94600000D01*
X70800000Y-94600000D02*
X70800000Y-87600000D01*
X70800000Y-87600000D02*
X75300000Y-87600000D01*
X75300000Y-87600000D02*
X75300000Y-80500000D01*
X75300000Y-80500000D02*
X152900000Y-80500000D01*
X152900000Y-80500000D02*
X152900000Y-87700000D01*
X152900000Y-87700000D02*
X157400000Y-87700000D01*
X157400000Y-87700000D02*
X157400000Y-94500000D01*
D11*
G04 #@! TO.C,H4*
X157350000Y-104000000D02*
G75*
G03*
X157350000Y-104000000I-2950000J0D01*
G01*
G04 #@! TO.C,H2*
X76750000Y-104000000D02*
G75*
G03*
X76750000Y-104000000I-2950000J0D01*
G01*
G04 #@! TO.C,JP7*
X120850000Y-122700000D02*
X120850000Y-126000000D01*
X120850000Y-122700000D02*
X118350000Y-122700000D01*
X118350000Y-126000000D02*
X120850000Y-126000000D01*
X118350000Y-126000000D02*
X118350000Y-122700000D01*
G04 #@! TO.C,JP3*
X118750000Y-122700000D02*
X118750000Y-126000000D01*
X118750000Y-122700000D02*
X116250000Y-122700000D01*
X116250000Y-126000000D02*
X118750000Y-126000000D01*
X116250000Y-126000000D02*
X116250000Y-122700000D01*
G04 #@! TO.C,J16*
X75000000Y-109700000D02*
X71400000Y-109700000D01*
X75000000Y-120900000D02*
X75000000Y-109700000D01*
X71400000Y-120900000D02*
X75000000Y-120900000D01*
X71400000Y-109700000D02*
X71400000Y-120900000D01*
G04 #@! TO.C,S3*
X127250000Y-126100000D02*
X127250000Y-114950000D01*
X120750000Y-126100000D02*
X127250000Y-126100000D01*
X120750000Y-114950000D02*
X120750000Y-126100000D01*
X127250000Y-114950000D02*
X120750000Y-114950000D01*
G04 #@! TO.C,S2*
X105600000Y-126000000D02*
X105600000Y-114850000D01*
X99100000Y-126000000D02*
X105600000Y-126000000D01*
X99100000Y-114850000D02*
X99100000Y-126000000D01*
X105600000Y-114850000D02*
X99100000Y-114850000D01*
G04 #@! TO.C,S1*
X115400000Y-126100000D02*
X115400000Y-114950000D01*
X108900000Y-126100000D02*
X115400000Y-126100000D01*
X108900000Y-114950000D02*
X108900000Y-126100000D01*
X115400000Y-114950000D02*
X108900000Y-114950000D01*
G04 #@! TO.C,R15*
X120330000Y-115020000D02*
X120330000Y-117980000D01*
X118870000Y-115020000D02*
X120330000Y-115020000D01*
X118870000Y-117980000D02*
X118870000Y-115020000D01*
X120330000Y-117980000D02*
X118870000Y-117980000D01*
G04 #@! TO.C,R14*
X108530000Y-115020000D02*
X108530000Y-117980000D01*
X107070000Y-115020000D02*
X108530000Y-115020000D01*
X107070000Y-117980000D02*
X107070000Y-115020000D01*
X108530000Y-117980000D02*
X107070000Y-117980000D01*
G04 #@! TO.C,J15*
X85000000Y-120400000D02*
X81400000Y-120400000D01*
X85000000Y-126550000D02*
X85000000Y-120400000D01*
X81400000Y-126550000D02*
X85000000Y-126550000D01*
X81400000Y-120400000D02*
X81400000Y-126550000D01*
G04 #@! TO.C,J3*
X151850000Y-106750000D02*
X151850000Y-116250000D01*
X131350000Y-116250000D02*
X131350000Y-106750000D01*
X151850000Y-116250000D02*
X131350000Y-116250000D01*
X131350000Y-106750000D02*
X151850000Y-106750000D01*
G04 #@! TO.C,J6*
X146820000Y-130100000D02*
X135620000Y-130100000D01*
X146820000Y-126550000D02*
X146820000Y-130100000D01*
X135620000Y-126550000D02*
X146820000Y-126550000D01*
X135620000Y-130100000D02*
X135620000Y-126550000D01*
G04 #@! TO.C,R8*
X98730000Y-114995000D02*
X98730000Y-117955000D01*
X97270000Y-114995000D02*
X98730000Y-114995000D01*
X97270000Y-117955000D02*
X97270000Y-114995000D01*
X98730000Y-117955000D02*
X97270000Y-117955000D01*
G04 #@! TO.C,R2*
X81030000Y-123095000D02*
X81030000Y-126055000D01*
X79570000Y-123095000D02*
X81030000Y-123095000D01*
X79570000Y-126055000D02*
X79570000Y-123095000D01*
X81030000Y-126055000D02*
X79570000Y-126055000D01*
G04 #@! TO.C,R1*
X77570000Y-126055000D02*
X77570000Y-123095000D01*
X79030000Y-126055000D02*
X77570000Y-126055000D01*
X79030000Y-123095000D02*
X79030000Y-126055000D01*
X77570000Y-123095000D02*
X79030000Y-123095000D01*
G04 #@! TO.C,J14*
X154200000Y-116700000D02*
X157800000Y-116700000D01*
X154200000Y-108050000D02*
X154200000Y-116700000D01*
X157800000Y-108050000D02*
X154200000Y-108050000D01*
X157800000Y-116700000D02*
X157800000Y-108050000D01*
G04 #@! TO.C,J13*
X158400000Y-118500000D02*
X154800000Y-118500000D01*
X158400000Y-122100000D02*
X158400000Y-118500000D01*
X154800000Y-122100000D02*
X158400000Y-122100000D01*
X154800000Y-118500000D02*
X154800000Y-122100000D01*
G04 #@! TO.C,J12*
X154800000Y-118500000D02*
X151200000Y-118500000D01*
X154800000Y-122100000D02*
X154800000Y-118500000D01*
X151200000Y-122100000D02*
X154800000Y-122100000D01*
X151200000Y-118500000D02*
X151200000Y-122100000D01*
G04 #@! TO.C,J10*
X69600000Y-101300000D02*
X73200000Y-101300000D01*
X69600000Y-95150000D02*
X69600000Y-101300000D01*
X73200000Y-95150000D02*
X69600000Y-95150000D01*
X73200000Y-101300000D02*
X73200000Y-95150000D01*
G04 #@! TO.C,J5*
X93550000Y-102050000D02*
X109050000Y-102050000D01*
X109050000Y-111550000D02*
X93550000Y-111550000D01*
X93550000Y-111550000D02*
X93550000Y-102050000D01*
X109050000Y-102050000D02*
X109050000Y-111550000D01*
G04 #@! TO.C,J2*
X130450000Y-102050000D02*
X130450000Y-111550000D01*
X109950000Y-111550000D02*
X109950000Y-102050000D01*
X130450000Y-111550000D02*
X109950000Y-111550000D01*
X109950000Y-102050000D02*
X130450000Y-102050000D01*
G04 #@! TO.C,J1*
X77150000Y-102050000D02*
X92650000Y-102050000D01*
X92650000Y-111550000D02*
X77150000Y-111550000D01*
X77150000Y-111550000D02*
X77150000Y-102050000D01*
X92650000Y-102050000D02*
X92650000Y-111550000D01*
G04 #@! TD*
M02*
