G04 #@! TF.GenerationSoftware,KiCad,Pcbnew,5.1.9-73d0e3b20d~88~ubuntu18.04.1*
G04 #@! TF.CreationDate,2021-04-09T21:08:54+02:00*
G04 #@! TF.ProjectId,EcoApi_pcb,45636f41-7069-45f7-9063-622e6b696361,rev?*
G04 #@! TF.SameCoordinates,Original*
G04 #@! TF.FileFunction,Paste,Top*
G04 #@! TF.FilePolarity,Positive*
%FSLAX46Y46*%
G04 Gerber Fmt 4.6, Leading zero omitted, Abs format (unit mm)*
G04 Created by KiCad (PCBNEW 5.1.9-73d0e3b20d~88~ubuntu18.04.1) date 2021-04-09 21:08:54*
%MOMM*%
%LPD*%
G01*
G04 APERTURE LIST*
%ADD10R,7.350000X6.350000*%
%ADD11R,1.400000X2.100000*%
G04 APERTURE END LIST*
D10*
G04 #@! TO.C,BT1*
X153430000Y-91100000D03*
X74770000Y-91100000D03*
G04 #@! TD*
D11*
G04 #@! TO.C,S3*
X121750000Y-116250000D03*
X121750000Y-124800000D03*
X126250000Y-124800000D03*
X126250000Y-116250000D03*
G04 #@! TD*
G04 #@! TO.C,S2*
X100100000Y-116150000D03*
X100100000Y-124700000D03*
X104600000Y-124700000D03*
X104600000Y-116150000D03*
G04 #@! TD*
G04 #@! TO.C,S1*
X109900000Y-116250000D03*
X109900000Y-124800000D03*
X114400000Y-124800000D03*
X114400000Y-116250000D03*
G04 #@! TD*
G04 #@! TO.C,R15*
G36*
G01*
X119875000Y-116075000D02*
X119325000Y-116075000D01*
G75*
G02*
X119125000Y-115875000I0J200000D01*
G01*
X119125000Y-115475000D01*
G75*
G02*
X119325000Y-115275000I200000J0D01*
G01*
X119875000Y-115275000D01*
G75*
G02*
X120075000Y-115475000I0J-200000D01*
G01*
X120075000Y-115875000D01*
G75*
G02*
X119875000Y-116075000I-200000J0D01*
G01*
G37*
G36*
G01*
X119875000Y-117725000D02*
X119325000Y-117725000D01*
G75*
G02*
X119125000Y-117525000I0J200000D01*
G01*
X119125000Y-117125000D01*
G75*
G02*
X119325000Y-116925000I200000J0D01*
G01*
X119875000Y-116925000D01*
G75*
G02*
X120075000Y-117125000I0J-200000D01*
G01*
X120075000Y-117525000D01*
G75*
G02*
X119875000Y-117725000I-200000J0D01*
G01*
G37*
G04 #@! TD*
G04 #@! TO.C,R14*
G36*
G01*
X108075000Y-116075000D02*
X107525000Y-116075000D01*
G75*
G02*
X107325000Y-115875000I0J200000D01*
G01*
X107325000Y-115475000D01*
G75*
G02*
X107525000Y-115275000I200000J0D01*
G01*
X108075000Y-115275000D01*
G75*
G02*
X108275000Y-115475000I0J-200000D01*
G01*
X108275000Y-115875000D01*
G75*
G02*
X108075000Y-116075000I-200000J0D01*
G01*
G37*
G36*
G01*
X108075000Y-117725000D02*
X107525000Y-117725000D01*
G75*
G02*
X107325000Y-117525000I0J200000D01*
G01*
X107325000Y-117125000D01*
G75*
G02*
X107525000Y-116925000I200000J0D01*
G01*
X108075000Y-116925000D01*
G75*
G02*
X108275000Y-117125000I0J-200000D01*
G01*
X108275000Y-117525000D01*
G75*
G02*
X108075000Y-117725000I-200000J0D01*
G01*
G37*
G04 #@! TD*
G04 #@! TO.C,R8*
G36*
G01*
X98275000Y-116050000D02*
X97725000Y-116050000D01*
G75*
G02*
X97525000Y-115850000I0J200000D01*
G01*
X97525000Y-115450000D01*
G75*
G02*
X97725000Y-115250000I200000J0D01*
G01*
X98275000Y-115250000D01*
G75*
G02*
X98475000Y-115450000I0J-200000D01*
G01*
X98475000Y-115850000D01*
G75*
G02*
X98275000Y-116050000I-200000J0D01*
G01*
G37*
G36*
G01*
X98275000Y-117700000D02*
X97725000Y-117700000D01*
G75*
G02*
X97525000Y-117500000I0J200000D01*
G01*
X97525000Y-117100000D01*
G75*
G02*
X97725000Y-116900000I200000J0D01*
G01*
X98275000Y-116900000D01*
G75*
G02*
X98475000Y-117100000I0J-200000D01*
G01*
X98475000Y-117500000D01*
G75*
G02*
X98275000Y-117700000I-200000J0D01*
G01*
G37*
G04 #@! TD*
G04 #@! TO.C,R2*
G36*
G01*
X80575000Y-124150000D02*
X80025000Y-124150000D01*
G75*
G02*
X79825000Y-123950000I0J200000D01*
G01*
X79825000Y-123550000D01*
G75*
G02*
X80025000Y-123350000I200000J0D01*
G01*
X80575000Y-123350000D01*
G75*
G02*
X80775000Y-123550000I0J-200000D01*
G01*
X80775000Y-123950000D01*
G75*
G02*
X80575000Y-124150000I-200000J0D01*
G01*
G37*
G36*
G01*
X80575000Y-125800000D02*
X80025000Y-125800000D01*
G75*
G02*
X79825000Y-125600000I0J200000D01*
G01*
X79825000Y-125200000D01*
G75*
G02*
X80025000Y-125000000I200000J0D01*
G01*
X80575000Y-125000000D01*
G75*
G02*
X80775000Y-125200000I0J-200000D01*
G01*
X80775000Y-125600000D01*
G75*
G02*
X80575000Y-125800000I-200000J0D01*
G01*
G37*
G04 #@! TD*
G04 #@! TO.C,R1*
G36*
G01*
X78025000Y-125000000D02*
X78575000Y-125000000D01*
G75*
G02*
X78775000Y-125200000I0J-200000D01*
G01*
X78775000Y-125600000D01*
G75*
G02*
X78575000Y-125800000I-200000J0D01*
G01*
X78025000Y-125800000D01*
G75*
G02*
X77825000Y-125600000I0J200000D01*
G01*
X77825000Y-125200000D01*
G75*
G02*
X78025000Y-125000000I200000J0D01*
G01*
G37*
G36*
G01*
X78025000Y-123350000D02*
X78575000Y-123350000D01*
G75*
G02*
X78775000Y-123550000I0J-200000D01*
G01*
X78775000Y-123950000D01*
G75*
G02*
X78575000Y-124150000I-200000J0D01*
G01*
X78025000Y-124150000D01*
G75*
G02*
X77825000Y-123950000I0J200000D01*
G01*
X77825000Y-123550000D01*
G75*
G02*
X78025000Y-123350000I200000J0D01*
G01*
G37*
G04 #@! TD*
M02*
