M48
; DRILL file {KiCad 5.1.9-73d0e3b20d~88~ubuntu18.04.1} date Fri Apr  9 21:10:04 2021
; FORMAT={-:-/ absolute / metric / decimal}
; #@! TF.CreationDate,2021-04-09T21:10:04+02:00
; #@! TF.GenerationSoftware,Kicad,Pcbnew,5.1.9-73d0e3b20d~88~ubuntu18.04.1
; #@! TF.FileFunction,Plated,1,2,PTH
FMAT,2
METRIC
T1C0.400
T2C1.000
T3C1.300
T4C2.390
%
G90
G05
T1
X73.9Y-123.41
X75.5Y-107.9
X76.8Y-123.38
X82.03Y-110.99
X82.5Y-97.86
X82.89Y-108.64
X83.09Y-117.3
X84.63Y-110.71
X84.7Y-98.6
X85.5Y-92.78
X86.5Y-97.4
X86.85Y-87.38
X86.94Y-90.85
X87.12Y-126.23
X87.77Y-107.12
X88.1Y-102.5
X88.81Y-117.33
X89.69Y-122.0
X89.88Y-116.56
X90.5Y-103.0
X90.5Y-105.02
X92.24Y-116.37
X92.3Y-99.3
X92.77Y-124.59
X93.5Y-110.83
X94.3Y-124.7
X94.54Y-115.81
X94.67Y-126.65
X95.09Y-87.24
X95.77Y-80.16
X96.31Y-121.87
X96.35Y-116.85
X96.55Y-110.75
X96.68Y-103.92
X96.81Y-80.15
X97.2Y-129.31
X97.7Y-109.48
X99.24Y-99.53
X99.7Y-114.4
X100.1Y-121.92
X100.27Y-80.18
X100.8Y-82.32
X100.81Y-81.1
X101.35Y-80.18
X101.92Y-82.32
X101.93Y-81.1
X102.09Y-130.54
X102.77Y-109.26
X103.43Y-122.04
X107.3Y-104.6
X109.9Y-122.9
X111.4Y-116.7
X111.87Y-103.92
X112.47Y-126.49
X112.79Y-122.29
X114.2Y-110.1
X114.28Y-104.95
X115.6Y-100.11
X115.65Y-98.05
X116.95Y-102.45
X117.5Y-126.4
X118.65Y-114.66
X118.99Y-77.19
X119.69Y-106.12
X120.33Y-118.62
X121.75Y-123.2
X121.9Y-118.2
X122.23Y-83.96
X134.57Y-121.18
X137.2Y-121.4
X138.68Y-109.46
X140.12Y-78.46
X141.14Y-119.16
X143.83Y-121.43
X147.1Y-118.4
X147.56Y-123.46
X154.74Y-117.83
T2
X71.4Y-96.96
X71.4Y-99.5
X73.2Y-111.5
X73.2Y-114.04
X73.2Y-116.58
X73.2Y-119.12
X80.7Y-112.9
X80.7Y-128.14
X83.2Y-122.2
X83.2Y-124.74
X83.24Y-112.9
X83.24Y-128.14
X85.78Y-112.9
X85.78Y-128.14
X88.32Y-112.9
X88.32Y-128.14
X90.86Y-112.9
X90.86Y-128.14
X93.4Y-112.9
X93.4Y-128.14
X95.94Y-112.9
X95.94Y-128.14
X98.48Y-112.9
X98.48Y-128.14
X101.02Y-112.9
X101.02Y-128.14
X103.56Y-112.9
X103.56Y-128.14
X106.1Y-112.9
X106.1Y-128.14
X106.68Y-76.4
X108.64Y-112.9
X108.64Y-128.14
X109.22Y-76.4
X111.18Y-112.9
X111.18Y-128.14
X111.76Y-76.4
X113.72Y-112.9
X113.72Y-128.14
X114.3Y-76.4
X116.26Y-112.9
X116.26Y-128.14
X116.84Y-76.4
X118.8Y-112.9
X118.8Y-128.14
X121.34Y-112.9
X121.34Y-128.14
X122.13Y-75.99
X122.13Y-78.53
X123.88Y-112.9
X123.88Y-128.14
X124.67Y-75.99
X124.67Y-78.53
X126.42Y-112.9
X126.42Y-128.14
X127.21Y-75.99
X127.21Y-78.53
X128.96Y-112.9
X128.96Y-128.14
X133.8Y-76.4
X134.85Y-104.08
X136.34Y-76.4
X137.39Y-104.08
X137.39Y-124.4
X137.42Y-128.3
X138.88Y-76.4
X139.93Y-104.08
X139.93Y-124.4
X139.96Y-128.3
X141.42Y-76.4
X142.47Y-104.08
X142.47Y-124.4
X142.5Y-128.3
X143.96Y-76.4
X145.01Y-104.08
X145.01Y-124.4
X145.04Y-128.3
X146.5Y-76.4
X147.55Y-104.08
X153.0Y-120.3
X156.0Y-109.82
X156.0Y-112.36
X156.0Y-114.9
X156.6Y-120.3
T3
X79.9Y-107.3
X84.9Y-107.3
X89.9Y-107.3
X96.3Y-107.3
X101.3Y-107.3
X106.3Y-107.3
X112.7Y-107.3
X117.7Y-107.3
X122.7Y-107.3
X127.7Y-107.3
X134.1Y-112.0
X139.1Y-112.0
X144.1Y-112.0
X149.1Y-112.0
T4
X78.17Y-83.1
T0
M30
