%FSLAX45Y45*%
G04 Gerber Fmt 4.5, Leading zero omitted, Abs format (unit mm)*
G04 Created by KiCad (PCBNEW 5.1.9-73d0e3b20d~88~ubuntu18.04.1) date 2021-04-09 21:10:21*
%MOMM*%
%LPD*%
G01*
G04 APERTURE LIST*
%TA.AperFunction,Profile*%
%ADD10C,0.100000*%
%TD*%
%ADD11C,0.200000*%
%ADD12C,0.300000*%
G04 APERTURE END LIST*
D10*
X15010000Y-13210000D02*
G75*
G02*
X15910000Y-12310000I900000J0D01*
G01*
X15910000Y-8310000D02*
G75*
G02*
X15010000Y-7410000I0J900000D01*
G01*
X7810000Y-7410000D02*
G75*
G02*
X6910000Y-8310000I-900000J0D01*
G01*
X6910000Y-12310000D02*
G75*
G02*
X7810000Y-13210000I0J-900000D01*
G01*
X15910000Y-8310000D02*
X15910000Y-12310000D01*
X7810000Y-7410000D02*
X15010000Y-7410000D01*
X6910000Y-12310000D02*
X6910000Y-8310000D01*
X15010000Y-13210000D02*
X7810000Y-13210000D01*
D11*
X7370000Y-12321000D02*
X7410000Y-12361000D01*
X7410000Y-12321000D02*
X7370000Y-12361000D01*
X7530000Y-10770000D02*
X7570000Y-10810000D01*
X7570000Y-10770000D02*
X7530000Y-10810000D01*
X7660000Y-12318000D02*
X7700000Y-12358000D01*
X7700000Y-12318000D02*
X7660000Y-12358000D01*
X8183000Y-11079000D02*
X8223000Y-11119000D01*
X8223000Y-11079000D02*
X8183000Y-11119000D01*
X8230000Y-9766000D02*
X8270000Y-9806000D01*
X8270000Y-9766000D02*
X8230000Y-9806000D01*
X8269000Y-10844000D02*
X8309000Y-10884000D01*
X8309000Y-10844000D02*
X8269000Y-10884000D01*
X8289000Y-11710000D02*
X8329000Y-11750000D01*
X8329000Y-11710000D02*
X8289000Y-11750000D01*
X8443000Y-11051000D02*
X8483000Y-11091000D01*
X8483000Y-11051000D02*
X8443000Y-11091000D01*
X8450000Y-9840000D02*
X8490000Y-9880000D01*
X8490000Y-9840000D02*
X8450000Y-9880000D01*
X8530000Y-9258000D02*
X8570000Y-9298000D01*
X8570000Y-9258000D02*
X8530000Y-9298000D01*
X8630000Y-9720000D02*
X8670000Y-9760000D01*
X8670000Y-9720000D02*
X8630000Y-9760000D01*
X8665000Y-8718000D02*
X8705000Y-8758000D01*
X8705000Y-8718000D02*
X8665000Y-8758000D01*
X8674000Y-9065000D02*
X8714000Y-9105000D01*
X8714000Y-9065000D02*
X8674000Y-9105000D01*
X8692000Y-12603000D02*
X8732000Y-12643000D01*
X8732000Y-12603000D02*
X8692000Y-12643000D01*
X8757000Y-10692000D02*
X8797000Y-10732000D01*
X8797000Y-10692000D02*
X8757000Y-10732000D01*
X8790000Y-10230000D02*
X8830000Y-10270000D01*
X8830000Y-10230000D02*
X8790000Y-10270000D01*
X8861000Y-11713000D02*
X8901000Y-11753000D01*
X8901000Y-11713000D02*
X8861000Y-11753000D01*
X8949000Y-12180000D02*
X8989000Y-12220000D01*
X8989000Y-12180000D02*
X8949000Y-12220000D01*
X8968000Y-11636000D02*
X9008000Y-11676000D01*
X9008000Y-11636000D02*
X8968000Y-11676000D01*
X9030000Y-10280000D02*
X9070000Y-10320000D01*
X9070000Y-10280000D02*
X9030000Y-10320000D01*
X9030000Y-10482000D02*
X9070000Y-10522000D01*
X9070000Y-10482000D02*
X9030000Y-10522000D01*
X9204000Y-11617000D02*
X9244000Y-11657000D01*
X9244000Y-11617000D02*
X9204000Y-11657000D01*
X9210000Y-9910000D02*
X9250000Y-9950000D01*
X9250000Y-9910000D02*
X9210000Y-9950000D01*
X9257000Y-12439000D02*
X9297000Y-12479000D01*
X9297000Y-12439000D02*
X9257000Y-12479000D01*
X9330000Y-11063000D02*
X9370000Y-11103000D01*
X9370000Y-11063000D02*
X9330000Y-11103000D01*
X9410000Y-12450000D02*
X9450000Y-12490000D01*
X9450000Y-12450000D02*
X9410000Y-12490000D01*
X9434000Y-11561000D02*
X9474000Y-11601000D01*
X9474000Y-11561000D02*
X9434000Y-11601000D01*
X9447000Y-12645000D02*
X9487000Y-12685000D01*
X9487000Y-12645000D02*
X9447000Y-12685000D01*
X9489000Y-8704000D02*
X9529000Y-8744000D01*
X9529000Y-8704000D02*
X9489000Y-8744000D01*
X9557000Y-7996000D02*
X9597000Y-8036000D01*
X9597000Y-7996000D02*
X9557000Y-8036000D01*
X9611000Y-12167000D02*
X9651000Y-12207000D01*
X9651000Y-12167000D02*
X9611000Y-12207000D01*
X9615000Y-11665000D02*
X9655000Y-11705000D01*
X9655000Y-11665000D02*
X9615000Y-11705000D01*
X9635000Y-11055000D02*
X9675000Y-11095000D01*
X9675000Y-11055000D02*
X9635000Y-11095000D01*
X9648000Y-10372000D02*
X9688000Y-10412000D01*
X9688000Y-10372000D02*
X9648000Y-10412000D01*
X9661000Y-7995000D02*
X9701000Y-8035000D01*
X9701000Y-7995000D02*
X9661000Y-8035000D01*
X9700000Y-12911000D02*
X9740000Y-12951000D01*
X9740000Y-12911000D02*
X9700000Y-12951000D01*
X9750000Y-10928000D02*
X9790000Y-10968000D01*
X9790000Y-10928000D02*
X9750000Y-10968000D01*
X9904000Y-9933000D02*
X9944000Y-9973000D01*
X9944000Y-9933000D02*
X9904000Y-9973000D01*
X9950000Y-11420000D02*
X9990000Y-11460000D01*
X9990000Y-11420000D02*
X9950000Y-11460000D01*
X9990000Y-12172000D02*
X10030000Y-12212000D01*
X10030000Y-12172000D02*
X9990000Y-12212000D01*
X10007000Y-7998000D02*
X10047000Y-8038000D01*
X10047000Y-7998000D02*
X10007000Y-8038000D01*
X10060000Y-8212000D02*
X10100000Y-8252000D01*
X10100000Y-8212000D02*
X10060000Y-8252000D01*
X10061000Y-8090000D02*
X10101000Y-8130000D01*
X10101000Y-8090000D02*
X10061000Y-8130000D01*
X10115000Y-7998000D02*
X10155000Y-8038000D01*
X10155000Y-7998000D02*
X10115000Y-8038000D01*
X10172000Y-8212000D02*
X10212000Y-8252000D01*
X10212000Y-8212000D02*
X10172000Y-8252000D01*
X10173000Y-8090000D02*
X10213000Y-8130000D01*
X10213000Y-8090000D02*
X10173000Y-8130000D01*
X10189000Y-13034000D02*
X10229000Y-13074000D01*
X10229000Y-13034000D02*
X10189000Y-13074000D01*
X10257000Y-10906000D02*
X10297000Y-10946000D01*
X10297000Y-10906000D02*
X10257000Y-10946000D01*
X10323000Y-12184000D02*
X10363000Y-12224000D01*
X10363000Y-12184000D02*
X10323000Y-12224000D01*
X10710000Y-10440000D02*
X10750000Y-10480000D01*
X10750000Y-10440000D02*
X10710000Y-10480000D01*
X10970000Y-12270000D02*
X11010000Y-12310000D01*
X11010000Y-12270000D02*
X10970000Y-12310000D01*
X11120000Y-11650000D02*
X11160000Y-11690000D01*
X11160000Y-11650000D02*
X11120000Y-11690000D01*
X11167000Y-10372000D02*
X11207000Y-10412000D01*
X11207000Y-10372000D02*
X11167000Y-10412000D01*
X11227000Y-12629000D02*
X11267000Y-12669000D01*
X11267000Y-12629000D02*
X11227000Y-12669000D01*
X11259000Y-12209000D02*
X11299000Y-12249000D01*
X11299000Y-12209000D02*
X11259000Y-12249000D01*
X11400000Y-10990000D02*
X11440000Y-11030000D01*
X11440000Y-10990000D02*
X11400000Y-11030000D01*
X11408000Y-10475000D02*
X11448000Y-10515000D01*
X11448000Y-10475000D02*
X11408000Y-10515000D01*
X11540000Y-9991000D02*
X11580000Y-10031000D01*
X11580000Y-9991000D02*
X11540000Y-10031000D01*
X11545000Y-9785000D02*
X11585000Y-9825000D01*
X11585000Y-9785000D02*
X11545000Y-9825000D01*
X11675000Y-10225000D02*
X11715000Y-10265000D01*
X11715000Y-10225000D02*
X11675000Y-10265000D01*
X11730000Y-12620000D02*
X11770000Y-12660000D01*
X11770000Y-12620000D02*
X11730000Y-12660000D01*
X11845000Y-11446000D02*
X11885000Y-11486000D01*
X11885000Y-11446000D02*
X11845000Y-11486000D01*
X11879000Y-7699000D02*
X11919000Y-7739000D01*
X11919000Y-7699000D02*
X11879000Y-7739000D01*
X11949000Y-10592000D02*
X11989000Y-10632000D01*
X11989000Y-10592000D02*
X11949000Y-10632000D01*
X12013000Y-11842000D02*
X12053000Y-11882000D01*
X12053000Y-11842000D02*
X12013000Y-11882000D01*
X12155000Y-12300000D02*
X12195000Y-12340000D01*
X12195000Y-12300000D02*
X12155000Y-12340000D01*
X12170000Y-11800000D02*
X12210000Y-11840000D01*
X12210000Y-11800000D02*
X12170000Y-11840000D01*
X12203000Y-8376000D02*
X12243000Y-8416000D01*
X12243000Y-8376000D02*
X12203000Y-8416000D01*
X13437000Y-12098000D02*
X13477000Y-12138000D01*
X13477000Y-12098000D02*
X13437000Y-12138000D01*
X13700000Y-12120000D02*
X13740000Y-12160000D01*
X13740000Y-12120000D02*
X13700000Y-12160000D01*
X13848000Y-10926000D02*
X13888000Y-10966000D01*
X13888000Y-10926000D02*
X13848000Y-10966000D01*
X13992000Y-7826000D02*
X14032000Y-7866000D01*
X14032000Y-7826000D02*
X13992000Y-7866000D01*
X14094000Y-11896000D02*
X14134000Y-11936000D01*
X14134000Y-11896000D02*
X14094000Y-11936000D01*
X14363000Y-12123000D02*
X14403000Y-12163000D01*
X14403000Y-12123000D02*
X14363000Y-12163000D01*
X14690000Y-11820000D02*
X14730000Y-11860000D01*
X14730000Y-11820000D02*
X14690000Y-11860000D01*
X14736000Y-12326000D02*
X14776000Y-12366000D01*
X14776000Y-12326000D02*
X14736000Y-12366000D01*
X15454000Y-11763000D02*
X15494000Y-11803000D01*
X15494000Y-11763000D02*
X15454000Y-11803000D01*
X7190000Y-9696000D02*
G75*
G03*
X7190000Y-9696000I-50000J0D01*
G01*
X7190000Y-9950000D02*
G75*
G03*
X7190000Y-9950000I-50000J0D01*
G01*
X7370000Y-11150000D02*
G75*
G03*
X7370000Y-11150000I-50000J0D01*
G01*
X7370000Y-11404000D02*
G75*
G03*
X7370000Y-11404000I-50000J0D01*
G01*
X7370000Y-11658000D02*
G75*
G03*
X7370000Y-11658000I-50000J0D01*
G01*
X7370000Y-11912000D02*
G75*
G03*
X7370000Y-11912000I-50000J0D01*
G01*
X8120000Y-11290000D02*
G75*
G03*
X8120000Y-11290000I-50000J0D01*
G01*
X8120000Y-12814000D02*
G75*
G03*
X8120000Y-12814000I-50000J0D01*
G01*
X8370000Y-12220000D02*
G75*
G03*
X8370000Y-12220000I-50000J0D01*
G01*
X8370000Y-12474000D02*
G75*
G03*
X8370000Y-12474000I-50000J0D01*
G01*
X8374000Y-11290000D02*
G75*
G03*
X8374000Y-11290000I-50000J0D01*
G01*
X8374000Y-12814000D02*
G75*
G03*
X8374000Y-12814000I-50000J0D01*
G01*
X8628000Y-11290000D02*
G75*
G03*
X8628000Y-11290000I-50000J0D01*
G01*
X8628000Y-12814000D02*
G75*
G03*
X8628000Y-12814000I-50000J0D01*
G01*
X8882000Y-11290000D02*
G75*
G03*
X8882000Y-11290000I-50000J0D01*
G01*
X8882000Y-12814000D02*
G75*
G03*
X8882000Y-12814000I-50000J0D01*
G01*
X9136000Y-11290000D02*
G75*
G03*
X9136000Y-11290000I-50000J0D01*
G01*
X9136000Y-12814000D02*
G75*
G03*
X9136000Y-12814000I-50000J0D01*
G01*
X9390000Y-11290000D02*
G75*
G03*
X9390000Y-11290000I-50000J0D01*
G01*
X9390000Y-12814000D02*
G75*
G03*
X9390000Y-12814000I-50000J0D01*
G01*
X9644000Y-11290000D02*
G75*
G03*
X9644000Y-11290000I-50000J0D01*
G01*
X9644000Y-12814000D02*
G75*
G03*
X9644000Y-12814000I-50000J0D01*
G01*
X9898000Y-11290000D02*
G75*
G03*
X9898000Y-11290000I-50000J0D01*
G01*
X9898000Y-12814000D02*
G75*
G03*
X9898000Y-12814000I-50000J0D01*
G01*
X10152000Y-11290000D02*
G75*
G03*
X10152000Y-11290000I-50000J0D01*
G01*
X10152000Y-12814000D02*
G75*
G03*
X10152000Y-12814000I-50000J0D01*
G01*
X10406000Y-11290000D02*
G75*
G03*
X10406000Y-11290000I-50000J0D01*
G01*
X10406000Y-12814000D02*
G75*
G03*
X10406000Y-12814000I-50000J0D01*
G01*
X10660000Y-11290000D02*
G75*
G03*
X10660000Y-11290000I-50000J0D01*
G01*
X10660000Y-12814000D02*
G75*
G03*
X10660000Y-12814000I-50000J0D01*
G01*
X10718000Y-7640000D02*
G75*
G03*
X10718000Y-7640000I-50000J0D01*
G01*
X10914000Y-11290000D02*
G75*
G03*
X10914000Y-11290000I-50000J0D01*
G01*
X10914000Y-12814000D02*
G75*
G03*
X10914000Y-12814000I-50000J0D01*
G01*
X10972000Y-7640000D02*
G75*
G03*
X10972000Y-7640000I-50000J0D01*
G01*
X11168000Y-11290000D02*
G75*
G03*
X11168000Y-11290000I-50000J0D01*
G01*
X11168000Y-12814000D02*
G75*
G03*
X11168000Y-12814000I-50000J0D01*
G01*
X11226000Y-7640000D02*
G75*
G03*
X11226000Y-7640000I-50000J0D01*
G01*
X11422000Y-11290000D02*
G75*
G03*
X11422000Y-11290000I-50000J0D01*
G01*
X11422000Y-12814000D02*
G75*
G03*
X11422000Y-12814000I-50000J0D01*
G01*
X11480000Y-7640000D02*
G75*
G03*
X11480000Y-7640000I-50000J0D01*
G01*
X11676000Y-11290000D02*
G75*
G03*
X11676000Y-11290000I-50000J0D01*
G01*
X11676000Y-12814000D02*
G75*
G03*
X11676000Y-12814000I-50000J0D01*
G01*
X11734000Y-7640000D02*
G75*
G03*
X11734000Y-7640000I-50000J0D01*
G01*
X11930000Y-11290000D02*
G75*
G03*
X11930000Y-11290000I-50000J0D01*
G01*
X11930000Y-12814000D02*
G75*
G03*
X11930000Y-12814000I-50000J0D01*
G01*
X12184000Y-11290000D02*
G75*
G03*
X12184000Y-11290000I-50000J0D01*
G01*
X12184000Y-12814000D02*
G75*
G03*
X12184000Y-12814000I-50000J0D01*
G01*
X12263000Y-7599000D02*
G75*
G03*
X12263000Y-7599000I-50000J0D01*
G01*
X12263000Y-7853000D02*
G75*
G03*
X12263000Y-7853000I-50000J0D01*
G01*
X12438000Y-11290000D02*
G75*
G03*
X12438000Y-11290000I-50000J0D01*
G01*
X12438000Y-12814000D02*
G75*
G03*
X12438000Y-12814000I-50000J0D01*
G01*
X12517000Y-7599000D02*
G75*
G03*
X12517000Y-7599000I-50000J0D01*
G01*
X12517000Y-7853000D02*
G75*
G03*
X12517000Y-7853000I-50000J0D01*
G01*
X12692000Y-11290000D02*
G75*
G03*
X12692000Y-11290000I-50000J0D01*
G01*
X12692000Y-12814000D02*
G75*
G03*
X12692000Y-12814000I-50000J0D01*
G01*
X12771000Y-7599000D02*
G75*
G03*
X12771000Y-7599000I-50000J0D01*
G01*
X12771000Y-7853000D02*
G75*
G03*
X12771000Y-7853000I-50000J0D01*
G01*
X12946000Y-11290000D02*
G75*
G03*
X12946000Y-11290000I-50000J0D01*
G01*
X12946000Y-12814000D02*
G75*
G03*
X12946000Y-12814000I-50000J0D01*
G01*
X13430000Y-7640000D02*
G75*
G03*
X13430000Y-7640000I-50000J0D01*
G01*
X13535000Y-10408000D02*
G75*
G03*
X13535000Y-10408000I-50000J0D01*
G01*
X13684000Y-7640000D02*
G75*
G03*
X13684000Y-7640000I-50000J0D01*
G01*
X13789000Y-10408000D02*
G75*
G03*
X13789000Y-10408000I-50000J0D01*
G01*
X13789000Y-12440000D02*
G75*
G03*
X13789000Y-12440000I-50000J0D01*
G01*
X13792000Y-12830000D02*
G75*
G03*
X13792000Y-12830000I-50000J0D01*
G01*
X13938000Y-7640000D02*
G75*
G03*
X13938000Y-7640000I-50000J0D01*
G01*
X14043000Y-10408000D02*
G75*
G03*
X14043000Y-10408000I-50000J0D01*
G01*
X14043000Y-12440000D02*
G75*
G03*
X14043000Y-12440000I-50000J0D01*
G01*
X14046000Y-12830000D02*
G75*
G03*
X14046000Y-12830000I-50000J0D01*
G01*
X14192000Y-7640000D02*
G75*
G03*
X14192000Y-7640000I-50000J0D01*
G01*
X14297000Y-10408000D02*
G75*
G03*
X14297000Y-10408000I-50000J0D01*
G01*
X14297000Y-12440000D02*
G75*
G03*
X14297000Y-12440000I-50000J0D01*
G01*
X14300000Y-12830000D02*
G75*
G03*
X14300000Y-12830000I-50000J0D01*
G01*
X14446000Y-7640000D02*
G75*
G03*
X14446000Y-7640000I-50000J0D01*
G01*
X14551000Y-10408000D02*
G75*
G03*
X14551000Y-10408000I-50000J0D01*
G01*
X14551000Y-12440000D02*
G75*
G03*
X14551000Y-12440000I-50000J0D01*
G01*
X14554000Y-12830000D02*
G75*
G03*
X14554000Y-12830000I-50000J0D01*
G01*
X14700000Y-7640000D02*
G75*
G03*
X14700000Y-7640000I-50000J0D01*
G01*
X14805000Y-10408000D02*
G75*
G03*
X14805000Y-10408000I-50000J0D01*
G01*
X15350000Y-12030000D02*
G75*
G03*
X15350000Y-12030000I-50000J0D01*
G01*
X15650000Y-10982000D02*
G75*
G03*
X15650000Y-10982000I-50000J0D01*
G01*
X15650000Y-11236000D02*
G75*
G03*
X15650000Y-11236000I-50000J0D01*
G01*
X15650000Y-11490000D02*
G75*
G03*
X15650000Y-11490000I-50000J0D01*
G01*
X15710000Y-12030000D02*
G75*
G03*
X15710000Y-12030000I-50000J0D01*
G01*
X7990000Y-10665000D02*
X7990000Y-10795000D01*
X7925000Y-10730000D02*
X8055000Y-10730000D01*
X8490000Y-10665000D02*
X8490000Y-10795000D01*
X8425000Y-10730000D02*
X8555000Y-10730000D01*
X8990000Y-10665000D02*
X8990000Y-10795000D01*
X8925000Y-10730000D02*
X9055000Y-10730000D01*
X9630000Y-10665000D02*
X9630000Y-10795000D01*
X9565000Y-10730000D02*
X9695000Y-10730000D01*
X10130000Y-10665000D02*
X10130000Y-10795000D01*
X10065000Y-10730000D02*
X10195000Y-10730000D01*
X10630000Y-10665000D02*
X10630000Y-10795000D01*
X10565000Y-10730000D02*
X10695000Y-10730000D01*
X11270000Y-10665000D02*
X11270000Y-10795000D01*
X11205000Y-10730000D02*
X11335000Y-10730000D01*
X11770000Y-10665000D02*
X11770000Y-10795000D01*
X11705000Y-10730000D02*
X11835000Y-10730000D01*
X12270000Y-10665000D02*
X12270000Y-10795000D01*
X12205000Y-10730000D02*
X12335000Y-10730000D01*
X12770000Y-10665000D02*
X12770000Y-10795000D01*
X12705000Y-10730000D02*
X12835000Y-10730000D01*
X13410000Y-11135000D02*
X13410000Y-11265000D01*
X13345000Y-11200000D02*
X13475000Y-11200000D01*
X13910000Y-11135000D02*
X13910000Y-11265000D01*
X13845000Y-11200000D02*
X13975000Y-11200000D01*
X14410000Y-11135000D02*
X14410000Y-11265000D01*
X14345000Y-11200000D02*
X14475000Y-11200000D01*
X14910000Y-11135000D02*
X14910000Y-11265000D01*
X14845000Y-11200000D02*
X14975000Y-11200000D01*
X7901500Y-8394500D02*
X7901500Y-8225500D01*
X7732500Y-8225500D01*
X7732500Y-8394500D01*
X7901500Y-8394500D01*
D12*
X7191428Y-13680714D02*
X7191428Y-13380714D01*
X7262857Y-13380714D01*
X7305714Y-13395000D01*
X7334286Y-13423571D01*
X7348571Y-13452143D01*
X7362857Y-13509286D01*
X7362857Y-13552143D01*
X7348571Y-13609286D01*
X7334286Y-13637857D01*
X7305714Y-13666429D01*
X7262857Y-13680714D01*
X7191428Y-13680714D01*
X7491428Y-13680714D02*
X7491428Y-13480714D01*
X7491428Y-13537857D02*
X7505714Y-13509286D01*
X7520000Y-13495000D01*
X7548571Y-13480714D01*
X7577143Y-13480714D01*
X7677143Y-13680714D02*
X7677143Y-13480714D01*
X7677143Y-13380714D02*
X7662857Y-13395000D01*
X7677143Y-13409286D01*
X7691428Y-13395000D01*
X7677143Y-13380714D01*
X7677143Y-13409286D01*
X7862857Y-13680714D02*
X7834286Y-13666429D01*
X7820000Y-13637857D01*
X7820000Y-13380714D01*
X8020000Y-13680714D02*
X7991428Y-13666429D01*
X7977143Y-13637857D01*
X7977143Y-13380714D01*
X8362857Y-13680714D02*
X8362857Y-13380714D01*
X8462857Y-13595000D01*
X8562857Y-13380714D01*
X8562857Y-13680714D01*
X8834286Y-13680714D02*
X8834286Y-13523571D01*
X8820000Y-13495000D01*
X8791428Y-13480714D01*
X8734286Y-13480714D01*
X8705714Y-13495000D01*
X8834286Y-13666429D02*
X8805714Y-13680714D01*
X8734286Y-13680714D01*
X8705714Y-13666429D01*
X8691428Y-13637857D01*
X8691428Y-13609286D01*
X8705714Y-13580714D01*
X8734286Y-13566429D01*
X8805714Y-13566429D01*
X8834286Y-13552143D01*
X8977143Y-13480714D02*
X8977143Y-13780714D01*
X8977143Y-13495000D02*
X9005714Y-13480714D01*
X9062857Y-13480714D01*
X9091428Y-13495000D01*
X9105714Y-13509286D01*
X9120000Y-13537857D01*
X9120000Y-13623571D01*
X9105714Y-13652143D01*
X9091428Y-13666429D01*
X9062857Y-13680714D01*
X9005714Y-13680714D01*
X8977143Y-13666429D01*
X9248571Y-13652143D02*
X9262857Y-13666429D01*
X9248571Y-13680714D01*
X9234286Y-13666429D01*
X9248571Y-13652143D01*
X9248571Y-13680714D01*
X9248571Y-13495000D02*
X9262857Y-13509286D01*
X9248571Y-13523571D01*
X9234286Y-13509286D01*
X9248571Y-13495000D01*
X9248571Y-13523571D01*
X6865000Y-14155000D02*
X6905000Y-14195000D01*
X6905000Y-14155000D02*
X6865000Y-14195000D01*
X7248571Y-14010714D02*
X7277143Y-14010714D01*
X7305714Y-14025000D01*
X7320000Y-14039286D01*
X7334286Y-14067857D01*
X7348571Y-14125000D01*
X7348571Y-14196429D01*
X7334286Y-14253571D01*
X7320000Y-14282143D01*
X7305714Y-14296429D01*
X7277143Y-14310714D01*
X7248571Y-14310714D01*
X7220000Y-14296429D01*
X7205714Y-14282143D01*
X7191428Y-14253571D01*
X7177143Y-14196429D01*
X7177143Y-14125000D01*
X7191428Y-14067857D01*
X7205714Y-14039286D01*
X7220000Y-14025000D01*
X7248571Y-14010714D01*
X7477143Y-14282143D02*
X7491428Y-14296429D01*
X7477143Y-14310714D01*
X7462857Y-14296429D01*
X7477143Y-14282143D01*
X7477143Y-14310714D01*
X7748571Y-14110714D02*
X7748571Y-14310714D01*
X7677143Y-13996429D02*
X7605714Y-14210714D01*
X7791428Y-14210714D01*
X7962857Y-14010714D02*
X7991428Y-14010714D01*
X8020000Y-14025000D01*
X8034286Y-14039286D01*
X8048571Y-14067857D01*
X8062857Y-14125000D01*
X8062857Y-14196429D01*
X8048571Y-14253571D01*
X8034286Y-14282143D01*
X8020000Y-14296429D01*
X7991428Y-14310714D01*
X7962857Y-14310714D01*
X7934286Y-14296429D01*
X7920000Y-14282143D01*
X7905714Y-14253571D01*
X7891428Y-14196429D01*
X7891428Y-14125000D01*
X7905714Y-14067857D01*
X7920000Y-14039286D01*
X7934286Y-14025000D01*
X7962857Y-14010714D01*
X8191428Y-14310714D02*
X8191428Y-14110714D01*
X8191428Y-14139286D02*
X8205714Y-14125000D01*
X8234286Y-14110714D01*
X8277143Y-14110714D01*
X8305714Y-14125000D01*
X8320000Y-14153571D01*
X8320000Y-14310714D01*
X8320000Y-14153571D02*
X8334286Y-14125000D01*
X8362857Y-14110714D01*
X8405714Y-14110714D01*
X8434286Y-14125000D01*
X8448571Y-14153571D01*
X8448571Y-14310714D01*
X8591428Y-14310714D02*
X8591428Y-14110714D01*
X8591428Y-14139286D02*
X8605714Y-14125000D01*
X8634286Y-14110714D01*
X8677143Y-14110714D01*
X8705714Y-14125000D01*
X8720000Y-14153571D01*
X8720000Y-14310714D01*
X8720000Y-14153571D02*
X8734286Y-14125000D01*
X8762857Y-14110714D01*
X8805714Y-14110714D01*
X8834286Y-14125000D01*
X8848571Y-14153571D01*
X8848571Y-14310714D01*
X9434286Y-13996429D02*
X9177143Y-14382143D01*
X9820000Y-14010714D02*
X9848571Y-14010714D01*
X9877143Y-14025000D01*
X9891428Y-14039286D01*
X9905714Y-14067857D01*
X9920000Y-14125000D01*
X9920000Y-14196429D01*
X9905714Y-14253571D01*
X9891428Y-14282143D01*
X9877143Y-14296429D01*
X9848571Y-14310714D01*
X9820000Y-14310714D01*
X9791428Y-14296429D01*
X9777143Y-14282143D01*
X9762857Y-14253571D01*
X9748571Y-14196429D01*
X9748571Y-14125000D01*
X9762857Y-14067857D01*
X9777143Y-14039286D01*
X9791428Y-14025000D01*
X9820000Y-14010714D01*
X10048571Y-14282143D02*
X10062857Y-14296429D01*
X10048571Y-14310714D01*
X10034286Y-14296429D01*
X10048571Y-14282143D01*
X10048571Y-14310714D01*
X10248571Y-14010714D02*
X10277143Y-14010714D01*
X10305714Y-14025000D01*
X10320000Y-14039286D01*
X10334286Y-14067857D01*
X10348571Y-14125000D01*
X10348571Y-14196429D01*
X10334286Y-14253571D01*
X10320000Y-14282143D01*
X10305714Y-14296429D01*
X10277143Y-14310714D01*
X10248571Y-14310714D01*
X10220000Y-14296429D01*
X10205714Y-14282143D01*
X10191428Y-14253571D01*
X10177143Y-14196429D01*
X10177143Y-14125000D01*
X10191428Y-14067857D01*
X10205714Y-14039286D01*
X10220000Y-14025000D01*
X10248571Y-14010714D01*
X10634286Y-14310714D02*
X10462857Y-14310714D01*
X10548571Y-14310714D02*
X10548571Y-14010714D01*
X10520000Y-14053571D01*
X10491428Y-14082143D01*
X10462857Y-14096429D01*
X10891428Y-14010714D02*
X10834286Y-14010714D01*
X10805714Y-14025000D01*
X10791428Y-14039286D01*
X10762857Y-14082143D01*
X10748571Y-14139286D01*
X10748571Y-14253571D01*
X10762857Y-14282143D01*
X10777143Y-14296429D01*
X10805714Y-14310714D01*
X10862857Y-14310714D01*
X10891428Y-14296429D01*
X10905714Y-14282143D01*
X10920000Y-14253571D01*
X10920000Y-14182143D01*
X10905714Y-14153571D01*
X10891428Y-14139286D01*
X10862857Y-14125000D01*
X10805714Y-14125000D01*
X10777143Y-14139286D01*
X10762857Y-14153571D01*
X10748571Y-14182143D01*
X11034286Y-14010714D02*
X11034286Y-14067857D01*
X11148571Y-14010714D02*
X11148571Y-14067857D01*
X11591428Y-14425000D02*
X11577143Y-14410714D01*
X11548571Y-14367857D01*
X11534286Y-14339286D01*
X11520000Y-14296429D01*
X11505714Y-14225000D01*
X11505714Y-14167857D01*
X11520000Y-14096429D01*
X11534286Y-14053571D01*
X11548571Y-14025000D01*
X11577143Y-13982143D01*
X11591428Y-13967857D01*
X11677143Y-14010714D02*
X11877143Y-14010714D01*
X11748571Y-14310714D01*
X11962857Y-14010714D02*
X12162857Y-14010714D01*
X12034286Y-14310714D01*
X12505714Y-14310714D02*
X12505714Y-14010714D01*
X12634286Y-14310714D02*
X12634286Y-14153571D01*
X12620000Y-14125000D01*
X12591428Y-14110714D01*
X12548571Y-14110714D01*
X12520000Y-14125000D01*
X12505714Y-14139286D01*
X12820000Y-14310714D02*
X12791428Y-14296429D01*
X12777143Y-14282143D01*
X12762857Y-14253571D01*
X12762857Y-14167857D01*
X12777143Y-14139286D01*
X12791428Y-14125000D01*
X12820000Y-14110714D01*
X12862857Y-14110714D01*
X12891428Y-14125000D01*
X12905714Y-14139286D01*
X12920000Y-14167857D01*
X12920000Y-14253571D01*
X12905714Y-14282143D01*
X12891428Y-14296429D01*
X12862857Y-14310714D01*
X12820000Y-14310714D01*
X13091428Y-14310714D02*
X13062857Y-14296429D01*
X13048571Y-14267857D01*
X13048571Y-14010714D01*
X13320000Y-14296429D02*
X13291428Y-14310714D01*
X13234286Y-14310714D01*
X13205714Y-14296429D01*
X13191428Y-14267857D01*
X13191428Y-14153571D01*
X13205714Y-14125000D01*
X13234286Y-14110714D01*
X13291428Y-14110714D01*
X13320000Y-14125000D01*
X13334286Y-14153571D01*
X13334286Y-14182143D01*
X13191428Y-14210714D01*
X13448571Y-14296429D02*
X13477143Y-14310714D01*
X13534286Y-14310714D01*
X13562857Y-14296429D01*
X13577143Y-14267857D01*
X13577143Y-14253571D01*
X13562857Y-14225000D01*
X13534286Y-14210714D01*
X13491428Y-14210714D01*
X13462857Y-14196429D01*
X13448571Y-14167857D01*
X13448571Y-14153571D01*
X13462857Y-14125000D01*
X13491428Y-14110714D01*
X13534286Y-14110714D01*
X13562857Y-14125000D01*
X13677143Y-14425000D02*
X13691428Y-14410714D01*
X13720000Y-14367857D01*
X13734286Y-14339286D01*
X13748571Y-14296429D01*
X13762857Y-14225000D01*
X13762857Y-14167857D01*
X13748571Y-14096429D01*
X13734286Y-14053571D01*
X13720000Y-14025000D01*
X13691428Y-13982143D01*
X13677143Y-13967857D01*
X6905000Y-14571000D02*
G75*
G03*
X6905000Y-14571000I-50000J0D01*
G01*
X7348571Y-14706714D02*
X7177143Y-14706714D01*
X7262857Y-14706714D02*
X7262857Y-14406714D01*
X7234286Y-14449571D01*
X7205714Y-14478143D01*
X7177143Y-14492429D01*
X7477143Y-14678143D02*
X7491428Y-14692429D01*
X7477143Y-14706714D01*
X7462857Y-14692429D01*
X7477143Y-14678143D01*
X7477143Y-14706714D01*
X7677143Y-14406714D02*
X7705714Y-14406714D01*
X7734286Y-14421000D01*
X7748571Y-14435286D01*
X7762857Y-14463857D01*
X7777143Y-14521000D01*
X7777143Y-14592429D01*
X7762857Y-14649571D01*
X7748571Y-14678143D01*
X7734286Y-14692429D01*
X7705714Y-14706714D01*
X7677143Y-14706714D01*
X7648571Y-14692429D01*
X7634286Y-14678143D01*
X7620000Y-14649571D01*
X7605714Y-14592429D01*
X7605714Y-14521000D01*
X7620000Y-14463857D01*
X7634286Y-14435286D01*
X7648571Y-14421000D01*
X7677143Y-14406714D01*
X7962857Y-14406714D02*
X7991428Y-14406714D01*
X8020000Y-14421000D01*
X8034286Y-14435286D01*
X8048571Y-14463857D01*
X8062857Y-14521000D01*
X8062857Y-14592429D01*
X8048571Y-14649571D01*
X8034286Y-14678143D01*
X8020000Y-14692429D01*
X7991428Y-14706714D01*
X7962857Y-14706714D01*
X7934286Y-14692429D01*
X7920000Y-14678143D01*
X7905714Y-14649571D01*
X7891428Y-14592429D01*
X7891428Y-14521000D01*
X7905714Y-14463857D01*
X7920000Y-14435286D01*
X7934286Y-14421000D01*
X7962857Y-14406714D01*
X8191428Y-14706714D02*
X8191428Y-14506714D01*
X8191428Y-14535286D02*
X8205714Y-14521000D01*
X8234286Y-14506714D01*
X8277143Y-14506714D01*
X8305714Y-14521000D01*
X8320000Y-14549571D01*
X8320000Y-14706714D01*
X8320000Y-14549571D02*
X8334286Y-14521000D01*
X8362857Y-14506714D01*
X8405714Y-14506714D01*
X8434286Y-14521000D01*
X8448571Y-14549571D01*
X8448571Y-14706714D01*
X8591428Y-14706714D02*
X8591428Y-14506714D01*
X8591428Y-14535286D02*
X8605714Y-14521000D01*
X8634286Y-14506714D01*
X8677143Y-14506714D01*
X8705714Y-14521000D01*
X8720000Y-14549571D01*
X8720000Y-14706714D01*
X8720000Y-14549571D02*
X8734286Y-14521000D01*
X8762857Y-14506714D01*
X8805714Y-14506714D01*
X8834286Y-14521000D01*
X8848571Y-14549571D01*
X8848571Y-14706714D01*
X9434286Y-14392429D02*
X9177143Y-14778143D01*
X9820000Y-14406714D02*
X9848571Y-14406714D01*
X9877143Y-14421000D01*
X9891428Y-14435286D01*
X9905714Y-14463857D01*
X9920000Y-14521000D01*
X9920000Y-14592429D01*
X9905714Y-14649571D01*
X9891428Y-14678143D01*
X9877143Y-14692429D01*
X9848571Y-14706714D01*
X9820000Y-14706714D01*
X9791428Y-14692429D01*
X9777143Y-14678143D01*
X9762857Y-14649571D01*
X9748571Y-14592429D01*
X9748571Y-14521000D01*
X9762857Y-14463857D01*
X9777143Y-14435286D01*
X9791428Y-14421000D01*
X9820000Y-14406714D01*
X10048571Y-14678143D02*
X10062857Y-14692429D01*
X10048571Y-14706714D01*
X10034286Y-14692429D01*
X10048571Y-14678143D01*
X10048571Y-14706714D01*
X10248571Y-14406714D02*
X10277143Y-14406714D01*
X10305714Y-14421000D01*
X10320000Y-14435286D01*
X10334286Y-14463857D01*
X10348571Y-14521000D01*
X10348571Y-14592429D01*
X10334286Y-14649571D01*
X10320000Y-14678143D01*
X10305714Y-14692429D01*
X10277143Y-14706714D01*
X10248571Y-14706714D01*
X10220000Y-14692429D01*
X10205714Y-14678143D01*
X10191428Y-14649571D01*
X10177143Y-14592429D01*
X10177143Y-14521000D01*
X10191428Y-14463857D01*
X10205714Y-14435286D01*
X10220000Y-14421000D01*
X10248571Y-14406714D01*
X10448571Y-14406714D02*
X10634286Y-14406714D01*
X10534286Y-14521000D01*
X10577143Y-14521000D01*
X10605714Y-14535286D01*
X10620000Y-14549571D01*
X10634286Y-14578143D01*
X10634286Y-14649571D01*
X10620000Y-14678143D01*
X10605714Y-14692429D01*
X10577143Y-14706714D01*
X10491428Y-14706714D01*
X10462857Y-14692429D01*
X10448571Y-14678143D01*
X10777143Y-14706714D02*
X10834286Y-14706714D01*
X10862857Y-14692429D01*
X10877143Y-14678143D01*
X10905714Y-14635286D01*
X10920000Y-14578143D01*
X10920000Y-14463857D01*
X10905714Y-14435286D01*
X10891428Y-14421000D01*
X10862857Y-14406714D01*
X10805714Y-14406714D01*
X10777143Y-14421000D01*
X10762857Y-14435286D01*
X10748571Y-14463857D01*
X10748571Y-14535286D01*
X10762857Y-14563857D01*
X10777143Y-14578143D01*
X10805714Y-14592429D01*
X10862857Y-14592429D01*
X10891428Y-14578143D01*
X10905714Y-14563857D01*
X10920000Y-14535286D01*
X11034286Y-14406714D02*
X11034286Y-14463857D01*
X11148571Y-14406714D02*
X11148571Y-14463857D01*
X11591428Y-14821000D02*
X11577143Y-14806714D01*
X11548571Y-14763857D01*
X11534286Y-14735286D01*
X11520000Y-14692429D01*
X11505714Y-14621000D01*
X11505714Y-14563857D01*
X11520000Y-14492429D01*
X11534286Y-14449571D01*
X11548571Y-14421000D01*
X11577143Y-14378143D01*
X11591428Y-14363857D01*
X11748571Y-14535286D02*
X11720000Y-14521000D01*
X11705714Y-14506714D01*
X11691428Y-14478143D01*
X11691428Y-14463857D01*
X11705714Y-14435286D01*
X11720000Y-14421000D01*
X11748571Y-14406714D01*
X11805714Y-14406714D01*
X11834286Y-14421000D01*
X11848571Y-14435286D01*
X11862857Y-14463857D01*
X11862857Y-14478143D01*
X11848571Y-14506714D01*
X11834286Y-14521000D01*
X11805714Y-14535286D01*
X11748571Y-14535286D01*
X11720000Y-14549571D01*
X11705714Y-14563857D01*
X11691428Y-14592429D01*
X11691428Y-14649571D01*
X11705714Y-14678143D01*
X11720000Y-14692429D01*
X11748571Y-14706714D01*
X11805714Y-14706714D01*
X11834286Y-14692429D01*
X11848571Y-14678143D01*
X11862857Y-14649571D01*
X11862857Y-14592429D01*
X11848571Y-14563857D01*
X11834286Y-14549571D01*
X11805714Y-14535286D01*
X12120000Y-14506714D02*
X12120000Y-14706714D01*
X12048571Y-14392429D02*
X11977143Y-14606714D01*
X12162857Y-14606714D01*
X12505714Y-14706714D02*
X12505714Y-14406714D01*
X12634286Y-14706714D02*
X12634286Y-14549571D01*
X12620000Y-14521000D01*
X12591428Y-14506714D01*
X12548571Y-14506714D01*
X12520000Y-14521000D01*
X12505714Y-14535286D01*
X12820000Y-14706714D02*
X12791428Y-14692429D01*
X12777143Y-14678143D01*
X12762857Y-14649571D01*
X12762857Y-14563857D01*
X12777143Y-14535286D01*
X12791428Y-14521000D01*
X12820000Y-14506714D01*
X12862857Y-14506714D01*
X12891428Y-14521000D01*
X12905714Y-14535286D01*
X12920000Y-14563857D01*
X12920000Y-14649571D01*
X12905714Y-14678143D01*
X12891428Y-14692429D01*
X12862857Y-14706714D01*
X12820000Y-14706714D01*
X13091428Y-14706714D02*
X13062857Y-14692429D01*
X13048571Y-14663857D01*
X13048571Y-14406714D01*
X13320000Y-14692429D02*
X13291428Y-14706714D01*
X13234286Y-14706714D01*
X13205714Y-14692429D01*
X13191428Y-14663857D01*
X13191428Y-14549571D01*
X13205714Y-14521000D01*
X13234286Y-14506714D01*
X13291428Y-14506714D01*
X13320000Y-14521000D01*
X13334286Y-14549571D01*
X13334286Y-14578143D01*
X13191428Y-14606714D01*
X13448571Y-14692429D02*
X13477143Y-14706714D01*
X13534286Y-14706714D01*
X13562857Y-14692429D01*
X13577143Y-14663857D01*
X13577143Y-14649571D01*
X13562857Y-14621000D01*
X13534286Y-14606714D01*
X13491428Y-14606714D01*
X13462857Y-14592429D01*
X13448571Y-14563857D01*
X13448571Y-14549571D01*
X13462857Y-14521000D01*
X13491428Y-14506714D01*
X13534286Y-14506714D01*
X13562857Y-14521000D01*
X13677143Y-14821000D02*
X13691428Y-14806714D01*
X13720000Y-14763857D01*
X13734286Y-14735286D01*
X13748571Y-14692429D01*
X13762857Y-14621000D01*
X13762857Y-14563857D01*
X13748571Y-14492429D01*
X13734286Y-14449571D01*
X13720000Y-14421000D01*
X13691428Y-14378143D01*
X13677143Y-14363857D01*
X6840000Y-14902000D02*
X6840000Y-15032000D01*
X6775000Y-14967000D02*
X6905000Y-14967000D01*
X7348571Y-15102714D02*
X7177143Y-15102714D01*
X7262857Y-15102714D02*
X7262857Y-14802714D01*
X7234286Y-14845571D01*
X7205714Y-14874143D01*
X7177143Y-14888429D01*
X7477143Y-15074143D02*
X7491428Y-15088429D01*
X7477143Y-15102714D01*
X7462857Y-15088429D01*
X7477143Y-15074143D01*
X7477143Y-15102714D01*
X7591428Y-14802714D02*
X7777143Y-14802714D01*
X7677143Y-14917000D01*
X7720000Y-14917000D01*
X7748571Y-14931286D01*
X7762857Y-14945571D01*
X7777143Y-14974143D01*
X7777143Y-15045571D01*
X7762857Y-15074143D01*
X7748571Y-15088429D01*
X7720000Y-15102714D01*
X7634286Y-15102714D01*
X7605714Y-15088429D01*
X7591428Y-15074143D01*
X7962857Y-14802714D02*
X7991428Y-14802714D01*
X8020000Y-14817000D01*
X8034286Y-14831286D01*
X8048571Y-14859857D01*
X8062857Y-14917000D01*
X8062857Y-14988429D01*
X8048571Y-15045571D01*
X8034286Y-15074143D01*
X8020000Y-15088429D01*
X7991428Y-15102714D01*
X7962857Y-15102714D01*
X7934286Y-15088429D01*
X7920000Y-15074143D01*
X7905714Y-15045571D01*
X7891428Y-14988429D01*
X7891428Y-14917000D01*
X7905714Y-14859857D01*
X7920000Y-14831286D01*
X7934286Y-14817000D01*
X7962857Y-14802714D01*
X8191428Y-15102714D02*
X8191428Y-14902714D01*
X8191428Y-14931286D02*
X8205714Y-14917000D01*
X8234286Y-14902714D01*
X8277143Y-14902714D01*
X8305714Y-14917000D01*
X8320000Y-14945571D01*
X8320000Y-15102714D01*
X8320000Y-14945571D02*
X8334286Y-14917000D01*
X8362857Y-14902714D01*
X8405714Y-14902714D01*
X8434286Y-14917000D01*
X8448571Y-14945571D01*
X8448571Y-15102714D01*
X8591428Y-15102714D02*
X8591428Y-14902714D01*
X8591428Y-14931286D02*
X8605714Y-14917000D01*
X8634286Y-14902714D01*
X8677143Y-14902714D01*
X8705714Y-14917000D01*
X8720000Y-14945571D01*
X8720000Y-15102714D01*
X8720000Y-14945571D02*
X8734286Y-14917000D01*
X8762857Y-14902714D01*
X8805714Y-14902714D01*
X8834286Y-14917000D01*
X8848571Y-14945571D01*
X8848571Y-15102714D01*
X9434286Y-14788429D02*
X9177143Y-15174143D01*
X9820000Y-14802714D02*
X9848571Y-14802714D01*
X9877143Y-14817000D01*
X9891428Y-14831286D01*
X9905714Y-14859857D01*
X9920000Y-14917000D01*
X9920000Y-14988429D01*
X9905714Y-15045571D01*
X9891428Y-15074143D01*
X9877143Y-15088429D01*
X9848571Y-15102714D01*
X9820000Y-15102714D01*
X9791428Y-15088429D01*
X9777143Y-15074143D01*
X9762857Y-15045571D01*
X9748571Y-14988429D01*
X9748571Y-14917000D01*
X9762857Y-14859857D01*
X9777143Y-14831286D01*
X9791428Y-14817000D01*
X9820000Y-14802714D01*
X10048571Y-15074143D02*
X10062857Y-15088429D01*
X10048571Y-15102714D01*
X10034286Y-15088429D01*
X10048571Y-15074143D01*
X10048571Y-15102714D01*
X10248571Y-14802714D02*
X10277143Y-14802714D01*
X10305714Y-14817000D01*
X10320000Y-14831286D01*
X10334286Y-14859857D01*
X10348571Y-14917000D01*
X10348571Y-14988429D01*
X10334286Y-15045571D01*
X10320000Y-15074143D01*
X10305714Y-15088429D01*
X10277143Y-15102714D01*
X10248571Y-15102714D01*
X10220000Y-15088429D01*
X10205714Y-15074143D01*
X10191428Y-15045571D01*
X10177143Y-14988429D01*
X10177143Y-14917000D01*
X10191428Y-14859857D01*
X10205714Y-14831286D01*
X10220000Y-14817000D01*
X10248571Y-14802714D01*
X10620000Y-14802714D02*
X10477143Y-14802714D01*
X10462857Y-14945571D01*
X10477143Y-14931286D01*
X10505714Y-14917000D01*
X10577143Y-14917000D01*
X10605714Y-14931286D01*
X10620000Y-14945571D01*
X10634286Y-14974143D01*
X10634286Y-15045571D01*
X10620000Y-15074143D01*
X10605714Y-15088429D01*
X10577143Y-15102714D01*
X10505714Y-15102714D01*
X10477143Y-15088429D01*
X10462857Y-15074143D01*
X10920000Y-15102714D02*
X10748571Y-15102714D01*
X10834286Y-15102714D02*
X10834286Y-14802714D01*
X10805714Y-14845571D01*
X10777143Y-14874143D01*
X10748571Y-14888429D01*
X11034286Y-14802714D02*
X11034286Y-14859857D01*
X11148571Y-14802714D02*
X11148571Y-14859857D01*
X11591428Y-15217000D02*
X11577143Y-15202714D01*
X11548571Y-15159857D01*
X11534286Y-15131286D01*
X11520000Y-15088429D01*
X11505714Y-15017000D01*
X11505714Y-14959857D01*
X11520000Y-14888429D01*
X11534286Y-14845571D01*
X11548571Y-14817000D01*
X11577143Y-14774143D01*
X11591428Y-14759857D01*
X11862857Y-15102714D02*
X11691428Y-15102714D01*
X11777143Y-15102714D02*
X11777143Y-14802714D01*
X11748571Y-14845571D01*
X11720000Y-14874143D01*
X11691428Y-14888429D01*
X12120000Y-14902714D02*
X12120000Y-15102714D01*
X12048571Y-14788429D02*
X11977143Y-15002714D01*
X12162857Y-15002714D01*
X12505714Y-15102714D02*
X12505714Y-14802714D01*
X12634286Y-15102714D02*
X12634286Y-14945571D01*
X12620000Y-14917000D01*
X12591428Y-14902714D01*
X12548571Y-14902714D01*
X12520000Y-14917000D01*
X12505714Y-14931286D01*
X12820000Y-15102714D02*
X12791428Y-15088429D01*
X12777143Y-15074143D01*
X12762857Y-15045571D01*
X12762857Y-14959857D01*
X12777143Y-14931286D01*
X12791428Y-14917000D01*
X12820000Y-14902714D01*
X12862857Y-14902714D01*
X12891428Y-14917000D01*
X12905714Y-14931286D01*
X12920000Y-14959857D01*
X12920000Y-15045571D01*
X12905714Y-15074143D01*
X12891428Y-15088429D01*
X12862857Y-15102714D01*
X12820000Y-15102714D01*
X13091428Y-15102714D02*
X13062857Y-15088429D01*
X13048571Y-15059857D01*
X13048571Y-14802714D01*
X13320000Y-15088429D02*
X13291428Y-15102714D01*
X13234286Y-15102714D01*
X13205714Y-15088429D01*
X13191428Y-15059857D01*
X13191428Y-14945571D01*
X13205714Y-14917000D01*
X13234286Y-14902714D01*
X13291428Y-14902714D01*
X13320000Y-14917000D01*
X13334286Y-14945571D01*
X13334286Y-14974143D01*
X13191428Y-15002714D01*
X13448571Y-15088429D02*
X13477143Y-15102714D01*
X13534286Y-15102714D01*
X13562857Y-15088429D01*
X13577143Y-15059857D01*
X13577143Y-15045571D01*
X13562857Y-15017000D01*
X13534286Y-15002714D01*
X13491428Y-15002714D01*
X13462857Y-14988429D01*
X13448571Y-14959857D01*
X13448571Y-14945571D01*
X13462857Y-14917000D01*
X13491428Y-14902714D01*
X13534286Y-14902714D01*
X13562857Y-14917000D01*
X13677143Y-15217000D02*
X13691428Y-15202714D01*
X13720000Y-15159857D01*
X13734286Y-15131286D01*
X13748571Y-15088429D01*
X13762857Y-15017000D01*
X13762857Y-14959857D01*
X13748571Y-14888429D01*
X13734286Y-14845571D01*
X13720000Y-14817000D01*
X13691428Y-14774143D01*
X13677143Y-14759857D01*
X6870000Y-15447500D02*
X6870000Y-15278500D01*
X6701000Y-15278500D01*
X6701000Y-15447500D01*
X6870000Y-15447500D01*
X7177143Y-15227286D02*
X7191428Y-15213000D01*
X7220000Y-15198714D01*
X7291428Y-15198714D01*
X7320000Y-15213000D01*
X7334286Y-15227286D01*
X7348571Y-15255857D01*
X7348571Y-15284429D01*
X7334286Y-15327286D01*
X7162857Y-15498714D01*
X7348571Y-15498714D01*
X7477143Y-15470143D02*
X7491428Y-15484429D01*
X7477143Y-15498714D01*
X7462857Y-15484429D01*
X7477143Y-15470143D01*
X7477143Y-15498714D01*
X7591428Y-15198714D02*
X7777143Y-15198714D01*
X7677143Y-15313000D01*
X7720000Y-15313000D01*
X7748571Y-15327286D01*
X7762857Y-15341571D01*
X7777143Y-15370143D01*
X7777143Y-15441571D01*
X7762857Y-15470143D01*
X7748571Y-15484429D01*
X7720000Y-15498714D01*
X7634286Y-15498714D01*
X7605714Y-15484429D01*
X7591428Y-15470143D01*
X7920000Y-15498714D02*
X7977143Y-15498714D01*
X8005714Y-15484429D01*
X8020000Y-15470143D01*
X8048571Y-15427286D01*
X8062857Y-15370143D01*
X8062857Y-15255857D01*
X8048571Y-15227286D01*
X8034286Y-15213000D01*
X8005714Y-15198714D01*
X7948571Y-15198714D01*
X7920000Y-15213000D01*
X7905714Y-15227286D01*
X7891428Y-15255857D01*
X7891428Y-15327286D01*
X7905714Y-15355857D01*
X7920000Y-15370143D01*
X7948571Y-15384429D01*
X8005714Y-15384429D01*
X8034286Y-15370143D01*
X8048571Y-15355857D01*
X8062857Y-15327286D01*
X8191428Y-15498714D02*
X8191428Y-15298714D01*
X8191428Y-15327286D02*
X8205714Y-15313000D01*
X8234286Y-15298714D01*
X8277143Y-15298714D01*
X8305714Y-15313000D01*
X8320000Y-15341571D01*
X8320000Y-15498714D01*
X8320000Y-15341571D02*
X8334286Y-15313000D01*
X8362857Y-15298714D01*
X8405714Y-15298714D01*
X8434286Y-15313000D01*
X8448571Y-15341571D01*
X8448571Y-15498714D01*
X8591428Y-15498714D02*
X8591428Y-15298714D01*
X8591428Y-15327286D02*
X8605714Y-15313000D01*
X8634286Y-15298714D01*
X8677143Y-15298714D01*
X8705714Y-15313000D01*
X8720000Y-15341571D01*
X8720000Y-15498714D01*
X8720000Y-15341571D02*
X8734286Y-15313000D01*
X8762857Y-15298714D01*
X8805714Y-15298714D01*
X8834286Y-15313000D01*
X8848571Y-15341571D01*
X8848571Y-15498714D01*
X9434286Y-15184429D02*
X9177143Y-15570143D01*
X9820000Y-15198714D02*
X9848571Y-15198714D01*
X9877143Y-15213000D01*
X9891428Y-15227286D01*
X9905714Y-15255857D01*
X9920000Y-15313000D01*
X9920000Y-15384429D01*
X9905714Y-15441571D01*
X9891428Y-15470143D01*
X9877143Y-15484429D01*
X9848571Y-15498714D01*
X9820000Y-15498714D01*
X9791428Y-15484429D01*
X9777143Y-15470143D01*
X9762857Y-15441571D01*
X9748571Y-15384429D01*
X9748571Y-15313000D01*
X9762857Y-15255857D01*
X9777143Y-15227286D01*
X9791428Y-15213000D01*
X9820000Y-15198714D01*
X10048571Y-15470143D02*
X10062857Y-15484429D01*
X10048571Y-15498714D01*
X10034286Y-15484429D01*
X10048571Y-15470143D01*
X10048571Y-15498714D01*
X10248571Y-15198714D02*
X10277143Y-15198714D01*
X10305714Y-15213000D01*
X10320000Y-15227286D01*
X10334286Y-15255857D01*
X10348571Y-15313000D01*
X10348571Y-15384429D01*
X10334286Y-15441571D01*
X10320000Y-15470143D01*
X10305714Y-15484429D01*
X10277143Y-15498714D01*
X10248571Y-15498714D01*
X10220000Y-15484429D01*
X10205714Y-15470143D01*
X10191428Y-15441571D01*
X10177143Y-15384429D01*
X10177143Y-15313000D01*
X10191428Y-15255857D01*
X10205714Y-15227286D01*
X10220000Y-15213000D01*
X10248571Y-15198714D01*
X10491428Y-15498714D02*
X10548571Y-15498714D01*
X10577143Y-15484429D01*
X10591428Y-15470143D01*
X10620000Y-15427286D01*
X10634286Y-15370143D01*
X10634286Y-15255857D01*
X10620000Y-15227286D01*
X10605714Y-15213000D01*
X10577143Y-15198714D01*
X10520000Y-15198714D01*
X10491428Y-15213000D01*
X10477143Y-15227286D01*
X10462857Y-15255857D01*
X10462857Y-15327286D01*
X10477143Y-15355857D01*
X10491428Y-15370143D01*
X10520000Y-15384429D01*
X10577143Y-15384429D01*
X10605714Y-15370143D01*
X10620000Y-15355857D01*
X10634286Y-15327286D01*
X10891428Y-15298714D02*
X10891428Y-15498714D01*
X10820000Y-15184429D02*
X10748571Y-15398714D01*
X10934286Y-15398714D01*
X11034286Y-15198714D02*
X11034286Y-15255857D01*
X11148571Y-15198714D02*
X11148571Y-15255857D01*
X11591428Y-15613000D02*
X11577143Y-15598714D01*
X11548571Y-15555857D01*
X11534286Y-15527286D01*
X11520000Y-15484429D01*
X11505714Y-15413000D01*
X11505714Y-15355857D01*
X11520000Y-15284429D01*
X11534286Y-15241571D01*
X11548571Y-15213000D01*
X11577143Y-15170143D01*
X11591428Y-15155857D01*
X11862857Y-15498714D02*
X11691428Y-15498714D01*
X11777143Y-15498714D02*
X11777143Y-15198714D01*
X11748571Y-15241571D01*
X11720000Y-15270143D01*
X11691428Y-15284429D01*
X12220000Y-15498714D02*
X12220000Y-15198714D01*
X12348571Y-15498714D02*
X12348571Y-15341571D01*
X12334286Y-15313000D01*
X12305714Y-15298714D01*
X12262857Y-15298714D01*
X12234286Y-15313000D01*
X12220000Y-15327286D01*
X12534286Y-15498714D02*
X12505714Y-15484429D01*
X12491428Y-15470143D01*
X12477143Y-15441571D01*
X12477143Y-15355857D01*
X12491428Y-15327286D01*
X12505714Y-15313000D01*
X12534286Y-15298714D01*
X12577143Y-15298714D01*
X12605714Y-15313000D01*
X12620000Y-15327286D01*
X12634286Y-15355857D01*
X12634286Y-15441571D01*
X12620000Y-15470143D01*
X12605714Y-15484429D01*
X12577143Y-15498714D01*
X12534286Y-15498714D01*
X12805714Y-15498714D02*
X12777143Y-15484429D01*
X12762857Y-15455857D01*
X12762857Y-15198714D01*
X13034286Y-15484429D02*
X13005714Y-15498714D01*
X12948571Y-15498714D01*
X12920000Y-15484429D01*
X12905714Y-15455857D01*
X12905714Y-15341571D01*
X12920000Y-15313000D01*
X12948571Y-15298714D01*
X13005714Y-15298714D01*
X13034286Y-15313000D01*
X13048571Y-15341571D01*
X13048571Y-15370143D01*
X12905714Y-15398714D01*
X13148571Y-15613000D02*
X13162857Y-15598714D01*
X13191428Y-15555857D01*
X13205714Y-15527286D01*
X13220000Y-15484429D01*
X13234286Y-15413000D01*
X13234286Y-15355857D01*
X13220000Y-15284429D01*
X13205714Y-15241571D01*
X13191428Y-15213000D01*
X13162857Y-15170143D01*
X13148571Y-15155857D01*
M02*
